<svg id="Layer_1" data-name="Layer 1" xmlns="http://www.w3.org/2000/svg" viewBox="0 0 150 150"><defs><style>.cls-1,.cls-2{fill:#181616;}.cls-1{fill-rule:evenodd;}</style></defs><title>githubLogo</title><path class="cls-1" d="M75.94,4.65A72.48,72.48,0,0,0,53,145.88c3.63.67,5-1.57,5-3.49,0-1.72-.07-7.43-.1-13.49-20.16,4.39-24.42-8.55-24.42-8.55-3.29-8.37-8-10.6-8-10.6-6.58-4.5.49-4.41.49-4.41,7.28.51,11.11,7.47,11.11,7.47,6.46,11.08,16.95,7.88,21.09,6,.65-4.68,2.53-7.88,4.6-9.69-16.1-1.83-33-8-33-35.81a28.08,28.08,0,0,1,7.47-19.45c-.75-1.82-3.23-9.19.7-19.18,0,0,6.09-1.94,19.94,7.43a68.69,68.69,0,0,1,36.29,0C107.93,32.76,114,34.7,114,34.7c3.94,10,1.46,17.36.71,19.18a28,28,0,0,1,7.45,19.45c0,27.84-17,34-33.08,35.76,2.59,2.25,4.91,6.66,4.91,13.42,0,9.69-.08,17.5-.08,19.88,0,1.93,1.3,4.19,5,3.48a72.48,72.48,0,0,0-23-141.22Z"/><path class="cls-2" d="M30.93,108.7c-.16.36-.73.46-1.25.22s-.82-.73-.65-1.09.73-.48,1.25-.23.83.73.65,1.1ZM30,108"/><path class="cls-2" d="M33.86,112c-.35.32-1,.17-1.48-.34s-.56-1.18-.21-1.5,1-.17,1.48.33.57,1.19.21,1.51Zm-.69-.74"/><path class="cls-2" d="M36.72,116.14c-.45.31-1.17,0-1.62-.62s-.45-1.42,0-1.73,1.16,0,1.62.61.44,1.43,0,1.74Zm0,0"/><path class="cls-2" d="M40.63,120.18a1.36,1.36,0,0,1-1.86-.28c-.63-.59-.81-1.42-.41-1.85s1.25-.32,1.87.27.82,1.42.4,1.86Zm0,0"/><path class="cls-2" d="M46,122.52c-.17.56-1,.82-1.81.58s-1.35-.91-1.19-1.49,1-.84,1.82-.58,1.35.91,1.18,1.49Zm0,0"/><path class="cls-2" d="M52,123c0,.6-.67,1.09-1.53,1.1s-1.57-.46-1.58-1,.68-1.09,1.54-1.11S52,122.36,52,123Zm0,0"/><path class="cls-2" d="M57.48,122c.1.58-.49,1.18-1.35,1.34s-1.62-.2-1.73-.78.51-1.2,1.35-1.35,1.62.2,1.73.79Zm0,0"/></svg>