<svg id="Astro" xmlns="http://www.w3.org/2000/svg" viewBox="0 0 792 612"><defs><style>.cls-1{font-size:15px;fill:#231f20;font-family:NudistaLight, Nudista;}.cls-2{letter-spacing:-0.02em;}.cls-3{letter-spacing:-0.01em;}.cls-4,.cls-7{font-size:21px;}.cls-4{font-family:Rift-Light, Rift;}.cls-5{letter-spacing:-0.01em;}.cls-6{letter-spacing:0em;}.cls-7{font-family:Rift-Regular, Rift;}.cls-8{letter-spacing:-0.01em;}.cls-9{letter-spacing:-0.06em;}.cls-10{letter-spacing:-0.01em;}.cls-11{letter-spacing:-0.06em;}.cls-12{letter-spacing:-0.06em;}</style></defs><title>SOAPS.2</title><text class="cls-1" transform="translate(24.02 48.61)">The Spring One <tspan class="cls-2" x="106.59" y="0">Ac</tspan><tspan x="122.86" y="0">t Pl</tspan><tspan class="cls-3" x="144.69" y="0">a</tspan><tspan x="152.38" y="0">y </tspan><tspan class="cls-2" x="164.88" y="0">F</tspan><tspan x="171.9" y="0">e</tspan><tspan class="cls-2" x="179.88" y="0">s</tspan><tspan x="187.44" y="0">ti</tspan><tspan class="cls-2" x="196.12" y="0">v</tspan><tspan x="203.82" y="0">al is an annual theater sh</tspan><tspan class="cls-3" x="372.42" y="0">o</tspan><tspan x="380.24" y="0">w at Bard High School Early College Queens, where </tspan><tspan class="cls-2" x="0" y="18">s</tspan><tspan x="7.56" y="18">tudents dire</tspan><tspan class="cls-2" x="88.36" y="18">c</tspan><tspan x="95.89" y="18">t One-</tspan><tspan class="cls-2" x="136.02" y="18">Ac</tspan><tspan x="152.29" y="18">t Pl</tspan><tspan class="cls-3" x="174.12" y="18">a</tspan><tspan class="cls-2" x="181.81" y="18">y</tspan><tspan x="189.51" y="18">s chosen </tspan><tspan class="cls-2" x="254.61" y="18">b</tspan><tspan x="262.45" y="18">y them.</tspan><tspan class="cls-4"><tspan x="0" y="68.4">R</tspan><tspan class="cls-5" x="9.47" y="68.4">e</tspan><tspan x="17.37" y="68.4">sponsibiliti</tspan><tspan class="cls-5" x="103" y="68.4">e</tspan><tspan x="110.9" y="68.4">s inc</tspan><tspan class="cls-6" x="146.11" y="68.4">l</tspan><tspan x="153.32" y="68.4">uded:</tspan></tspan><tspan x="0" y="104.4">+ Ca</tspan><tspan class="cls-2" x="29.71" y="104.4">s</tspan><tspan x="37.27" y="104.4">ting through multi-d</tspan><tspan class="cls-3" x="167.02" y="104.4">a</tspan><tspan x="174.72" y="104.4">y auditions</tspan><tspan x="0" y="122.4">+ Scheduling, creating, leading rehearsal routines</tspan><tspan x="0" y="140.4">+ Guiding a</tspan><tspan class="cls-2" x="72.97" y="140.4">c</tspan><tspan x="80.5" y="140.4">tors to create their </tspan><tspan class="cls-3" x="211.68" y="140.4">o</tspan><tspan x="219.5" y="140.4">wn decisions regarding chara</tspan><tspan class="cls-2" x="413.84" y="140.4">c</tspan><tspan x="421.37" y="140.4">ter d</tspan><tspan class="cls-2" x="452.91" y="140.4">ev</tspan><tspan x="468.29" y="140.4">elopment</tspan><tspan x="0" y="158.4">+ Co</tspan><tspan class="cls-2" x="29.85" y="158.4">s</tspan><tspan x="37.41" y="158.4">tume, S</tspan><tspan class="cls-2" x="88.44" y="158.4">et</tspan><tspan x="101.59" y="158.4">, Sound, Lighting Design</tspan><tspan class="cls-7"><tspan x="0" y="219.6">Abou</tspan><tspan class="cls-8" x="37.07" y="219.6">t</tspan><tspan x="44.29" y="219.6" xml:space="preserve"> The Pl</tspan><tspan class="cls-9" x="92.65" y="219.6">a</tspan><tspan class="cls-8" x="100.29" y="219.6">y</tspan></tspan><tspan x="0" y="255.6">Linda Her takes place in a summer </tspan><tspan class="cls-2" x="232.92" y="255.6">v</tspan><tspan x="240.61" y="255.6">acation house. Carol, a </tspan><tspan class="cls-3" x="394.88" y="255.6">w</tspan><tspan x="406.79" y="255.6">oman in her 30&apos;s, cann</tspan><tspan class="cls-2" x="557.76" y="255.6">o</tspan><tspan x="565.44" y="255.6">t sleep during the night </tspan><tspan x="0" y="273.6">and although tries speaking to her husband, her husband continues sleeping. Jan</tspan><tspan class="cls-2" x="539.56" y="273.6">et</tspan><tspan x="552.72" y="273.6">, Carol&apos;s be</tspan><tspan class="cls-2" x="625.24" y="273.6">s</tspan><tspan x="632.8" y="273.6">t friend from </tspan><tspan x="0" y="291.6">elementary school, a </tspan><tspan class="cls-3" x="141.12" y="291.6">w</tspan><tspan x="153.03" y="291.6">oman also in her 30&apos;s, comes into the room. Carol and Jan</tspan><tspan class="cls-2" x="539.3" y="291.6">e</tspan><tspan x="546.98" y="291.6">t </tspan><tspan class="cls-2" x="557.25" y="291.6">s</tspan><tspan x="564.81" y="291.6">tart arguing </tspan><tspan class="cls-2" x="647.13" y="291.6">a</tspan><tspan x="654.67" y="291.6">fter Carol </tspan><tspan x="0" y="309.6">insi</tspan><tspan class="cls-2" x="21.97" y="309.6">s</tspan><tspan x="29.53" y="309.6">ts on le</tspan><tspan class="cls-3" x="79.33" y="309.6">a</tspan><tspan x="87.03" y="309.6">ving her life and le</tspan><tspan class="cls-10" x="208.09" y="309.6">a</tspan><tspan x="215.79" y="309.6">ving Jan</tspan><tspan class="cls-2" x="272.44" y="309.6">e</tspan><tspan x="280.12" y="309.6">t in her place. The 4th chara</tspan><tspan class="cls-2" x="467.29" y="309.6">c</tspan><tspan x="474.82" y="309.6">te</tspan><tspan class="cls-11" x="488.57" y="309.6">r</tspan><tspan x="492.82" y="309.6">, Hilar</tspan><tspan class="cls-12" x="528.9" y="309.6">y</tspan><tspan x="536" y="309.6">, is a 6</tspan><tspan class="cls-2" x="580.13" y="309.6">-y</tspan><tspan x="591.15" y="309.6">ear old girl who is </tspan><tspan x="0" y="327.6">present during the co</tspan><tspan class="cls-3" x="143.47" y="327.6">n</tspan><tspan class="cls-2" x="151.62" y="327.6">v</tspan><tspan x="159.31" y="327.6">ersation and is consulted throughout the argumen</tspan><tspan class="cls-2" x="493.98" y="327.6">t</tspan><tspan x="499.46" y="327.6">, in which she replies in random </tspan><tspan x="0" y="345.6">phrases. </tspan><tspan class="cls-2" x="60.61" y="345.6">A</tspan><tspan x="69.36" y="345.6">t the end </tspan><tspan class="cls-2" x="135.1" y="345.6">o</tspan><tspan x="142.78" y="345.6">f the pl</tspan><tspan class="cls-3" x="190.21" y="345.6">a</tspan><tspan class="cls-12" x="197.9" y="345.6">y</tspan><tspan x="205" y="345.6">, Carol le</tspan><tspan class="cls-3" x="261.44" y="345.6">a</tspan><tspan class="cls-2" x="269.14" y="345.6">v</tspan><tspan x="276.83" y="345.6">es Jan</tspan><tspan class="cls-2" x="321.98" y="345.6">e</tspan><tspan x="329.66" y="345.6">t and Jan</tspan><tspan class="cls-2" x="393.53" y="345.6">e</tspan><tspan x="401.21" y="345.6">t takes Carol&apos;s position.</tspan><tspan x="0" y="381.6">It is r</tspan><tspan class="cls-2" x="33.63" y="381.6">ev</tspan><tspan x="49" y="381.6">ealed that all that has happened is an argument b</tspan><tspan class="cls-2" x="380.8" y="381.6">e</tspan><tspan x="388.48" y="381.6">t</tspan><tspan class="cls-3" x="394.25" y="381.6">w</tspan><tspan x="406.16" y="381.6">een t</tspan><tspan class="cls-10" x="440.69" y="381.6">w</tspan><tspan x="452.6" y="381.6">o personas in Carol&apos;s head, and that Jan</tspan><tspan class="cls-2" x="720.84" y="381.6">e</tspan><tspan x="728.52" y="381.6">t </tspan><tspan x="0" y="399.6">and Carol is in fa</tspan><tspan class="cls-2" x="111" y="399.6">c</tspan><tspan x="118.53" y="399.6">t the same person. It is a m</tspan><tspan class="cls-2" x="301.31" y="399.6">e</tspan><tspan x="308.99" y="399.6">taphor for the w</tspan><tspan class="cls-3" x="418.24" y="399.6">a</tspan><tspan x="425.93" y="399.6">y </tspan><tspan class="cls-10" x="438.42" y="399.6">w</tspan><tspan x="450.33" y="399.6">e cut out ma</tspan><tspan class="cls-3" x="535.64" y="399.6">n</tspan><tspan x="543.78" y="399.6">y parts </tspan><tspan class="cls-2" x="595.55" y="399.6">o</tspan><tspan x="603.23" y="399.6">f oursel</tspan><tspan class="cls-2" x="653.22" y="399.6">v</tspan><tspan x="660.92" y="399.6">es to try to </tspan><tspan x="0" y="417.6">find true happiness.</tspan><tspan class="cls-2" x="0" y="453.6">F</tspan><tspan x="7.02" y="453.6">or this </tspan><tspan class="cls-2" x="53.98" y="453.6">v</tspan><tspan x="61.68" y="453.6">ery dreamlike, almo</tspan><tspan class="cls-2" x="187.32" y="453.6">s</tspan><tspan x="194.88" y="453.6">t unreal pl</tspan><tspan class="cls-3" x="261.17" y="453.6">a</tspan><tspan class="cls-12" x="268.87" y="453.6">y</tspan><tspan x="275.96" y="453.6">, I further added to Harry Kindoleon&apos;s s</tspan><tspan class="cls-2" x="530.75" y="453.6">e</tspan><tspan x="538.43" y="453.6">t </tspan><tspan class="cls-2" x="548.7" y="453.6">o</tspan><tspan x="556.38" y="453.6">f Greek Columns, a fan, a </tspan><tspan x="0" y="471.6">bed, a doo</tspan><tspan class="cls-11" x="68.2" y="471.6">r</tspan><tspan x="72.45" y="471.6">, a bedside table </tspan><tspan class="cls-2" x="185.09" y="471.6">b</tspan><tspan x="192.94" y="471.6">y painting them all l</tspan><tspan class="cls-3" x="321.91" y="471.6">a</tspan><tspan class="cls-2" x="329.6" y="471.6">v</tspan><tspan x="337.29" y="471.6">ender; also h</tspan><tspan class="cls-10" x="421.71" y="471.6">a</tspan><tspan x="429.41" y="471.6">ving added a </tspan><tspan class="cls-2" x="518.35" y="471.6">v</tspan><tspan x="526.05" y="471.6">ase with pop</tspan><tspan class="cls-2" x="612.04" y="471.6">p</tspan><tspan x="619.89" y="471.6">y fl</tspan><tspan class="cls-3" x="641.02" y="471.6">ow</tspan><tspan x="660.76" y="471.6">ers. The </tspan><tspan x="0" y="489.6">lighting was a mix </tspan><tspan class="cls-2" x="123.36" y="489.6">o</tspan><tspan x="131.04" y="489.6">f blues, pinks and </tspan><tspan class="cls-2" x="250.85" y="489.6">y</tspan><tspan x="258.55" y="489.6">ell</tspan><tspan class="cls-3" x="272.35" y="489.6">ow</tspan><tspan x="292.09" y="489.6">s, and d</tspan><tspan class="cls-2" x="344.36" y="489.6">o</tspan><tspan x="352.04" y="489.6">tted gobos </tspan><tspan class="cls-3" x="428.82" y="489.6">w</tspan><tspan x="440.73" y="489.6">ere used throughout the pl</tspan><tspan class="cls-10" x="619.2" y="489.6">a</tspan><tspan class="cls-11" x="626.89" y="489.6">y</tspan><tspan x="633.99" y="489.6">, fading sl</tspan><tspan class="cls-10" x="697.41" y="489.6">o</tspan><tspan x="705.24" y="489.6">wly </tspan><tspan x="0" y="507.6">once Carol had l</tspan><tspan class="cls-2" x="106.35" y="507.6">e</tspan><tspan x="114.03" y="507.6">ft her life.</tspan></text></svg>