<svg id="Layer_1" data-name="Layer 1" xmlns="http://www.w3.org/2000/svg" viewBox="0 0 792 612"><defs><style>.cls-1{font-size:72px;}.cls-1,.cls-10,.cls-2,.cls-7{fill:#231f20;}.cls-1,.cls-7{font-family:Bungee-Regular, Bungee;}.cls-2{font-size:36px;font-family:Bungee-Hairline, Bungee;}.cls-3{letter-spacing:0em;}.cls-4{letter-spacing:-0.01em;}.cls-5{letter-spacing:0em;}.cls-6{letter-spacing:-0.01em;}.cls-7{font-size:20px;}.cls-8{letter-spacing:0em;}.cls-9{letter-spacing:-0.01em;}.cls-10{font-size:21px;font-family:NudistaLight, Nudista;}.cls-11{letter-spacing:0.03em;}.cls-12{letter-spacing:-0.01em;}.cls-13{letter-spacing:-0.02em;}.cls-14{letter-spacing:-0.05em;}.cls-15{letter-spacing:-0.02em;}.cls-16{letter-spacing:0.04em;}.cls-17{letter-spacing:0.04em;}.cls-18{letter-spacing:0.04em;}.cls-19{letter-spacing:0.08em;}.cls-20{letter-spacing:-0.02em;}.cls-21{letter-spacing:0.22em;}</style></defs><title>Intro</title><text class="cls-1" transform="translate(80 84)">SBUHacks 2018</text><text class="cls-2" transform="translate(247 128)">a<tspan class="cls-3" x="26.28" y="0">s</tspan><tspan x="49.5" y="0">se</tspan><tspan class="cls-4" x="96.44" y="0">t</tspan><tspan class="cls-5" x="119.7" y="0"> </tspan><tspan class="cls-6" x="127.8" y="0">s</tspan><tspan x="150.84" y="0">y</tspan><tspan class="cls-6" x="176.22" y="0">s</tspan><tspan x="199.26" y="0">tem</tspan></text><text class="cls-7" transform="translate(90 322)">responsibilities<tspan class="cls-8" x="213.38" y="0"> </tspan><tspan x="217.78" y="0">as head-o</tspan><tspan class="cls-9" x="330.8" y="0">r</tspan><tspan x="345.56" y="0">ganizer</tspan></text><text class="cls-10" transform="translate(90 168.54)">SBUHacks<tspan class="cls-11" x="95.86" y="0"> </tspan><tspan x="102.89" y="0">2018</tspan><tspan class="cls-11" x="148.29" y="0"> </tspan><tspan x="155.31" y="0">is</tspan><tspan class="cls-11" x="170.39" y="0"> </tspan><tspan x="177.42" y="0">Sto</tspan><tspan class="cls-12" x="209.92" y="0">n</tspan><tspan x="221.33" y="0">y</tspan><tspan class="cls-11" x="232.52" y="0"> </tspan><tspan x="239.54" y="0">Brook</tspan><tspan class="cls-11" x="291.37" y="0"> </tspan><tspan x="298.4" y="0">Uni</tspan><tspan class="cls-13" x="327.75" y="0">v</tspan><tspan x="338.53" y="0">ersity</tspan><tspan class="cls-14" x="391.25" y="0">’</tspan><tspan x="394.38" y="0">s</tspan><tspan class="cls-11" x="405.39" y="0"> </tspan><tspan x="412.41" y="0">fir</tspan><tspan class="cls-13" x="431.71" y="0">s</tspan><tspan x="442.29" y="0">t</tspan><tspan class="cls-11" x="450.38" y="0"> </tspan><tspan class="cls-15" x="457.4" y="0">ev</tspan><tspan x="478.93" y="0">er</tspan><tspan class="cls-11" x="497.3" y="0"> </tspan><tspan x="504.33" y="0">on-campus </tspan><tspan x="0" y="25.2">hackathon. 350+ </tspan><tspan class="cls-13" x="161.93" y="25.2">s</tspan><tspan x="172.51" y="25.2">tudents, 13 compa</tspan><tspan class="cls-12" x="343.43" y="25.2">n</tspan><tspan x="354.83" y="25.2">y sponsors, 24 hours, </tspan><tspan x="0" y="50.4">9</tspan><tspan class="cls-16" x="12.64" y="50.4"> </tspan><tspan x="19.73" y="50.4">prize</tspan><tspan class="cls-17" x="63.59" y="50.4"> </tspan><tspan x="70.68" y="50.4">categories,</tspan><tspan class="cls-16" x="172.08" y="50.4"> </tspan><tspan x="179.17" y="50.4">9</tspan><tspan class="cls-16" x="191.81" y="50.4"> </tspan><tspan class="cls-12" x="198.89" y="50.4">w</tspan><tspan x="215.57" y="50.4">orkshops,</tspan><tspan class="cls-17" x="303.87" y="50.4"> </tspan><tspan x="310.95" y="50.4">and</tspan><tspan class="cls-16" x="344.95" y="50.4"> </tspan><tspan x="352.04" y="50.4">a</tspan><tspan class="cls-16" x="363.02" y="50.4"> </tspan><tspan x="370.1" y="50.4">ton</tspan><tspan class="cls-16" x="400.97" y="50.4"> </tspan><tspan class="cls-13" x="408.06" y="50.4">o</tspan><tspan x="418.81" y="50.4">f</tspan><tspan class="cls-16" x="426.26" y="50.4"> </tspan><tspan class="cls-12" x="433.35" y="50.4">s</tspan><tspan x="444.14" y="50.4">wag,</tspan><tspan class="cls-16" x="487.59" y="50.4"> </tspan><tspan x="494.67" y="50.4">made</tspan><tspan class="cls-16" x="545.07" y="50.4"> </tspan><tspan x="552.16" y="50.4">this</tspan><tspan class="cls-18" x="586.93" y="50.4"> </tspan><tspan x="594.02" y="50.4">a </tspan><tspan x="0" y="75.6">hackathon</tspan><tspan class="cls-19" x="96.58" y="75.6"> </tspan><tspan x="104.65" y="75.6">that</tspan><tspan class="cls-19" x="143.42" y="75.6"> </tspan><tspan x="151.49" y="75.6">Sto</tspan><tspan class="cls-12" x="184" y="75.6">n</tspan><tspan x="195.4" y="75.6">y</tspan><tspan class="cls-19" x="206.59" y="75.6"> </tspan><tspan x="214.67" y="75.6">Brook</tspan><tspan class="cls-19" x="266.49" y="75.6"> </tspan><tspan x="274.57" y="75.6">Uni</tspan><tspan class="cls-13" x="303.92" y="75.6">v</tspan><tspan x="314.7" y="75.6">ersity</tspan><tspan class="cls-19" x="367.43" y="75.6"> </tspan><tspan x="375.5" y="75.6">will</tspan><tspan class="cls-19" x="404.6" y="75.6"> </tspan><tspan x="412.68" y="75.6">support</tspan><tspan class="cls-19" x="484.56" y="75.6"> </tspan><tspan x="492.63" y="75.6">for</tspan><tspan class="cls-19" x="518.46" y="75.6"> </tspan><tspan class="cls-13" x="526.54" y="75.6">y</tspan><tspan x="537.31" y="75.6">ears</tspan><tspan class="cls-19" x="577.67" y="75.6"> </tspan><tspan x="585.74" y="75.6">to </tspan><tspan x="0" y="100.8">come.</tspan></text><text class="cls-10" transform="translate(90 358.54)"><tspan xml:space="preserve"> + Designed all logos, ass</tspan><tspan class="cls-13" x="232.89" y="0">e</tspan><tspan x="243.64" y="0">ts, </tspan><tspan class="cls-20" x="273.21" y="0">v</tspan><tspan x="283.98" y="0">enue items, </tspan><tspan class="cls-12" x="397.5" y="0">s</tspan><tspan x="408.3" y="0">wag/merchandise</tspan><tspan x="0" y="25.2" xml:space="preserve"> + Managed mark</tspan><tspan class="cls-13" x="157.2" y="25.2">e</tspan><tspan x="167.96" y="25.2">ting, social media</tspan><tspan x="0" y="50.4" xml:space="preserve"> + Communicated with admini</tspan><tspan class="cls-13" x="273.92" y="50.4">s</tspan><tspan x="284.5" y="50.4">trators, compa</tspan><tspan class="cls-12" x="420.08" y="50.4">n</tspan><tspan x="431.48" y="50.4">y representati</tspan><tspan class="cls-13" x="562.14" y="50.4">v</tspan><tspan x="572.91" y="50.4" xml:space="preserve">es,      </tspan><tspan class="cls-21" x="637.07" y="50.4">	</tspan><tspan x="0" y="75.6" xml:space="preserve">    attendees, </tspan><tspan class="cls-13" x="130.37" y="75.6">v</tspan><tspan x="141.14" y="75.6">olunteers, </tspan><tspan x="0" y="100.8" xml:space="preserve"> + Co-created hackathon prize categories, </tspan><tspan class="cls-12" x="391.2" y="100.8">w</tspan><tspan x="407.88" y="100.8">orkshop d</tspan><tspan class="cls-13" x="498.7" y="100.8">e</tspan><tspan x="509.45" y="100.8">tails, </tspan><tspan class="cls-13" x="0" y="126">v</tspan><tspan x="10.77" y="126">arious documents, </tspan><tspan class="cls-20" x="187.46" y="126">e</tspan><tspan x="198.22" y="126">tc</tspan><tspan x="0" y="151.2" xml:space="preserve"> + MC </tspan><tspan class="cls-13" x="58.63" y="151.2">o</tspan><tspan x="69.38" y="151.2">f Hackathon, managing on-d</tspan><tspan class="cls-12" x="326.78" y="151.2">a</tspan><tspan x="337.55" y="151.2">y operations</tspan><tspan x="0" y="176.4" xml:space="preserve"> + Presenting SBUHacks to College </tspan><tspan class="cls-13" x="329.74" y="176.4">o</tspan><tspan x="340.49" y="176.4">f Engineers and Applied </tspan><tspan x="0" y="201.6" xml:space="preserve">    Sciences Dean</tspan><tspan class="cls-14" x="163.15" y="201.6">’</tspan><tspan x="166.28" y="201.6">s Board</tspan><tspan x="0" y="226.8" xml:space="preserve">    </tspan></text></svg>