<svg id="Layer_1" data-name="Layer 1" xmlns="http://www.w3.org/2000/svg" xmlns:xlink="http://www.w3.org/1999/xlink" viewBox="0 0 792 612"><defs><style>.cls-1,.cls-30,.cls-31,.cls-32{fill:none;}.cls-2{font-size:20px;fill:#231f20;font-family:Bungee-Regular, Bungee;}.cls-3{letter-spacing:-0.01em;}.cls-4{letter-spacing:0em;}.cls-5,.cls-9{fill:#fff;}.cls-6{fill:#010101;}.cls-7{clip-path:url(#clip-path);}.cls-8{clip-path:url(#clip-path-2);}.cls-10,.cls-9{opacity:0.48;}.cls-10,.cls-20,.cls-29,.cls-9{isolation:isolate;}.cls-10{fill:#76bde8;}.cls-11{fill:#e7e6e8;}.cls-12,.cls-20{fill:#c1c0c4;}.cls-13{fill:#858585;}.cls-14{fill:#c2c3cb;}.cls-15{fill:#a7a6a6;}.cls-16{fill:#a9a8a8;}.cls-17{clip-path:url(#clip-path-4);}.cls-18{opacity:0.45;}.cls-19{fill:#002c3c;}.cls-20{opacity:0.38;}.cls-21{fill:#b5b5b5;}.cls-22{fill:#e2e2e2;}.cls-23{fill:#676767;}.cls-24{fill:#a62d23;}.cls-25{clip-path:url(#clip-path-6);}.cls-26{fill:#fdfeff;}.cls-27{fill:#bababa;}.cls-28{clip-path:url(#clip-path-7);}.cls-29{fill:#f9f9fa;opacity:0.5;}.cls-30,.cls-31,.cls-32{stroke:#002c3c;stroke-miterlimit:10;}.cls-30{stroke-width:0.61px;}.cls-31{stroke-width:0.41px;}.cls-32{stroke-width:0.2px;}.cls-33{opacity:0.84;}</style><clipPath id="clip-path"><circle class="cls-1" cx="385.65" cy="174.01" r="93.92"/></clipPath><clipPath id="clip-path-2"><path class="cls-1" d="M426.37,241.43a5.84,5.84,0,0,0,1.71-8L412,211.28c-2.75-3.77-3.24-9.18-1.34-14,0-.14.12-.29.16-.43,7-17.36,26.46-22.18,36.78-9.12,7.3,9.24,15.85,21.73,20.14,34.07a98.28,98.28,0,0,0,11.85-47c0-53.29-42.05-96.49-93.9-96.49s-93.92,43.2-93.92,96.51,42,96.53,93.9,96.53a93.49,93.49,0,0,0,11.75-.75c.1-.25.2-.45.3-.68C404.05,256.49,418.49,246.23,426.37,241.43Z"/></clipPath><clipPath id="clip-path-4"><path class="cls-1" d="M400,160.38H367.16a13.49,13.49,0,0,1-13.4-13.48V121.56a14.16,14.16,0,0,1,14.1-14.15h32.52a9.87,9.87,0,0,1,9.81,9.87v32.9A10.25,10.25,0,0,1,400,160.38Z"/></clipPath><clipPath id="clip-path-6"><polygon class="cls-1" points="398.5 267.63 414.11 257.8 338.05 256.77 323.1 265.79 398.5 267.63"/></clipPath><clipPath id="clip-path-7"><path class="cls-1" d="M400.11,268l-85.8-1a2.88,2.88,0,0,1-2.78-3l.55-53.39a9.13,9.13,0,0,1,9-9.24l73.6.86a9.1,9.1,0,0,1,8.82,9.42L403,265A2.89,2.89,0,0,1,400.11,268Z"/></clipPath></defs><title>Logos</title><text class="cls-2" transform="translate(256.3 51)">Officia<tspan class="cls-3" x="90.82" y="0">l</tspan><tspan class="cls-4" x="104.52" y="0" xml:space="preserve"> 2018 Emblem</tspan></text><text class="cls-2" transform="translate(275.84 334)">Officia<tspan class="cls-3" x="90.82" y="0">l</tspan><tspan class="cls-4" x="104.52" y="0" xml:space="preserve"> 2018 Logo</tspan></text><polygon class="cls-5" points="336.03 166.48 336.56 168.18 335 169.16 336.85 169.31 337.38 171.01 338.03 169.38 336.03 166.48"/><polygon class="cls-5" points="336.03 166.48 337.45 167.63 339.01 166.64 338.41 168.32 339.83 169.48 338.03 169.38 336.03 166.48"/><circle class="cls-1" cx="385.65" cy="174.01" r="98.82"/><circle id="_Path_" data-name="&lt;Path&gt;" class="cls-6" cx="385.65" cy="174.01" r="93.92"/><g class="cls-7"><polygon class="cls-5" points="304.41 154.88 304.9 156.51 303.41 157.45 305.19 157.59 305.68 159.22 306.31 157.65 304.41 154.88"/><polygon class="cls-5" points="304.41 154.88 305.76 155.98 307.25 155.02 306.68 156.63 308.02 157.73 306.31 157.65 304.41 154.88"/><path id="_Path_2" data-name="&lt;Path&gt;" class="cls-6" d="M426.37,241.43a5.84,5.84,0,0,0,1.71-8L412,211.28c-2.75-3.77-3.24-9.18-1.34-14,0-.14.12-.29.16-.43,7-17.36,26.46-22.18,36.78-9.12,7.3,9.24,15.85,21.73,20.14,34.07a98.28,98.28,0,0,0,11.85-47c0-53.29-42.05-96.49-93.9-96.49s-93.92,43.2-93.92,96.51,42,96.53,93.9,96.53a93.49,93.49,0,0,0,11.75-.75c.1-.25.2-.45.3-.68C404.05,256.49,418.49,246.23,426.37,241.43Z"/><g class="cls-8"><polygon class="cls-9" points="479.49 136.07 308.84 277.62 288.52 251.72 459.17 110.18 479.49 136.07"/></g><g class="cls-8"><polygon class="cls-10" points="444.05 71.62 274.81 212 319.06 268.32 488.3 127.97 444.05 71.62"/></g><path class="cls-11" d="M363.15,174.64s-15.51,2.57-22.69,14.63-17.71,55.06-17.71,55.06,7.71,15.79,54.1,24.24,76.24-35.77,76.24-35.77l1.45-19.05s-10.67-28.7-20.93-31.23c-6.49-1.61-14-9.18-14-9.18Z"/><path class="cls-12" d="M367.43,171.91s-12.22,5.26-19.4,17.34-10.75,59.59-10.75,59.59-5.84,8.65,40.57,17.09,76.24-35.76,76.24-35.76l8.85-18.38s-14.3-27.86-24.46-33.92c-5.77-3.43-21.83-7.08-21.83-7.08Z"/><path class="cls-12" d="M467.31,219.65c-4.22-12.06-12.69-24.26-20-33.28-10.24-12.77-29.52-8.05-36.48,8.9,0,.14-.12.28-.16.41A14.37,14.37,0,0,0,412,209.37L428,231a5.63,5.63,0,0,1-1.7,7.83c-7.79,4.69-22.11,14.67-28.41,27.83a5.11,5.11,0,0,0-.31.67A93,93,0,0,0,467.31,219.65Z"/><path class="cls-12" d="M429.63,190.23a18.72,18.72,0,0,0-6.86,7.18l5.94,8.79s6.08,6.27,14,3.45Z"/><polygon class="cls-12" points="430.22 189.9 444.17 207.9 445.05 206.43 430.77 189.56 430.22 189.9"/><polygon class="cls-12" points="431.28 189.21 445.75 204.39 446.09 202.8 431.75 188.92 431.28 189.21"/><polygon class="cls-12" points="432.46 188.7 446.17 200.57 446.07 198.96 432.89 188.39 432.46 188.7"/><path class="cls-12" d="M433.65,188.19l11.75,8.49a6.37,6.37,0,0,0-.9-1.78L434.16,188Z"/><path class="cls-12" d="M434.87,187.76l8.1,4.84-3.75-5.55A13.21,13.21,0,0,0,434.87,187.76Z"/><polygon class="cls-12" points="429.85 199.19 430.36 200.84 428.87 201.76 430.61 201.9 431.14 203.53 431.73 201.98 429.85 199.19"/><polygon class="cls-12" points="429.83 199.19 431.18 200.29 432.67 199.35 432.1 200.96 433.44 202.06 431.73 201.98 429.83 199.19"/><path class="cls-5" d="M365,173.11s-12.22,5.27-19.4,17.34S334.87,250,334.87,250s-5.81,8.63,40.58,17.08,76.23-35.76,76.23-35.76L460.54,213s-14.31-27.87-24.46-33.93c-5.76-3.43-21.81-7.08-21.81-7.08Z"/><path class="cls-12" d="M364.86,165.34a7.14,7.14,0,0,0,0,7.61c2.45,4.26,54.77,0,54.77,0s3-5.22,0-7.61Z"/><path class="cls-12" d="M433,126.81c-4-21.69-22.92-33.17-47.34-30.3-22.5,2.65-34.81,15.67-32.64,44.54,1.1,14.62,6,20.29,12.42,25.76,17.24.53,34.48.23,51.73.2C429.18,157.63,435.81,142.23,433,126.81Z"/><path class="cls-5" d="M430.47,126.81c-4-21.69-22.93-33.17-47.35-30.3-22.5,2.65-34.81,15.67-32.64,44.54,1.1,14.62,6,20.29,12.42,25.76,17.24.53,34.48.23,51.74.2C426.67,157.63,433.3,142.23,430.47,126.81Z"/><ellipse class="cls-13" cx="420.06" cy="132.5" rx="6.83" ry="7.71"/><ellipse class="cls-14" cx="419.84" cy="149.45" rx="5.16" ry="5.22"/><ellipse class="cls-15" cx="422.1" cy="132.5" rx="4.37" ry="4.26"/><ellipse class="cls-16" cx="420.98" cy="149.31" rx="3.63" ry="3.69"/><path id="_Path_3" data-name="&lt;Path&gt;" class="cls-12" d="M400,160.38H367.16a13.49,13.49,0,0,1-13.4-13.48V121.56a14.16,14.16,0,0,1,14.1-14.15h32.52a9.87,9.87,0,0,1,9.81,9.87v32.9A10.25,10.25,0,0,1,400,160.38Z"/><g class="cls-17"><polygon class="cls-9" points="400.74 101.02 349.62 145.27 343.24 136.76 394.34 92.49 400.74 101.02"/></g><g class="cls-17"><polygon class="cls-9" points="409.13 113.42 358.02 157.67 351.62 149.14 402.72 104.88 409.13 113.42"/></g><g class="cls-18"><path class="cls-19" d="M362.19,119.87v2c0,.65-.21,1.16-1.08,1.16s-1-.53-1-1.16v-2c0-.73.32-1.16,1.06-1.16S362.19,119.18,362.19,119.87Zm-1.37,0V122c0,.33.08.49.35.49s.34-.18.34-.51v-2.16c0-.31-.08-.47-.34-.47S360.82,119.5,360.82,119.85Z"/><path class="cls-19" d="M362.9,123.05v-3.47a2.37,2.37,0,0,1-.45,0v-.51a1,1,0,0,0,.63-.31h.51v4.26Z"/><path class="cls-19" d="M364.43,123.05v-3.47a2.37,2.37,0,0,1-.45,0v-.51a1,1,0,0,0,.63-.31h.51v4.26Z"/><path class="cls-19" d="M367.76,119.87v2c0,.65-.21,1.16-1.09,1.16s-1-.53-1-1.16v-2c0-.73.32-1.16,1.06-1.16S367.76,119.18,367.76,119.87Zm-1.37,0V122c0,.33.08.49.35.49s.34-.18.34-.51v-2.16c0-.31-.08-.47-.34-.47S366.39,119.5,366.39,119.85Z"/><path class="cls-19" d="M368.47,123.05v-3.47a2.37,2.37,0,0,1-.45,0v-.51a1,1,0,0,0,.63-.31h.51v4.26Z"/><path class="cls-19" d="M371.82,119.87v2c0,.65-.21,1.16-1.09,1.16s-1-.53-1-1.16v-2c0-.73.33-1.16,1.07-1.16S371.82,119.18,371.82,119.87Zm-1.41,0V122c0,.33.08.49.34.49s.35-.18.35-.51v-2.16c0-.31-.08-.47-.35-.47S370.41,119.5,370.41,119.85Z"/><path class="cls-19" d="M374.32,119.87v2c0,.65-.2,1.16-1.08,1.16s-1-.53-1-1.16v-2c0-.73.33-1.16,1.06-1.16S374.32,119.18,374.32,119.87Zm-1.38,0V122c0,.33.08.49.34.49s.35-.18.35-.51v-2.16c0-.31-.08-.47-.35-.47S372.94,119.5,372.94,119.85Z"/><path class="cls-19" d="M376.83,119.87v2c0,.65-.2,1.16-1.08,1.16s-1-.53-1-1.16v-2c0-.73.33-1.16,1.06-1.16S376.83,119.18,376.83,119.87Zm-1.38,0V122c0,.33.08.49.34.49s.35-.18.35-.51v-2.16c0-.31-.08-.47-.35-.47S375.45,119.5,375.45,119.85Z"/><path class="cls-19" d="M380.24,119.87v2c0,.65-.2,1.16-1.08,1.16s-1-.53-1-1.16v-2c0-.73.33-1.16,1.06-1.16S380.24,119.18,380.24,119.87Zm-1.39,0V122c0,.33.09.49.35.49s.35-.18.35-.51v-2.16c0-.31-.08-.47-.35-.47S378.85,119.5,378.85,119.85Z"/><path class="cls-19" d="M380.93,123.05v-3.47a2.27,2.27,0,0,1-.44,0v-.51a1,1,0,0,0,.63-.31h.51v4.26Z"/><path class="cls-19" d="M382.46,123.05v-3.47a2.27,2.27,0,0,1-.44,0v-.51a1,1,0,0,0,.63-.31h.51v4.26Z"/><path class="cls-19" d="M384,123.05v-3.47a2.27,2.27,0,0,1-.44,0v-.51a1,1,0,0,0,.63-.31h.51v4.26Z"/><path class="cls-19" d="M387.36,119.87v2c0,.65-.2,1.16-1.08,1.16s-1-.53-1-1.16v-2c0-.73.33-1.16,1.06-1.16S387.36,119.18,387.36,119.87Zm-1.39,0V122c0,.33.08.49.35.49s.35-.18.35-.51v-2.16c0-.31-.08-.47-.35-.47S386,119.5,386,119.85Z"/><path class="cls-19" d="M388.05,123.05v-3.47a2.27,2.27,0,0,1-.44,0v-.51a1,1,0,0,0,.63-.31h.51v4.26Z"/><path class="cls-19" d="M391.38,119.87v2c0,.65-.2,1.16-1.08,1.16s-1-.53-1-1.16v-2c0-.73.32-1.16,1.06-1.16S391.38,119.18,391.38,119.87Zm-1.37,0V122c0,.33.08.49.35.49s.35-.18.35-.51v-2.16c0-.31-.09-.47-.35-.47S390,119.5,390,119.85Z"/><path class="cls-19" d="M392.09,123.05v-3.47a2.32,2.32,0,0,1-.45,0v-.51a1.08,1.08,0,0,0,.64-.31h.51v4.26Z"/><path class="cls-19" d="M362.19,127.72v2c0,.66-.21,1.17-1.08,1.17s-1-.53-1-1.17v-2c0-.74.32-1.17,1.06-1.17S362.19,127,362.19,127.72Zm-1.37-.06v2.17c0,.32.08.49.35.49s.34-.19.34-.51v-2.17c0-.3-.08-.47-.34-.47S360.82,127.36,360.82,127.66Z"/><path class="cls-19" d="M362.9,130.89v-3.47a3.54,3.54,0,0,1-.45,0v-.51a.93.93,0,0,0,.63-.31h.51v4.27Z"/><path class="cls-19" d="M364.43,130.89v-3.47a3.54,3.54,0,0,1-.45,0v-.51a.93.93,0,0,0,.63-.31h.51v4.27Z"/><path class="cls-19" d="M367.76,127.72v2c0,.66-.21,1.17-1.09,1.17s-1-.53-1-1.17v-2c0-.74.32-1.17,1.06-1.17S367.76,127,367.76,127.72Zm-1.37-.06v2.17c0,.32.08.49.35.49s.34-.19.34-.51v-2.17c0-.3-.08-.47-.34-.47S366.39,127.36,366.39,127.66Z"/><path class="cls-19" d="M368.47,130.89v-3.47a3.54,3.54,0,0,1-.45,0v-.51a.93.93,0,0,0,.63-.31h.51v4.27Z"/><path class="cls-19" d="M370,130.89v-3.47a3.54,3.54,0,0,1-.45,0v-.51a.93.93,0,0,0,.63-.31h.51v4.27Z"/><path class="cls-19" d="M373.35,127.72v2c0,.66-.21,1.17-1.09,1.17s-1-.53-1-1.17v-2c0-.74.33-1.17,1.07-1.17S373.35,127,373.35,127.72Zm-1.39-.06v2.17c0,.32.08.49.35.49s.34-.19.34-.51v-2.17c0-.3-.08-.47-.34-.47S372,127.36,372,127.66Z"/><path class="cls-19" d="M375.85,127.72v2c0,.66-.2,1.17-1.08,1.17s-1-.53-1-1.17v-2c0-.74.33-1.17,1.06-1.17S375.85,127,375.85,127.72Zm-1.38-.06v2.17c0,.32.08.49.34.49s.35-.19.35-.51v-2.17c0-.3-.08-.47-.35-.47S374.47,127.36,374.47,127.66Z"/><path class="cls-19" d="M379.26,127.72v2c0,.66-.2,1.17-1.08,1.17s-1-.53-1-1.17v-2c0-.74.33-1.17,1.06-1.17S379.26,127,379.26,127.72Zm-1.39-.06v2.17c0,.32.09.49.35.49s.35-.19.35-.51v-2.17c0-.3-.08-.47-.35-.47S377.87,127.36,377.87,127.66Z"/><path class="cls-19" d="M380,130.89v-3.47a3.62,3.62,0,0,1-.45,0v-.51a1,1,0,0,0,.63-.31h.51v4.27Z"/><path class="cls-19" d="M381.49,130.89v-3.47a3.62,3.62,0,0,1-.45,0v-.51a1,1,0,0,0,.63-.31h.51v4.27Z"/><path class="cls-19" d="M383,130.89v-3.47a3.62,3.62,0,0,1-.45,0v-.51a1,1,0,0,0,.63-.31h.51v4.27Z"/><path class="cls-19" d="M386.38,127.72v2c0,.66-.2,1.17-1.08,1.17s-1-.53-1-1.17v-2c0-.74.33-1.17,1.06-1.17S386.38,127,386.38,127.72Zm-1.41-.06v2.17c0,.32.09.49.35.49s.35-.19.35-.51v-2.17c0-.3-.08-.47-.35-.47S385,127.36,385,127.66Z"/><path class="cls-19" d="M387.07,130.89v-3.47a3.39,3.39,0,0,1-.44,0v-.51a1,1,0,0,0,.63-.31h.51v4.27Z"/><path class="cls-19" d="M390.42,127.72v2c0,.66-.2,1.17-1.08,1.17s-1-.53-1-1.17v-2c0-.74.33-1.17,1.06-1.17S390.42,127,390.42,127.72Zm-1.39-.06v2.17c0,.32.08.49.35.49s.35-.19.35-.51v-2.17c0-.3-.08-.47-.35-.47S389,127.36,389,127.66Z"/><path class="cls-19" d="M392.91,127.72v2c0,.66-.2,1.17-1.08,1.17s-1-.53-1-1.17v-2c0-.74.32-1.17,1.06-1.17S392.91,127,392.91,127.72Zm-1.37-.06v2.17c0,.32.08.49.35.49s.35-.19.35-.51v-2.17c0-.3-.09-.47-.35-.47S391.54,127.36,391.54,127.66Z"/><path class="cls-19" d="M362.19,135.56v2c0,.65-.21,1.16-1.08,1.16s-1-.53-1-1.16v-2c0-.74.32-1.16,1.06-1.16S362.19,134.84,362.19,135.56Zm-1.37,0v2.16c0,.33.08.49.35.49s.34-.18.34-.51V135.5c0-.31-.08-.47-.34-.47S360.82,135.19,360.82,135.52Z"/><path class="cls-19" d="M362.9,138.7v-3.47a3.54,3.54,0,0,1-.45,0v-.51a1,1,0,0,0,.63-.3h.51v4.26Z"/><path class="cls-19" d="M364.43,138.7v-3.47a3.54,3.54,0,0,1-.45,0v-.51a1,1,0,0,0,.63-.3h.51v4.26Z"/><path class="cls-19" d="M367.76,135.56v2c0,.65-.21,1.16-1.09,1.16s-1-.53-1-1.16v-2c0-.74.32-1.16,1.06-1.16S367.76,134.84,367.76,135.56Zm-1.37,0v2.16c0,.33.08.49.35.49s.34-.18.34-.51V135.5c0-.31-.08-.47-.34-.47S366.39,135.19,366.39,135.52Z"/><path class="cls-19" d="M370.29,135.56v2c0,.65-.21,1.16-1.09,1.16s-1-.53-1-1.16v-2c0-.74.33-1.16,1.07-1.16S370.29,134.84,370.29,135.56Zm-1.41,0v2.16c0,.33.08.49.34.49s.35-.18.35-.51V135.5c0-.31-.08-.47-.35-.47S368.88,135.19,368.88,135.52Z"/><path class="cls-19" d="M372.79,135.56v2c0,.65-.2,1.16-1.08,1.16s-1-.53-1-1.16v-2c0-.74.33-1.16,1.06-1.16S372.79,134.84,372.79,135.56Zm-1.38,0v2.16c0,.33.08.49.34.49s.35-.18.35-.51V135.5c0-.31-.08-.47-.35-.47S371.41,135.19,371.41,135.52Z"/><path class="cls-19" d="M375.3,135.56v2c0,.65-.2,1.16-1.08,1.16s-1-.53-1-1.16v-2c0-.74.33-1.16,1.06-1.16S375.3,134.84,375.3,135.56Zm-1.38,0v2.16c0,.33.08.49.34.49s.35-.18.35-.51V135.5c0-.31-.08-.47-.35-.47S373.92,135.19,373.92,135.52Z"/><path class="cls-19" d="M376,138.7v-3.47a3.54,3.54,0,0,1-.45,0v-.51a1,1,0,0,0,.63-.3h.51v4.26Z"/><path class="cls-19" d="M380.24,135.56v2c0,.65-.2,1.16-1.08,1.16s-1-.53-1-1.16v-2c0-.74.33-1.16,1.06-1.16S380.24,134.84,380.24,135.56Zm-1.39,0v2.16c0,.33.09.49.35.49s.35-.18.35-.51V135.5c0-.31-.08-.47-.35-.47S378.85,135.19,378.85,135.52Z"/><path class="cls-19" d="M380.93,138.7v-3.47a3.39,3.39,0,0,1-.44,0v-.51a1,1,0,0,0,.63-.3h.51v4.26Z"/><path class="cls-19" d="M382.46,138.7v-3.47a3.39,3.39,0,0,1-.44,0v-.51a1,1,0,0,0,.63-.3h.51v4.26Z"/><path class="cls-19" d="M384,138.7v-3.47a3.39,3.39,0,0,1-.44,0v-.51a1,1,0,0,0,.63-.3h.51v4.26Z"/><path class="cls-19" d="M387.36,135.56v2c0,.65-.2,1.16-1.08,1.16s-1-.53-1-1.16v-2c0-.74.33-1.16,1.06-1.16S387.36,134.84,387.36,135.56Zm-1.39,0v2.16c0,.33.08.49.35.49s.35-.18.35-.51V135.5c0-.31-.08-.47-.35-.47S386,135.19,386,135.52Z"/><path class="cls-19" d="M388.05,138.7v-3.47a3.39,3.39,0,0,1-.44,0v-.51a1,1,0,0,0,.63-.3h.51v4.26Z"/><path class="cls-19" d="M391.38,135.56v2c0,.65-.2,1.16-1.08,1.16s-1-.53-1-1.16v-2c0-.74.32-1.16,1.06-1.16S391.38,134.84,391.38,135.56Zm-1.37,0v2.16c0,.33.08.49.35.49s.35-.18.35-.51V135.5c0-.31-.09-.47-.35-.47S390,135.19,390,135.52Z"/><path class="cls-19" d="M393.91,135.56v2c0,.65-.21,1.16-1.08,1.16s-1-.53-1-1.16v-2c0-.74.32-1.16,1.06-1.16S393.91,134.84,393.91,135.56Zm-1.41,0v2.16c0,.33.08.49.35.49s.34-.18.34-.51V135.5c0-.31-.08-.47-.34-.47S392.5,135.19,392.5,135.52Z"/></g><path class="cls-5" d="M369.69,109.53c-.81.24-1.63.49-2.4.77s-1.51.59-2.25.94a17.66,17.66,0,0,0-5.57,4.08q-.39.44-.75.9c-.14.14-.23.33-.35.47a5.36,5.36,0,0,0-.34.49,37.41,37.41,0,0,0-2.51,4.3l-.15,0c.08-.41.19-.83.31-1.24l.18-.61a5.29,5.29,0,0,1,.21-.6c.14-.38.3-.79.49-1.2.08-.18.16-.39.26-.57l.31-.57a13.53,13.53,0,0,1,1.43-2.14,12.34,12.34,0,0,1,1.77-1.84,14,14,0,0,1,4.43-2.47,13.62,13.62,0,0,1,5-.79Z"/><path class="cls-20" d="M361.15,165.3c.63.76,1.38,1.06,2,1.84,2.48,3.2,54.46.22,54.46.22a4.57,4.57,0,0,0,1-2Z"/><path class="cls-20" d="M361.64,172.09c.14.8,1.14,1.41,1.73,2.33,2.49,3.9,54.06.1,54.06.1a4.47,4.47,0,0,0,2.26-2.55Z"/><path class="cls-5" d="M362.25,166.42a6,6,0,0,0,0,6.94c2.49,3.9,55.32,0,55.32,0s3.06-4.77,0-6.94Z"/><path class="cls-11" d="M464.9,223.11c-4.22-12.05-12.69-24.25-20-33.27-10.24-12.77-29.52-8.06-36.48,8.9,0,.14-.12.28-.16.4a14.34,14.34,0,0,0,1.33,13.69l15.95,21.59a5.64,5.64,0,0,1-1.69,7.83c-7.8,4.69-22.12,14.67-28.42,27.83-.12.22-.2.42-.31.67A92.94,92.94,0,0,0,464.9,223.11Z"/><path class="cls-12" d="M355,216.81V196.92a10.81,10.81,0,0,1,10.77-10.83h24.52a10.81,10.81,0,0,1,10.77,10.83v19.89a10.81,10.81,0,0,1-10.77,10.83H365.76A10.79,10.79,0,0,1,355,216.81Z"/><path class="cls-11" d="M387,227.64H363.08a10.81,10.81,0,0,1-10.77-10.83V196.92a10.81,10.81,0,0,1,10.77-10.83H387a10.81,10.81,0,0,1,10.78,10.83v19.89A10.84,10.84,0,0,1,387,227.64Z"/><ellipse class="cls-21" cx="386.34" cy="195.51" rx="3.02" ry="3.43"/><ellipse class="cls-22" cx="385.57" cy="195.51" rx="3.02" ry="3.43"/><rect class="cls-23" x="361.78" y="192.15" width="15.32" height="6.08"/><rect class="cls-9" x="361.78" y="192.15" width="13.3" height="6.08"/><circle class="cls-24" cx="364.53" cy="195.19" r="1.14"/><circle class="cls-19" cx="368.43" cy="195.19" r="1.14"/><circle class="cls-5" cx="372.47" cy="195.19" r="1.14"/><path class="cls-11" d="M425.79,255c0,7.61-17.93,13.77-40.06,13.77s-40.07-6.16-40.07-13.77"/><polygon id="_Path_4" data-name="&lt;Path&gt;" class="cls-6" points="398.5 267.63 414.11 257.8 338.05 256.77 323.1 265.79 398.5 267.63"/><g class="cls-25"><polygon class="cls-26" points="373.88 286.21 329.36 282.21 329.57 278.73 374.08 282.72 373.88 286.21"/></g><path id="_Path_5" data-name="&lt;Path&gt;" class="cls-27" d="M400.11,268l-85.8-1a2.88,2.88,0,0,1-2.78-3l.55-53.39a9.13,9.13,0,0,1,9-9.24l73.6.86a9.1,9.1,0,0,1,8.82,9.42L403,265A2.89,2.89,0,0,1,400.11,268Z"/><g class="cls-28"><polygon class="cls-29" points="349.36 183.6 290.73 237.35 300.23 249.06 358.86 195.29 349.36 183.6"/></g><g class="cls-28"><polygon class="cls-29" points="377.63 186.82 299.64 258.32 309.15 270.01 387.14 198.53 377.63 186.82"/></g><path class="cls-5" d="M357.07,203.47v0l-24,18.46.12,1.41a85.46,85.46,0,0,0,3.43,17.6,39.4,39.4,0,0,0,6.18,12.59c3.28,4.18,7.24,6.32,11.71,6.39l2.34,0h0l2.45,0c4.49.06,8.45-2,11.77-6a38.75,38.75,0,0,0,6.24-12.4A84.83,84.83,0,0,0,380.83,224l.12-1.41Z"/><path class="cls-19" d="M377.73,223.73l-20.66-15.1v-.06l0,0,0,0v.06L336.4,223.14s2.76,33.78,20.42,34.21H357C374.75,257.45,377.73,223.73,377.73,223.73Z"/><path class="cls-5" d="M348,239.82c0-.06,0-.1-.14-.06a.22.22,0,0,0,0-.1l.85-.1v.1l-.06,0a.07.07,0,0,0,0,.06c.12.94.16,1.45.27,2.39,0,0,0,0,0,.06a.07.07,0,0,0,.06,0v.1c-.35,0-.49,0-.82.1a.22.22,0,0,0,0-.1.12.12,0,0,0,.12-.12c0-.41-.06-.59-.12-1-.69.1-1,.12-1.73.24,0,.41.08.6.14,1,0,0,0,0,0,.06a.06.06,0,0,0,.06,0,.22.22,0,0,0,0,.1l-.81.12a.22.22,0,0,0,0-.1c.06,0,.08,0,.08-.12-.14-.94-.21-1.41-.37-2.39,0-.06,0-.1-.12-.06a.22.22,0,0,0,0-.1l.83-.13a.22.22,0,0,0,0,.1s0,0-.06,0a.07.07,0,0,0,0,.06,5.52,5.52,0,0,0,.15.89l1.75-.24C348.07,240.33,348.05,240.17,348,239.82Z"/><path class="cls-5" d="M351.25,242s.08,0,.12-.07a.91.91,0,0,0,.07-.14c.34-.86.49-1.26.85-2.12l.06-.14a.2.2,0,0,0,0-.11s0-.06,0-.06,0,0-.08,0v-.1l.92,0v.1l-.06,0s0,0,0,.06a.34.34,0,0,0,0,.11.33.33,0,0,1,.06.12c.49.81.73,1.24,1.24,2.1,0,0,0,.06.07.06s.06,0,.12,0v.1l-.94,0v-.1s0,0,0,0,0,0,0,0,0-.06,0-.14-.14-.25-.22-.37l-1.31.06a1.42,1.42,0,0,1-.16.37.9.9,0,0,0,0,.16s0,0,.12,0V242l-.78,0A.07.07,0,0,1,351.25,242Zm2-1.13c-.2-.36-.31-.57-.51-1-.18.41-.26.62-.45,1Z"/><path class="cls-5" d="M359.8,241.54h0l-.16,0a3.11,3.11,0,0,1-.31.14,2.7,2.7,0,0,1-.43.12,3.6,3.6,0,0,1-.49,0,1.77,1.77,0,0,1-.65-.1,1.4,1.4,0,0,1-.55-.26,1.53,1.53,0,0,1-.39-.45,1.76,1.76,0,0,1-.16-.62,1.17,1.17,0,0,1,.14-.61,1.19,1.19,0,0,1,.39-.45,1.85,1.85,0,0,1,.57-.26,1.83,1.83,0,0,1,.67-.06,3.64,3.64,0,0,1,.51,0,1.89,1.89,0,0,1,.41.1.76.76,0,0,1,.27.1l.12,0s0,0,0,0,0,0,0,0l.08.06c-.18.27-.26.37-.45.62l0-.05v-.06s0-.06-.12-.12-.14-.06-.25-.12l-.3-.1a2,2,0,0,0-.29,0,3.58,3.58,0,0,0-.45,0,1,1,0,0,0-.36.18.56.56,0,0,0-.25.31.9.9,0,0,0-.08.4.91.91,0,0,0,.08.41,1,1,0,0,0,.25.31,2,2,0,0,0,.36.18,1.65,1.65,0,0,0,.43.06,2.42,2.42,0,0,0,.37,0,1,1,0,0,0,.35-.1.47.47,0,0,0,.26-.14c.06,0,.12-.1.12-.15a.07.07,0,0,0,0-.06l.06,0,.35.57C359.82,241.52,359.8,241.52,359.8,241.54Z"/><path class="cls-5" d="M363,241.9a.07.07,0,0,0,.08.08v.11l-.83-.06v-.11c.06,0,.12,0,.12-.1,0-1,.08-1.45.14-2.41,0-.06,0-.1-.12-.1v-.1l.86.06v.1a.07.07,0,0,0-.06,0,.1.1,0,0,0,0,.07c0,.4-.05.59-.07,1l1.21-.75a.85.85,0,0,1,.14-.1s0,0,0-.06,0,0,0,0a.07.07,0,0,0-.06,0v-.11c.47,0,.69.06,1.14.13v.1a.36.36,0,0,0-.2,0l-1.33.81c.43.56.63.82,1,1.39a.67.67,0,0,0,.17.17.94.94,0,0,0,.18.12v.1l-1-.1V242s.06,0,.06,0,0,0-.06-.13c-.35-.45-.49-.69-.84-1.12-.2.12-.28.18-.47.31A7.18,7.18,0,0,0,363,241.9Z"/><path class="cls-5" d="M367.8,241.76s0,0,0,0v.1a.37.37,0,0,0,.14.15,1.86,1.86,0,0,0,.25.14,1.18,1.18,0,0,0,.28.12,1.47,1.47,0,0,0,.27.06l.22,0h.29l.24-.06a.36.36,0,0,0,.14-.16.18.18,0,0,0-.06-.19.78.78,0,0,0-.22-.12l-.35-.1a1.63,1.63,0,0,1-.41-.1,1.52,1.52,0,0,1-.4-.12,1.63,1.63,0,0,1-.35-.17.65.65,0,0,1-.23-.28.91.91,0,0,1,0-.41.53.53,0,0,1,.13-.31.75.75,0,0,1,.26-.24,1.33,1.33,0,0,1,.45-.14,1.59,1.59,0,0,1,.61,0,1.4,1.4,0,0,1,.49.12c.14,0,.25.1.37.14l.24.14a.41.41,0,0,0,.19.06.25.25,0,0,0,.12,0s0,0,.06,0c-.18.24-.29.34-.47.59l0,0s0-.11,0-.13a.31.31,0,0,0-.14-.14l-.23-.14a1.18,1.18,0,0,0-.28-.12,1.73,1.73,0,0,0-.31-.07,1,1,0,0,0-.24,0,1,1,0,0,0-.25,0l-.18.07a.14.14,0,0,0-.08.14.3.3,0,0,0,.06.2,2.08,2.08,0,0,0,.24.15c.08,0,.23.06.35.1a1.63,1.63,0,0,1,.41.1,1.71,1.71,0,0,1,.41.12,1.11,1.11,0,0,1,.34.19.61.61,0,0,1,.21.28.9.9,0,0,1,0,.41.55.55,0,0,1-.23.43.93.93,0,0,1-.41.2,1.91,1.91,0,0,1-.49,0,2.81,2.81,0,0,1-.46,0,1.4,1.4,0,0,1-.49-.12,2.53,2.53,0,0,1-.35-.14c-.08,0-.16-.11-.2-.13l-.15-.06a.07.07,0,0,0-.06,0l-.06,0C367.57,242.13,367.65,242,367.8,241.76Z"/><path class="cls-5" d="M350.64,248.19c-.14-.41-.22-.62-.37-1,.62-.19.92-.29,1.55-.45.06.43.13.63.21,1.08a16,16,0,0,0,.12,1.67,6.09,6.09,0,0,0-.73.21C351.09,249.06,351,248.78,350.64,248.19Z"/><path class="cls-5" d="M354.09,251c.47-.06.69-.1,1.16-.14-.12-1.2-.16-1.82-.26-3a11.66,11.66,0,0,0-1.17.14c0-.3-.06-.45-.12-.75a10.39,10.39,0,0,0,1.57-.63c.45,0,.67-.05,1.14-.05,0,1.7,0,2.55.06,4.25.41,0,.62,0,1,0,0,.41,0,.59,0,1a13.42,13.42,0,0,0-3.22.16C354.19,251.59,354.13,251.41,354.09,251Z"/><path class="cls-5" d="M358.35,250.53c0-.63.51-1,1.1-1.12v0a1.66,1.66,0,0,1-.67-1.35c.08-.89,1-1.34,2.28-1.06s1.82,1.1,1.58,1.94a1.48,1.48,0,0,1-1.09.86v0a1.53,1.53,0,0,1,.6,1.61c-.25.77-1.13,1.1-2.17.88S358.27,251.39,358.35,250.53ZM361,251c.13-.45-.3-.75-1-1.16a1.1,1.1,0,0,0-.57.73.81.81,0,0,0,.7.88C360.53,251.53,360.9,251.41,361,251Zm.49-2.34a.72.72,0,0,0-.61-.86.6.6,0,0,0-.82.45c-.06.43.31.69.88,1A1,1,0,0,0,361.47,248.64Z"/><path class="cls-5" d="M346.21,233c.09.35.15.51.23.88.26,1.06.73,1.55,1.65,1.36s1-1.06.86-2c-.29-1.55-.72-2-2.86-2.77s-3.39-1.22-4.06-3.26c-.81-2.47,1.14-4.43,3.35-4.94s4.55.2,4.79,2.73c0,.31.06.47.08.78-1.14.14-1.73.24-2.87.47,0-.29-.09-.43-.15-.72-.18-1-.55-1.57-1.53-1.36s-1.08.91-.85,1.85.63,1.41,2.4,2c2.13.59,4,2,4.17,4.41.18,2-.27,4-3,4.65s-3.88-.74-4.45-2.57a8.54,8.54,0,0,1-.25-.82C344.7,233.42,345.19,233.27,346.21,233Z"/><path class="cls-5" d="M352,221.54c1.69-.14,2.53-.18,4.24-.18,2.1-.14,5,.82,4.67,3.59,0,.2,0,.33,0,.55-.16,2.08-1.1,2.59-1.92,2.82.8.3,1.94,1,1.76,3.12,0,.45-.06.65-.08,1.1-.23,2.47-1.39,3.59-4,3.57-1.33,0-2,0-3.31.12C352.84,231.32,352.46,226.42,352,221.54Zm4,5.82c1.57,0,2.08-.35,2.1-1.82a5.33,5.33,0,0,1,0-.57c0-1.22-.55-1.71-2-1.71-.39,0-.57,0-.94,0,0,1.65.06,2.47.14,4.12A3.66,3.66,0,0,1,356,227.36Zm-.51,6.87h.81c1.39,0,1.78-.55,1.82-2,0-.4,0-.59,0-1,0-1.44-.39-2.1-2.12-2.1h-.7C355.37,231.21,355.41,232.21,355.48,234.23Z"/><path class="cls-5" d="M366.74,222.48q-1,5.47-2,11c-.21,1.06.06,1.71,1,2s1.42-.33,1.65-1.31c.9-3.61,1.79-7.2,2.71-10.79,1.25.35,1.86.55,3.08,1-1.1,3.51-2.2,7-3.3,10.57-.7,2.18-2.14,3.14-4.59,2.52s-3.35-1.93-3-4.42c.45-3.67.92-7.37,1.36-11A25.72,25.72,0,0,1,366.74,222.48Z"/><path class="cls-30" d="M334.46,223.52s3.19,35.66,22,35"/><polyline class="cls-31" points="356.37 257.73 357.51 258.59 356.37 259.3"/><path class="cls-30" d="M377,236.44a44.6,44.6,0,0,0,2.38-13.65l-22.35-17.1-5.51,4.19"/><polyline class="cls-31" points="352.27 210.43 350.8 210.71 351.11 209.22"/><circle class="cls-32" cx="348.78" cy="225.4" r="0.18"/><circle class="cls-32" cx="345.15" cy="234.03" r="0.18"/><circle class="cls-32" cx="364.88" cy="223.26" r="0.18"/><circle class="cls-32" cx="371.37" cy="224.71" r="0.18"/><circle class="cls-32" cx="352.7" cy="222.07" r="0.18"/><circle class="cls-32" cx="353.68" cy="235.68" r="0.18"/><circle class="cls-32" cx="353.31" cy="228.64" r="0.18"/><circle class="cls-32" cx="365.41" cy="236.74" r="0.18"/><g class="cls-33"><path class="cls-5" d="M420.06,126.26a12.18,12.18,0,0,0-2.08,1.81,8.45,8.45,0,0,0-1.45,2.18,6.88,6.88,0,0,0-.53,2.55,13.82,13.82,0,0,0,.25,2.76,6.67,6.67,0,0,1-1-2.72,5.79,5.79,0,0,1,.41-2.93,6.14,6.14,0,0,1,1.77-2.37A6.3,6.3,0,0,1,420.06,126.26Z"/></g><path class="cls-5" d="M424.18,130.89a2.06,2.06,0,0,1,.9.75,2.18,2.18,0,0,1,.37,1.16,2.16,2.16,0,0,1-.37,1.21.67.67,0,0,1-.18.22l-.21.21a2.36,2.36,0,0,1-.51.3c.06-.18.17-.34.23-.51a2.67,2.67,0,0,0,.18-.49,2.52,2.52,0,0,0,.16-.92,2.64,2.64,0,0,0-.18-.93A3.73,3.73,0,0,0,424.18,130.89Z"/><path class="cls-5" d="M422.73,147.37a2.13,2.13,0,0,1,.9.75,2.11,2.11,0,0,1,.37,1.17,2.05,2.05,0,0,1-.37,1.2.84.84,0,0,1-.18.23l-.21.2a2.89,2.89,0,0,1-.51.31c.07-.19.17-.35.23-.51a3.33,3.33,0,0,0,.18-.49,2.61,2.61,0,0,0,.17-.92,2.72,2.72,0,0,0-.19-.94A5.54,5.54,0,0,0,422.73,147.37Z"/><path class="cls-5" d="M418.41,145.21a7.34,7.34,0,0,0-1.12,1.47,5.13,5.13,0,0,0-.64,1.63,3.41,3.41,0,0,0-.06.43c0,.06,0,.14,0,.2v.22c0,.15,0,.31,0,.43s0,.31,0,.47a3.57,3.57,0,0,0,0,.47l.07.47c0,.31.14.61.16.94a7.3,7.3,0,0,1-.49-.84l-.18-.47a1.56,1.56,0,0,1-.15-.49c0-.16-.06-.32-.08-.49a4.1,4.1,0,0,1,0-.51v-.24c0-.1,0-.16,0-.25a4.7,4.7,0,0,1,.06-.51,4,4,0,0,1,.88-1.81A3.86,3.86,0,0,1,418.41,145.21Z"/><path class="cls-5" d="M386.93,193.74a2.13,2.13,0,0,1,.9.75,2.19,2.19,0,0,1,.37,1.17,2.15,2.15,0,0,1-.37,1.2.67.67,0,0,1-.18.22l-.21.21a2.36,2.36,0,0,1-.51.3c.06-.18.17-.34.23-.51a2.67,2.67,0,0,0,.18-.49,2.5,2.5,0,0,0,.16-.91,2.65,2.65,0,0,0-.18-.94A6.18,6.18,0,0,0,386.93,193.74Z"/><polygon class="cls-5" points="317.25 125.32 317.82 123.75 316.33 124.69 315.06 123.64 315 123.56 315.02 123.6 314.98 123.58 315.04 123.67 315.51 125.22 314.02 126.15 315.76 126.28 316.29 127.91 316.88 126.34 318.59 126.44 317.25 125.32"/><polygon class="cls-5" points="339.34 105.22 337.99 104.12 338.56 102.53 337.07 103.49 335.77 102.41 335.73 102.35 335.73 102.39 335.73 102.37 335.75 102.39 336.24 104 334.75 104.96 336.5 105.06 337.01 106.69 337.63 105.16 339.34 105.22"/><polygon class="cls-5" points="360.94 89.68 361.45 91.33 359.96 92.29 361.72 92.39 362.23 94.02 362.84 92.47 360.94 89.68"/><polygon class="cls-5" points="360.94 89.7 362.29 90.8 363.78 89.86 363.21 91.45 364.55 92.56 362.82 92.47 360.94 89.7"/><polygon class="cls-5" points="306.41 151.31 306.98 149.72 305.5 150.65 304.23 149.63 304.17 149.53 304.19 149.59 304.15 149.55 304.21 149.63 304.68 151.18 303.19 152.12 304.92 152.25 305.45 153.88 306.05 152.31 307.76 152.41 306.41 151.31"/></g><path class="cls-19" d="M462.51,425.57,385.9,371.13V371l-.08.06-.08-.06v.12l-76,54.35s10.5,123.92,75.81,124.41h.37C451.76,549.47,462.51,425.57,462.51,425.57Z"/><path class="cls-5" d="M353,486c0-.23-.19-.33-.49-.29,0-.15,0-.21,0-.34,1.26-.16,1.87-.25,3.13-.4,0,.15,0,.21,0,.36a.38.38,0,0,0-.25.13.29.29,0,0,0-.08.27c.33,2.92.67,5.82,1,8.74a.41.41,0,0,0,.15.25.57.57,0,0,0,.25.06c0,.15,0,.21,0,.36l-3,.38c0-.15,0-.21,0-.34.29,0,.42-.17.4-.4-.17-1.45-.28-2.16-.44-3.61-2.15.27-4.29.59-6.41.92.21,1.45.32,2.17.53,3.62a.42.42,0,0,0,.14.25.38.38,0,0,0,.25,0c0,.15,0,.21.05.34l-3,.46c0-.15,0-.21-.07-.34.25,0,.36-.17.32-.4-.44-2.9-.88-5.79-1.3-8.69-.05-.23-.19-.32-.45-.27,0-.15,0-.21-.06-.34,1.22-.21,1.83-.29,3.07-.48,0,.14,0,.21,0,.33a.38.38,0,0,0-.32.4c.19,1.3.28,1.95.47,3.26,2.14-.34,4.3-.65,6.44-.93C353.23,487.94,353.14,487.29,353,486Z"/><path class="cls-5" d="M365,493.84a.6.6,0,0,0,.38-.3c.08-.14.16-.31.25-.5,1-2.63,2.06-5.23,3.13-7.81.08-.17.14-.34.23-.49a1,1,0,0,0,.08-.37.26.26,0,0,0-.17-.26.89.89,0,0,0-.31-.08c0-.15,0-.21,0-.36l3.44-.23c0,.15,0,.21,0,.36s-.19.08-.27.13a.3.3,0,0,0-.13.29.91.91,0,0,0,.09.31,2,2,0,0,0,.23.4c1.55,2.54,3.09,5.09,4.58,7.65a.64.64,0,0,0,.27.29,1.85,1.85,0,0,0,.4.17,2.17,2.17,0,0,0,0,.36c-1.39.06-2.08.1-3.49.19,0-.15,0-.21,0-.36a.38.38,0,0,0,.19-.06A.23.23,0,0,0,374,493a1.15,1.15,0,0,0-.19-.51c-.34-.54-.51-.84-.84-1.38-1.95.12-2.92.19-4.85.33-.25.57-.38.86-.61,1.43a1.37,1.37,0,0,0-.15.59c0,.15.15.21.4.19,0,.14,0,.21,0,.35l-2.79.24A2.4,2.4,0,0,0,365,493.84Zm7.22-4.18c-.75-1.41-1.13-2.1-1.91-3.49-.67,1.49-1,2.25-1.64,3.74Z"/><path class="cls-5" d="M396.51,491.72s-.09,0-.11,0-.06,0-.1,0a1.91,1.91,0,0,0-.57.21c-.29.15-.67.32-1.13.51a9,9,0,0,1-1.56.48,8.32,8.32,0,0,1-1.82.21,9.08,9.08,0,0,1-2.4-.31,6.43,6.43,0,0,1-2-.95,4.84,4.84,0,0,1-1.43-1.59,5.17,5.17,0,0,1-.09-4.54,4.9,4.9,0,0,1,1.41-1.66,6.82,6.82,0,0,1,2.08-1,8.89,8.89,0,0,1,2.48-.33,10.92,10.92,0,0,1,1.89.16c.56.11,1.05.24,1.47.36a5.47,5.47,0,0,1,1,.36,3.47,3.47,0,0,0,.45.17.17.17,0,0,0,.16-.09.92.92,0,0,0,.11-.14c.12.1.19.14.29.23L395,486.05a1.59,1.59,0,0,0-.21-.15v-.13s0-.08,0-.12-.16-.3-.4-.44a4,4,0,0,0-.9-.42,6.69,6.69,0,0,0-1.13-.3,5.78,5.78,0,0,0-1.12-.12,5.89,5.89,0,0,0-1.63.23,3.77,3.77,0,0,0-1.37.69,3,3,0,0,0-.9,1.11,3.15,3.15,0,0,0-.34,1.49,3,3,0,0,0,.36,1.47,3.4,3.4,0,0,0,.92,1.1,4,4,0,0,0,1.35.67,5.61,5.61,0,0,0,1.59.23,5.77,5.77,0,0,0,1.33-.15,8,8,0,0,0,1.28-.35,5,5,0,0,0,1-.49c.26-.19.4-.35.4-.52a.31.31,0,0,0-.08-.23c.1-.07.17-.09.27-.15.51.84.78,1.24,1.28,2.08C396.61,491.63,396.57,491.67,396.51,491.72Z"/><path class="cls-5" d="M408.27,493a.3.3,0,0,0,.1.27.48.48,0,0,0,.28.1c0,.15,0,.21,0,.36-1.24-.08-1.85-.13-3.09-.19,0-.15,0-.21,0-.36.29,0,.44-.08.46-.31.15-2.92.32-5.86.46-8.78,0-.23-.12-.36-.42-.38,0-.14,0-.21,0-.35,1.29.06,1.92.1,3.2.19,0,.14,0,.21,0,.35a.6.6,0,0,0-.3.07.43.43,0,0,0-.15.25c-.08,1.47-.12,2.2-.23,3.67,1.75-1.15,2.63-1.72,4.39-2.83l.49-.34a.42.42,0,0,0,.18-.23.28.28,0,0,0-.08-.21.66.66,0,0,0-.21-.08,2.17,2.17,0,0,0,0-.36c1.72.15,2.56.21,4.29.38a1.38,1.38,0,0,0,0,.35,1.2,1.2,0,0,0-.75.21c-2,1.24-3,1.87-4.94,3.13,1.31,1.66,2.57,3.36,3.83,5.06a4.32,4.32,0,0,0,.54.63,1.91,1.91,0,0,0,.65.45,2.06,2.06,0,0,0,0,.35c-1.45-.14-2.18-.21-3.65-.33a2.17,2.17,0,0,0,0-.36c.17,0,.25,0,.27-.11a1.19,1.19,0,0,0-.25-.44c-1.24-1.63-1.87-2.45-3.13-4.07-.71.46-1.05.69-1.76,1.13C408.37,491.3,408.33,491.84,408.27,493Z"/><path class="cls-5" d="M426.1,492.18a1.45,1.45,0,0,1,.19.12.56.56,0,0,0,0,.32,1.41,1.41,0,0,0,.48.52,6,6,0,0,0,.88.53,9.23,9.23,0,0,0,1.07.44,5.47,5.47,0,0,0,1,.25,8.05,8.05,0,0,0,.88.09,5.59,5.59,0,0,0,1.08-.05,2.53,2.53,0,0,0,.94-.29.86.86,0,0,0,.48-.65.72.72,0,0,0-.25-.71,2.57,2.57,0,0,0-.86-.45,9.25,9.25,0,0,0-1.28-.31c-.48-.08-1-.19-1.47-.29s-1-.26-1.45-.4a4,4,0,0,1-1.24-.63,2.54,2.54,0,0,1-.82-1,2.72,2.72,0,0,1-.19-1.47,2.64,2.64,0,0,1,.42-1.13,2.88,2.88,0,0,1,1-.91,4.8,4.8,0,0,1,1.64-.52,7.6,7.6,0,0,1,2.23,0,10.71,10.71,0,0,1,1.84.42c.51.19.95.36,1.33.54a8.28,8.28,0,0,1,.92.49,1.85,1.85,0,0,0,.63.25.66.66,0,0,0,.42,0l.21.19-1.74,2.16a1.18,1.18,0,0,1-.19-.11,1,1,0,0,0-.11-.46,1.44,1.44,0,0,0-.46-.52,4.84,4.84,0,0,0-.82-.53,6.76,6.76,0,0,0-1.05-.44,5.5,5.5,0,0,0-1.15-.27,7,7,0,0,0-.93-.06,4.18,4.18,0,0,0-.88.08,1.88,1.88,0,0,0-.67.27.67.67,0,0,0-.31.51.72.72,0,0,0,.27.73,2.67,2.67,0,0,0,.88.48,7.9,7.9,0,0,0,1.28.34l1.47.32a10.33,10.33,0,0,1,1.47.42,4.1,4.1,0,0,1,1.24.67,2.63,2.63,0,0,1,.8,1,2.42,2.42,0,0,1,.12,1.44,2.3,2.3,0,0,1-.79,1.54,3.78,3.78,0,0,1-1.49.77,6.33,6.33,0,0,1-1.81.24c-.63,0-1.22-.07-1.74-.13a10.71,10.71,0,0,1-1.87-.4,6.19,6.19,0,0,1-1.22-.48c-.32-.17-.57-.32-.76-.44a1.14,1.14,0,0,0-.5-.21.28.28,0,0,0-.27.12l-.26-.19C425.28,493.5,425.55,493.06,426.1,492.18Z"/><path class="cls-5" d="M362.8,516.54l-1.36-3.74c1.87-.65,3.78-1.2,5.71-1.68.29,1.58.44,2.35.74,3.93q.15,3,.39,6.11c-1.09.29-1.63.46-2.7.8C364.67,520.13,363.75,518.32,362.8,516.54Z"/><path class="cls-5" d="M375.53,526.79c1.72-.3,2.58-.42,4.3-.59q-.49-5.52-1-11.05c-1.75.17-2.61.3-4.33.57-.17-1.09-.25-1.64-.4-2.73a30.88,30.88,0,0,0,5.84-2.46c1.68-.12,2.52-.17,4.2-.21.1,5.19.21,10.4.29,15.58,1.49,0,2.23,0,3.72.05-.06,1.42-.08,2.14-.13,3.57a73.15,73.15,0,0,0-11.92.77C375.87,528.91,375.76,528.21,375.53,526.79Z"/><path class="cls-5" d="M391.24,524.85c.12-2.2,2.06-3.69,4.09-4.24a.3.3,0,0,1,0-.12c-1.53-1.35-2.71-2.9-2.47-4.85.44-3.93,5.16-4.67,8.35-4s6.95,3.32,5.86,7c-.52,1.74-2.29,2.73-4,3.17a.22.22,0,0,0,0,.12c1.77,1.43,2.9,3.62,2.17,5.88-1,3.24-5.13,4-8,3.3S391.05,528.19,391.24,524.85Zm9.83,1.52c.42-2-2.19-3.43-3.66-4.22a3.83,3.83,0,0,0-2.06,2.73c-.25,1.65,1,2.85,2.61,3.19C399.41,528.38,400.73,527.88,401.07,526.37Zm1.72-8.7c.33-1.45-.49-2.69-2.27-3.06-1.43-.32-2.73.23-3,1.68s1.22,2.52,3.25,3.8A4.09,4.09,0,0,0,402.79,517.67Z"/><path class="cls-5" d="M346.23,461.2c.32,1.28.49,1.94.8,3.24.59,3,2.75,5.75,6.11,4.89s3.64-4.54,3.13-7.39c-1-5.9-5.27-8.19-10.58-10-6.41-2.22-12.87-4.51-15-11.7-2.86-9.78,3.36-16.12,12.24-18.22,8.13-1.91,16.59.1,17.79,9.8.14,1.14.23,1.73.37,2.86-3.57.55-7.12,1.15-10.66,1.87-.21-1-.3-1.56-.51-2.61-.5-3.12-2.27-5.67-5.71-4.89s-3.91,4.05-3.19,6.89c1.11,4.41,4.83,5.84,8.9,7.24,8.46,2.92,14.3,6.58,15.48,16,1,8.37-2.61,15.18-11.11,17.17-7.94,1.89-14-1.42-16.42-9.24l-.95-3C340.06,463,343.13,462.06,346.23,461.2Z"/><path class="cls-5" d="M367.63,418.78c5.21-.46,10.4-.75,15.61-.86,8.44.13,18.14,2.54,17.28,12.9-.06.79-.08,1.17-.15,2-.61,4.64-2.08,9-7,10.4,4.89,1.74,7.1,6.19,6.49,11.29-.15,1.64-.21,2.44-.36,4.08-.71,8.82-6.13,13.29-14.83,13.29-4.07.06-8.12.27-12.2.63Q370.06,445.65,367.63,418.78Zm14.7,21.13c4.85-.06,7.69-1.62,7.77-6.76,0-.84,0-1.26,0-2.1.23-4.69-3.22-6.39-7.46-6.24-1.41,0-2.1,0-3.51.08l.51,15.08Zm-1.8,25.24c1.19,0,1.8-.06,3-.08,4.81.06,6.66-2.75,6.7-7.29l.1-3.59c.34-5.31-2.68-7.67-7.83-7.56l-2.6.06Q380.25,455.93,380.53,465.15Z"/><path class="cls-5" d="M422,421.47q-3.67,20.16-7.37,40.32c-.73,3.07.34,6.36,3.7,7.1s5.42-1.74,6.11-4.81q4.95-19.87,9.87-39.73,5.73,1.57,11.4,3.46-6.07,19.44-12.14,38.87c-2.45,8-9,11.41-17,9.52-8.17-1.91-12.27-7.71-11.2-16.07q2.49-20.28,5-40.57Q416.2,420.39,422,421.47Z"/><path class="cls-19" d="M303,428c.37,3.4.88,6.8,1.42,10.21s1.14,6.76,1.79,10.14c1.3,6.74,2.81,13.44,4.58,20.05s3.69,13.21,6,19.68a192.46,192.46,0,0,0,7.73,19q2.2,4.62,4.7,9.09c1.68,3,3.49,5.86,5.4,8.65l.71,1.05c.23.36.49.69.74,1l1.51,2.06,1.55,2c.26.34.53.65.8,1l.82,1c.53.65,1.09,1.28,1.66,1.91l.84.94c.29.32.59.61.86.93,1.16,1.24,2.37,2.41,3.59,3.57a58.07,58.07,0,0,0,7.94,6.23,51.65,51.65,0,0,0,8.9,4.73l1.18.46.59.23.29.13.3.1,2.41.78,2.46.65a10.12,10.12,0,0,0,1.24.27l1.24.26a58.51,58.51,0,0,0,10.18,1l0,.25A48.6,48.6,0,0,1,374,555.2l-1.3-.17c-.44-.06-.86-.1-1.28-.19l-2.57-.5-2.54-.67-.31-.09-.32-.1-.63-.21-1.24-.42a52,52,0,0,1-9.47-4.52c-1.51-.9-2.94-1.91-4.34-2.94L348,543.78l-2-1.71c-1.3-1.17-2.58-2.37-3.78-3.63-.31-.31-.61-.63-.9-.94l-.88-1c-.59-.65-1.18-1.3-1.73-2l-.84-1c-.27-.34-.54-.67-.81-1l-1.6-2.08-1.51-2.12c-.25-.36-.51-.71-.74-1.07l-.71-1.09c-1.89-2.92-3.66-5.9-5.29-9s-3.15-6.17-4.58-9.32a194.85,194.85,0,0,1-7.44-19.32c-2.16-6.56-4-13.19-5.62-19.89s-3-13.44-4.12-20.22-2.1-13.59-2.71-20.46Z"/><path class="cls-19" d="M460,472.17c.67-2,1.28-4.06,1.85-6.12.29-1,.54-2.05.84-3.08l.77-3.09c1-4.14,1.87-8.29,2.59-12.49s1.26-8.4,1.64-12.63l.25-3.17c0-.27,0-.52,0-.79l0-.8.06-1.6.07-1.59c0-.53,0-1.05,0-1.6V422l.27.54-41.6-30.38c-6.95-5-13.9-10.08-20.77-15.25l-5.15-3.88-5.12-3.91c-3.42-2.6-6.8-5.25-10.21-7.87h1.16L381.49,365l-5.18,3.72c-1.73,1.24-3.47,2.46-5.21,3.7l-2.63,1.82-2.62,1.81-.15-.21,2.46-2.06,2.46-2c1.63-1.34,3.29-2.7,4.93-4s3.3-2.69,5-4l5-4,.55-.44.61.44c3.48,2.5,7,5,10.46,7.52l5.2,3.78,5.19,3.8c6.91,5.1,13.74,10.31,20.56,15.52l41.08,31.12.27.21V422l0,3.21c0,.55,0,1.07,0,1.62l-.09,1.59-.1,1.6-.05.8-.06.79-.31,3.2c-.49,4.24-1.1,8.48-1.94,12.66s-1.76,8.36-2.87,12.47L463,463c-.3,1-.59,2.06-.91,3.07-.63,2-1.28,4.07-2,6.07Z"/><path class="cls-19" d="M368.52,378.09a6.4,6.4,0,0,1-1.26.86c-.42.23-.87.44-1.31.63a13.42,13.42,0,0,1-2.68.77l-1.87.36.42-1.87a12,12,0,0,1,.86-2.62,12.57,12.57,0,0,1,.65-1.26,6.59,6.59,0,0,1,.9-1.22,8.09,8.09,0,0,1,.32,1.47,11.32,11.32,0,0,1,.06,1.43,14.86,14.86,0,0,1-.32,2.75l-1.47-1.51a13.51,13.51,0,0,1,2.78-.26c.48,0,.94.05,1.42.11A7.43,7.43,0,0,1,368.52,378.09Z"/><path class="cls-19" d="M385.65,552.06a5.6,5.6,0,0,1,1.5.24,11.72,11.72,0,0,1,1.39.43A13.58,13.58,0,0,1,391,554l1.61,1-1.59,1.08a12.05,12.05,0,0,1-2.42,1.33,13.19,13.19,0,0,1-1.34.47,6.26,6.26,0,0,1-1.49.27,7,7,0,0,1,.78-1.28,9.72,9.72,0,0,1,.93-1.09,14.92,14.92,0,0,1,2.11-1.79l0,2.11a13.82,13.82,0,0,1-2.2-1.71c-.34-.35-.66-.68-1-1.06A7.65,7.65,0,0,1,385.65,552.06Z"/></svg>