<?xml version="1.0" encoding="utf-8"?>
<!-- Generator: Adobe Illustrator 22.1.0, SVG Export Plug-In . SVG Version: 6.00 Build 0)  -->
<svg version="1.1" id="Layer_1" xmlns="http://www.w3.org/2000/svg" xmlns:xlink="http://www.w3.org/1999/xlink" x="0px" y="0px"
	 viewBox="0 0 500 500" style="enable-background:new 0 0 500 500;" xml:space="preserve">
<style type="text/css">
	.st0{fill:#4196B7;}
	.st1{fill:#D63A27;}
	.st2{fill:#171F72;}
</style>
<g>
	<path id="ring" class="st0" d="M608.8,582.1c-132.4,0-240.1,109-240.1,242.9S476.4,1068,608.8,1068c132.4,0,240.1-109,240.1-242.9
		S741.2,582.1,608.8,582.1z M617.3,1047.9c-124.8,0-225.9-102.3-225.9-228.6s101.1-228.6,225.9-228.6s225.9,102.3,225.9,228.6
		S742.1,1047.9,617.3,1047.9z"/>
	<path class="st1" d="M577.4,943.1c3.6-4.7,5.4-7.1,5.3-8.1c-0.2-7.2-22.4-17.3-31.5-9.6c-7.3,6.2-3.8,21.7-8.9,23
		c-0.8,0.2-1.7,0-6.7-4.3c-8.8-7.6-13.2-11.4-13.8-15.3c-0.9-6.4,4.4-10.4,2.2-13.9c-1.3-2.1-4.8-3.2-7.1-1.9
		c-6.1,3.4,0.7,21.4-6.2,26.3c-3,2.1-8.1,1.4-10.2-1.4c-5-6.8,9.4-23.4,6.2-26.8c-3-3.2-21,6-28.4,23c-1.5,3.3-4.4,9.9-3.6,18.2
		c0.9,9.3,5.7,12,9,25.8c0.3,1.4,1.1,4.7,3,8.6c1.1,2.4,2.6,5.4,5.3,8.1c4,4,8.5,5.1,11.1,5.7c4.7,1.1,8.3,0.7,12.9,0
		c7.8-1.1,15.7-2.2,17.8-7.7c0.5-1.3,1.2-4.2,0.4-7.2c-0.5-2.2-1.4-2.6-1.8-4.8c-0.4-2.4,0.2-4.4,0.9-6.7c0.5-1.6,1.6-4.9,4.4-8.1
		c1.6-1.8,3.9-4.3,6.7-4.8c6.1-1,8.4,8.9,19.1,13.9c6.1,2.8,14.2,3.7,16,0.5c0.5-1,0.8-2.8-1.3-6.7c0,0-4.6-2.4-6.7-5.7
		c-2.3-3.7-1.5-8.4-1.3-9.1C570.9,951,572.3,949.8,577.4,943.1z"/>
	<path class="st1" d="M822.5,855c-7.6-8.7-22.2-8.6-24.3-15.4c-1.7-5.5,7.3-7.4,5.7-13.2c-2-7.3-19.5-14.8-25.6-11.5
		c-0.6,0.3-0.9,0.8-1.2,1.6c-1.6,2.9-0.9,15.3-5.9,35.7c-1.2,5-2.5,9.4-4.7,14.3c-2.7,6-5.5,12.1-11.3,17.2c0,0,0,0,0,0
		c-1.3,1.1-2.8,1.7-4.4,2c-7.9,1.4-19.1,6.1-26.2,15.2c-5.4,7-6.1,13.6-12.3,15.3c-4.7,1.3-6.1-2-14.2-2.9c-1.5-0.2-11.1,2-22.7,5.7
		c-9.1,3-15.3,8.7-16,10.2c-1.9,3.6-0.6,9.5,0.9,13.8c2.8,8.3,21.5,9.8,24.6,5.7c2.3-3-0.9-11.5-0.9-11.5c0,0,5.7-1.9,10.4-2.9
		c2.6-0.5,2.7-0.3,15.1-1c6.6-0.4,8.2-0.5,9.5-1.9c1.2-1.3,1.4-2.7,4.3-6.7c0.1-0.1,1-1.3,1.4-1.9c3-3.6,10.6-6.3,15.1-3.8
		c6.5,3.5,3.5,16.3,7.6,17.2c2.6,0.6,6.8-3.8,7.6-8.6c0.8-5-2.8-7.1-4.2-12.1c3.1,1.8,6.5,2.6,9.3,1.5c3.4-1.3,2.9-4.9,6.6-8.6
		c7.5-7.6,19.1-1.6,21.7-7.7c1.9-4.5-1.3-9.7-2.5-14.4c0,0,0,0,0,0c9.1-4.5,19,4.2,28.7,1.6C826.7,884.9,831.8,865.6,822.5,855z"/>
	<path class="st1" d="M585.5,867.4c0.1-1.2-12.7-0.5-16.5-7.7c-2.3-4.3,1-7-0.9-14.3c-0.4-1.6-2.2-8.3-8-12
		c-4.2-2.7-9.1-2.8-12.3-2.9c-5.7-0.1-6.9,1.3-9,0c-3.2-2.1-1.2-6.4-5.2-12.4c-1.1-1.7-2.7-4.1-5.7-5.3c-4.4-1.7-8.7,0.6-10.4,1.4
		c-4.7,2.4-7,6.4-8.5,9.1c-0.8,1.4-3,5.5-3.8,11.5c-1.5,11.1,1.6,29.1,14.7,36.8c5,2.9,10,3.5,12.8,3.8c3.6,0.4,13.2,1.5,15.1-2.4
		c2.1-4.2-7-9.6-5.2-17.7c0.5-2.5,2.2-5.5,4.3-5.7c2.9-0.4,6.2,4.4,7.6,8.6c1.5,4.7,0,7.2,1.9,9.1c1.9,1.9,5,1,9,0.5
		C577.1,866.2,585.4,868.4,585.5,867.4z"/>
	<path class="st1" d="M502.5,799.2L502.5,799.2c1.4-5.7,2.8-10.3,3.8-13.4c0,0,4-12.6,4.7-19.1c0.1-0.5,0.1-1,0.1-1s0-0.4,0.1-0.8
		c1.6-18.3-5.9-23.1-5.9-23.1c-4-2.5-9.1-1-16.1,1c-7.4,2.1-6.8,4-11.3,4.8c-10.8,1.9-15.5-8.5-26.5-6.7c-4.6,0.8-8,3.3-11.3,5.7
		c0,0-6,4.4-10.4,11.5c-9,14.4-15.5,48.8-1.9,58.3c6.6,4.7,12.3-0.6,21.7,5.7c7.4,5,5.4,9.2,13.2,14.3c6.4,4.2,8.7,2,20.8,7.7
		c5.5,2.6,8.2,3.9,11.3,6.7c5,4.5,5,7.4,10.4,11.5c2.5,1.9,5.8,4.3,10.4,4.8c5.6,0.6,12.2-1.9,12.3-1.9c0.1-7-1.9-11-3.8-13.4
		c-1.3-1.6-2.1-2-7.6-6.7c-7.6-6.5-7.7-7.3-7.6-7.7c1-2.3,15.1,1,15.1,1c6.2-1.7,8-3.9,8.5-5.7c1-4-4.4-6.5-4.7-13.4
		c-0.2-4.9,2.3-8.7,2.8-9.6c2.9-4.3,5.6-3.3,9.5-7.7c1.2-1.4,5.6-6.3,4.7-11.5c-0.8-5.2-6-5.5-6.6-10.5c-0.6-4.8,3.9-7.2,2.8-10.5
		c-1.2-3.7-7.5-6.6-11.3-4.8c-6.3,2.9-5.1,17.3-6.6,17.2c-1.2,0,0.1,5.8,0.3,3.8c1-9.9,0.5-3.8-0.3,5.8c-0.5,5.6-1.8,8.1-2.8,9.6
		c-2.4,3.5-5.8,5.1-7.6,5.7"/>
	<path class="st1" d="M641.8,717.9c1.2-1.5,21.1,6.6,32.8,25.9c5.6,9.2,12.9,26.8,6.4,34c-4.5,5-11.7,0.7-19.2,7.3
		c-5.5,4.9-3.1,8.7-8.8,14.6c-8,8.3-17.8,5.9-19.2,11.3c-1.4,5.5,8.5,9.6,7.2,16.2c-0.5,2.4-4.6,5.2-12.8,10.5
		c-8.7,5.7-11,6.2-12.8,6.5c-6.1,0.8-10.9-1.8-12-2.4c-10.7-6-13.3-21.4-11.2-22.6c2-1.2,6.9,10.4,16,10.5c5.5,0.1,11-4.2,13.6-8.9
		c3.6-6.7-0.8-10.2,2.4-16.2c4.1-7.8,13.5-5.1,18.4-13.7c0.6-1,3.8-6.9,1.6-12.1c-2.7-6.4-10.7-5.1-13.6-12.1
		c-1.4-3.3-1.4-7.8,0.8-10.5c2.4-3,5.3-1,8-4c3.6-4,3.1-12.7,1.8-15.4c-0.1-0.2-0.2-0.4-0.2-0.7c0.3-2,7.3-0.8,8.8-3.2
		C652.1,728.8,640.8,719.2,641.8,717.9z"/>
	<path class="st1" d="M673.6,736.1c2.5-2.7,10.3-9.2,16.1-6.7c5.7,2.5,2.6,10.9,9.5,16.3c6.1,4.7,11.7,0.5,15.1,4.8
		c3.1,3.8,0,9-2.8,25.8c-0.7,4,0,0.6-1.9,14.3c-7.4,53.4-11.7,59.8-17,62.2c-0.4,0.2-4.7,1.1-13.2,2.9c-10,2.1-12.4,2.4-15.1,4.8
		c-3.9,3.5-3,6.5-6.6,9.6c-3.5,2.9-5.9,1.1-14.2,2.9c-7.3,1.6-6.7,3.1-14.2,4.8c-7.5,1.7-13.1,1.3-16.1,1c-6-0.7-10.4-1.3-11.3-3.8
		c-2.1-5.6,13.4-16.4,16.1-18.2c7.8-5.4,14.5-8.1,20.8-10.5c15.5-6,23.8-9.2,34.2-8.7c1.5,0.1,6.1,0.4,6.4-0.9
		c0.5-1.6-6.9-3.2-9.5-8.6c-2.1-4.3,0.6-7.5,2.8-16.3c3.1-11.9,0.3-14.4,3.8-31.6c2.4-11.7,4.1-12.4,4.7-12.4
		c2.8-0.1,3.8,11.5,6.6,11.5c3.3,0,9.5-15.9,3.8-23c-4.5-5.6-14.2-3-18.7-9.8c-0.5-0.8-2.1-3.2-1.7-6
		C671.4,739,672.1,737.6,673.6,736.1z"/>
	<path class="st2" d="M619.1,616.6c19-4.8,32.2,5.9,35.4,1.4c2.7-3.7-3.1-16-12.1-19.4c-4.9-1.8-8.2-0.1-29.1,4.3
		c-9,1.9-9.2,2.1-10.6,2.2c-12.2,0.5-15.4-6.2-25.5-6.5c-2.2,0-8.8,2.8-22,8.6c-14.5,6.4-17.6,8.2-20.6,11.5
		c-4.7,5.1-3.2,7-7.8,15.1c-10.4,18.1-24.1,18.7-26.2,32.3c-0.7,4.4,0.3,7.3-2.1,10.8c-3.2,4.5-8.3,4.7-14.2,6.5
		c-1.3,0.4-19.1,5.9-26.2,20.1c-5.2,10.2-2.8,21.1-2.1,24.4c1.5,7.1,2.6,13.4,7.1,15.8c12.6,6.8,42.7-21,39-32.3
		c-0.8-2.4-3.4-5.1-2.8-9.3c0.5-3.3,2.6-5.5,3.5-6.5c8.7-8.9,16.2-18.9,24.8-28c10-10.5,5.5-10,17.7-24.4
		c9.3-10.9,21.7-25.2,33.3-23c3.3,0.6,3.2,2,7.8,2.9c4.8,0.9,9.1,0.3,20.6-2.9C615.1,618,616.2,617.3,619.1,616.6z"/>
	<path class="st2" d="M428.1,762.6c6.8,0.5,12.7,15.3,13.5,27.3c0.9,13.6-5.4,16-2.8,25.8c0,0,2,7.4,21.3,25.1l0,0
		c0,0,3.2,5.7,2.1,7.2c-1.7,2.2-12-7.8-30.5-14.3c-5.5-1.9-10-3-12.1-7.2c-2-4,0.3-6.8-0.7-12.9c-1.1-6.9-5-9.1-7.1-13.6
		C405.6,786.6,419.1,762,428.1,762.6z"/>
	<path class="st2" d="M428.8,841.1c10.7-7.9,60.2,30.9,58.1,58.1c-0.2,2.6-1.2,10.3-2.8,18.7c-2.9,14.8-4.6,16.2-5,21.5
		c-1.5,20.6,22.5,32.8,19.1,38.7c-3.4,5.9-32.6,2.6-39.7-12.9c-5.9-12.9,8.9-22.6,5.7-47.3c-0.6-4.4-2.2-16.7-10.6-28
		c-8.8-11.7-16.8-11.6-22.7-23C426.5,858.3,423.9,844.6,428.8,841.1z"/>
	<path class="st2" d="M754.9,727.5c0.9-2.4-12.3-5.6-21.3-18.7c-7.8-11.2-5.2-19.1-8.5-30.1c-9.7-31.8-55.7-46.8-85.1-48.1
		c-1.4-0.1-24.4-1-25.5,4.3c-0.8,3.8,18.1,4.5,36.2,20.1c11,9.5,11.6,15.7,20.6,17.9c11.5,2.9,17.6-5.7,26.2-1.4
		c4,1.9,4.7,4.7,12.8,21.5c10.8,22.5,13.1,24.9,14.9,26.5C736.6,730,753.9,730.1,754.9,727.5z"/>
	<path class="st2" d="M615.5,748.6c0-0.2,2-0.2,4.5-0.8c0,0,4-1,7.8-3.6c2.4-1.7,9.8-6.7,9.2-13.4c-0.5-6.3-7.7-10-10.4-11.3
		c-5.1-2.6-9.9-2.5-12-2.4c-4.5,0.2-8.8,0.3-11.2,3.2c-4.1,4.9,2,11.7-2.4,18.6c-2,3.1-5.3,4.9-8,6.5c-4.5,2.5-5.7,1.7-8.8,4
		c-4.3,3.3-5.8,7.9-6.4,9.7c-0.7,2.3-1.7,5.3-0.8,8.9c0.6,2.5,1.8,3.3,5.6,8.1c4,4.9,5.9,7.4,6.4,8.9c1.9,6.1-3.6,9-3.2,15.4
		c0.5,8.5,11.4,18.8,20,16.2c5.6-1.7,10-8.7,9.6-14.6c-0.3-4-2.8-6-1.6-8.9c1.3-3.2,5-2.1,7.2-5.7c-1.6-6.1-0.6-9.4,0.8-11.3
		c1.5-2,3-1.9,8-4.9c5.1-3,7.6-4.6,8.8-7.3c1.8-4.3,0.1-10.4-3.5-13c-1.4-1-4.1-1.2-9.4-1.6C619.7,748.9,615.5,748.9,615.5,748.6z"
		/>
	<path class="st2" d="M764.8,791c-1.8-0.2-2.3,14.3-8.5,15.8c-7.3,1.8-16.8-15.7-20.6-13.6c-2.3,1.3,0.5,8.3-2.8,10.8
		c-2.8,2-6.3-1.6-9.2-0.7c-10.1,3.2-0.3,57.7-7.1,59.5c-3.6,1-8.8-13.4-14.2-12.2c-3.3,0.7-2.2,6.3-6.4,12.2
		c-7.6,10.8-21.1,6.3-26.9,16.5c-0.2,0.3-0.3,0.6-0.5,1c-0.6,1.3-1.7,2.1-3,2.4c-6.5,1.4-8.8,6.1-16.6,8.5c-6.9,2.2-12.8,1-17.1,0.3
		c-1.2-0.2-2.4-0.6-3.5-1.4c-3.6-2.6-8.2-4.5-12.6-4.9c-7.5-0.7-9.6,3.3-17,1.4c-5.1-1.3-5.4-3.6-12.9-6.4
		c-3.9-1.4-6.8-1.9-12.5-2.8c-8.9-1.4-13.4-2.1-17.8,0c-1.4,0.6-4.1,2-5.9,5.1c-1.7,3-1.4,6-1.3,7.4c0.6,6.2,5.1,11.7,10.2,14.6
		c5,2.9,7.8,1.6,9.8,4.6c2.6,4-1,8.4,1.2,10.7c3.2,3.2,15.5-1.5,15.7-6.3c0.1-1.8-1.5-3.2-3.6-5.2c0,0-2-1.9-9-5.5
		c0,0,0.5-6.6,2.7-7.6c2.8-1.2,5.9,8,12.4,8.6c3,0.3,3.4-1.5,13.5-6.7c7.7-3.9,10.1-4.3,12.4-3.7c0.2,0.1,5.2,1.3,6.3,5
		c0.1,0.4,0.2,0.7,0.2,1c-0.5,0.2-1,0.5-1.4,0.7c-4.3,2.6-8.5,8.3-7.2,12.4c1.6,4.8,9,2.6,17.6,10.1c4.2,3.7,3.7,5.3,7.2,7.1
		c6.9,3.4,14.7,0.1,16.4-0.6c6-2.5,9.2-6.8,9.8-7.7c3.5-4.9,4.9-11.3,3.6-12c-1.3-0.7-3.6,5.2-9.8,7.7c-7.5,3.1-18.1,0.2-21.4-6
		c1.8,0.9,8.8,3.9,14.7,0.8c4.6-2.4,8.3-8.3,8.3-8.3c0,0,4.6-0.1,7.7-1c5.3-1.5,8.5-5.9,9.2-6.9c0.1-0.2,0.3-0.4,0.5-0.7
		c7.7,0.7,18.6-2.8,24.6-10.2c5.4-6.8,5.4-15.3,7.1-15.1c1.2,0.1,1.5,4.6,3.5,15.8c1.9,10,2.5,11.2,3.5,11.5
		c3,0.9,5.5-7.1,14.2-14.3c8.5-7.1,11.7-4.1,19.9-10.8c9.6-7.9,13-18.5,14.2-22.2c1.5-5,1.7-8.5,2.1-17.9
		C766.2,799.3,766.2,791.2,764.8,791z"/>
	<path class="st1" d="M658.1,669.2c-1.9-1-4.2-0.8-8.9-0.4c-5.6,0.5-7,1.7-9.6,0.7c-2.5-1-3.9-3-5.3-5.4c-3.1-4.9-2.9-8.1-4.3-11.5
		c-4.1-10.4-18.5-13.9-20.2-14.3c-8.6-2-10.6,1.5-17-1.8c-4.4-2.2-6.3-5.3-11.3-5.7c-1.1-0.1-3.9-0.3-5.9,0.9
		c-0.3-0.3-0.6-0.5-1-0.7c-2.3-1-5.2,0.8-9,3.3c-7.8,5.2-6.6,9.1-13.2,13.4c-4.2,2.7-6.5,2.4-12.3,6.7c-3,2.2-4.4,3.7-4.7,5.7
		c-0.6,3.4,2.3,5.5,1.4,7.2c-1.2,2.3-7-1.1-12.8,1c-6.5,2.4-9.8,10.7-10.4,16.7c-0.1,0.6-0.9,11.2,3.8,13.4
		c2.8,1.3,5.4-1.4,14.7-3.3c3.1-0.6,5.7,0.2,6.1-1c0.7-1.6-3.7-3.6-3.8-7.7c-0.1-2.8,1.9-4.8,2.4-5.3c2.6-2.7,4.9-1.3,8-3.3
		c5.1-3.3,6-11.3,6.1-12.9c0.5-4.6-0.8-6.8,0.5-7.7c2.4-1.7,7.4,6,13.7,5.3c6.1-0.7,10.1-8.8,11.6-13.7c1.9,2.9,6.6,8.7,14.7,9.9
		c5.8,0.9,6.5-2.4,11.3-1.4c6.6,1.3,6.7,7.3,16.7,15.1c4.3,3.3,7.8,5,12.4,7.2c7.3,3.5,11.6,5.4,14.5,3.6c4.1-2.5,2.3-10.1,5-10.8
		c3.6-0.9,8.6,12.6,10.6,11.8C663.8,683.7,663.7,672.2,658.1,669.2z"/>
	<path class="st2" d="M593.3,684.4c5.8-0.6,9.9-11.2,10.4-19.1c0.1-2.2,1.1-15.1-6.6-20.1c-9.6-6.3-26.5,4.6-35,14.3
		c-5,5.7-3,8.8-9.5,17.2c-5.2,6.8-8.6,8.3-10.4,14.3c-1.6,5.6,0.4,7.5-1.9,12.4c-2.1,4.7-5.9,7.2-9.5,9.6c-8.4,5.6-12.2,2.2-18,6.7
		c-5.8,4.5-9.6,13.3-6.9,18.1c2.3,4,9.3,4.8,11,5c5,0.6,7.6-0.9,8.9,0.7c1.7,2.3-3,6.2-1.4,10c1.9,4.7,11.5,5.3,13.1,5.4
		c4.8,0.3,6.1-1,8.9,0.4c2.3,1.1,3.7,3.2,6.4,7.5c4,6.3,3.5,7.5,5.7,9.3c4.7,3.9,12.3,3,12.8,1.4c0.6-2-10.1-5.1-9.6-8.6
		c0.2-1.7,3.4-2.7,9.6-4.7c7.7-2.4,9.9-2.2,12.8-4.7c0.7-0.6,4.6-4,3.9-7.5c-0.7-3.8-6.3-5.8-11-7.5c-5.3-1.9-8.4-1.9-8.5-2.9
		c-0.1-1.8,11.2-0.7,17.7-8.3c5.5-6.2,6.4-11.5,6.4-11.5c0.3-1.8,0.3-3.1,1.4-4.3c2.3-2.3,5.6,0.1,9.2-1.4c4.5-1.9,3.2-7.4,7.4-10
		c5.6-3.5,13.1,2.5,14.5,0.4c1.3-1.9-3.2-9.5-10.3-12.2c-1.2-0.5-2.8-0.9-16.3-0.4c-8.2,0.3-9,0.5-11.3,0c-2-0.5-8-2.1-12.1-7.5
		c-1.2-1.6-4.4-5.9-2.8-8.6c1.4-2.3,6-2.6,8.9-1.1c2.4,1.3,2.2,3,5,5C586.4,682.1,590.1,684.8,593.3,684.4z"/>
</g>
<g>
	<path id="ring_1_" class="st0" d="M248.1,25.6c-128.4,0-232.8,101.7-232.8,226.6s104.4,226.6,232.8,226.6
		c128.4,0,232.8-101.7,232.8-226.6S376.4,25.6,248.1,25.6z M256.3,460.1c-121,0-219.1-95.5-219.1-213.2S135.3,33.6,256.3,33.6
		s219.1,95.5,219.1,213.2S377.3,460.1,256.3,460.1z"/>
	<g>
		<path class="st1" d="M357.6,350.9c3.4-7.4,5.3-8.7,4.6-9.8c-2.2-3.3-23.1,0-33.9,13.4c-5.3,6.5-5.9,12.7-11.9,14.3
			c-4.5,1.2-5.9-1.9-13.7-2.7c-1.5-0.2-10.8,1.8-22,5.4c-8.9,2.8-14.8,8.2-15.6,9.5c-1.8,3.4-0.6,8.9,0.9,12.9
			c2.8,7.8,20.8,9.2,23.9,5.3c2.2-2.8-0.9-10.7-0.9-10.7c0,0,5.5-1.8,10.1-2.7c2.5-0.5,2.6-0.3,14.7-0.9c6.4-0.3,7.9-0.5,9.2-1.8
			c1.1-1.2,1.4-2.5,4.1-6.3c0.1-0.1,0.9-1.2,1.4-1.8c2.9-3.4,10.3-5.8,14.7-3.6c6.3,3.3,3.4,15.2,7.3,16.1c2.5,0.6,6.6-3.6,7.3-8
			c0.9-5.6-4.2-7.3-4.6-14.3C352.8,361.3,354.4,357.8,357.6,350.9z"/>
		<path class="st1" d="M220,369.6c3.5-4.4,5.2-6.6,5.2-7.6c-0.2-6.7-21.7-16.2-30.6-8.9c-7.1,5.8-3.6,20.3-8.6,21.4
			c-0.8,0.2-1.6,0-6.5-4c-8.5-7.1-12.8-10.6-13.3-14.3c-0.9-6,4.3-9.7,2.2-12.9c-1.3-1.9-4.7-3-6.9-1.8c-5.9,3.2,0.7,20-6,24.5
			c-2.9,2-7.9,1.3-9.9-1.3c-4.9-6.3,9.1-21.8,6-25c-2.9-3-20.3,5.6-27.5,21.4c-1.4,3.1-4.2,9.3-3.4,17c0.9,8.7,5.5,11.2,8.7,24.1
			c0.3,1.3,1.1,4.4,2.9,8.1c1.1,2.2,2.5,5,5.2,7.6c3.9,3.7,8.2,4.8,10.8,5.4c4.6,1.1,8,0.6,12.5,0c7.6-1,15.2-2.1,17.2-7.1
			c0.5-1.2,1.1-3.9,0.4-6.7c-0.5-2-1.3-2.4-1.7-4.5c-0.4-2.3,0.2-4.1,0.9-6.2c0.5-1.5,1.5-4.6,4.3-7.6c1.5-1.7,3.7-4,6.5-4.5
			c5.9-1,8.2,8.3,18.5,12.9c5.9,2.6,13.8,3.4,15.5,0.4c0.5-0.9,0.8-2.7-1.3-6.2c0,0-4.4-2.2-6.5-5.4c-2.3-3.5-1.4-7.9-1.3-8.5
			C213.7,377,215.1,375.9,220,369.6z"/>
		<path class="st1" d="M421.3,235.3c5.9-3,22.9,4,24.8,10.8c1.5,5.4-7.2,7.2-5.6,12.3c2,6.3,16.2,6.2,23.6,14.4
			c9,9.9,4.1,27.9-7.8,30.9c-9.1,2.3-18.4-5.3-27-1.9c-7.2,2.8-7.1,10.9-7.6,10.7c-0.7-0.2,0.9-13.5,9.4-23.3
			c5.2-6.1,7.9-9.1,12.3-10.2c0.6-0.1,1.9-0.4,2-1.1c0.2-1.7-6.7-5.5-13.4-6.3c-7.1-0.9-9.2,2.2-12,0.8c-4-2-0.7-9-0.5-24.7
			c0-0.5-0.8-3.8-0.1-7.8C420,237.4,420.1,236,421.3,235.3z"/>
		<path class="st1" d="M420.9,236.2c2.3-0.3,7.6,9,7.3,18.7c-0.2,7-3.2,10.8-0.9,13.4c3.3,3.6,12.6-0.6,13.7,1.8
			c1.2,2.5-8.4,7.3-7.3,12.5c0.8,3.8,6.7,4.7,6.4,7.1c-0.3,2.8-8,1.9-11,6.2c-3.8,5.6,4.6,13.3,1.8,19.6c-2.5,5.7-13.8,0.1-21.1,7.1
			c-3.6,3.5-3.1,6.8-6.4,8c-4.7,1.8-11.3-1.9-14.7-6.2c-3.7-4.8-4.8-12-1.8-17c2.6-4.3,5.8-2.9,11.9-8c5.7-4.7,8.4-10.4,11-16.1
			c2.2-4.7,3.4-8.7,4.6-13.4C419.9,248.6,418.3,236.5,420.9,236.2z"/>
		<polygon class="st1" points="442.6,265.7 424.2,276.8 438,290.3 450.8,273.2 		"/>
		<path class="st1" d="M253.2,305.3c0.1-1.1-12.4-0.4-16-7.1c-2.2-4,1-6.5-0.9-13.4c-0.4-1.5-2.2-7.7-7.8-11.2
			c-4.1-2.5-8.8-2.6-11.9-2.7c-5.6-0.1-6.7,1.3-8.7,0c-3.1-2-1.2-6-5-11.6c-1.1-1.6-2.6-3.8-5.5-4.9c-4.2-1.6-8.5,0.5-10.1,1.3
			c-4.6,2.3-6.8,6-8.2,8.5c-0.8,1.3-2.9,5.1-3.7,10.7c-1.5,10.4,1.5,27.2,14.2,34.4c4.9,2.7,9.7,3.3,12.4,3.6
			c3.5,0.4,12.8,1.4,14.7-2.2c2-3.9-6.8-9-5-16.5c0.5-2.3,2.1-5.1,4.1-5.4c2.8-0.3,6,4.1,7.3,8c1.5,4.4,0,6.7,1.8,8.5
			c1.8,1.7,4.8,1,8.7,0.4C245,304.2,253.1,306.2,253.2,305.3z"/>
		<path class="st1" d="M145,228.2L145,228.2c1.4-5.3,2.7-9.6,3.7-12.5c0,0,3.8-11.8,4.6-17.8c0.1-0.5,0.1-0.9,0.1-0.9s0-0.4,0.1-0.7
			c1.5-17.1-5.7-21.5-5.7-21.5c-3.8-2.4-8.8-1-15.6,0.9c-7.2,2-6.6,3.7-11,4.5c-10.5,1.8-15-7.9-25.7-6.2c-4.5,0.7-7.7,3-11,5.4
			c0,0-5.8,4.1-10.1,10.7c-8.8,13.4-15.1,45.5-1.8,54.4c6.4,4.4,12-0.5,21.1,5.4c7.2,4.6,5.2,8.6,12.8,13.4
			c6.2,3.9,8.4,1.8,20.2,7.1c5.3,2.4,7.9,3.6,11,6.2c4.9,4.2,4.9,6.9,10.1,10.7c2.4,1.7,5.6,4,10.1,4.5c5.4,0.5,11.9-1.8,11.9-1.8
			c0.1-6.6-1.9-10.3-3.7-12.5c-1.2-1.5-2-1.9-7.3-6.2c-7.4-6.1-7.5-6.8-7.3-7.1c0.9-2.2,14.7,0.9,14.7,0.9c6-1.5,7.8-3.6,8.2-5.4
			c1-3.7-4.3-6.1-4.6-12.5c-0.2-4.6,2.2-8.2,2.7-8.9c2.8-4,5.4-3.1,9.2-7.1c1.2-1.3,5.4-5.9,4.6-10.7c-0.8-4.8-5.8-5.2-6.4-9.8
			c-0.6-4.5,3.8-6.8,2.7-9.8c-1.2-3.5-7.2-6.1-11-4.5c-6.1,2.7-5,16.1-6.4,16.1c-1.1,0-2.1-8-1.8-8c0.3,0,2.6,8,1.8,17
			c-0.5,5.2-1.8,7.6-2.7,8.9c-2.4,3.3-5.6,4.7-7.3,5.4"/>
		<path class="st1" d="M198.2,106.8c6.2-0.7,10.1-8.8,11.5-13.4c1.8-6.2,1.3-14.6-2.3-16.1c-2.3-1-5,0.8-8.7,3.1
			c-7.6,4.9-6.4,8.5-12.8,12.5c-4,2.5-6.3,2.3-11.9,6.2c-2.9,2.1-4.2,3.5-4.6,5.4c-0.6,3.2,2.3,5.1,1.4,6.7
			c-1.2,2.1-6.8-1.1-12.4,0.9c-6.3,2.2-9.5,10-10.1,15.6c0,0.5-0.9,10.4,3.7,12.5c2.7,1.2,5.2-1.3,14.2-3.1c3-0.6,5.5,0.2,6-0.9
			c0.7-1.5-3.6-3.4-3.7-7.1c-0.1-2.6,1.9-4.5,2.3-4.9c2.5-2.5,4.7-1.2,7.8-3.1c5-3.1,5.8-10.5,6-12c0.5-4.3-0.7-6.3,0.5-7.1
			C187.2,100.3,192,107.5,198.2,106.8z"/>
		<path class="st1" d="M285.2,93c-8.4-1.9-10.3,1.4-16.5-1.7c-4.3-2.1-6.1-5-11-5.4c-1.3-0.1-4.8-0.4-6.9,1.7
			c-3.9,4,1.1,13.2,1.4,13.7c0.6,1.1,5.3,9.2,15.1,10.7c5.6,0.8,6.3-2.2,11-1.3c6.4,1.2,6.5,6.8,16.2,14.1c4.1,3.1,7.6,4.7,12,6.7
			c7.1,3.2,11.2,5,14.1,3.3c4-2.3,2.3-9.4,4.8-10c3.5-0.9,8.3,11.7,10.3,11c1.7-0.6,1.6-11.3-3.8-14.1c-1.8-0.9-4.1-0.7-8.6-0.3
			c-5.5,0.5-6.8,1.6-9.3,0.7c-2.4-0.9-3.7-2.8-5.2-5c-3-4.6-2.8-7.5-4.1-10.7C300.9,96.7,286.9,93.3,285.2,93z"/>
		<path class="st1" d="M280.1,152.3c1.1-1.4,20.4,6.2,31.8,24.1c5.4,8.6,12.5,25,6.2,31.7c-4.4,4.7-11.4,0.7-18.6,6.8
			c-5.4,4.6-3,8.1-8.5,13.6c-7.8,7.8-17.3,5.5-18.6,10.6c-1.4,5.2,8.3,8.9,7,15.1c-0.5,2.3-4.5,4.8-12.4,9.8
			c-8.4,5.3-10.7,5.8-12.4,6c-5.9,0.7-10.5-1.7-11.6-2.3c-10.4-5.6-12.9-19.9-10.8-21.1c1.9-1.1,6.7,9.7,15.5,9.8
			c5.4,0.1,10.7-3.9,13.2-8.3c3.5-6.2-0.7-9.5,2.3-15.1c4-7.3,13.1-4.8,17.8-12.8c0.5-0.9,3.6-6.5,1.5-11.3
			c-2.6-6-10.3-4.8-13.2-11.3c-1.3-3.1-1.3-7.3,0.8-9.8c2.3-2.8,5.1-0.9,7.7-3.8c3.5-3.8,3-11.8,1.7-14.4c-0.1-0.1-0.2-0.4-0.2-0.7
			c0.3-1.9,7.1-0.8,8.5-3C290,162.5,279.1,153.5,280.1,152.3z"/>
		<path class="st1" d="M332,170.2c2.4-2.5,10-8.6,15.6-6.2c5.5,2.3,2.6,10.2,9.2,15.2c5.9,4.4,11.4,0.5,14.7,4.5
			c3,3.6,0,8.4-2.7,24.1c-0.7,3.7,0,0.5-1.8,13.4c-7.2,49.8-11.4,55.8-16.5,58c-0.4,0.2-4.6,1-12.8,2.7c-9.7,1.9-12,2.2-14.7,4.5
			c-3.8,3.2-2.9,6-6.4,8.9c-3.4,2.7-5.7,1-13.7,2.7c-7.1,1.5-6.5,2.9-13.7,4.5c-7.3,1.6-12.8,1.2-15.6,0.9c-5.8-0.7-10.1-1.2-11-3.6
			c-2.1-5.2,13-15.3,15.6-17c7.6-5.1,14.1-7.5,20.2-9.8c15-5.6,23-8.6,33.2-8.1c1.4,0.1,5.9,0.4,6.2-0.8c0.4-1.5-6.7-3-9.2-8
			c-2-4,0.6-7,2.7-15.2c3-11.1,0.3-13.5,3.7-29.4c2.3-10.9,3.9-11.6,4.6-11.6c2.8-0.1,3.7,10.7,6.4,10.7c3.2,0,9.2-14.8,3.7-21.4
			c-4.4-5.2-13.8-2.8-18.1-9.1c-0.5-0.8-2-3-1.6-5.6C329.9,172.9,330.5,171.6,332,170.2z"/>
	</g>
	<g id="blue">
		<path class="st2" d="M258.1,57.8c18.4-4.5,31.3,5.5,34.4,1.3c2.6-3.5-3-14.9-11.7-18.1c-4.7-1.7-7.9-0.1-28.2,4
			c-8.7,1.8-8.9,2-10.3,2c-11.9,0.5-14.9-5.8-24.7-6c-2.1,0-8.6,2.6-21.3,8c-14.1,6-17,7.7-19.9,10.7c-4.5,4.8-3.1,6.6-7.6,14.1
			c-10.1,16.9-23.4,17.5-25.4,30.1c-0.7,4.1,0.3,6.8-2.1,10c-3.1,4.2-8.1,4.4-13.7,6c-1.2,0.4-18.5,5.5-25.4,18.7
			c-5,9.5-2.8,19.7-2.1,22.8c1.5,6.6,2.5,12.5,6.9,14.7c12.2,6.3,41.4-19.6,37.8-30.1c-0.8-2.2-3.3-4.8-2.7-8.7
			c0.4-3.1,2.6-5.2,3.4-6c8.4-8.3,15.8-17.7,24.1-26.1c9.6-9.8,5.3-9.3,17.2-22.8c9-10.2,21-23.5,32.3-21.4c3.2,0.6,3.1,1.8,7.6,2.7
			c4.6,0.9,8.8,0.3,19.9-2.7C254.2,59.1,255.2,58.5,258.1,57.8z"/>
		<path class="st2" d="M72.8,194c6.6,0.4,12.3,14.3,13.1,25.4c0.8,12.6-5.3,14.9-2.7,24.1c0,0,1.9,6.9,20.6,23.4l0,0
			c0,0,3.1,5.4,2.1,6.7c-1.6,2-11.6-7.3-29.6-13.4c-5.3-1.8-9.7-2.8-11.7-6.7c-1.9-3.7,0.3-6.4-0.7-12c-1.1-6.5-4.9-8.5-6.9-12.7
			C51,216.4,64,193.5,72.8,194z"/>
		<path class="st2" d="M73.5,267.2c10.4-7.3,58.3,28.8,56.4,54.2c-0.2,2.4-1.2,9.6-2.7,17.4c-2.8,13.8-4.4,15.2-4.8,20.1
			c-1.4,19.2,21.8,30.6,18.6,36.1c-3.3,5.5-31.6,2.4-38.5-12c-5.8-12.1,8.6-21.1,5.5-44.2c-0.5-4.1-2.1-15.5-10.3-26.1
			c-8.5-10.9-16.2-10.8-22-21.4C71.2,283.3,68.7,270.5,73.5,267.2z"/>
		<path class="st2" d="M286.3,331.9c-1.4-3.4-7.3-3.9-8.9-4c-8.8-0.7-11,4.4-19.9,6c-6.9,1.2-12.4-0.5-16.5-1.6
			c-1.2-0.3-2.3-0.9-3.3-1.7c-3.2-2.8-7.4-5.1-11.5-6c-7.1-1.5-9.6,2-16.5-0.7c-4.8-1.8-4.8-3.9-11.7-7.4c-3.6-1.8-6.3-2.5-11.7-4
			c-8.4-2.3-12.6-3.4-17.2-2c-1.4,0.4-4.2,1.4-6.2,4c-2,2.6-2,5.4-2.1,6.7c-0.1,5.8,3.6,11.4,8.2,14.7c4.5,3.2,7.4,2.4,8.9,5.4
			c2.1,4-1.9,7.7,0,10c2.8,3.4,15.1,0.4,15.8-4c0.3-1.6-1.1-3.1-2.9-5.2c0,0-1.7-2-8.1-6.1c0,0,1.2-6.1,3.4-6.7
			c2.9-0.8,4.8,8,11,9.4c2.8,0.6,3.4-1,13.7-4.7c7.8-2.8,10.2-2.8,12.4-2c0.2,0.1,4.9,1.8,5.5,5.4c0.7,3.7-3.6,5.6-2.7,8.7
			c0.7,2.5,4.2,3.9,6.9,4c2,0.1,4-0.6,5.7-1.7c0.8,0.8,1.8,1.6,2.9,2.4c0.7,0.5,7.8,5.1,14.4,2.7c4.7-1.7,8.9-6.7,8.9-6.7
			c0,0,4.5,0.4,7.6,0c5.3-0.8,8.8-4.5,9.6-5.4C283.6,339.7,287.7,335.3,286.3,331.9z"/>
		<path class="st2" d="M415.5,264.4c1.3-30.4,1.3-38,0-38.1c-1.7-0.2-2.2,13.3-8.2,14.7c-7.1,1.7-16.3-14.6-19.9-12.7
			c-2.2,1.2,0.5,7.7-2.7,10c-2.7,1.9-6.1-1.5-8.9-0.7c-9.8,2.9-0.3,53.8-6.9,55.5c-3.4,0.9-8.6-12.5-13.7-11.4
			c-3.2,0.7-2.1,5.9-6.2,11.4c-7.4,10.1-20.5,5.9-26.1,15.4c-2.2,3.7-3.1,9.3-0.7,12c5,5.6,22.8,3,30.9-6.7
			c5.3-6.3,5.2-14.2,6.9-14.1c1.2,0.1,1.4,4.2,3.4,14.7c1.8,9.3,2.4,10.4,3.4,10.7c2.9,0.8,5.3-6.6,13.7-13.4
			c8.3-6.6,11.3-3.8,19.2-10c9.3-7.4,12.6-17.3,13.7-20.7C414.9,276.5,415.1,273.2,415.5,264.4z"/>
		<path class="st2" d="M389.7,161.2c0.9-2.2-11.9-5.3-20.6-17.4c-7.5-10.4-5-17.8-8.2-28.1c-9.4-29.6-54-43.6-82.5-44.8
			c-1.4-0.1-23.7-0.9-24.7,4c-0.8,3.6,17.5,4.2,35.1,18.7c10.6,8.8,11.3,14.6,19.9,16.7c11.2,2.7,17-5.3,25.4-1.3
			c3.8,1.8,4.5,4.4,12.4,20.1c10.5,21,12.7,23.3,14.4,24.8C372,163.6,388.8,163.7,389.7,161.2z"/>
		<path class="st2" d="M254.5,181c0-0.2,1.9-0.2,4.4-0.8c0,0,3.9-0.9,7.6-3.4c2.4-1.6,9.5-6.3,9-12.5c-0.5-5.9-7.5-9.3-10.1-10.6
			c-5-2.5-9.6-2.3-11.6-2.3c-4.4,0.2-8.5,0.3-10.8,3c-4,4.6,1.9,11-2.3,17.3c-1.9,2.9-5.1,4.6-7.7,6c-4.4,2.4-5.6,1.6-8.5,3.8
			c-4.1,3-5.6,7.4-6.2,9.1c-0.7,2.2-1.6,4.9-0.8,8.3c0.6,2.3,1.7,3.1,5.4,7.5c3.8,4.6,5.8,6.9,6.2,8.3c1.8,5.6-3.5,8.4-3.1,14.3
			c0.5,8,11.1,17.5,19.4,15.1c5.4-1.6,9.7-8.2,9.3-13.6c-0.3-3.8-2.7-5.6-1.5-8.3c1.3-3,4.8-1.9,7-5.3c-1.6-5.7-0.6-8.8,0.8-10.6
			c1.5-1.9,2.9-1.8,7.7-4.5c4.9-2.8,7.4-4.2,8.5-6.8c1.8-4,0.1-9.7-3.4-12.1c-1.3-0.9-3.9-1.1-9.1-1.5
			C258.6,181.2,254.5,181.2,254.5,181z"/>
		<path class="st2" d="M233,121.1c5.6-0.6,9.6-10.4,10.1-17.8c0.1-2,1-14.1-6.4-18.7c-9.3-5.9-25.7,4.3-33.9,13.4
			c-4.8,5.3-2.9,8.2-9.2,16.1c-5.1,6.4-8.4,7.7-10.1,13.4c-1.6,5.2,0.3,7-1.8,11.6c-2.1,4.4-5.7,6.7-9.2,8.9
			c-8.1,5.2-11.8,2.1-17.4,6.2c-5.7,4.2-9.3,12.5-6.6,16.8c2.3,3.7,9,4.5,10.7,4.7c4.8,0.5,7.4-0.8,8.6,0.7c1.7,2.1-2.9,5.8-1.4,9.4
			c1.8,4.4,11.2,4.9,12.7,5c4.7,0.3,5.9-0.9,8.6,0.3c2.2,1,3.6,3,6.2,7c3.9,5.9,3.4,7,5.5,8.7c4.5,3.6,11.9,2.8,12.4,1.3
			c0.5-1.8-9.8-4.8-9.3-8c0.2-1.6,3.3-2.5,9.3-4.4c7.5-2.3,9.6-2,12.4-4.4c0.6-0.5,4.4-3.7,3.8-7c-0.7-3.5-6.1-5.4-10.7-7
			c-5.1-1.8-8.2-1.8-8.2-2.7c-0.1-1.7,10.8-0.7,17.2-7.7c5.3-5.8,6.2-10.7,6.2-10.7c0.3-1.6,0.3-2.9,1.4-4c2.2-2.2,5.4,0.1,8.9-1.3
			c4.4-1.8,3.1-6.9,7.2-9.4c5.4-3.3,12.7,2.3,14.1,0.3c1.3-1.8-3.1-8.9-10-11.4c-1.2-0.4-2.7-0.8-15.8-0.3c-7.9,0.3-8.7,0.5-11,0
			c-2-0.4-7.8-2-11.7-7c-1.1-1.4-4.3-5.5-2.7-8c1.3-2.2,5.8-2.4,8.6-1c2.3,1.2,2.1,2.8,4.8,4.7C226.3,118.9,229.9,121.4,233,121.1z"
			/>
		<path class="st2" d="M248,350.8c-1.8-4.5,1.7-7.6-0.7-10.7c-2.5-3.3-9.2-3.3-13.7-1.3c-4.4,1.9-9.1,6.7-8.2,10.7
			c1,4.6,8.4,3.5,15.8,11.4c3.6,3.9,3,5.3,6.2,7.4c6.3,3.9,14.2,1.8,15.8,1.3c6.1-1.7,9.6-5.3,10.3-6c3.9-4.1,6-9.9,4.8-10.7
			c-1.2-0.8-4.1,4.4-10.3,6C260.4,360.8,250.4,356.9,248,350.8z"/>
	</g>
</g>
</svg>
