<?xml version="1.0" encoding="utf-8"?>
<!-- Generator: Adobe Illustrator 22.1.0, SVG Export Plug-In . SVG Version: 6.00 Build 0)  -->
<svg version="1.1" id="Layer_1" xmlns="http://www.w3.org/2000/svg" xmlns:xlink="http://www.w3.org/1999/xlink" x="0px" y="0px"
	 viewBox="0 0 1280 1024" style="enable-background:new 0 0 1280 1024;" xml:space="preserve">
<style type="text/css">
	.st0{fill:#002C3C;}
	.st1{fill:#FFFFFF;}
	.st2{fill:none;stroke:#002C3C;stroke-width:9;stroke-miterlimit:10;}
	.st3{fill:none;stroke:#002C3C;stroke-width:4;stroke-miterlimit:10;}
	.st4{fill:none;stroke:#002C3C;stroke-miterlimit:10;}
</style>
<path class="st0" d="M1003.6,368.5L638.8,109.3v-0.6l-0.4,0.3l-0.4-0.3l0,0.6L276,368.1c0,0,50,590.1,361,592.4l0,0
	c0.3,0,0.6,0,0.9,0c0.3,0,0.6,0,0.9,0v0C952.4,958.5,1003.6,368.5,1003.6,368.5z"/>
<g>
	<g>
		<path class="st1" d="M482,656.2c-0.1-1.1-0.9-1.6-2.3-1.4c-0.1-0.7-0.1-1-0.2-1.6c6-0.8,8.9-1.2,14.9-1.9c0.1,0.7,0.1,1,0.2,1.7
			c-0.5,0.1-0.8,0.2-1.2,0.6c-0.3,0.3-0.5,0.8-0.4,1.3c1.6,13.9,3.2,27.7,4.7,41.6c0.1,0.5,0.3,0.9,0.7,1.2c0.4,0.2,0.8,0.3,1.2,0.3
			c0.1,0.7,0.1,1,0.2,1.7c-5.8,0.7-8.7,1.1-14.4,1.8c-0.1-0.7-0.1-1-0.2-1.6c1.4-0.2,2-0.8,1.9-1.9c-0.8-6.9-1.3-10.3-2.1-17.2
			c-10.2,1.3-20.4,2.8-30.5,4.4c1,6.9,1.5,10.3,2.5,17.2c0.1,0.5,0.3,0.9,0.7,1.2c0.4,0.2,0.8,0.3,1.2,0.2c0.1,0.7,0.1,1,0.2,1.6
			c-5.6,0.9-8.5,1.3-14.1,2.2c-0.1-0.7-0.2-1-0.3-1.6c1.2-0.2,1.7-0.8,1.5-1.9c-2.1-13.8-4.2-27.6-6.2-41.4
			c-0.2-1.1-0.9-1.5-2.1-1.3c-0.1-0.7-0.2-1-0.3-1.6c5.8-1,8.7-1.4,14.6-2.3c0.1,0.7,0.1,1,0.2,1.6c-0.5,0.1-0.8,0.3-1.1,0.6
			c-0.3,0.3-0.4,0.8-0.4,1.3c0.9,6.2,1.3,9.3,2.2,15.5c10.2-1.6,20.5-3.1,30.7-4.4C483.2,665.5,482.8,662.4,482,656.2z"/>
		<path class="st1" d="M539.3,693.6c0.8-0.2,1.4-0.7,1.8-1.4c0.4-0.7,0.8-1.5,1.2-2.4c4.8-12.5,9.8-24.9,14.9-37.2
			c0.4-0.8,0.7-1.6,1.1-2.3c0.3-0.7,0.4-1.3,0.4-1.8c0-0.6-0.3-1-0.8-1.2s-1-0.4-1.5-0.4c0-0.7-0.1-1-0.1-1.7
			c6.6-0.5,9.9-0.7,16.4-1.1c0,0.7,0.1,1,0.1,1.7c-0.4,0.2-0.9,0.4-1.3,0.6c-0.4,0.2-0.6,0.7-0.6,1.4c0,0.5,0.2,1,0.4,1.5
			s0.6,1.1,1.1,1.9c7.4,12.1,14.7,24.2,21.8,36.4c0.3,0.7,0.8,1.1,1.3,1.4c0.5,0.3,1.2,0.6,1.9,0.8c0,0.7,0,1,0.1,1.7
			c-6.6,0.3-9.9,0.5-16.6,0.9c0-0.7-0.1-1-0.1-1.7c0.2,0,0.6-0.1,0.9-0.3s0.5-0.5,0.5-0.9c0-0.6-0.3-1.4-0.9-2.4
			c-1.6-2.6-2.4-4-4-6.6c-9.3,0.6-13.9,0.9-23.1,1.6c-1.2,2.7-1.8,4.1-2.9,6.8c-0.5,1.3-0.8,2.3-0.7,2.8c0.1,0.7,0.7,1,1.9,0.9
			c0,0.7,0.1,1,0.1,1.7c-5.3,0.4-8,0.7-13.3,1.1C539.4,694.6,539.3,694.3,539.3,693.6z M573.7,673.7c-3.6-6.7-5.4-10-9.1-16.6
			c-3.2,7.1-4.7,10.7-7.8,17.8C563.5,674.4,566.9,674.2,573.7,673.7z"/>
		<path class="st1" d="M689.3,683.5c-0.2,0-0.4,0-0.5-0.1c-0.2,0-0.3-0.1-0.5-0.1c-0.4,0-1.3,0.3-2.7,1s-3.2,1.5-5.4,2.4
			s-4.7,1.7-7.4,2.3c-2.8,0.6-5.7,1-8.7,1c-4,0-7.7-0.5-11.4-1.5c-3.6-1-6.9-2.5-9.7-4.5s-5.1-4.6-6.8-7.6s-2.6-6.6-2.7-10.8
			c-0.1-4.1,0.7-7.7,2.3-10.8s3.9-5.8,6.7-7.9c2.9-2.1,6.2-3.7,9.9-4.8c3.8-1.1,7.7-1.6,11.8-1.6c3.3,0,6.3,0.3,9,0.8s5,1.1,7,1.7
			c2,0.6,3.6,1.1,4.7,1.7c1.2,0.5,1.9,0.8,2.1,0.8c0.3,0,0.6-0.1,0.8-0.4c0.2-0.3,0.4-0.5,0.5-0.7c0.6,0.5,0.9,0.7,1.4,1.1
			c-3.1,4.4-4.7,6.6-7.8,11c-0.4-0.3-0.6-0.4-1-0.7c0-0.2,0-0.4,0-0.6c0-0.2-0.1-0.4-0.1-0.6c-0.1-0.7-0.8-1.4-1.9-2.1
			c-1.1-0.7-2.6-1.4-4.3-2s-3.5-1.1-5.4-1.4c-1.9-0.4-3.7-0.6-5.3-0.6c-2.7,0-5.3,0.4-7.8,1.1c-2.5,0.7-4.6,1.8-6.5,3.3
			c-1.8,1.4-3.3,3.2-4.3,5.3c-1.1,2.1-1.6,4.4-1.6,7.1c0,2.6,0.6,5,1.7,7c1.1,2.1,2.6,3.8,4.4,5.2c1.8,1.4,3.9,2.5,6.4,3.2
			c2.4,0.7,5,1.1,7.6,1.1c2,0,4.1-0.2,6.3-0.7c2.2-0.4,4.2-1,6.1-1.7c1.8-0.7,3.4-1.5,4.6-2.3c1.2-0.9,1.9-1.7,1.9-2.5
			c0-0.4-0.1-0.8-0.4-1.1c0.5-0.3,0.8-0.4,1.3-0.7c2.4,4,3.7,5.9,6.1,9.9C689.8,683.1,689.6,683.3,689.3,683.5z"/>
		<path class="st1" d="M745.3,689.4c0,0.6,0.1,1,0.5,1.3s0.8,0.5,1.3,0.5c0,0.7-0.1,1-0.1,1.7c-5.9-0.4-8.8-0.6-14.7-0.9
			c0-0.7,0.1-1,0.1-1.7c1.4,0.1,2.1-0.4,2.2-1.5c0.7-13.9,1.5-27.9,2.2-41.8c0.1-1.1-0.6-1.7-2-1.8c0-0.7,0.1-1,0.1-1.7
			c6.1,0.3,9.1,0.5,15.2,0.9c0,0.7-0.1,1-0.1,1.7c-0.5,0-1,0.1-1.4,0.3c-0.4,0.3-0.6,0.7-0.7,1.2c-0.4,7-0.6,10.5-1.1,17.5
			c8.3-5.5,12.5-8.2,20.9-13.5c1-0.7,1.7-1.2,2.3-1.6c0.6-0.4,0.8-0.8,0.9-1.1c0-0.4-0.1-0.7-0.4-1c-0.3-0.2-0.6-0.3-1-0.4
			c0.1-0.7,0.1-1,0.1-1.7c8.2,0.7,12.2,1,20.4,1.8c-0.1,0.7-0.1,1-0.1,1.7c-1.2-0.1-2.4,0.2-3.6,1c-9.5,5.9-14.2,8.9-23.5,14.9
			c6.2,7.9,12.2,16,18.2,24.1c0.7,1,1.6,2,2.6,3s2,1.7,3.1,2.1c-0.1,0.7-0.1,1-0.1,1.7c-6.9-0.7-10.4-1-17.4-1.6
			c0.1-0.7,0.1-1,0.1-1.7c0.8,0.1,1.2-0.1,1.3-0.5c0-0.3-0.4-1-1.2-2.1c-5.9-7.8-8.9-11.7-14.9-19.4c-3.4,2.2-5,3.3-8.4,5.4
			C745.8,681.5,745.6,684.1,745.3,689.4z"/>
		<path class="st1" d="M830.2,685.7c0.4,0.2,0.5,0.3,0.9,0.6c-0.1,0.5,0,1.1,0.2,1.5c0.4,0.8,1.1,1.6,2.3,2.5s2.6,1.7,4.2,2.5
			c1.6,0.8,3.3,1.5,5.1,2.1s3.4,1,4.8,1.2c1.1,0.2,2.5,0.3,4.2,0.4c1.7,0.1,3.4,0,5.1-0.2c1.7-0.2,3.2-0.7,4.5-1.4s2.1-1.7,2.3-3.1
			c0.2-1.4-0.2-2.5-1.2-3.4c-1-0.8-2.4-1.6-4.1-2.1c-1.8-0.6-3.8-1.1-6.1-1.5s-4.6-0.9-7-1.4s-4.7-1.2-6.9-1.9
			c-2.3-0.7-4.2-1.7-5.9-3c-1.7-1.2-3-2.8-3.9-4.7s-1.2-4.2-0.9-7c0.2-1.9,0.9-3.7,2-5.4s2.8-3.1,4.9-4.3c2.1-1.2,4.7-2,7.8-2.5
			s6.6-0.4,10.6,0.1c3.4,0.5,6.3,1.2,8.8,2c2.4,0.9,4.5,1.7,6.3,2.6c1.8,0.8,3.2,1.6,4.4,2.3s2.2,1.1,3,1.2c0.9,0.1,1.6,0.1,2-0.2
			c0.4,0.4,0.6,0.6,1,0.9c-3.3,4.1-5,6.2-8.3,10.3c-0.4-0.2-0.5-0.3-0.9-0.5c0-0.9-0.2-1.6-0.5-2.2c-0.4-0.8-1.1-1.7-2.2-2.5
			c-1.1-0.9-2.4-1.7-3.9-2.5s-3.2-1.5-5-2.1s-3.6-1.1-5.5-1.3c-1.4-0.2-2.9-0.3-4.4-0.3s-2.9,0.1-4.2,0.4c-1.3,0.3-2.4,0.7-3.2,1.3
			c-0.9,0.6-1.4,1.4-1.5,2.4c-0.2,1.5,0.2,2.6,1.3,3.5c1,0.9,2.4,1.6,4.2,2.3c1.8,0.6,3.8,1.2,6.1,1.6c2.3,0.5,4.7,1,7,1.5
			c2.4,0.5,4.7,1.2,7,2s4.2,1.9,5.9,3.2s2.9,2.9,3.8,4.8c0.8,1.9,1.1,4.2,0.6,6.9c-0.5,3.2-1.7,5.6-3.8,7.3c-2,1.7-4.4,3-7.1,3.7
			c-2.7,0.8-5.6,1.1-8.6,1.1c-3-0.1-5.8-0.3-8.3-0.6c-3.6-0.5-6.5-1.1-8.9-1.9c-2.4-0.7-4.3-1.5-5.8-2.3s-2.7-1.5-3.6-2.1
			c-0.9-0.6-1.7-0.9-2.4-1c-0.4-0.1-0.9,0.1-1.3,0.6c-0.5-0.4-0.7-0.5-1.2-0.9C826.3,692,827.6,689.9,830.2,685.7z"/>
	</g>
</g>
<g>
	<g>
		<path class="st1" d="M528.8,801.7c-2.6-7.1-3.9-10.7-6.5-17.8c8.9-3.1,18-5.7,27.2-8c1.4,7.5,2.1,11.2,3.5,18.7
			c0.5,9.7,1.1,19.4,1.9,29.1c-5.2,1.4-7.8,2.2-12.9,3.8C537.7,818.8,533.3,810.2,528.8,801.7z"/>
		<path class="st1" d="M589.4,850.5c8.2-1.4,12.3-2,20.5-2.8c-1.6-17.5-3.2-35.1-4.8-52.6c-8.3,0.8-12.4,1.4-20.6,2.7
			c-0.8-5.2-1.2-7.8-1.9-13c9.5-3.3,19.1-6.5,27.8-11.7c8-0.6,12-0.8,20-1c0.5,24.7,1,49.5,1.4,74.2c7.1-0.1,10.6-0.1,17.7,0.2
			c-0.3,6.8-0.4,10.2-0.6,17c-19.2-0.3-37.8,0.9-56.8,3.7C591,860.6,590.5,857.3,589.4,850.5z"/>
		<path class="st1" d="M664.2,841.3c0.6-10.5,9.8-17.6,19.5-20.2c0-0.2,0-0.3,0.1-0.6c-7.3-6.4-12.9-13.8-11.8-23.1
			c2.1-18.7,24.6-22.2,39.8-19.2c14.7,2.9,33.1,15.8,27.9,33.3c-2.5,8.3-10.9,13-18.9,15.1c-0.1,0.2-0.1,0.3-0.1,0.6
			c8.4,6.8,13.8,17.2,10.3,28c-5,15.4-24.4,18.8-38.1,15.7C678.7,867.7,663.3,857.2,664.2,841.3z M711,848.5
			c2-9.5-10.4-16.3-17.4-20.1c-5,2.7-9,7.4-9.8,13c-1.2,7.9,4.6,13.6,12.4,15.2C703.1,858.1,709.4,855.7,711,848.5z M719.2,807.1
			c1.6-6.9-2.3-12.8-10.8-14.6c-6.8-1.5-13,1.1-14.1,8c-1.2,7.3,5.8,12,15.5,18.1C714.8,815.4,718.1,811.7,719.2,807.1z"/>
	</g>
</g>
<g>
	<g>
		<path class="st1" d="M449.9,538.2c1.5,6.1,2.3,9.2,3.8,15.4c2.8,14.4,13.1,27.4,29.1,23.3c16-4.1,17.3-21.6,14.9-35.2
			c-5-28.1-25.1-39-50.4-47.7c-30.5-10.6-61.3-21.5-71.3-55.7c-13.6-46.6,16-76.8,58.3-86.8c38.7-9.1,79,0.5,84.7,46.7
			c0.7,5.4,1.1,8.2,1.8,13.6c-17,2.6-33.9,5.5-50.8,8.9c-1-5-1.4-7.4-2.4-12.4c-2.4-14.9-10.8-27-27.2-23.3
			c-15.8,3.6-18.6,19.3-15.2,32.8c5.3,21,23,27.8,42.4,34.5c40.3,13.9,68.1,31.3,73.7,76.1c4.9,39.9-12.4,72.3-52.9,81.8
			c-37.8,9-66.7-6.8-78.2-44c-1.8-5.8-2.7-8.7-4.5-14.5C420.5,546.7,435.1,542.3,449.9,538.2z"/>
		<path class="st1" d="M551.8,336.2c24.8-2.2,49.5-3.6,74.3-4.1c40.2,0.6,86.4,12.1,82.3,61.4c-0.3,3.8-0.4,5.6-0.7,9.4
			c-2.9,22.1-9.9,43.1-33.5,49.5c23.3,8.3,33.8,29.5,30.9,53.8c-0.7,7.8-1,11.6-1.7,19.4c-3.4,42-29.2,63.3-70.6,63.3
			c-19.4,0.3-38.7,1.3-58.1,3C567.1,506.7,559.5,421.5,551.8,336.2z M621.8,436.8c23.1-0.3,36.6-7.7,37-32.2c0.1-4,0.1-6,0.2-10
			c1.1-22.3-15.3-30.4-35.5-29.7c-6.7,0.1-10,0.2-16.7,0.4c0.8,23.9,1.6,47.9,2.4,71.8C614.3,437,616.8,436.9,621.8,436.8z
			 M613.2,557c5.7-0.2,8.6-0.3,14.3-0.4c22.9,0.3,31.7-13.1,31.9-34.7c0.2-6.8,0.3-10.3,0.5-17.1c1.6-25.3-12.8-36.5-37.3-36
			c-4.9,0.1-7.4,0.2-12.4,0.3C611.3,498.4,612.3,527.7,613.2,557z"/>
		<path class="st1" d="M810.7,349c-11.7,64-23.4,128-35.1,192c-3.5,14.6,1.6,30.3,17.6,33.8c15.9,3.5,25.8-8.3,29.1-22.9
			c15.7-63.1,31.3-126.1,47-189.2c18.2,5,36.3,10.5,54.3,16.5c-19.3,61.7-38.5,123.4-57.8,185.1c-11.7,38-42.7,54.3-80.8,45.3
			c-38.9-9.1-58.4-36.7-53.3-76.5c7.9-64.4,15.9-128.8,23.8-193.2C773.9,342.5,792.3,345.5,810.7,349z"/>
	</g>
</g>
<g>
	<path d="M244,379.9c1.8,16.2,4.2,32.4,6.8,48.6c2.6,16.1,5.4,32.2,8.5,48.3c6.2,32.1,13.4,64,21.8,95.5
		c8.3,31.6,17.6,62.9,28.4,93.7c10.7,30.8,22.9,61.1,36.8,90.5c7,14.7,14.5,29.1,22.4,43.3c8,14.1,16.6,27.9,25.7,41.2l3.4,5
		c1.1,1.7,2.3,3.3,3.5,4.9l7.2,9.8l7.4,9.5c1.2,1.6,2.5,3.1,3.8,4.7l3.9,4.6c2.5,3.1,5.2,6.1,7.9,9.1l4,4.5c1.4,1.5,2.8,2.9,4.1,4.4
		c5.5,5.9,11.3,11.5,17.1,17c11.7,11,24.4,20.9,37.8,29.7c13.4,8.9,27.6,16.4,42.4,22.5l5.6,2.2l2.8,1.1l1.4,0.6l1.4,0.5l11.5,3.7
		l11.7,3.1c1.9,0.6,3.9,0.9,5.9,1.3l5.9,1.2c15.9,3,32.1,4.4,48.5,4.6l0.1,1.2c-16.3,1.6-32.9,1.5-49.4-0.4l-6.2-0.8
		c-2.1-0.3-4.1-0.5-6.1-0.9l-12.2-2.4l-12.1-3.2l-1.5-0.4l-1.5-0.5l-3-1l-5.9-2c-15.7-5.5-30.8-12.9-45.1-21.5
		c-7.2-4.3-14-9.1-20.7-14l-9.9-7.7l-9.5-8.1c-6.2-5.6-12.3-11.3-18-17.3c-1.5-1.5-2.9-3-4.3-4.5l-4.2-4.6c-2.8-3.1-5.6-6.2-8.2-9.4
		l-4-4.8c-1.3-1.6-2.6-3.2-3.9-4.9l-7.6-9.9l-7.2-10.1c-1.2-1.7-2.4-3.4-3.5-5.1l-3.4-5.2c-9-13.9-17.4-28.1-25.2-42.7
		c-7.8-14.6-15-29.4-21.8-44.4c-13.5-30-25.2-60.8-35.4-92c-10.3-31.2-19.1-62.8-26.8-94.7c-7.6-31.9-14.1-64-19.6-96.3
		c-5.4-32.3-10-64.7-12.9-97.4L244,379.9z"/>
</g>
<g>
	<path d="M630,972.1c2.5,0.2,4.6,0.7,6.8,1.3c2.1,0.6,4.1,1.4,6.1,2.3c3.9,1.8,7.4,3.9,10.7,6.4l7,5.3l-7.3,4.6
		c-3.4,2.1-6.9,3.9-10.7,5.3c-1.9,0.7-3.9,1.3-6,1.7c-2.1,0.4-4.2,0.8-6.6,0.8c1-2.1,2.2-3.9,3.4-5.6c1.3-1.7,2.6-3.2,4-4.7
		c2.8-2.9,6-5.4,9.3-7.5l-0.3,9.9c-3.4-2.4-6.5-5.2-9.3-8.4c-1.4-1.6-2.7-3.3-3.9-5.1C632,976.3,630.9,974.4,630,972.1z"/>
</g>
<g>
	<path d="M991.4,590.4c3.2-9.6,6.1-19.3,8.8-29.1c1.4-4.9,2.6-9.8,4-14.7l3.7-14.7c4.8-19.7,8.9-39.5,12.3-59.5
		c3.5-19.9,6-40,7.8-60.1l1.2-15.1c0.1-1.3,0.2-2.5,0.2-3.8l0.1-3.8l0.3-7.6l0.3-7.6c0.1-2.5,0-5,0-7.6l0-15.1l1.3,2.6L833.3,209.6
		c-33.1-24-66.2-48-98.9-72.6l-24.5-18.5l-24.4-18.6c-16.3-12.4-32.4-25-48.6-37.5l5.5,0l-24.6,17.8c-8.2,5.9-16.5,11.8-24.7,17.7
		c-8.2,5.9-16.5,11.7-24.8,17.6l-12.5,8.7l-12.5,8.6l-0.7-1l11.7-9.8l11.7-9.7c7.8-6.4,15.7-12.9,23.5-19.2
		c7.9-6.4,15.7-12.8,23.6-19.1l23.7-19l2.6-2.1l2.9,2.1c16.6,11.9,33.3,23.8,49.8,35.8l24.8,18l24.7,18.1
		c32.9,24.3,65.4,49.1,97.9,73.9l195.6,148.2l1.3,1l0,1.5l-0.2,15.3c-0.1,2.6,0,5.1-0.2,7.7l-0.4,7.6l-0.5,7.6l-0.2,3.8
		c-0.1,1.3-0.2,2.5-0.3,3.8l-1.5,15.2c-2.3,20.2-5.2,40.4-9.2,60.3c-3.9,20-8.4,39.8-13.7,59.4l-4.1,14.7c-1.4,4.9-2.8,9.8-4.3,14.6
		c-3,9.7-6.1,19.4-9.5,28.9L991.4,590.4z"/>
</g>
<g>
	<path d="M556,142.4c-1.9,1.7-3.9,3-6,4.1c-2,1.1-4.1,2.1-6.2,3c-4.2,1.7-8.4,2.9-12.8,3.7l-8.9,1.7l2-8.9c0.9-4.3,2.2-8.4,4.1-12.5
		c0.9-2,1.9-4,3.1-6c1.2-2,2.5-3.9,4.3-5.8c0.8,2.4,1.2,4.7,1.5,7c0.3,2.3,0.3,4.5,0.3,6.8c-0.1,4.5-0.6,8.8-1.5,13.1l-7-7.2
		c4.3-0.8,8.7-1.3,13.2-1.2c2.3,0.1,4.5,0.2,6.8,0.5C551.3,141.1,553.6,141.5,556,142.4z"/>
</g>
<path class="st2" d="M429.2,457"/>
<path class="st3" d="M435.4,460"/>
<path class="st3" d="M469.9,477.5"/>
<ellipse class="st4" cx="495.5" cy="404.5" rx="3.3" ry="3.4"/>
<ellipse class="st4" cx="432.1" cy="556.1" rx="3.3" ry="3.4"/>
<ellipse class="st4" cx="778.5" cy="363.3" rx="3.3" ry="3.4"/>
<ellipse class="st4" cx="892.7" cy="386.9" rx="3.3" ry="3.4"/>
<ellipse class="st4" cx="563.7" cy="345.4" rx="3.3" ry="3.4"/>
<ellipse class="st4" cx="581.9" cy="582.7" rx="3.3" ry="3.4"/>
<ellipse class="st4" cx="575.3" cy="460" rx="3.3" ry="3.4"/>
<ellipse class="st4" cx="788.2" cy="598.7" rx="3.3" ry="3.4"/>
</svg>
