<svg id="Astro" xmlns="http://www.w3.org/2000/svg" viewBox="0 0 792 612"><defs><style>.cls-1{fill:#fff;}.cls-2{font-size:21px;fill:#231f20;font-family:Rift-Regular, Rift;}.cls-3{letter-spacing:-0.01em;}.cls-4,.cls-6{letter-spacing:0em;}.cls-5,.cls-6,.cls-7,.cls-8{font-family:Rift-Light, Rift;}.cls-10,.cls-7{letter-spacing:-0.01em;}.cls-8{letter-spacing:-0.05em;}.cls-9{letter-spacing:0em;}.cls-11{font-size:14px;font-family:Nudista, Nudista;}.cls-12{letter-spacing:-0.01em;}.cls-13{letter-spacing:-0.01em;}.cls-14{letter-spacing:-0.02em;}.cls-15{letter-spacing:-0.02em;}.cls-16{font-size:15px;font-family:NudistaLight, Nudista;}.cls-17{letter-spacing:-0.08em;}.cls-18{letter-spacing:-0.02em;}.cls-19{letter-spacing:-0.01em;}.cls-20{letter-spacing:-0.01em;}.cls-21{letter-spacing:-0.05em;}</style></defs><title>CEAS Work</title><rect class="cls-1" width="792" height="330.68"/><text class="cls-2" transform="translate(24.02 52.21)">D<tspan class="cls-3" x="9.47" y="0">e</tspan><tspan x="17.41" y="0">signe</tspan><tspan class="cls-4" x="57.64" y="0">r</tspan><tspan x="67.03" y="0">/ph</tspan><tspan class="cls-4" x="92.54" y="0">ot</tspan><tspan x="109.3" y="0">ographer</tspan><tspan class="cls-5" x="182.97" y="0"> </tspan><tspan class="cls-6" x="186.33" y="0">f</tspan><tspan class="cls-5" x="193.78" y="0">or the </tspan><tspan x="244.6" y="0">dean’s office</tspan><tspan class="cls-7" x="342.37" y="0"> </tspan><tspan class="cls-8" x="345.52" y="0">a</tspan><tspan class="cls-7" x="353.38" y="0">t</tspan><tspan class="cls-5" x="360.52" y="0"> </tspan><tspan x="363.88" y="0">the coll</tspan><tspan class="cls-9" x="425.93" y="0">e</tspan><tspan x="433.93" y="0">ge of engineering</tspan><tspan class="cls-10" x="565.53" y="0"> </tspan><tspan x="568.68" y="0">and</tspan><tspan class="cls-10" x="596.91" y="0"> </tspan><tspan x="600.06" y="0">applied scienc</tspan><tspan class="cls-3" x="708.73" y="0">e</tspan><tspan x="716.66" y="0">s</tspan><tspan class="cls-11"><tspan x="0" y="34.8">My </tspan><tspan class="cls-12" x="22.02" y="34.8">w</tspan><tspan x="32.91" y="34.8">ork at this position i</tspan><tspan class="cls-13" x="158.1" y="34.8">n</tspan><tspan class="cls-14" x="165.79" y="34.8">v</tspan><tspan x="172.94" y="34.8">ol</tspan><tspan class="cls-15" x="183.5" y="34.8">v</tspan><tspan x="190.65" y="34.8">es: </tspan></tspan><tspan class="cls-16"><tspan x="0" y="73.2">+ </tspan><tspan class="cls-17" x="12.18" y="73.2">T</tspan><tspan x="19.47" y="73.2">aking pr</tspan><tspan class="cls-18" x="71.28" y="73.2">o</tspan><tspan x="78.96" y="73.2">fessional ph</tspan><tspan class="cls-18" x="158.86" y="73.2">o</tspan><tspan x="166.54" y="73.2">tos </tspan><tspan class="cls-18" x="192.65" y="73.2">o</tspan><tspan x="200.33" y="73.2">f important school </tspan><tspan class="cls-18" x="325.91" y="73.2">ev</tspan><tspan x="341.29" y="73.2">ents to be used throughout our mark</tspan><tspan class="cls-18" x="587.6" y="73.2">e</tspan><tspan x="595.28" y="73.2">ting departmen</tspan><tspan class="cls-18" x="696.24" y="73.2">t</tspan><tspan x="701.71" y="73.2">. </tspan><tspan x="0" y="91.2">These ph</tspan><tspan class="cls-18" x="61.54" y="91.2">o</tspan><tspan x="69.22" y="91.2">tos are featured on the College </tspan><tspan class="cls-18" x="281.21" y="91.2">o</tspan><tspan x="288.89" y="91.2">f Engineering and Applied Sciences </tspan><tspan class="cls-19" x="524.75" y="91.2">w</tspan><tspan x="536.65" y="91.2">ebsite, as </tspan><tspan class="cls-20" x="604.99" y="91.2">w</tspan><tspan x="616.9" y="91.2">ell as in </tspan><tspan class="cls-18" x="671.11" y="91.2">o</tspan><tspan x="678.79" y="91.2">ther </tspan><tspan x="0" y="109.2">places for mark</tspan><tspan class="cls-18" x="101.86" y="109.2">e</tspan><tspan x="109.54" y="109.2">ting and presentation purposes.</tspan><tspan x="0" y="145.2">+ Creating designs for </tspan><tspan class="cls-18" x="151.11" y="145.2">v</tspan><tspan x="158.8" y="145.2">arious purposes, including annual holid</tspan><tspan class="cls-19" x="412.68" y="145.2">a</tspan><tspan x="420.38" y="145.2">y gre</tspan><tspan class="cls-18" x="454.14" y="145.2">e</tspan><tspan x="461.82" y="145.2">tings, fl</tspan><tspan class="cls-18" x="510.93" y="145.2">y</tspan><tspan x="518.62" y="145.2">ers, and </tspan><tspan class="cls-18" x="575.88" y="145.2">o</tspan><tspan x="583.56" y="145.2">ther communciations </tspan><tspan x="0" y="163.2">ass</tspan><tspan class="cls-18" x="23.56" y="163.2">e</tspan><tspan x="31.24" y="163.2">ts</tspan><tspan x="0" y="199.2">+ Editing and creating video conten</tspan><tspan class="cls-18" x="233.95" y="199.2">t</tspan><tspan x="239.43" y="199.2">, including editing the Dean</tspan><tspan class="cls-21" x="418.24" y="199.2">’</tspan><tspan x="420.47" y="199.2">s End-In-R</tspan><tspan class="cls-18" x="485.18" y="199.2">e</tspan><tspan x="492.86" y="199.2">vi</tspan><tspan class="cls-20" x="503.77" y="199.2">e</tspan><tspan x="511.6" y="199.2">w Video to be po</tspan><tspan class="cls-18" x="623.69" y="199.2">s</tspan><tspan x="631.25" y="199.2">ted online as </tspan><tspan class="cls-19" x="0" y="217.2">w</tspan><tspan x="11.91" y="217.2">ell as sent to all faculty at Sto</tspan><tspan class="cls-20" x="213.06" y="217.2">n</tspan><tspan x="221.2" y="217.2">y Brook Uni</tspan><tspan class="cls-18" x="296.19" y="217.2">v</tspan><tspan x="303.88" y="217.2">ersity and </tspan><tspan class="cls-18" x="374.83" y="217.2">o</tspan><tspan x="382.51" y="217.2">ther uni</tspan><tspan class="cls-18" x="433.7" y="217.2">v</tspan><tspan x="441.4" y="217.2">ersities across the nation</tspan></tspan></text></svg>