<svg id="Layer_1" data-name="Layer 1" xmlns="http://www.w3.org/2000/svg" viewBox="0 0 298 102"><defs><style>.cls-1{fill:#231f20;}.cls-2{fill:#b81237;}.cls-3{fill:#fff;}</style></defs><title>CEASLogo</title><path class="cls-1" d="M58.51,41.18h-.84l-.12-7h1c.72,4,2.74,6,5.81,6,2.62,0,4.06-1.32,4.06-3.43a2.68,2.68,0,0,0-1.06-2.28,14,14,0,0,0-3.93-1.32c-3.84-1-5.69-2-5.69-5.16,0-3,2-4.9,5.11-4.9a6.49,6.49,0,0,1,4.49,1.68l.93-1.44h.89l.27,6.24h-.94c-.91-3.58-2.81-5.38-5.64-5.38-2.11,0-3.31,1.06-3.31,2.91,0,2.3,1.8,2.57,5,3.36a9.3,9.3,0,0,1,4.27,1.8A4.9,4.9,0,0,1,70.25,36c0,3.33-2.12,5.3-6,5.3a6.84,6.84,0,0,1-4.77-1.8Z"/><path class="cls-1" d="M70.49,30.83v-1c2-.14,3.09-1.85,3.21-5h1v4.88h3.46v1H74.59v6.94c0,1.37.26,2,1.42,2,1.32,0,1.92-1.06,2-3.27h.89v.32c0,2.9-1.32,4.44-3.75,4.44-2.16,0-2.73-1.06-2.73-3.32V30.83Z"/><path class="cls-1" d="M84.93,29.39c3.17,0,5.38,2.38,5.38,6s-2.23,5.93-5.38,5.93-5.4-2.35-5.4-5.93S81.77,29.39,84.93,29.39Zm0,10.9c2.11,0,3-1.56,3-4.95s-.84-5-2.93-5S82,32,82,35.34,82.87,40.29,84.91,40.29Z"/><path class="cls-1" d="M90.89,39.88l1-.05c.67,0,.79-.19.79-.89V31.65c0-.79-.29-1-1.32-1l-.72,0v-.93l4.1-.29v2.3a4.49,4.49,0,0,1,3.94-2.3c2.28,0,3.62,1.37,3.62,3.84v5.61c0,.7.15.87.8.89l1,.05v1H98.35v-1l1-.05c.63,0,.79-.19.79-.89V33.23A2,2,0,0,0,98,31c-2,0-3.08,1.34-3.08,4v4c0,.68.1.87.8.89l1,.05v1h-5.8Z"/><path class="cls-1" d="M105.33,31.82a1.82,1.82,0,0,0-.55-.77,2.4,2.4,0,0,0-1.3-.27v-1h5.6v1h-.6c-.7,0-1,.08-1,.51a2.55,2.55,0,0,0,.24.74l2.54,5.86,2.4-5.76a1.43,1.43,0,0,0,.12-.53c0-.67-.48-.79-1.68-.82v-1h4.63v1a1.82,1.82,0,0,0-1.8,1.3l-4,9.43c-1.25,2.91-2.57,4.37-4.66,4.37-1.41,0-2.21-.72-2.21-1.85a1.39,1.39,0,0,1,1.44-1.41,1.13,1.13,0,0,1,1.25,1.17,2,2,0,0,1-.19.7c0,.17.14.26.43.26.77,0,2-1.27,3-3.77l.17-.38Z"/><path class="cls-1" d="M120.09,39.76h1.25c1,0,1.27-.22,1.27-1.15V25.84c0-.94-.31-1.15-1.27-1.15h-1.25V23.56h9.08c3.4,0,5.18,1.49,5.18,4.22,0,2.07-1.34,3.44-4,4,3.31.43,4.92,1.9,4.92,4.44,0,2.91-2.26,4.66-6.36,4.66h-8.79Zm5.09-8.38h1.92c3.1,0,4.47-.72,4.47-3.38,0-2.43-1.08-3.36-3.68-3.36h-1.51c-1,0-1.2.24-1.2,1.05Zm0,7.25c0,.89.24,1.13,1.32,1.13h1.71c2.85,0,4.1-1,4.1-3.6s-1.51-3.72-5-3.72h-2.16Z"/><path class="cls-1" d="M140.8,39.83l1.47.05v1H136v-1l1.12-.05c.68,0,.8-.21.8-.89V31.65c0-.84-.32-.94-1.44-.94h-.72v-.93l4.17-.29v3.38c.75-2.28,2-3.45,3.51-3.45a2,2,0,0,1,2.18,2,1.39,1.39,0,0,1-1.39,1.48,1.3,1.3,0,0,1-1.42-1.36,1.24,1.24,0,0,1,.48-1h-.14c-1.51,0-3.1,2.28-3.1,5.84v2.56C140,39.62,140.13,39.81,140.8,39.83Z"/><path class="cls-1" d="M151.27,29.39c3.17,0,5.38,2.38,5.38,6s-2.24,5.93-5.38,5.93-5.4-2.35-5.4-5.93S148.1,29.39,151.27,29.39Zm0,10.9c2.12,0,3-1.56,3-4.95s-.84-5-2.93-5-2.93,1.58-2.93,5S149.2,40.29,151.24,40.29Z"/><path class="cls-1" d="M163.12,29.39c3.17,0,5.38,2.38,5.38,6s-2.23,5.93-5.38,5.93-5.4-2.35-5.4-5.93S160,29.39,163.12,29.39Zm0,10.9c2.11,0,3-1.56,3-4.95s-.84-5-2.93-5-2.92,1.58-2.92,5S161.06,40.29,163.1,40.29Z"/><path class="cls-1" d="M168.55,39.88l1.08-.05c.67,0,.81-.21.81-.89V25.29c0-.8-.28-1-1.32-1l-.69,0v-.94l4.2-.28V35l3.69-3.39a.92.92,0,0,0,.29-.52c0-.32-.38-.41-1.22-.41h-.77v-.91h6.15v.91h-.15c-1.56,0-2.49.74-3.72,1.87l-1.22,1.13,3.76,5a2.75,2.75,0,0,0,2.38,1.18v1h-6.19v-1l.72-.05c.55,0,.84-.07.84-.36A.81.81,0,0,0,177,39l-2.88-3.89-1.46,1.3v2.54c0,.7.14.87.81.89l1.06.05v1h-5.95Z"/><path class="cls-1" d="M193.48,23.56v1.13h-1.24c-1,0-1.28.24-1.28,1.15v9.7c0,3,1.52,4.44,4.8,4.44,2.16,0,3.6-.77,4.28-2.24a9,9,0,0,0,.36-3.33V26.85c0-1.47-.32-2.16-1.73-2.16h-1.06V23.56h6.6v1.13h-.89c-1.36,0-1.75.62-1.75,2.16V34.5c0,4.71-1.73,6.8-6.65,6.8-4.34,0-6.55-1.95-6.55-5.79V25.84c0-.91-.26-1.15-1.27-1.15h-1.39V23.56Z"/><path class="cls-1" d="M203.06,39.88l1-.05c.67,0,.79-.19.79-.89V31.65c0-.79-.28-1-1.32-1l-.72,0v-.93l4.11-.29v2.3a4.49,4.49,0,0,1,3.93-2.3c2.28,0,3.63,1.37,3.63,3.84v5.61c0,.7.14.87.79.89l1,.05v1h-5.81v-1l1-.05c.62,0,.79-.19.79-.89V33.23A2,2,0,0,0,210.14,31c-2,0-3.07,1.34-3.07,4v4c0,.68.09.87.79.89l1,.05v1h-5.81Z"/><path class="cls-1" d="M216.76,39.88l1.16-.05c.67,0,.81-.21.81-.89V31.65c0-.79-.29-1-1.32-1l-.7,0v-.93l4.21-.29v9.45c0,.7.14.87.81.89l1.06.05v1h-6ZM221.2,25a1.43,1.43,0,1,1-1.44-1.42A1.44,1.44,0,0,1,221.2,25Z"/><path class="cls-1" d="M228.23,41.27l-4.15-9.53c-.31-.74-.65-1-1.56-1h-.17v-1h5.38v1c-1,0-1.44.1-1.44.56a2.74,2.74,0,0,0,.26.76l2.6,6,2.13-5.52a2.79,2.79,0,0,0,.24-1c0-.5-.45-.82-1.32-.82h-.26v-1h4.66v1c-1.08,0-1.59.56-2,1.68L229,41.27Z"/><path class="cls-1" d="M236.78,36c0,2.55,1.29,4,3.19,4a4.15,4.15,0,0,0,3.82-2.59l.84.48a5.3,5.3,0,0,1-5.07,3.38c-3,0-5.21-2.33-5.21-5.93s2.16-6,5.21-6,5.07,2.14,5.07,5.69v.43H236.8C236.8,35.68,236.78,35.82,236.78,36Zm4.51-1.51c.62,0,.84-.14.84-.77,0-2.18-.91-3.36-2.54-3.36-1.83,0-2.72,1.37-2.76,4.13Z"/><path class="cls-1" d="M250,39.83l1.46.05v1h-6.31v-1l1.13-.05c.67,0,.79-.21.79-.89V31.65c0-.84-.31-.94-1.44-.94h-.72v-.93l4.17-.29v3.38c.75-2.28,2-3.45,3.51-3.45a2,2,0,0,1,2.18,2,1.39,1.39,0,0,1-1.39,1.48A1.29,1.29,0,0,1,252,31.58a1.21,1.21,0,0,1,.48-1h-.15c-1.51,0-3.1,2.28-3.1,5.84v2.56C249.23,39.62,249.35,39.81,250,39.83Z"/><path class="cls-1" d="M256.36,36.5c.6,2.47,2,3.76,3.94,3.76,1.53,0,2.52-.79,2.52-2s-1-1.53-2.52-1.85c-2.91-.6-4.66-1.1-4.66-3.76A3.09,3.09,0,0,1,259,29.42a4.65,4.65,0,0,1,3,.93l.7-.84h.74v4h-.74c-.67-2.09-1.87-3.15-3.58-3.15-1.34,0-2.18.75-2.18,1.66,0,1.41,1,1.58,3,2,2.83.55,4.29,1.2,4.29,3.6s-1.51,3.74-4,3.74a4.8,4.8,0,0,1-3.15-1.18l-.79,1.11h-.79V36.5Z"/><path class="cls-1" d="M265,39.88l1.15-.05c.67,0,.81-.21.81-.89V31.65c0-.79-.28-1-1.32-1l-.69,0v-.93l4.2-.29v9.45c0,.7.14.87.81.89l1.06.05v1h-6ZM269.47,25A1.43,1.43,0,1,1,268,23.53,1.45,1.45,0,0,1,269.47,25Z"/><path class="cls-1" d="M270.81,30.83v-1c2-.14,3.1-1.85,3.22-5h1v4.88h3.46v1h-3.58v6.94c0,1.37.27,2,1.42,2,1.32,0,1.92-1.06,2-3.27h.89v.32c0,2.9-1.32,4.44-3.74,4.44-2.16,0-2.74-1.06-2.74-3.32V30.83Z"/><path class="cls-1" d="M281.1,31.82a1.82,1.82,0,0,0-.55-.77,2.36,2.36,0,0,0-1.29-.27v-1h5.59v1h-.6c-.7,0-1,.08-1,.51a2.92,2.92,0,0,0,.24.74l2.54,5.86,2.4-5.76a1.43,1.43,0,0,0,.12-.53c0-.67-.48-.79-1.68-.82v-1h4.64v1a1.8,1.8,0,0,0-1.8,1.3l-4.06,9.43c-1.25,2.91-2.57,4.37-4.66,4.37-1.41,0-2.21-.72-2.21-1.85a1.4,1.4,0,0,1,1.45-1.41,1.12,1.12,0,0,1,1.24,1.17,2,2,0,0,1-.19.7c0,.17.15.26.43.26.77,0,2-1.27,3-3.77l.17-.38Z"/><path class="cls-2" d="M71.65,60c-.53,4-3.1,6.38-6.77,6.38a7.16,7.16,0,0,1-4.68-1.6,9.22,9.22,0,0,1-3.29-7.52A9.88,9.88,0,0,1,59,51a7,7,0,0,1,5.76-2.79,6.41,6.41,0,0,1,4.32,1.59L70,48.27h.91l.31,7-.94,0c-.72-4-2.59-6.07-5.2-6.07-3.36,0-5,2.67-5,8s1.58,8,5.16,8c2.74,0,4.61-1.83,5.33-5.35Z"/><path class="cls-2" d="M78.13,54.39c3.16,0,5.37,2.38,5.37,6s-2.23,5.93-5.37,5.93-5.4-2.35-5.4-5.93S75,54.39,78.13,54.39Zm0,10.9c2.11,0,3-1.56,3-5s-.84-5-2.92-5-2.93,1.58-2.93,5S76.06,65.29,78.1,65.29Z"/><path class="cls-2" d="M83.76,64.88l1.16,0c.67,0,.81-.21.81-.89V50.29c0-.8-.29-1-1.32-1l-.69,0v-.94l4.2-.28V63.94c0,.7.14.87.81.89l1.06,0v1h-6Z"/><path class="cls-2" d="M90.51,64.88l1.15,0c.67,0,.82-.21.82-.89V50.29c0-.8-.29-1-1.32-1l-.7,0v-.94l4.2-.28V63.94c0,.7.15.87.82.89l1,0v1h-6Z"/><path class="cls-2" d="M99.08,61c0,2.55,1.29,4,3.19,4a4.15,4.15,0,0,0,3.82-2.59l.84.48a5.3,5.3,0,0,1-5.07,3.38c-3,0-5.21-2.33-5.21-5.93s2.16-6,5.21-6,5.07,2.14,5.07,5.69v.43H99.1C99.1,60.68,99.08,60.82,99.08,61Zm4.51-1.51c.62,0,.84-.14.84-.77,0-2.18-.91-3.36-2.55-3.36-1.82,0-2.71,1.37-2.76,4.13Z"/><path class="cls-2" d="M108.48,58.26c0-2.24,1.83-3.87,4.59-3.87a4.9,4.9,0,0,1,3.07.91l.34-.28a3.34,3.34,0,0,1,2.16-1,1.32,1.32,0,0,1,1.44,1.49,1,1,0,0,1-1.08,1c-1.23,0-1-1.3-1.3-1.3-.09,0-.21.1-.41.27l-.5.38a3.26,3.26,0,0,1,.86,2.38c0,2.37-1.92,3.93-5.25,3.93-1.71,0-2.64.12-2.64,1.08,0,.7.55.89,1.72.89h.22l2,0h1.24c2.6,0,3.82.82,3.82,3,0,2.43-2.11,3.8-6.17,3.8-3.26,0-4.94-1-4.94-2.5,0-1,.86-1.92,2.42-2.26-1.3-.31-1.87-1-1.87-2.13a2.49,2.49,0,0,1,2.37-2.43A3.3,3.3,0,0,1,108.48,58.26Zm1.11,9.86c0,1.13,1.06,1.7,3.12,1.7,2.9,0,4.32-.67,4.32-2.11,0-1.17-.84-1.58-2.54-1.58h-3A2.07,2.07,0,0,0,109.59,68.12ZM113,61.33c1.71,0,2.48-.94,2.48-3s-.77-3-2.45-3-2.45,1-2.45,3S111.39,61.33,113,61.33Z"/><path class="cls-2" d="M122.24,61c0,2.55,1.29,4,3.19,4a4.16,4.16,0,0,0,3.82-2.59l.83.48A5.29,5.29,0,0,1,125,66.27c-3,0-5.21-2.33-5.21-5.93s2.16-6,5.21-6,5.06,2.14,5.06,5.69v.43h-7.82C122.26,60.68,122.24,60.82,122.24,61Zm4.51-1.51c.62,0,.84-.14.84-.77,0-2.18-.91-3.36-2.55-3.36-1.82,0-2.71,1.37-2.76,4.13Z"/><path class="cls-2" d="M146.56,59c0-2.65-1.53-5.47-4.37-5.47-3.83,0-6.5,3.86-6.5,7.32,0,2.63,1.54,5.42,4.38,5.42C143.9,66.26,146.56,62.43,146.56,59Zm-6.39,6.32c-1.8,0-2.18-1.4-2.18-2.57,0-2.21,1-8.27,4.1-8.27,1.8,0,2.18,1.42,2.18,2.62C144.27,59.29,143.29,65.31,140.17,65.31Z"/><path class="cls-2" d="M156.32,47.37c-3,0-4.94,3.42-5.75,6.4h-2.63l-.31,1.3h2.6c-.54,2-.92,4.1-1.3,6.09-.21,1.09-.41,2.16-.64,3.23l-.11.61c-.35,1.81-1.05,5.56-2.89,5.56-.25,0-.25-.06-.25-.1a.88.88,0,0,1,.1-.26,1.65,1.65,0,0,0,.2-.71,1.17,1.17,0,0,0-1.3-1.15,1.29,1.29,0,0,0-1.3,1.27,2,2,0,0,0,2.15,1.9c2.62,0,4.61-3.21,6.07-9.82l1.46-6.62h2.75l.28-1.3h-2.78c.42-2.11,1.4-5.45,3.35-5.45.52,0,.52.07.52.12a.51.51,0,0,1-.13.27,1.49,1.49,0,0,0-.29.88,1.23,1.23,0,0,0,1.37,1.15,1.27,1.27,0,0,0,1.22-1.32A2.12,2.12,0,0,0,156.32,47.37Z"/><path class="cls-2" d="M162,64.76h1.25c1,0,1.27-.22,1.27-1.15V50.84c0-.94-.31-1.15-1.27-1.15H162V48.56h14l.32,6.12h-1c-.31-2.11-.93-3.51-1.68-4.15s-2.25-.89-4.46-.89c-1.59,0-2,.07-2,1.2v5.5h.33c2.48,0,3.41-.82,3.63-3.32h1v7.64h-1c-.22-2.5-1.13-3.29-3.63-3.29h-.33v6.24c0,1.17.53,1.22,2.23,1.22a10.5,10.5,0,0,0,4.42-.62c1.1-.55,1.75-2.16,2.25-4.9H177l-.37,6.58H162Z"/><path class="cls-2" d="M178,64.88l1,0c.68,0,.8-.19.8-.89V56.65c0-.79-.29-1-1.32-1l-.72,0v-.93l4.1-.29v2.3a4.49,4.49,0,0,1,3.94-2.3c2.28,0,3.62,1.37,3.62,3.84v5.61c0,.7.14.87.79.89l1,0v1h-5.8v-1l1,0c.62,0,.79-.19.79-.89V58.23A2,2,0,0,0,185,56c-2,0-3.07,1.34-3.07,4v4c0,.68.1.87.79.89l1,0v1H178Z"/><path class="cls-2" d="M192,58.26c0-2.24,1.82-3.87,4.58-3.87a4.9,4.9,0,0,1,3.07.91L200,55a3.34,3.34,0,0,1,2.16-1,1.32,1.32,0,0,1,1.44,1.49,1,1,0,0,1-1.08,1c-1.23,0-1-1.3-1.3-1.3-.09,0-.21.1-.41.27l-.5.38a3.26,3.26,0,0,1,.86,2.38c0,2.37-1.92,3.93-5.25,3.93-1.71,0-2.64.12-2.64,1.08,0,.7.55.89,1.73.89h.21l2,0h1.24c2.6,0,3.82.82,3.82,3,0,2.43-2.11,3.8-6.17,3.8-3.26,0-4.94-1-4.94-2.5,0-1,.86-1.92,2.42-2.26-1.29-.31-1.87-1-1.87-2.13a2.49,2.49,0,0,1,2.38-2.43A3.29,3.29,0,0,1,192,58.26Zm1.1,9.86c0,1.13,1.06,1.7,3.12,1.7,2.9,0,4.32-.67,4.32-2.11,0-1.17-.84-1.58-2.54-1.58h-3A2.07,2.07,0,0,0,193.12,68.12Zm3.46-6.79c1.7,0,2.47-.94,2.47-3s-.77-3-2.45-3-2.45,1-2.45,3S194.92,61.33,196.58,61.33Z"/><path class="cls-2" d="M203.78,64.88l1.15,0c.67,0,.81-.21.81-.89V56.65c0-.79-.28-1-1.32-1l-.69,0v-.93l4.2-.29v9.45c0,.7.14.87.81.89l1.06,0v1h-6ZM208.22,50a1.43,1.43,0,1,1-1.44-1.42A1.45,1.45,0,0,1,208.22,50Z"/><path class="cls-2" d="M210.35,64.88l1,0c.68,0,.8-.19.8-.89V56.65c0-.79-.29-1-1.33-1l-.72,0v-.93l4.11-.29v2.3a4.49,4.49,0,0,1,3.94-2.3c2.28,0,3.62,1.37,3.62,3.84v5.61c0,.7.14.87.79.89l1,0v1h-5.8v-1l1,0c.62,0,.79-.19.79-.89V58.23A2,2,0,0,0,217.43,56c-2,0-3.07,1.34-3.07,4v4c0,.68.1.87.79.89l1,0v1h-5.81Z"/><path class="cls-2" d="M225.81,61c0,2.55,1.29,4,3.19,4a4.15,4.15,0,0,0,3.82-2.59l.84.48a5.3,5.3,0,0,1-5.07,3.38c-3,0-5.21-2.33-5.21-5.93s2.16-6,5.21-6,5.07,2.14,5.07,5.69v.43h-7.83C225.83,60.68,225.81,60.82,225.81,61Zm4.51-1.51c.62,0,.84-.14.84-.77,0-2.18-.91-3.36-2.54-3.36-1.83,0-2.72,1.37-2.76,4.13Z"/><path class="cls-2" d="M236.92,61c0,2.55,1.3,4,3.19,4a4.15,4.15,0,0,0,3.82-2.59l.84.48a5.3,5.3,0,0,1-5.07,3.38c-3,0-5.2-2.33-5.2-5.93s2.16-6,5.2-6,5.07,2.14,5.07,5.69v.43h-7.83C236.94,60.68,236.92,60.82,236.92,61Zm4.51-1.51c.63,0,.84-.14.84-.77,0-2.18-.91-3.36-2.54-3.36-1.83,0-2.71,1.37-2.76,4.13Z"/><path class="cls-2" d="M249.78,64.83l1.47,0v1h-6.32v-1l1.13,0c.67,0,.79-.21.79-.89V56.65c0-.84-.31-.94-1.44-.94h-.72v-.93l4.18-.29v3.38c.75-2.28,2-3.45,3.51-3.45a2,2,0,0,1,2.18,2,1.39,1.39,0,0,1-1.39,1.48,1.3,1.3,0,0,1-1.42-1.36,1.24,1.24,0,0,1,.48-1h-.14c-1.51,0-3.1,2.28-3.1,5.84v2.56C249,64.62,249.11,64.81,249.78,64.83Z"/><path class="cls-2" d="M255.18,64.88l1.16,0c.67,0,.81-.21.81-.89V56.65c0-.79-.29-1-1.32-1l-.7,0v-.93l4.21-.29v9.45c0,.7.14.87.81.89l1.06,0v1h-6ZM259.62,50a1.43,1.43,0,1,1-1.44-1.42A1.44,1.44,0,0,1,259.62,50Z"/><path class="cls-2" d="M261.76,64.88l1,0c.67,0,.79-.19.79-.89V56.65c0-.79-.28-1-1.32-1l-.72,0v-.93l4.11-.29v2.3a4.49,4.49,0,0,1,3.93-2.3c2.28,0,3.63,1.37,3.63,3.84v5.61c0,.7.14.87.79.89l1,0v1h-5.81v-1l1,0c.62,0,.79-.19.79-.89V58.23A2,2,0,0,0,268.84,56c-2,0-3.07,1.34-3.07,4v4c0,.68.09.87.79.89l1,0v1h-5.81Z"/><path class="cls-2" d="M275.7,58.26c0-2.24,1.83-3.87,4.59-3.87a4.9,4.9,0,0,1,3.07.91l.34-.28a3.34,3.34,0,0,1,2.16-1,1.32,1.32,0,0,1,1.44,1.49,1,1,0,0,1-1.08,1c-1.23,0-1-1.3-1.3-1.3-.1,0-.22.1-.41.27l-.5.38a3.26,3.26,0,0,1,.86,2.38c0,2.37-1.92,3.93-5.25,3.93-1.71,0-2.64.12-2.64,1.08,0,.7.55.89,1.72.89h.22l1.94,0h1.25c2.59,0,3.82.82,3.82,3,0,2.43-2.11,3.8-6.17,3.8-3.27,0-4.95-1-4.95-2.5,0-1,.87-1.92,2.43-2.26-1.3-.31-1.87-1-1.87-2.13a2.49,2.49,0,0,1,2.37-2.43A3.29,3.29,0,0,1,275.7,58.26Zm1.11,9.86c0,1.13,1.05,1.7,3.12,1.7,2.9,0,4.32-.67,4.32-2.11,0-1.17-.84-1.58-2.55-1.58h-3A2.07,2.07,0,0,0,276.81,68.12Zm3.45-6.79c1.71,0,2.48-.94,2.48-3s-.77-3-2.45-3-2.45,1-2.45,3S278.61,61.33,280.26,61.33Z"/><path class="cls-2" d="M60.62,91.27c-2,0-3.31-1.15-3.31-2.93,0-2.4,2.4-3.64,7.46-4.46V82.73c0-1.59-.5-2.31-2.56-2.31-1.4,0-2.16.44-2.16.87,0,.26.57.55.57,1.34a1.13,1.13,0,0,1-1.25,1.2A1.27,1.27,0,0,1,58,82.46c0-1.68,1.77-3.07,4.63-3.07,3.22,0,4.39,1.13,4.39,3.55v5.57c0,.72.29,1.11.89,1.11.43,0,.77-.34,1-.34a.35.35,0,0,1,.29.38c0,.53-.94,1.47-2.26,1.47a2,2,0,0,1-2-1.78A5.59,5.59,0,0,1,60.62,91.27Zm-1-3.26A1.7,1.7,0,0,0,61.56,90c1.87,0,3.21-1.17,3.21-3.45V84.91C61.34,85.37,59.66,86.26,59.66,88Z"/><path class="cls-2" d="M68.73,89.88l1,0c.67,0,.79-.19.79-.89V81.65c0-.79-.29-1-1.32-1l-.72,0v-.93l4.1-.29v2.3a4.49,4.49,0,0,1,3.94-2.3c2.28,0,3.62,1.37,3.62,3.84v5.61c0,.7.15.87.79.89l1,0v1H76.2v-1l1,0c.62,0,.79-.19.79-.89V83.23A2,2,0,0,0,75.81,81c-2,0-3.07,1.34-3.07,4v4c0,.68.1.87.79.89l1,0v1H68.73Z"/><path class="cls-2" d="M86.59,91.22c-2.71,0-4.82-2.32-4.82-5.88s2.18-6,4.87-6A3.83,3.83,0,0,1,90,81.12V75.29c0-.84-.33-.94-1.48-.94h-.84v-.94l4.53-.28V88.85c0,.84.27,1,1.27,1H94v1l-3.89.26v-2A4,4,0,0,1,86.59,91.22Zm.53-1.32c2,0,2.85-1.51,2.85-4.6s-.79-4.59-2.88-4.59-2.85,1.49-2.85,4.59S85,89.9,87.12,89.9Z"/><path class="cls-2" d="M107.49,73.27l6.12,15.29c.39.94.68,1.2,1.66,1.2l.48,0v1.15h-7.18V89.74h.92c1,0,1.46-.08,1.46-.63a2.41,2.41,0,0,0-.22-.84l-1.1-3h-6.46l-.74,1.87a4.53,4.53,0,0,0-.34,1.44c0,.77.6,1.18,1.76,1.18h.59v1.15H98.25V89.74h.19c1.42,0,1.9-.56,2.48-2l5.64-14.45Zm-1.15,3.79-2.74,7h5.6Z"/><path class="cls-2" d="M122.11,79.39c2.69,0,4.85,2.38,4.85,5.86,0,3.65-2.19,6-4.9,6a3.79,3.79,0,0,1-3.33-1.73V94c0,.7.14.84.81.86l1,.05v1h-5.86v-1l1-.05c.68,0,.8-.16.8-.86V81.82c0-.84-.27-1-1.23-1l-.6,0v-1l3.89-.29v2.07A4,4,0,0,1,122.11,79.39Zm-.38,1.39c-2.19,0-3,1.49-3,4.61s.79,4.59,2.88,4.59,2.88-1.49,2.88-4.59S123.67,80.78,121.73,80.78Z"/><path class="cls-2" d="M134.35,79.39c2.69,0,4.85,2.38,4.85,5.86,0,3.65-2.19,6-4.9,6A3.81,3.81,0,0,1,131,89.57V94c0,.7.15.84.82.86l1,.05v1h-5.86v-1l1-.05c.68,0,.8-.16.8-.86V81.82c0-.84-.27-1-1.23-1l-.6,0v-1l3.89-.29v2.07A4,4,0,0,1,134.35,79.39ZM134,80.78c-2.18,0-3,1.49-3,4.61s.8,4.59,2.89,4.59,2.88-1.49,2.88-4.59S135.91,80.78,134,80.78Z"/><path class="cls-2" d="M139.44,89.88l1.15,0c.67,0,.81-.21.81-.89V75.29c0-.8-.28-1-1.32-1l-.69,0v-.94l4.2-.28V88.94c0,.7.14.87.82.89l1.05,0v1h-6Z"/><path class="cls-2" d="M146.06,89.88l1.15,0c.67,0,.82-.21.82-.89V81.65c0-.79-.29-1-1.32-1l-.7,0v-.93l4.2-.29v9.45c0,.7.15.87.82.89l1.06,0v1h-6ZM150.5,75a1.43,1.43,0,1,1-1.44-1.42A1.43,1.43,0,0,1,150.5,75Z"/><path class="cls-2" d="M154.63,86c0,2.55,1.29,4,3.19,4a4.15,4.15,0,0,0,3.82-2.59l.84.48a5.3,5.3,0,0,1-5.07,3.38c-3,0-5.21-2.33-5.21-5.93s2.16-6,5.21-6,5.07,2.14,5.07,5.69v.43h-7.83C154.65,85.68,154.63,85.82,154.63,86Zm4.51-1.51c.62,0,.84-.14.84-.77,0-2.18-.91-3.36-2.54-3.36-1.83,0-2.72,1.37-2.76,4.13Z"/><path class="cls-2" d="M168.14,91.22c-2.71,0-4.82-2.32-4.82-5.88s2.18-6,4.87-6a3.83,3.83,0,0,1,3.33,1.73V75.29c0-.84-.33-.94-1.48-.94h-.84v-.94l4.53-.28V88.85c0,.84.27,1,1.27,1h.56v1l-3.89.26v-2A4,4,0,0,1,168.14,91.22Zm.53-1.32c2,0,2.85-1.51,2.85-4.6s-.79-4.59-2.88-4.59-2.85,1.49-2.85,4.59S166.58,89.9,168.67,89.9Z"/><path class="cls-2" d="M182.08,91.18h-.84l-.12-7h1c.72,4,2.73,6,5.81,6,2.61,0,4.05-1.32,4.05-3.43a2.68,2.68,0,0,0-1.05-2.28A14,14,0,0,0,187,83.21c-3.84-1-5.69-2-5.69-5.16,0-3,2-4.9,5.11-4.9a6.47,6.47,0,0,1,4.49,1.68l.94-1.44h.89l.26,6.24H192c-.91-3.58-2.8-5.38-5.64-5.38-2.11,0-3.31,1.06-3.31,2.91,0,2.3,1.8,2.57,5,3.36a9.39,9.39,0,0,1,4.28,1.8,4.93,4.93,0,0,1,1.46,3.7c0,3.33-2.11,5.3-5.95,5.3a6.87,6.87,0,0,1-4.78-1.8Z"/><path class="cls-2" d="M200.18,91.27c-3,0-5.21-2.25-5.21-5.73,0-3.72,2.28-6.15,5.57-6.15,2.35,0,3.86,1.27,3.86,2.76a1.57,1.57,0,0,1-1.6,1.73,1.31,1.31,0,0,1-1.42-1.32c0-.91.74-1.08.74-1.42s-.6-.79-1.68-.79c-2,0-3,1.61-3,4.8s1.08,4.66,3.32,4.66c1.44,0,2.42-.79,3.07-2.45l.86.43C203.8,90.17,202.39,91.27,200.18,91.27Z"/><path class="cls-2" d="M205.39,89.88l1.15,0c.67,0,.82-.21.82-.89V81.65c0-.79-.29-1-1.32-1l-.7,0v-.93l4.2-.29v9.45c0,.7.14.87.82.89l1,0v1h-6ZM209.83,75a1.43,1.43,0,0,1-1.44,1.42A1.42,1.42,0,1,1,209.83,75Z"/><path class="cls-2" d="M214,86c0,2.55,1.29,4,3.19,4A4.14,4.14,0,0,0,221,87.41l.84.48a5.29,5.29,0,0,1-5.06,3.38c-3,0-5.21-2.33-5.21-5.93s2.16-6,5.21-6,5.06,2.14,5.06,5.69v.43H214C214,85.68,214,85.82,214,86Zm4.51-1.51c.62,0,.84-.14.84-.77,0-2.18-.91-3.36-2.55-3.36-1.82,0-2.71,1.37-2.76,4.13Z"/><path class="cls-2" d="M222.12,89.88l1,0c.67,0,.79-.19.79-.89V81.65c0-.79-.29-1-1.32-1l-.72,0v-.93l4.1-.29v2.3a4.49,4.49,0,0,1,3.94-2.3c2.28,0,3.62,1.37,3.62,3.84v5.61c0,.7.15.87.8.89l1,0v1h-5.81v-1l1,0c.63,0,.79-.19.79-.89V83.23A2,2,0,0,0,229.2,81c-2,0-3.08,1.34-3.08,4v4c0,.68.1.87.8.89l1,0v1h-5.8Z"/><path class="cls-2" d="M240.45,91.27c-3,0-5.21-2.25-5.21-5.73,0-3.72,2.28-6.15,5.57-6.15,2.35,0,3.87,1.27,3.87,2.76a1.58,1.58,0,0,1-1.61,1.73,1.31,1.31,0,0,1-1.42-1.32c0-.91.75-1.08.75-1.42s-.6-.79-1.68-.79c-2,0-3,1.61-3,4.8s1.08,4.66,3.31,4.66c1.44,0,2.42-.79,3.07-2.45l.86.43C244.08,90.17,242.66,91.27,240.45,91.27Z"/><path class="cls-2" d="M248.08,86c0,2.55,1.3,4,3.2,4a4.15,4.15,0,0,0,3.81-2.59l.84.48a5.29,5.29,0,0,1-5.06,3.38c-3,0-5.21-2.33-5.21-5.93s2.16-6,5.21-6,5.06,2.14,5.06,5.69v.43h-7.82C248.11,85.68,248.08,85.82,248.08,86Zm4.52-1.51c.62,0,.84-.14.84-.77,0-2.18-.92-3.36-2.55-3.36-1.82,0-2.71,1.37-2.76,4.13Z"/><path class="cls-2" d="M258,86.5c.6,2.47,2,3.76,3.93,3.76,1.54,0,2.52-.79,2.52-2s-1-1.53-2.52-1.85c-2.9-.6-4.65-1.1-4.65-3.76a3.08,3.08,0,0,1,3.33-3.24,4.67,4.67,0,0,1,3,.93l.69-.84H265v4h-.75c-.67-2.09-1.87-3.15-3.57-3.15-1.35,0-2.19.75-2.19,1.66,0,1.41,1,1.58,3,2,2.84.55,4.3,1.2,4.3,3.6s-1.51,3.74-4,3.74a4.78,4.78,0,0,1-3.14-1.18l-.79,1.11h-.8V86.5Z"/><path class="cls-3" d="M47.79,14.5C36.49,7.61,18.7,8,7.28,14.5V32.58c-.13,9.73,6.13,18.8,14.61,23a25.41,25.41,0,0,0,5.65,2,25.51,25.51,0,0,0,5.64-2c8.47-4.18,14.74-13.25,14.6-23Z"/><path class="cls-2" d="M41.23,49.38,32.71,9.74c-.36,0-.72-.06-1.08-.09l7.16,42.14A27.75,27.75,0,0,0,41.23,49.38Z"/><path class="cls-2" d="M47.74,34,37.9,10.6c-.37-.09-.75-.16-1.14-.23L47.2,38A22.25,22.25,0,0,0,47.74,34Z"/><path class="cls-2" d="M33.18,55.56c.64-.32,1.27-.67,1.88-1l-4.88-45L29,9.52l3,46.6Z"/><path class="cls-2" d="M45.63,42.62,35.26,10.08c-.36-.06-.73-.1-1.09-.15L44,45.68A26.43,26.43,0,0,0,45.63,42.62Z"/><path class="cls-2" d="M47.79,14.5A32.41,32.41,0,0,0,39.5,11l8.28,17.36Z"/><path class="cls-2" d="M7.28,14.5V32.58c-.14,9.73,6.13,18.8,14.61,23a25.51,25.51,0,0,0,5.64,2V9.49A42.61,42.61,0,0,0,7.28,14.5ZM19.8,31l1.13,3.48L18,32.35,15,34.5,16.15,31l-2.93-2.14h3.63L18,25.42l1.13,3.46h3.63Z"/></svg>