<svg id="Layer_1" data-name="Layer 1" xmlns="http://www.w3.org/2000/svg" viewBox="0 0 288 144"><defs><style>.cls-1{fill:#231f20;}.cls-2{fill:#aa182c;}.cls-3{fill:#fff;}</style></defs><title>CEAS</title><path class="cls-1" d="M53,61.45H52.2l-.12-7h1c.72,4,2.74,6,5.81,6,2.62,0,4.06-1.32,4.06-3.43a2.66,2.66,0,0,0-1.06-2.28,14,14,0,0,0-3.93-1.32c-3.84-1-5.69-2-5.69-5.16,0-3,2-4.9,5.11-4.9a6.49,6.49,0,0,1,4.49,1.68l.94-1.44h.88l.27,6.24H63c-.91-3.57-2.81-5.37-5.64-5.37-2.11,0-3.31,1-3.31,2.9,0,2.31,1.8,2.57,5,3.36a9.41,9.41,0,0,1,4.27,1.8,4.91,4.91,0,0,1,1.47,3.7c0,3.34-2.11,5.3-6,5.3a6.85,6.85,0,0,1-4.78-1.8Z"/><path class="cls-1" d="M65,51.1v-1c2-.14,3.09-1.84,3.21-5h1v4.87H72.7V51.1H69.12V58c0,1.37.26,2,1.42,2,1.32,0,1.92-1,2-3.26h.89v.31c0,2.9-1.32,4.44-3.75,4.44-2.16,0-2.73-1.06-2.73-3.31V51.1Z"/><path class="cls-1" d="M79.46,49.66c3.17,0,5.38,2.38,5.38,6s-2.23,5.93-5.38,5.93-5.4-2.36-5.4-5.93S76.3,49.66,79.46,49.66Zm0,10.9c2.11,0,3-1.56,3-4.94s-.84-5-2.93-5-2.92,1.58-2.92,5S77.4,60.56,79.44,60.56Z"/><path class="cls-1" d="M85.42,60.15l1,0c.67,0,.79-.2.79-.89v-7.3c0-.79-.29-1-1.32-1l-.72,0v-.93l4.1-.29v2.3a4.5,4.5,0,0,1,3.94-2.3c2.28,0,3.63,1.37,3.63,3.84v5.62c0,.69.14.86.79.89l1,0v1H92.88v-1l1,0c.63,0,.8-.2.8-.89V53.5a2,2,0,0,0-2.21-2.25c-2,0-3.08,1.34-3.08,4v4c0,.67.1.86.8.89l1,0v1h-5.8Z"/><path class="cls-1" d="M99.86,52.09a1.82,1.82,0,0,0-.55-.77A2.39,2.39,0,0,0,98,51.06v-1h5.59v1H103c-.7,0-1,.07-1,.5a2.55,2.55,0,0,0,.24.74l2.54,5.86,2.4-5.76a1.38,1.38,0,0,0,.12-.53c0-.67-.48-.79-1.68-.81v-1h4.63v1a1.81,1.81,0,0,0-1.8,1.29l-4,9.44c-1.25,2.9-2.57,4.36-4.66,4.36-1.41,0-2.21-.72-2.21-1.84A1.39,1.39,0,0,1,99,62.89a1.13,1.13,0,0,1,1.25,1.18,1.89,1.89,0,0,1-.19.69c0,.17.14.27.43.27.77,0,2-1.28,3-3.77l.17-.39Z"/><path class="cls-1" d="M114.62,60h1.25c1,0,1.27-.21,1.27-1.15V46.11c0-.93-.31-1.15-1.27-1.15h-1.25V43.83h9.08c3.4,0,5.18,1.49,5.18,4.23,0,2.06-1.34,3.43-4,4,3.31.44,4.92,1.9,4.92,4.45,0,2.9-2.26,4.65-6.36,4.65h-8.79Zm5.09-8.37h1.92c3.1,0,4.47-.72,4.47-3.39,0-2.42-1.08-3.36-3.68-3.36h-1.51c-1,0-1.2.24-1.2,1.06Zm0,7.25c0,.88.24,1.12,1.32,1.12h1.71c2.85,0,4.1-1,4.1-3.6s-1.51-3.72-5-3.72h-2.16Z"/><path class="cls-1" d="M135.34,60.11l1.46,0v1h-6.31v-1l1.13,0c.67,0,.79-.22.79-.89v-7.3c0-.84-.31-.94-1.44-.94h-.72v-.93l4.17-.29v3.39c.75-2.29,2-3.46,3.51-3.46a2,2,0,0,1,2.18,2,1.39,1.39,0,0,1-1.39,1.49,1.31,1.31,0,0,1-1.42-1.37,1.22,1.22,0,0,1,.48-1h-.14c-1.51,0-3.1,2.28-3.1,5.83v2.57C134.54,59.89,134.66,60.08,135.34,60.11Z"/><path class="cls-1" d="M145.8,49.66c3.17,0,5.38,2.38,5.38,6s-2.24,5.93-5.38,5.93-5.4-2.36-5.4-5.93S142.63,49.66,145.8,49.66Zm0,10.9c2.11,0,2.95-1.56,2.95-4.94s-.84-5-2.93-5-2.93,1.58-2.93,5S143.74,60.56,145.78,60.56Z"/><path class="cls-1" d="M157.65,49.66c3.17,0,5.38,2.38,5.38,6s-2.23,5.93-5.38,5.93-5.4-2.36-5.4-5.93S154.49,49.66,157.65,49.66Zm0,10.9c2.11,0,3-1.56,3-4.94s-.84-5-2.93-5-2.92,1.58-2.92,5S155.59,60.56,157.63,60.56Z"/><path class="cls-1" d="M163.08,60.15l1.08,0c.67,0,.82-.22.82-.89V45.56c0-.79-.29-1-1.33-1l-.69,0v-.93l4.2-.29V55.28l3.7-3.38a1,1,0,0,0,.28-.53c0-.31-.38-.41-1.22-.41h-.77v-.91h6.15V51h-.15c-1.56,0-2.49.74-3.72,1.87L170.21,54,174,59a2.72,2.72,0,0,0,2.37,1.17v1h-6.19v-1l.72,0c.55,0,.84-.08.84-.36a.76.76,0,0,0-.22-.48l-2.88-3.89-1.46,1.29v2.55c0,.69.14.86.82.89l1.05,0v1h-5.95Z"/><path class="cls-1" d="M188,43.83V45h-1.24c-1,0-1.28.24-1.28,1.15v9.7c0,3,1.52,4.44,4.8,4.44,2.17,0,3.61-.77,4.28-2.23a9.07,9.07,0,0,0,.36-3.34V47.12c0-1.46-.31-2.16-1.73-2.16h-1.06V43.83h6.6V45h-.88c-1.37,0-1.76.62-1.76,2.16v7.66c0,4.7-1.72,6.79-6.65,6.79-4.34,0-6.55-1.94-6.55-5.78V46.11c0-.91-.26-1.15-1.27-1.15h-1.39V43.83Z"/><path class="cls-1" d="M197.59,60.15l1,0c.67,0,.79-.2.79-.89v-7.3c0-.79-.28-1-1.32-1l-.72,0v-.93l4.11-.29v2.3a4.49,4.49,0,0,1,3.93-2.3c2.28,0,3.63,1.37,3.63,3.84v5.62c0,.69.14.86.79.89l1,0v1h-5.81v-1l1,0c.62,0,.79-.2.79-.89V53.5a2,2,0,0,0-2.21-2.25c-2,0-3.07,1.34-3.07,4v4c0,.67.09.86.79.89l1,0v1h-5.81Z"/><path class="cls-1" d="M211.29,60.15l1.16,0c.67,0,.81-.22.81-.89v-7.3c0-.79-.29-1-1.32-1l-.69,0v-.93l4.2-.29v9.46c0,.69.14.86.81.89l1.06,0v1h-6Zm4.44-14.93a1.43,1.43,0,0,1-2.85,0,1.43,1.43,0,0,1,2.85,0Z"/><path class="cls-1" d="M222.77,61.55,218.61,52c-.31-.75-.64-1-1.56-1h-.16v-1h5.37v1c-1,0-1.44.09-1.44.55a2.67,2.67,0,0,0,.27.77l2.59,6,2.13-5.52a2.74,2.74,0,0,0,.24-1c0-.5-.45-.81-1.32-.81h-.26v-1h4.66v1c-1.08,0-1.59.55-2,1.68l-3.58,8.81Z"/><path class="cls-1" d="M231.31,56.27c0,2.54,1.3,4,3.19,4a4.15,4.15,0,0,0,3.82-2.59l.84.48a5.3,5.3,0,0,1-5.07,3.39c-3,0-5.2-2.33-5.2-5.93s2.16-6,5.2-6,5.07,2.14,5.07,5.69v.44h-7.83C231.33,56,231.31,56.1,231.31,56.27Zm4.51-1.52c.63,0,.84-.14.84-.77,0-2.18-.91-3.36-2.54-3.36-1.83,0-2.71,1.37-2.76,4.13Z"/><path class="cls-1" d="M244.56,60.11l1.46,0v1h-6.31v-1l1.13,0c.67,0,.79-.22.79-.89v-7.3c0-.84-.31-.94-1.44-.94h-.72v-.93l4.18-.29v3.39c.74-2.29,2-3.46,3.5-3.46a2,2,0,0,1,2.18,2,1.39,1.39,0,0,1-1.39,1.49,1.3,1.3,0,0,1-1.41-1.37,1.19,1.19,0,0,1,.48-1h-.15c-1.51,0-3.09,2.28-3.09,5.83v2.57C243.77,59.89,243.89,60.08,244.56,60.11Z"/><path class="cls-1" d="M250.89,56.77c.6,2.47,2,3.77,3.94,3.77,1.54,0,2.52-.79,2.52-2s-1-1.54-2.52-1.85c-2.9-.6-4.66-1.11-4.66-3.77a3.09,3.09,0,0,1,3.34-3.24,4.65,4.65,0,0,1,3,.93l.7-.84H258v4h-.74c-.67-2.09-1.87-3.15-3.58-3.15-1.34,0-2.18.75-2.18,1.66,0,1.42,1,1.59,3,2,2.83.55,4.3,1.2,4.3,3.6s-1.52,3.74-4,3.74a4.84,4.84,0,0,1-3.15-1.17l-.79,1.1H250V56.77Z"/><path class="cls-1" d="M259.56,60.15l1.15,0c.67,0,.81-.22.81-.89v-7.3c0-.79-.28-1-1.31-1l-.7,0v-.93l4.2-.29v9.46c0,.69.14.86.82.89l1.05,0v1h-6ZM264,45.22a1.43,1.43,0,1,1-1.44-1.41A1.44,1.44,0,0,1,264,45.22Z"/><path class="cls-1" d="M265.34,51.1v-1c2-.14,3.1-1.84,3.22-5h1v4.87H273V51.1h-3.58V58c0,1.37.27,2,1.42,2,1.32,0,1.92-1,2-3.26h.89v.31c0,2.9-1.32,4.44-3.74,4.44-2.16,0-2.74-1.06-2.74-3.31V51.1Z"/><path class="cls-1" d="M275.64,52.09a1.82,1.82,0,0,0-.56-.77,2.37,2.37,0,0,0-1.29-.26v-1h5.59v1h-.6c-.7,0-1,.07-1,.5a2.92,2.92,0,0,0,.24.74l2.54,5.86L283,52.4a1.38,1.38,0,0,0,.12-.53c0-.67-.48-.79-1.68-.81v-1h4.64v1a1.79,1.79,0,0,0-1.8,1.29l-4.06,9.44c-1.25,2.9-2.57,4.36-4.66,4.36-1.41,0-2.2-.72-2.2-1.84a1.39,1.39,0,0,1,1.44-1.42A1.13,1.13,0,0,1,276,64.07a1.89,1.89,0,0,1-.19.69c0,.17.15.27.43.27.77,0,2-1.28,3-3.77l.17-.39Z"/><path class="cls-2" d="M66.18,80.23c-.53,4-3.1,6.39-6.77,6.39A7.11,7.11,0,0,1,54.73,85a9.21,9.21,0,0,1-3.29-7.51,9.89,9.89,0,0,1,2.06-6.27,7,7,0,0,1,5.76-2.78A6.5,6.5,0,0,1,63.59,70l.91-1.49h.91l.31,7-.93,0c-.73-4-2.6-6.08-5.21-6.08-3.36,0-5,2.67-5,8s1.58,7.94,5.16,7.94c2.74,0,4.61-1.82,5.33-5.35Z"/><path class="cls-2" d="M72.66,74.66c3.16,0,5.37,2.38,5.37,6s-2.23,5.93-5.37,5.93-5.4-2.36-5.4-5.93S69.49,74.66,72.66,74.66Zm0,10.9c2.11,0,3-1.56,3-4.94s-.84-5-2.92-5-2.93,1.58-2.93,5S70.59,85.56,72.63,85.56Z"/><path class="cls-2" d="M78.3,85.15l1.15,0c.67,0,.81-.22.81-.89V70.56c0-.79-.28-1-1.32-1l-.69,0v-.93l4.2-.29V84.22c0,.69.14.86.81.89l1.06,0v1h-6Z"/><path class="cls-2" d="M85,85.15l1.15,0c.67,0,.82-.22.82-.89V70.56c0-.79-.29-1-1.32-1l-.7,0v-.93l4.2-.29V84.22c0,.69.15.86.82.89l1,0v1H85Z"/><path class="cls-2" d="M93.61,81.27c0,2.54,1.29,4,3.19,4a4.15,4.15,0,0,0,3.82-2.59l.84.48a5.3,5.3,0,0,1-5.07,3.39c-3,0-5.21-2.33-5.21-5.93s2.16-6,5.21-6,5.07,2.14,5.07,5.69v.44H93.63C93.63,81,93.61,81.1,93.61,81.27Zm4.51-1.52c.62,0,.84-.14.84-.77,0-2.18-.91-3.36-2.54-3.36-1.83,0-2.72,1.37-2.76,4.13Z"/><path class="cls-2" d="M103,78.53c0-2.23,1.82-3.87,4.58-3.87a4.85,4.85,0,0,1,3.07.92l.34-.29a3.34,3.34,0,0,1,2.16-1,1.32,1.32,0,0,1,1.44,1.49,1,1,0,0,1-1.08,1c-1.23,0-1-1.3-1.3-1.3-.09,0-.21.1-.41.27l-.5.38a3.26,3.26,0,0,1,.86,2.38c0,2.38-1.92,3.94-5.25,3.94-1.71,0-2.64.12-2.64,1.08,0,.69.55.88,1.73.88h.21l2,0h1.24c2.6,0,3.82.81,3.82,3,0,2.42-2.11,3.79-6.17,3.79-3.26,0-4.94-1-4.94-2.5,0-1,.86-1.92,2.42-2.25-1.29-.31-1.87-1-1.87-2.14a2.48,2.48,0,0,1,2.38-2.42A3.31,3.31,0,0,1,103,78.53Zm1.1,9.86c0,1.13,1.06,1.71,3.12,1.71,2.9,0,4.32-.67,4.32-2.11,0-1.18-.84-1.59-2.54-1.59h-3A2.08,2.08,0,0,0,104.12,88.39Zm3.46-6.79c1.7,0,2.47-.93,2.47-3s-.77-3-2.45-3-2.45,1-2.45,3S105.92,81.6,107.58,81.6Z"/><path class="cls-2" d="M116.77,81.27c0,2.54,1.29,4,3.19,4a4.15,4.15,0,0,0,3.82-2.59l.84.48a5.3,5.3,0,0,1-5.07,3.39c-3,0-5.21-2.33-5.21-5.93s2.16-6,5.21-6,5.07,2.14,5.07,5.69v.44h-7.83C116.79,81,116.77,81.1,116.77,81.27Zm4.51-1.52c.62,0,.84-.14.84-.77,0-2.18-.91-3.36-2.54-3.36-1.83,0-2.72,1.37-2.77,4.13Z"/><path class="cls-2" d="M141.1,79.26c0-2.65-1.54-5.47-4.38-5.47-3.83,0-6.5,3.86-6.5,7.32,0,2.63,1.54,5.43,4.38,5.43C138.43,86.54,141.1,82.7,141.1,79.26Zm-6.4,6.33c-1.8,0-2.18-1.4-2.18-2.58,0-2.21,1-8.27,4.1-8.27,1.8,0,2.18,1.43,2.18,2.62C138.8,79.56,137.82,85.59,134.7,85.59Z"/><path class="cls-2" d="M150.85,67.64c-3,0-4.94,3.43-5.75,6.4h-2.63l-.31,1.3h2.6c-.53,2-.92,4.1-1.3,6.09-.21,1.09-.41,2.17-.63,3.23,0,.17-.08.38-.12.62-.34,1.8-1.05,5.56-2.89,5.56-.25,0-.25-.07-.25-.1a.79.79,0,0,1,.1-.26,1.74,1.74,0,0,0,.2-.72,1.17,1.17,0,0,0-1.3-1.15,1.3,1.3,0,0,0-1.3,1.28,2,2,0,0,0,2.15,1.9c2.62,0,4.61-3.22,6.07-9.83L147,75.34h2.75L150,74H147.2c.42-2.1,1.4-5.45,3.35-5.45.52,0,.52.07.52.13a.51.51,0,0,1-.13.27,1.44,1.44,0,0,0-.29.88A1.23,1.23,0,0,0,152,71a1.28,1.28,0,0,0,1.23-1.33A2.13,2.13,0,0,0,150.85,67.64Z"/><path class="cls-2" d="M156.52,85h1.25c1,0,1.27-.21,1.27-1.15V71.11c0-.93-.31-1.15-1.27-1.15h-1.25V68.83h14l.32,6.12h-1c-.31-2.11-.93-3.5-1.68-4.15s-2.25-.89-4.46-.89c-1.58,0-2,.07-2,1.2v5.5H162c2.47,0,3.4-.82,3.62-3.31h1v7.63h-1c-.22-2.5-1.13-3.29-3.62-3.29h-.34v6.24c0,1.18.53,1.23,2.23,1.23a10.47,10.47,0,0,0,4.42-.63c1.1-.55,1.75-2.16,2.25-4.9h.92l-.36,6.58h-14.6Z"/><path class="cls-2" d="M172.48,85.15l1,0c.68,0,.8-.2.8-.89v-7.3c0-.79-.29-1-1.32-1l-.72,0v-.93l4.1-.29v2.3a4.49,4.49,0,0,1,3.94-2.3c2.28,0,3.62,1.37,3.62,3.84v5.62c0,.69.15.86.79.89l1,0v1H180v-1l1,0c.62,0,.79-.2.79-.89V78.5a2,2,0,0,0-2.21-2.25c-2,0-3.07,1.34-3.07,4v4c0,.67.1.86.79.89l1,0v1h-5.81Z"/><path class="cls-2" d="M186.55,78.53c0-2.23,1.82-3.87,4.58-3.87a4.85,4.85,0,0,1,3.07.92l.34-.29a3.34,3.34,0,0,1,2.16-1,1.32,1.32,0,0,1,1.44,1.49,1,1,0,0,1-1.08,1c-1.22,0-1-1.3-1.3-1.3-.09,0-.21.1-.4.27l-.51.38a3.27,3.27,0,0,1,.87,2.38c0,2.38-1.92,3.94-5.26,3.94-1.71,0-2.64.12-2.64,1.08,0,.69.55.88,1.73.88h.21l2,0H193c2.59,0,3.81.81,3.81,3,0,2.42-2.11,3.79-6.17,3.79-3.26,0-4.94-1-4.94-2.5,0-1,.86-1.92,2.42-2.25-1.29-.31-1.87-1-1.87-2.14a2.48,2.48,0,0,1,2.38-2.42A3.31,3.31,0,0,1,186.55,78.53Zm1.1,9.86c0,1.13,1.06,1.71,3.12,1.71,2.91,0,4.32-.67,4.32-2.11,0-1.18-.84-1.59-2.54-1.59h-3A2.08,2.08,0,0,0,187.65,88.39Zm3.46-6.79c1.7,0,2.47-.93,2.47-3s-.77-3-2.45-3-2.45,1-2.45,3S189.45,81.6,191.11,81.6Z"/><path class="cls-2" d="M198.31,85.15l1.15,0c.67,0,.81-.22.81-.89v-7.3c0-.79-.28-1-1.32-1l-.69,0v-.93l4.2-.29v9.46c0,.69.14.86.81.89l1.06,0v1h-6Zm4.44-14.93a1.43,1.43,0,1,1-1.44-1.41A1.44,1.44,0,0,1,202.75,70.22Z"/><path class="cls-2" d="M204.88,85.15l1,0c.68,0,.8-.2.8-.89v-7.3c0-.79-.29-1-1.32-1l-.72,0v-.93l4.1-.29v2.3a4.49,4.49,0,0,1,3.94-2.3c2.28,0,3.62,1.37,3.62,3.84v5.62c0,.69.14.86.79.89l1,0v1h-5.8v-1l1,0c.62,0,.79-.2.79-.89V78.5A2,2,0,0,0,212,76.25c-2,0-3.07,1.34-3.07,4v4c0,.67.1.86.79.89l1,0v1h-5.81Z"/><path class="cls-2" d="M220.34,81.27c0,2.54,1.29,4,3.19,4a4.15,4.15,0,0,0,3.82-2.59l.84.48a5.3,5.3,0,0,1-5.07,3.39c-3,0-5.21-2.33-5.21-5.93s2.16-6,5.21-6,5.07,2.14,5.07,5.69v.44h-7.83C220.36,81,220.34,81.1,220.34,81.27Zm4.51-1.52c.62,0,.84-.14.84-.77,0-2.18-.91-3.36-2.54-3.36-1.83,0-2.72,1.37-2.76,4.13Z"/><path class="cls-2" d="M231.45,81.27c0,2.54,1.3,4,3.19,4a4.15,4.15,0,0,0,3.82-2.59l.84.48a5.3,5.3,0,0,1-5.07,3.39c-3,0-5.2-2.33-5.2-5.93s2.16-6,5.2-6,5.07,2.14,5.07,5.69v.44h-7.83C231.47,81,231.45,81.1,231.45,81.27ZM236,79.75c.63,0,.84-.14.84-.77,0-2.18-.91-3.36-2.54-3.36-1.83,0-2.71,1.37-2.76,4.13Z"/><path class="cls-2" d="M244.31,85.11l1.47,0v1h-6.31v-1l1.12,0c.68,0,.8-.22.8-.89v-7.3c0-.84-.32-.94-1.44-.94h-.72v-.93l4.17-.29v3.39c.75-2.29,2-3.46,3.51-3.46a2,2,0,0,1,2.18,2,1.39,1.39,0,0,1-1.39,1.49,1.3,1.3,0,0,1-1.42-1.37,1.22,1.22,0,0,1,.48-1h-.14c-1.51,0-3.1,2.28-3.1,5.83v2.57C243.52,84.89,243.64,85.08,244.31,85.11Z"/><path class="cls-2" d="M249.71,85.15l1.16,0c.67,0,.81-.22.81-.89v-7.3c0-.79-.29-1-1.32-1l-.69,0v-.93l4.2-.29v9.46c0,.69.14.86.81.89l1.06,0v1h-6Zm4.44-14.93a1.43,1.43,0,0,1-2.85,0,1.43,1.43,0,0,1,2.85,0Z"/><path class="cls-2" d="M256.29,85.15l1,0c.67,0,.79-.2.79-.89v-7.3c0-.79-.28-1-1.32-1l-.72,0v-.93l4.11-.29v2.3a4.49,4.49,0,0,1,3.93-2.3c2.28,0,3.63,1.37,3.63,3.84v5.62c0,.69.14.86.79.89l1,0v1h-5.81v-1l1,0c.62,0,.79-.2.79-.89V78.5a2,2,0,0,0-2.21-2.25c-2,0-3.07,1.34-3.07,4v4c0,.67.09.86.79.89l1,0v1h-5.81Z"/><path class="cls-2" d="M270.23,78.53c0-2.23,1.83-3.87,4.59-3.87a4.85,4.85,0,0,1,3.07.92l.34-.29a3.34,3.34,0,0,1,2.16-1,1.32,1.32,0,0,1,1.44,1.49,1,1,0,0,1-1.08,1c-1.23,0-1-1.3-1.3-1.3-.1,0-.22.1-.41.27l-.5.38a3.26,3.26,0,0,1,.86,2.38c0,2.38-1.92,3.94-5.25,3.94-1.71,0-2.64.12-2.64,1.08,0,.69.55.88,1.72.88h.22l1.94,0h1.25c2.59,0,3.82.81,3.82,3,0,2.42-2.11,3.79-6.17,3.79-3.26,0-4.94-1-4.94-2.5,0-1,.86-1.92,2.42-2.25-1.3-.31-1.87-1-1.87-2.14a2.48,2.48,0,0,1,2.37-2.42A3.33,3.33,0,0,1,270.23,78.53Zm1.11,9.86c0,1.13,1.05,1.71,3.12,1.71,2.9,0,4.32-.67,4.32-2.11,0-1.18-.84-1.59-2.55-1.59h-3A2.08,2.08,0,0,0,271.34,88.39Zm3.45-6.79c1.71,0,2.48-.93,2.48-3s-.77-3-2.45-3-2.45,1-2.45,3S273.14,81.6,274.79,81.6Z"/><path class="cls-2" d="M55.15,111.55c-2,0-3.31-1.16-3.31-2.93,0-2.4,2.4-3.65,7.47-4.47V103c0-1.58-.51-2.3-2.57-2.3-1.4,0-2.16.43-2.16.86,0,.26.57.55.57,1.34a1.13,1.13,0,0,1-1.25,1.2,1.27,1.27,0,0,1-1.41-1.36c0-1.68,1.77-3.08,4.63-3.08,3.22,0,4.39,1.13,4.39,3.56v5.57c0,.72.29,1.1.89,1.1.43,0,.77-.34,1-.34s.29.17.29.39c0,.53-.93,1.46-2.25,1.46a2,2,0,0,1-2-1.77A5.59,5.59,0,0,1,55.15,111.55Zm-1-3.27a1.7,1.7,0,0,0,1.9,2c1.87,0,3.22-1.18,3.22-3.46v-1.58C55.87,105.64,54.19,106.53,54.19,108.28Z"/><path class="cls-2" d="M63.26,110.15l1,0c.67,0,.79-.2.79-.89v-7.3c0-.79-.29-1-1.32-1l-.72,0v-.93l4.1-.29v2.3a4.49,4.49,0,0,1,3.94-2.3c2.28,0,3.62,1.37,3.62,3.84v5.62c0,.69.15.86.79.89l1,0v1H70.73v-1l1,0c.62,0,.79-.2.79-.89V103.5a2,2,0,0,0-2.21-2.25c-2,0-3.07,1.34-3.07,4v4c0,.67.1.86.79.89l1,0v1H63.26Z"/><path class="cls-2" d="M81.12,111.5c-2.71,0-4.82-2.33-4.82-5.88s2.18-6,4.87-6a3.83,3.83,0,0,1,3.33,1.73V95.56c0-.84-.33-.94-1.48-.94h-.84v-.93l4.53-.29v15.72c0,.84.27,1,1.27,1h.56v1l-3.89.27v-2A4,4,0,0,1,81.12,111.5Zm.53-1.32c2,0,2.85-1.51,2.85-4.61S83.71,101,81.62,101s-2.85,1.49-2.85,4.59S79.56,110.18,81.65,110.18Z"/><path class="cls-2" d="M102,93.54l6.12,15.29c.39.94.68,1.2,1.66,1.2l.48,0v1.15H103.1V110H104c1,0,1.46-.07,1.46-.62a2.36,2.36,0,0,0-.22-.84l-1.1-3H97.7L97,107.39a4.59,4.59,0,0,0-.34,1.44c0,.77.6,1.18,1.76,1.18H99v1.15h-6.2V110H93c1.41,0,1.89-.55,2.47-2l5.64-14.45Zm-1.15,3.8-2.73,7h5.59Z"/><path class="cls-2" d="M116.64,99.66c2.69,0,4.85,2.38,4.85,5.86,0,3.65-2.19,6-4.9,6a3.76,3.76,0,0,1-3.33-1.73v4.39c0,.7.14.84.81.87l1,.05v1h-5.86v-1l1-.05c.67,0,.79-.17.79-.87V102.09c0-.84-.27-1-1.23-1l-.6,0v-1l3.89-.29v2.07A4,4,0,0,1,116.64,99.66Zm-.38,1.4c-2.19,0-3,1.48-3,4.61s.79,4.58,2.88,4.58,2.88-1.49,2.88-4.58S118.2,101.06,116.26,101.06Z"/><path class="cls-2" d="M128.88,99.66c2.69,0,4.85,2.38,4.85,5.86,0,3.65-2.19,6-4.9,6a3.76,3.76,0,0,1-3.33-1.73v4.39c0,.7.14.84.81.87l1,.05v1h-5.86v-1l1-.05c.67,0,.79-.17.79-.87V102.09c0-.84-.27-1-1.23-1l-.6,0v-1l3.89-.29v2.07A4,4,0,0,1,128.88,99.66Zm-.38,1.4c-2.19,0-3,1.48-3,4.61s.79,4.58,2.88,4.58,2.88-1.49,2.88-4.58S130.44,101.06,128.5,101.06Z"/><path class="cls-2" d="M134,110.15l1.15,0c.67,0,.82-.22.82-.89V95.56c0-.79-.29-1-1.32-1l-.7,0v-.93l4.2-.29v15.82c0,.69.14.86.82.89l1.05,0v1h-6Z"/><path class="cls-2" d="M140.59,110.15l1.15,0c.68,0,.82-.22.82-.89v-7.3c0-.79-.29-1-1.32-1l-.7,0v-.93l4.2-.29v9.46c0,.69.15.86.82.89l1.06,0v1h-6ZM145,95.22a1.43,1.43,0,1,1-1.44-1.41A1.42,1.42,0,0,1,145,95.22Z"/><path class="cls-2" d="M149.16,106.27c0,2.54,1.3,4,3.19,4a4.15,4.15,0,0,0,3.82-2.59l.84.48a5.3,5.3,0,0,1-5.07,3.39c-3,0-5.21-2.33-5.21-5.93s2.17-6,5.21-6,5.07,2.14,5.07,5.69v.44h-7.83C149.18,106,149.16,106.1,149.16,106.27Zm4.51-1.52c.63,0,.84-.14.84-.77,0-2.18-.91-3.36-2.54-3.36-1.83,0-2.71,1.37-2.76,4.13Z"/><path class="cls-2" d="M162.67,111.5c-2.71,0-4.82-2.33-4.82-5.88s2.18-6,4.87-6a3.85,3.85,0,0,1,3.34,1.73V95.56c0-.84-.34-.94-1.49-.94h-.84v-.93l4.53-.29v15.72c0,.84.27,1,1.28,1h.55v1l-3.89.27v-2A4,4,0,0,1,162.67,111.5Zm.53-1.32c2,0,2.86-1.51,2.86-4.61s-.8-4.59-2.88-4.59-2.86,1.49-2.86,4.59S161.11,110.18,163.2,110.18Z"/><path class="cls-2" d="M176.61,111.45h-.84l-.12-7h1c.72,4,2.74,6,5.81,6,2.61,0,4.05-1.32,4.05-3.43a2.68,2.68,0,0,0-1.05-2.28,14,14,0,0,0-3.94-1.32c-3.84-1-5.69-2-5.69-5.16,0-3,2-4.9,5.12-4.9a6.47,6.47,0,0,1,4.48,1.68l.94-1.44h.89l.26,6.24h-.93c-.92-3.57-2.81-5.37-5.64-5.37-2.12,0-3.32,1-3.32,2.9,0,2.31,1.8,2.57,5,3.36a9.4,9.4,0,0,1,4.27,1.8,4.94,4.94,0,0,1,1.46,3.7c0,3.34-2.11,5.3-5.95,5.3a6.87,6.87,0,0,1-4.78-1.8Z"/><path class="cls-2" d="M194.71,111.55c-3,0-5.21-2.26-5.21-5.74,0-3.72,2.28-6.15,5.57-6.15,2.35,0,3.87,1.28,3.87,2.76a1.58,1.58,0,0,1-1.61,1.73,1.31,1.31,0,0,1-1.42-1.32c0-.91.75-1.08.75-1.41s-.6-.8-1.68-.8c-2,0-3,1.61-3,4.81s1.08,4.65,3.32,4.65c1.44,0,2.42-.79,3.07-2.45l.86.44C198.33,110.44,196.92,111.55,194.71,111.55Z"/><path class="cls-2" d="M199.92,110.15l1.15,0c.67,0,.82-.22.82-.89v-7.3c0-.79-.29-1-1.32-1l-.7,0v-.93l4.2-.29v9.46c0,.69.14.86.82.89l1.05,0v1h-6Zm4.44-14.93a1.42,1.42,0,0,1-1.44,1.42,1.42,1.42,0,1,1,1.44-1.42Z"/><path class="cls-2" d="M208.49,106.27c0,2.54,1.29,4,3.19,4a4.16,4.16,0,0,0,3.82-2.59l.83.48a5.28,5.28,0,0,1-5.06,3.39c-3,0-5.21-2.33-5.21-5.93s2.16-6,5.21-6,5.06,2.14,5.06,5.69v.44h-7.82C208.51,106,208.49,106.1,208.49,106.27Zm4.51-1.52c.62,0,.84-.14.84-.77,0-2.18-.91-3.36-2.55-3.36-1.82,0-2.71,1.37-2.76,4.13Z"/><path class="cls-2" d="M216.65,110.15l1,0c.67,0,.79-.2.79-.89v-7.3c0-.79-.29-1-1.32-1l-.72,0v-.93l4.1-.29v2.3a4.49,4.49,0,0,1,3.94-2.3c2.28,0,3.62,1.37,3.62,3.84v5.62c0,.69.15.86.8.89l1,0v1h-5.81v-1l1,0c.63,0,.79-.2.79-.89V103.5a2,2,0,0,0-2.2-2.25c-2,0-3.08,1.34-3.08,4v4c0,.67.1.86.8.89l1,0v1h-5.8Z"/><path class="cls-2" d="M235,111.55c-3,0-5.21-2.26-5.21-5.74,0-3.72,2.28-6.15,5.57-6.15,2.35,0,3.87,1.28,3.87,2.76a1.58,1.58,0,0,1-1.61,1.73,1.31,1.31,0,0,1-1.42-1.32c0-.91.75-1.08.75-1.41s-.6-.8-1.68-.8c-2,0-3,1.61-3,4.81s1.08,4.65,3.31,4.65c1.44,0,2.42-.79,3.07-2.45l.86.44C238.61,110.44,237.19,111.55,235,111.55Z"/><path class="cls-2" d="M242.61,106.27c0,2.54,1.3,4,3.2,4a4.15,4.15,0,0,0,3.81-2.59l.84.48a5.28,5.28,0,0,1-5.06,3.39c-3,0-5.21-2.33-5.21-5.93s2.16-6,5.21-6,5.06,2.14,5.06,5.69v.44h-7.82C242.64,106,242.61,106.1,242.61,106.27Zm4.52-1.52c.62,0,.84-.14.84-.77,0-2.18-.92-3.36-2.55-3.36-1.82,0-2.71,1.37-2.76,4.13Z"/><path class="cls-2" d="M252.48,106.77c.6,2.47,2,3.77,3.93,3.77,1.54,0,2.52-.79,2.52-2s-1-1.54-2.52-1.85c-2.9-.6-4.65-1.11-4.65-3.77a3.08,3.08,0,0,1,3.33-3.24,4.67,4.67,0,0,1,3,.93l.69-.84h.75v4h-.75c-.67-2.09-1.87-3.15-3.57-3.15-1.35,0-2.19.75-2.19,1.66,0,1.42,1,1.59,3,2,2.84.55,4.3,1.2,4.3,3.6s-1.51,3.74-4,3.74a4.82,4.82,0,0,1-3.14-1.17l-.79,1.1h-.8v-4.75Z"/><path class="cls-3" d="M42.32,34.78c-11.29-6.9-29.09-6.48-40.51,0V52.85c-.13,9.74,6.13,18.8,14.61,23a25.92,25.92,0,0,0,5.65,2,26,26,0,0,0,5.64-2c8.47-4.19,14.74-13.25,14.6-23Z"/><path class="cls-2" d="M35.76,69.65,27.24,30l-1.08-.08,7.16,42.14A25.34,25.34,0,0,0,35.76,69.65Z"/><path class="cls-2" d="M42.28,54.29,32.43,30.87l-1.14-.23L41.73,58.29A23.07,23.07,0,0,0,42.28,54.29Z"/><path class="cls-2" d="M27.71,75.84c.64-.32,1.27-.68,1.88-1l-4.88-45-1.16,0,3,46.6C26.91,76.21,27.3,76,27.71,75.84Z"/><path class="cls-2" d="M40.16,62.89,29.79,30.36,28.7,30.2,38.53,66A24.89,24.89,0,0,0,40.16,62.89Z"/><path class="cls-2" d="M42.32,34.78A32.44,32.44,0,0,0,34,31.29l8.28,17.36Z"/><path class="cls-2" d="M1.81,34.78V52.85c-.14,9.73,6.13,18.8,14.61,23a25.49,25.49,0,0,0,5.64,2V29.76A42.5,42.5,0,0,0,1.81,34.78ZM14.33,51.29l1.13,3.48-3-2.15L9.56,54.77l1.13-3.48L7.75,49.15h3.63l1.13-3.45,1.13,3.45h3.63Z"/></svg>