<svg id="Layer_1" data-name="Layer 1" xmlns="http://www.w3.org/2000/svg" viewBox="0 0 150 150"><title>linkedInLogo</title><path d="M135.71,3.78H14.22A10.41,10.41,0,0,0,3.7,14.06v122a10.41,10.41,0,0,0,10.52,10.28H135.71a10.43,10.43,0,0,0,10.55-10.28v-122A10.43,10.43,0,0,0,135.71,3.78ZM46,125.26H24.83v-68H46ZM35.41,47.93A12.26,12.26,0,1,1,47.67,35.67,12.25,12.25,0,0,1,35.41,47.93Zm89.77,77.33H104V92.18c0-7.89-.14-18-11-18s-12.68,8.6-12.68,17.47v33.65H59.25v-68H79.52v9.3h.29c2.82-5.35,9.72-11,20-11,21.4,0,25.36,14.09,25.36,32.41Z"/></svg>