<svg xmlns="http://www.w3.org/2000/svg" xmlns:xlink="http://www.w3.org/1999/xlink" viewBox="0 0 1366 768"><defs><style>.cls-1{fill:#424242;}.cls-2{fill:url(#linear-gradient);}.cls-3,.cls-4{fill:#fff;}.cls-3{opacity:0.4;}.cls-5{clip-path:url(#clip-path);}.cls-6{fill:#202222;}</style><linearGradient id="linear-gradient" x1="680.29" y1="49.2" x2="687.79" y2="974.66" gradientUnits="userSpaceOnUse"><stop offset="0" stop-color="#00001e"/><stop offset="1" stop-color="#002559"/></linearGradient><clipPath id="clip-path"><path id="_Clipping_Path_" data-name="&lt;Clipping Path&gt;" class="cls-1" d="M-271.27,312.58l44.51,9.86L-201.21,308l12.61-17.59,3.87-24.84-.07-.1a27.59,27.59,0,0,0-4.46,3.48C-212.29,292-240.78,305.11-271.27,312.58Z"/></clipPath></defs><title>back1</title><g id="Layer_1" data-name="Layer 1"><rect class="cls-2" width="1366" height="768"/></g><g id="Layer_2" data-name="Layer 2"><polygon class="cls-3" points="36.62 202.6 30.73 202.1 26.98 206.67 25.64 200.91 20.13 198.76 25.19 195.7 25.54 189.8 30.01 193.66 35.73 192.17 33.44 197.62 36.62 202.6"/><polygon class="cls-3" points="102.62 117.1 95.09 117.78 91.38 124.37 88.41 117.42 81 115.92 86.69 110.95 85.82 103.44 92.31 107.32 99.19 104.17 97.5 111.54 102.62 117.1"/><polygon class="cls-3" points="167.11 66.11 166.31 57.9 159.1 53.91 166.66 50.62 168.23 42.53 173.7 48.7 181.88 47.69 177.7 54.8 181.18 62.27 173.13 60.49 167.11 66.11"/><polygon class="cls-3" points="21 98.5 19.07 99.08 18.45 101.01 17.3 99.35 15.28 99.36 16.5 97.75 15.87 95.83 17.77 96.5 19.4 95.3 19.36 97.32 21 98.5"/><polygon class="cls-3" points="91 242 90.42 239.32 87.89 238.28 90.25 236.91 90.46 234.18 92.5 236 95.16 235.35 94.06 237.86 95.5 240.19 92.77 239.91 91 242"/><polygon class="cls-3" points="62.5 337.5 59.38 337.93 57.96 340.74 56.59 337.91 53.48 337.43 55.75 335.25 55.24 332.14 58.02 333.63 60.82 332.18 60.26 335.28 62.5 337.5"/><polygon class="cls-3" points="112 448 109.47 448.13 108.16 450.29 107.25 447.93 104.79 447.34 106.75 445.75 106.55 443.23 108.67 444.6 111.01 443.63 110.36 446.08 112 448"/><polygon class="cls-3" points="86 576 86.46 573.18 84.4 571.2 87.22 570.77 88.47 568.2 89.75 570.75 92.58 571.14 90.55 573.15 91.06 575.96 88.52 574.65 86 576"/><polygon class="cls-3" points="36.5 642.5 34.43 641.3 32.27 642.33 32.76 639.99 31.12 638.25 33.5 638 34.65 635.9 35.62 638.09 37.97 638.52 36.19 640.13 36.5 642.5"/><polygon class="cls-3" points="164.5 747.5 162.87 746.45 161.09 747.2 161.58 745.33 160.32 743.86 162.25 743.75 163.26 742.1 163.96 743.9 165.84 744.35 164.34 745.57 164.5 747.5"/><polygon class="cls-3" points="499.5 697 496.39 695.2 493.15 696.74 493.9 693.23 491.43 690.62 495 690.25 496.72 687.1 498.18 690.38 501.71 691.04 499.04 693.44 499.5 697"/><polygon class="cls-3" points="360 668 357.32 668.58 356.29 671.11 354.91 668.75 352.18 668.54 354 666.5 353.35 663.84 355.86 664.94 358.19 663.5 357.91 666.23 360 668"/><polygon class="cls-3" points="572.5 613.5 569.53 613.49 567.83 615.92 566.93 613.09 564.09 612.23 566.5 610.5 566.44 607.53 568.83 609.29 571.64 608.31 570.71 611.13 572.5 613.5"/><polygon class="cls-3" points="920.5 689 920.07 686.62 917.86 685.63 919.99 684.48 920.25 682.08 922 683.75 924.37 683.26 923.32 685.43 924.52 687.53 922.12 687.21 920.5 689"/><polygon class="cls-3" points="803 659 801.22 658.4 799.72 659.52 799.74 657.64 798.21 656.56 800 656 800.56 654.21 801.64 655.74 803.52 655.72 802.4 657.22 803 659"/><polygon class="cls-3" points="1032 664.5 1033.5 660.8 1031.31 657.46 1035.29 657.74 1037.79 654.62 1038.75 658.5 1042.49 659.91 1039.1 662.02 1038.91 666.02 1035.86 663.44 1032 664.5"/><polygon class="cls-3" points="1181.5 677 1179.57 676.1 1177.74 677.17 1178 675.07 1176.41 673.65 1178.5 673.25 1179.35 671.3 1180.38 673.16 1182.5 673.37 1181.04 674.92 1181.5 677"/><polygon class="cls-3" points="1237.5 606.5 1233.2 606.03 1230.37 609.31 1229.49 605.08 1225.49 603.4 1229.25 601.25 1229.61 596.94 1232.82 599.84 1237.03 598.85 1235.25 602.8 1237.5 606.5"/><polygon class="cls-3" points="1278 564.5 1277.11 563.46 1275.75 563.59 1276.47 562.43 1275.92 561.18 1277.25 561.5 1278.27 560.59 1278.37 561.95 1279.56 562.64 1278.29 563.16 1278 564.5"/><polygon class="cls-3" points="1303 610 1303.46 607.18 1301.4 605.2 1304.22 604.77 1305.46 602.2 1306.75 604.75 1309.58 605.14 1307.55 607.15 1308.06 609.96 1305.52 608.65 1303 610"/><polygon class="cls-3" points="1296.5 673 1294.58 670.61 1291.53 670.84 1293.21 668.28 1292.05 665.45 1295 666.25 1297.34 664.27 1297.48 667.33 1300.09 668.94 1297.23 670.03 1296.5 673"/><polygon class="cls-3" points="1265.5 705 1266.26 702.03 1264.24 699.73 1267.3 699.53 1268.87 696.9 1270 699.75 1272.98 700.43 1270.63 702.39 1270.9 705.43 1268.32 703.8 1265.5 705"/><polygon class="cls-3" points="1193.5 733 1194.24 733 1194.67 732.39 1194.89 733.1 1195.6 733.32 1195 733.75 1195.02 734.49 1194.42 734.05 1193.71 734.3 1193.95 733.59 1193.5 733"/><polygon class="cls-3" points="1157.5 736 1159.12 737.79 1161.52 737.47 1160.32 739.57 1161.37 741.74 1159 741.25 1157.25 742.92 1156.99 740.52 1154.86 739.37 1157.07 738.38 1157.5 736"/><polygon class="cls-3" points="1117 700 1115.52 698.51 1113.46 698.88 1114.42 697.01 1113.43 695.16 1115.5 695.5 1116.95 693.99 1117.27 696.06 1119.16 696.98 1117.29 697.92 1117 700"/><polygon class="cls-3" points="1268 499 1265.47 499.13 1264.15 501.29 1263.25 498.93 1260.79 498.34 1262.75 496.75 1262.55 494.23 1264.67 495.6 1267.01 494.63 1266.36 497.08 1268 499"/><polygon class="cls-3" points="1309 469.5 1308.42 467.57 1306.49 466.95 1308.15 465.8 1308.14 463.78 1309.75 465 1311.67 464.37 1311 466.27 1312.2 467.9 1310.18 467.86 1309 469.5"/><polygon class="cls-3" points="1346.5 429 1347.85 427.23 1347.15 425.11 1349.25 425.84 1351.05 424.52 1351 426.75 1352.81 428.05 1350.68 428.69 1350 430.82 1348.73 428.99 1346.5 429"/><polygon class="cls-3" points="1283.5 387.5 1280.97 387.63 1279.65 389.79 1278.75 387.43 1276.29 386.84 1278.25 385.25 1278.05 382.73 1280.17 384.1 1282.51 383.13 1281.86 385.58 1283.5 387.5"/><polygon class="cls-3" points="1212 331 1209.32 331.58 1208.29 334.11 1206.91 331.75 1204.18 331.54 1206 329.5 1205.35 326.84 1207.86 327.94 1210.19 326.5 1209.91 329.23 1212 331"/><polygon class="cls-3" points="1294.5 321 1295.4 319.07 1294.33 317.24 1296.43 317.5 1297.85 315.91 1298.25 318 1300.2 318.85 1298.34 319.88 1298.13 322 1296.58 320.54 1294.5 321"/><polygon class="cls-3" points="1259.5 211.5 1257.27 212.23 1256.61 214.48 1255.22 212.59 1252.88 212.65 1254.25 210.75 1253.46 208.54 1255.7 209.26 1257.56 207.83 1257.56 210.17 1259.5 211.5"/><polygon class="cls-3" points="1329.5 227.5 1330.55 225.87 1329.8 224.09 1331.67 224.58 1333.14 223.32 1333.25 225.25 1334.9 226.26 1333.1 226.96 1332.65 228.84 1331.43 227.34 1329.5 227.5"/><polygon class="cls-3" points="1163.5 255.5 1162.02 255.49 1161.17 256.71 1160.71 255.3 1159.29 254.87 1160.5 254 1160.47 252.51 1161.67 253.39 1163.07 252.91 1162.6 254.32 1163.5 255.5"/><polygon class="cls-3" points="1121.5 382 1120 384.22 1120.98 386.71 1118.41 385.97 1116.34 387.68 1116.25 385 1113.99 383.56 1116.51 382.64 1117.18 380.05 1118.83 382.16 1121.5 382"/><polygon class="cls-3" points="1204.5 440 1201.82 441.32 1201.39 444.28 1199.31 442.14 1196.36 442.64 1197.75 440 1196.36 437.36 1199.31 437.86 1201.39 435.72 1201.82 438.68 1204.5 440"/><polygon class="cls-3" points="1212 154 1209.03 153.99 1207.33 156.42 1206.43 153.59 1203.59 152.73 1206 151 1205.94 148.03 1208.33 149.79 1211.14 148.81 1210.21 151.63 1212 154"/><polygon class="cls-3" points="1218.5 162 1219.1 160.96 1218.59 159.88 1219.76 160.13 1220.63 159.31 1220.75 160.5 1221.8 161.07 1220.71 161.56 1220.49 162.74 1219.69 161.84 1218.5 162"/><polygon class="cls-3" points="1272 110.5 1270.08 108.11 1267.03 108.34 1268.71 105.78 1267.55 102.95 1270.5 103.75 1272.84 101.77 1272.98 104.83 1275.59 106.44 1272.73 107.53 1272 110.5"/><polygon class="cls-3" points="1276 112 1275.26 111.25 1274.23 111.44 1274.71 110.51 1274.21 109.58 1275.25 109.75 1275.98 108.99 1276.14 110.03 1277.08 110.49 1276.14 110.96 1276 112"/><polygon class="cls-3" points="1311 105 1311.31 102.63 1309.53 101.03 1311.88 100.58 1312.86 98.4 1314 100.5 1316.38 100.75 1314.74 102.49 1315.23 104.83 1313.07 103.8 1311 105"/><polygon class="cls-3" points="1314 117.5 1311.47 118.38 1310.76 120.96 1309.14 118.83 1306.47 118.95 1308 116.75 1307.06 114.24 1309.62 115.02 1311.71 113.35 1311.77 116.03 1314 117.5"/><polygon class="cls-3" points="1333.5 83.5 1332.46 83.64 1331.99 84.58 1331.53 83.64 1330.49 83.48 1331.25 82.75 1331.08 81.71 1332.01 82.21 1332.94 81.73 1332.75 82.76 1333.5 83.5"/><polygon class="cls-3" points="1323.5 19.5 1321.58 17.86 1319.13 18.51 1320.1 16.17 1318.73 14.05 1321.25 14.25 1322.84 12.29 1323.43 14.75 1325.79 15.65 1323.63 16.98 1323.5 19.5"/><polygon class="cls-3" points="1295.5 51 1294.17 49.8 1292.43 50.22 1293.16 48.59 1292.22 47.06 1294 47.25 1295.16 45.89 1295.53 47.64 1297.19 48.32 1295.64 49.22 1295.5 51"/><polygon class="cls-3" points="1252 36.5 1250.22 36.64 1249.32 38.19 1248.64 36.53 1246.89 36.16 1248.25 35 1248.07 33.22 1249.59 34.16 1251.22 33.43 1250.81 35.17 1252 36.5"/><polygon class="cls-3" points="1245 13 1243.52 12.99 1242.67 14.21 1242.21 12.8 1240.79 12.37 1242 11.5 1241.97 10.02 1243.17 10.89 1244.57 10.41 1244.1 11.82 1245 13"/><polygon class="cls-3" points="1210 43 1206.58 44.32 1205.72 47.88 1203.41 45.04 1199.76 45.33 1201.75 42.25 1200.34 38.86 1203.89 39.81 1206.67 37.42 1206.87 41.09 1210 43"/><polygon class="cls-3" points="1210.5 81 1209.31 82.33 1209.72 84.07 1208.09 83.34 1206.57 84.28 1206.75 82.5 1205.39 81.34 1207.14 80.97 1207.82 79.31 1208.72 80.86 1210.5 81"/><polygon class="cls-3" points="1228 118.5 1226.81 118.34 1226.01 119.24 1225.79 118.06 1224.7 117.57 1225.75 117 1225.87 115.81 1226.74 116.63 1227.91 116.38 1227.4 117.46 1228 118.5"/><polygon class="cls-3" points="1332.5 157.5 1330.42 157.79 1329.48 159.66 1328.56 157.77 1326.48 157.45 1328 156 1327.66 153.93 1329.51 154.92 1331.38 153.96 1331.01 156.02 1332.5 157.5"/><polygon class="cls-3" points="109.33 29 106.17 29.08 104.44 31.74 103.38 28.75 100.32 27.93 102.83 26 102.67 22.84 105.28 24.63 108.24 23.5 107.34 26.54 109.33 29"/><polygon class="cls-3" points="139.33 125 137.5 125.53 136.9 127.35 135.82 125.77 133.91 125.76 135.08 124.25 134.5 122.43 136.3 123.08 137.85 121.96 137.79 123.87 139.33 125"/><polygon class="cls-3" points="130 183.67 132.48 182.69 133.08 180.09 134.78 182.15 137.43 181.92 136 184.17 137.04 186.62 134.46 185.95 132.45 187.7 132.28 185.04 130 183.67"/><polygon class="cls-3" points="165.33 241.67 164.04 242.55 164.04 244.12 162.8 243.16 161.31 243.64 161.83 242.17 160.92 240.9 162.48 240.94 163.4 239.68 163.85 241.18 165.33 241.67"/><polygon class="cls-3" points="143.33 348.33 140.22 347.77 137.99 350.02 137.56 346.88 134.73 345.46 137.58 344.08 138.06 340.95 140.25 343.24 143.38 342.73 141.88 345.52 143.33 348.33"/><polygon class="cls-3" points="35.33 397.67 34.8 394.84 32.18 393.68 34.7 392.3 34.99 389.44 37.08 391.42 39.89 390.81 38.66 393.41 40.1 395.9 37.25 395.53 35.33 397.67"/><polygon class="cls-3" points="196.67 475.67 195.34 474.72 193.8 475.28 194.29 473.72 193.28 472.43 194.92 472.42 195.83 471.06 196.35 472.61 197.92 473.06 196.61 474.03 196.67 475.67"/><polygon class="cls-3" points="20.67 565 18.94 564.74 17.74 566.02 17.45 564.3 15.87 563.56 17.42 562.75 17.63 561.01 18.88 562.24 20.6 561.9 19.82 563.47 20.67 565"/><polygon class="cls-3" points="19.33 463 17.95 462.2 16.51 462.89 16.84 461.32 15.75 460.17 17.33 460 18.1 458.6 18.75 460.06 20.31 460.35 19.13 461.42 19.33 463"/><polygon class="cls-3" points="149.33 558.33 147.55 558.23 146.45 559.63 146 557.9 144.33 557.29 145.83 556.33 145.9 554.55 147.27 555.68 148.99 555.19 148.34 556.85 149.33 558.33"/><polygon class="cls-3" points="191.5 704 190.02 703.25 188.56 704.04 188.82 702.4 187.61 701.26 189.25 701 189.96 699.5 190.72 700.98 192.37 701.19 191.19 702.37 191.5 704"/><polygon class="cls-3" points="39.5 730.5 36.23 731.37 35.09 734.56 33.25 731.72 29.87 731.63 32 729 31.04 725.75 34.2 726.97 37 725.05 36.82 728.43 39.5 730.5"/><polygon class="cls-3" points="63.5 748.5 62.02 748.49 61.17 749.71 60.72 748.3 59.29 747.87 60.5 747 60.47 745.51 61.67 746.39 63.07 745.91 62.6 747.32 63.5 748.5"/><polygon class="cls-3" points="25 756.5 23.66 756.79 23.14 758.06 22.45 756.87 21.09 756.77 22 755.75 21.68 754.42 22.93 754.97 24.09 754.25 23.96 755.61 25 756.5"/><polygon class="cls-3" points="23 697 21.36 697.44 20.8 699.03 19.88 697.61 18.18 697.57 19.25 696.25 18.77 694.63 20.35 695.23 21.75 694.28 21.66 695.97 23 697"/><polygon class="cls-3" points="242 753.5 239.76 754.97 239.71 757.65 237.62 755.98 235.06 756.76 236 754.25 234.47 752.05 237.14 752.17 238.76 750.04 239.47 752.62 242 753.5"/><polygon class="cls-3" points="268 698 266.07 697.84 264.85 699.34 264.4 697.46 262.6 696.76 264.25 695.75 264.36 693.82 265.83 695.08 267.7 694.59 266.95 696.37 268 698"/><polygon class="cls-3" points="232.5 641.5 230.72 640.9 229.22 642.02 229.24 640.14 227.71 639.06 229.5 638.5 230.06 636.71 231.14 638.24 233.02 638.22 231.9 639.72 232.5 641.5"/><polygon class="cls-3" points="169.5 612.5 167.27 613.23 166.61 615.48 165.22 613.59 162.88 613.65 164.25 611.75 163.46 609.54 165.7 610.26 167.56 608.83 167.56 611.17 169.5 612.5"/><polygon class="cls-3" points="351 739 347.13 740.17 345.9 744.01 343.6 740.7 339.56 740.72 342 737.5 340.73 733.66 344.55 734.99 347.81 732.6 347.72 736.64 351 739"/><polygon class="cls-3" points="457.5 704 456.46 704.89 456.59 706.25 455.43 705.53 454.18 706.08 454.5 704.75 453.59 703.73 454.95 703.63 455.64 702.44 456.16 703.71 457.5 704"/><polygon class="cls-3" points="461.5 737.5 458.82 738.08 457.79 740.61 456.41 738.25 453.68 738.04 455.5 736 454.85 733.34 457.36 734.44 459.69 733 459.41 735.73 461.5 737.5"/><polygon class="cls-3" points="504.5 746.5 503.01 747.98 503.38 750.04 501.51 749.08 499.66 750.07 500 748 498.49 746.55 500.56 746.23 501.48 744.34 502.42 746.21 504.5 746.5"/><polygon class="cls-3" points="537.5 751.5 536.3 753.57 537.33 755.74 534.99 755.24 533.25 756.88 533 754.5 530.9 753.36 533.09 752.38 533.52 750.03 535.13 751.81 537.5 751.5"/><polygon class="cls-3" points="702.5 717 699.97 717.88 699.26 720.46 697.64 718.33 694.97 718.45 696.5 716.25 695.56 713.74 698.12 714.52 700.21 712.85 700.26 715.53 702.5 717"/><polygon class="cls-3" points="693 734.5 691.37 734.2 690.19 735.37 689.98 733.72 688.5 732.96 690 732.25 690.26 730.61 691.4 731.82 693.04 731.56 692.25 733.02 693 734.5"/><polygon class="cls-3" points="976 375 972.13 376.17 970.9 380.01 968.6 376.7 964.56 376.72 967 373.5 965.73 369.66 969.55 370.99 972.8 368.6 972.72 372.64 976 375"/><polygon class="cls-3" points="1064 496 1062.21 498.37 1063.14 501.19 1060.33 500.21 1057.94 501.97 1058 499 1055.59 497.27 1058.43 496.41 1059.33 493.58 1061.03 496.01 1064 496"/><polygon class="cls-3" points="993 564 989.13 565.17 987.9 569.01 985.6 565.7 981.56 565.72 984 562.5 982.73 558.66 986.55 559.99 989.8 557.6 989.72 561.64 993 564"/><polygon class="cls-3" points="927 637 924.92 637.29 923.98 639.16 923.06 637.27 920.99 636.95 922.5 635.5 922.16 633.43 924.01 634.42 925.88 633.46 925.51 635.52 927 637"/><polygon class="cls-3" points="955 699 952.63 698.69 951.02 700.47 950.59 698.12 948.4 697.14 950.5 696 950.75 693.62 952.49 695.26 954.83 694.76 953.8 696.93 955 699"/><polygon class="cls-3" points="748 713 742.65 714.16 740.57 719.23 737.81 714.5 732.35 714.08 736 710 734.7 704.68 739.72 706.89 744.37 704.01 743.82 709.46 748 713"/><polygon class="cls-3" points="815 737 810.83 739.06 810.16 743.66 806.92 740.33 802.34 741.11 804.5 737 802.34 732.89 806.92 733.67 810.16 730.34 810.83 734.94 815 737"/><polygon class="cls-3" points="987 732 989.06 736.17 993.66 736.84 990.33 740.08 991.11 744.66 987 742.5 982.89 744.66 983.67 740.08 980.34 736.84 984.94 736.17 987 732"/><polygon class="cls-3" points="1100 434 1102.06 438.17 1106.66 438.84 1103.33 442.08 1104.11 446.66 1100 444.5 1095.89 446.66 1096.67 442.08 1093.34 438.84 1097.94 438.17 1100 434"/><polygon class="cls-3" points="987 97 989.06 101.17 993.66 101.84 990.33 105.08 991.11 109.66 987 107.5 982.89 109.66 983.67 105.08 980.34 101.84 984.94 101.17 987 97"/><polygon class="cls-3" points="1064 149 1066.06 153.17 1070.66 153.84 1067.33 157.08 1068.11 161.66 1064 159.5 1059.89 161.66 1060.67 157.08 1057.34 153.84 1061.94 153.17 1064 149"/><polygon class="cls-3" points="1147 156 1149.06 160.17 1153.66 160.84 1150.33 164.08 1151.11 168.66 1147 166.5 1142.89 168.66 1143.67 164.08 1140.34 160.84 1144.94 160.17 1147 156"/><polygon class="cls-3" points="1086 557.67 1083.12 559.34 1082.86 562.65 1080.39 560.43 1077.15 561.21 1078.5 558.17 1076.76 555.33 1080.07 555.67 1082.23 553.14 1082.92 556.4 1086 557.67"/><polygon class="cls-3" points="1170.67 485 1167.89 484.89 1166.23 487.11 1165.48 484.44 1162.86 483.54 1165.17 482 1165.21 479.23 1167.38 480.95 1170.04 480.13 1169.07 482.73 1170.67 485"/><polygon class="cls-3" points="1144.67 593 1144.56 593.79 1145.16 594.33 1144.37 594.47 1144.05 595.2 1143.67 594.5 1142.87 594.42 1143.42 593.84 1143.26 593.06 1143.98 593.4 1144.67 593"/><polygon class="cls-3" points="229.33 385 227.5 385.54 226.9 387.35 225.82 385.77 223.91 385.76 225.08 384.25 224.5 382.43 226.3 383.07 227.85 381.96 227.79 383.87 229.33 385"/><polygon class="cls-3" points="309.85 509.08 310.72 507.14 309.62 505.32 311.74 505.55 313.13 503.95 313.56 506.03 315.51 506.86 313.67 507.91 313.49 510.03 311.92 508.59 309.85 509.08"/><polygon class="cls-3" points="381.06 564.16 381.48 559.85 378.16 557.07 382.39 556.13 384.01 552.11 386.21 555.84 390.53 556.14 387.66 559.39 388.71 563.59 384.74 561.87 381.06 564.16"/><polygon class="cls-3" points="599.07 60.16 599.48 55.85 596.16 53.07 600.39 52.13 602.01 48.11 604.21 51.84 608.53 52.14 605.66 55.39 606.71 59.59 602.74 57.87 599.07 60.16"/><polygon class="cls-3" points="423.58 604.11 424.62 603.21 424.46 601.85 425.64 602.56 426.88 601.99 426.57 603.32 427.5 604.33 426.14 604.45 425.46 605.64 424.93 604.38 423.58 604.11"/><polygon class="cls-3" points="378.41 629.7 381.24 630.12 383.19 628.04 383.66 630.85 386.25 632.06 383.71 633.38 383.36 636.22 381.32 634.21 378.52 634.75 379.8 632.2 378.41 629.7"/><polygon class="cls-3" points="315.33 624.02 317.69 622.07 317.43 619.02 320.01 620.66 322.83 619.46 322.06 622.43 324.07 624.74 321.02 624.93 319.44 627.55 318.32 624.7 315.33 624.02"/><polygon class="cls-3" points="282.94 593.43 285.91 594.15 288.19 592.11 288.43 595.16 291.07 596.7 288.24 597.86 287.6 600.86 285.62 598.53 282.57 598.84 284.17 596.23 282.94 593.43"/><polygon class="cls-3" points="254.01 521.8 254.01 522.54 254.63 522.96 253.92 523.19 253.72 523.91 253.28 523.31 252.53 523.34 252.97 522.73 252.71 522.03 253.42 522.26 254.01 521.8"/><polygon class="cls-3" points="250.54 485.84 248.77 487.49 249.13 489.88 247.01 488.71 244.85 489.78 245.31 487.41 243.62 485.68 246.02 485.39 247.14 483.25 248.16 485.44 250.54 485.84"/><polygon class="cls-3" points="286.01 444.88 287.49 443.38 287.09 441.32 288.97 442.26 290.81 441.25 290.49 443.32 292.03 444.76 289.95 445.1 289.06 447 288.1 445.14 286.01 444.88"/><polygon class="cls-3" points="488.95 593.26 488.78 590.74 486.61 589.45 488.96 588.51 489.51 586.04 491.13 587.99 493.65 587.75 492.3 589.89 493.3 592.22 490.85 591.6 488.95 593.26"/><polygon class="cls-3" points="518.98 633.88 520.9 633.27 521.5 631.34 522.67 632.98 524.69 632.95 523.49 634.57 524.15 636.48 522.23 635.84 520.62 637.06 520.63 635.04 518.98 633.88"/><polygon class="cls-3" points="559.96 670.85 561.75 672.17 563.86 671.45 563.15 673.56 564.5 675.34 562.27 675.32 560.99 677.15 560.32 675.02 558.19 674.38 560 673.08 559.96 670.85"/><polygon class="cls-3" points="600.64 607.32 600.47 604.8 598.3 603.51 600.65 602.57 601.21 600.1 602.82 602.04 605.34 601.81 604 603.95 604.99 606.27 602.54 605.65 600.64 607.32"/><polygon class="cls-3" points="656.21 535.1 655.6 532.43 653.05 531.42 655.4 530.01 655.57 527.28 657.63 529.08 660.28 528.39 659.21 530.91 660.68 533.22 657.96 532.98 656.21 535.1"/><polygon class="cls-3" points="667.28 617.46 669.22 618.34 671.04 617.24 670.8 619.35 672.41 620.74 670.33 621.17 669.5 623.13 668.45 621.28 666.33 621.1 667.76 619.53 667.28 617.46"/><polygon class="cls-3" points="776.32 581.04 775.56 578.82 773.3 578.19 775.17 576.78 775.08 574.43 777 575.78 779.2 574.97 778.51 577.21 779.97 579.05 777.62 579.09 776.32 581.04"/><polygon class="cls-3" points="761.22 651.25 762.87 652.27 764.64 651.5 764.17 653.38 765.45 654.83 763.52 654.97 762.54 656.63 761.81 654.84 759.92 654.42 761.41 653.17 761.22 651.25"/><polygon class="cls-3" points="731.08 485.62 731.07 484.14 729.84 483.31 731.25 482.83 731.66 481.41 732.54 482.6 734.02 482.55 733.16 483.76 733.66 485.16 732.25 484.71 731.08 485.62"/><polygon class="cls-3" points="604.04 445.26 601.8 443.8 599.33 444.81 600.03 442.23 598.3 440.18 600.98 440.05 602.39 437.78 603.34 440.28 605.93 440.92 603.85 442.59 604.04 445.26"/><polygon class="cls-3" points="547.12 529.01 545.77 526.35 542.8 525.95 544.92 523.84 544.37 520.9 547.04 522.26 549.66 520.83 549.2 523.78 551.36 525.84 548.41 526.31 547.12 529.01"/><polygon class="cls-3" points="833.2 532.8 833.17 529.83 830.71 528.17 833.53 527.23 834.35 524.38 836.12 526.76 839.09 526.67 837.36 529.08 838.37 531.88 835.54 530.98 833.2 532.8"/><polygon class="cls-3" points="825.28 539.41 826.33 539.99 827.4 539.47 827.16 540.64 828 541.5 826.81 541.64 826.25 542.7 825.75 541.61 824.57 541.4 825.45 540.59 825.28 539.41"/><polygon class="cls-3" points="731.47 624.24 733.83 622.29 733.56 619.24 736.15 620.88 738.96 619.68 738.2 622.65 740.21 624.96 737.15 625.15 735.58 627.77 734.45 624.92 731.47 624.24"/><polygon class="cls-3" points="876.02 596.25 876.76 595.51 876.56 594.48 877.5 594.95 878.42 594.44 878.26 595.48 879.03 596.19 877.99 596.37 877.55 597.32 877.06 596.38 876.02 596.25"/><polygon class="cls-3" points="977.47 605.16 979.85 605.44 981.43 603.64 981.9 605.99 984.1 606.93 982.01 608.1 981.79 610.49 980.03 608.86 977.7 609.39 978.7 607.22 977.47 605.16"/><polygon class="cls-3" points="877.01 707.32 876.1 704.8 873.51 704.13 875.63 702.48 875.47 699.81 877.69 701.31 880.18 700.34 879.44 702.91 881.13 704.98 878.46 705.07 877.01 707.32"/><polygon class="cls-3" points="905.26 653.38 905.11 652.34 904.16 651.88 905.1 651.41 905.25 650.37 905.98 651.12 907.02 650.94 906.53 651.87 907.03 652.8 905.99 652.63 905.26 653.38"/><polygon class="cls-3" points="969.13 642.55 970.75 640.61 970.06 638.17 972.41 639.11 974.52 637.71 974.35 640.24 976.33 641.8 973.88 642.42 973 644.79 971.65 642.66 969.13 642.55"/><polygon class="cls-3" points="903.27 569.96 904.45 568.62 904.01 566.88 905.65 567.59 907.16 566.63 907 568.41 908.37 569.56 906.63 569.95 905.97 571.62 905.05 570.08 903.27 569.96"/><polygon class="cls-3" points="951.21 571.28 951.04 569.5 949.48 568.62 951.13 567.92 951.48 566.16 952.66 567.51 954.43 567.3 953.52 568.84 954.26 570.46 952.52 570.07 951.21 571.28"/><polygon class="cls-3" points="974.61 563.98 974.6 562.49 973.37 561.66 974.78 561.19 975.19 559.76 976.07 560.96 977.56 560.91 976.69 562.12 977.2 563.51 975.78 563.06 974.61 563.98"/><polygon class="cls-3" points="944.16 529.37 942.8 525.96 939.22 525.15 942.04 522.81 941.7 519.15 944.8 521.11 948.17 519.66 947.27 523.21 949.69 525.97 946.03 526.21 944.16 529.37"/><polygon class="cls-3" points="906.17 530.36 904.83 529.18 903.09 529.62 903.8 527.98 902.84 526.47 904.62 526.63 905.76 525.25 906.16 527 907.82 527.66 906.29 528.57 906.17 530.36"/><polygon class="cls-3" points="868.9 548.34 869.04 547.15 868.14 546.37 869.31 546.13 869.78 545.03 870.37 546.07 871.56 546.18 870.75 547.06 871.02 548.23 869.93 547.73 868.9 548.34"/><polygon class="cls-3" points="831.26 653.34 830.94 651.26 829.06 650.34 830.93 649.4 831.23 647.32 832.7 648.82 834.77 648.45 833.8 650.32 834.79 652.17 832.72 651.83 831.26 653.34"/><polygon class="cls-3" points="427.93 412.04 426.23 409.18 422.91 408.97 425.1 406.46 424.28 403.24 427.33 404.55 430.15 402.77 429.85 406.08 432.41 408.21 429.16 408.95 427.93 412.04"/><polygon class="cls-3" points="309.93 102.04 308.23 99.18 304.91 98.97 307.1 96.46 306.28 93.24 309.33 94.55 312.15 92.77 311.85 96.08 314.41 98.21 311.16 98.95 309.93 102.04"/><polygon class="cls-3" points="461.93 117.04 460.23 114.18 456.91 113.97 459.1 111.46 458.28 108.24 461.33 109.55 464.15 107.77 463.85 111.08 466.41 113.21 463.16 113.95 461.93 117.04"/><polygon class="cls-3" points="501.69 495.76 501.77 492.99 499.53 491.35 502.19 490.57 503.05 487.93 504.62 490.22 507.39 490.23 505.7 492.43 506.55 495.06 503.94 494.13 501.69 495.76"/><polygon class="cls-3" points="393.36 471.16 392.57 471.07 392.04 471.67 391.89 470.88 391.15 470.57 391.85 470.18 391.92 469.38 392.51 469.93 393.29 469.75 392.95 470.47 393.36 471.16"/><polygon class="cls-3" points="832.3 690.72 833 688.71 831.73 687 833.86 687.04 835.09 685.3 835.71 687.34 837.74 687.98 836 689.2 836.02 691.32 834.32 690.04 832.3 690.72"/><polygon class="cls-3" points="958 672.51 958.01 668.18 954.45 665.72 958.57 664.39 959.8 660.24 962.34 663.75 966.67 663.64 964.12 667.14 965.56 671.23 961.44 669.88 958 672.51"/><polygon class="cls-3" points="988.54 732.31 989.48 731.32 989.2 729.98 990.43 730.57 991.62 729.89 991.44 731.25 992.46 732.17 991.11 732.41 990.55 733.66 989.9 732.46 988.54 732.31"/><polygon class="cls-3" points="945.95 762.01 948.8 762.17 950.55 759.91 951.28 762.67 953.97 763.63 951.57 765.18 951.49 768.03 949.27 766.23 946.53 767.03 947.56 764.37 945.95 762.01"/><polygon class="cls-3" points="882.62 762.24 884.79 760.08 884.24 757.07 886.96 758.47 889.65 757.01 889.17 760.03 891.39 762.15 888.36 762.62 887.04 765.38 885.65 762.65 882.62 762.24"/><polygon class="cls-3" points="847.5 734.82 850.53 735.26 852.61 733.01 853.13 736.03 855.91 737.31 853.2 738.74 852.84 741.78 850.65 739.64 847.65 740.24 849 737.49 847.5 734.82"/><polygon class="cls-3" points="812.01 666.2 812.08 666.94 812.74 667.3 812.06 667.6 811.92 668.33 811.42 667.77 810.69 667.87 811.06 667.23 810.74 666.56 811.47 666.71 812.01 666.2"/><polygon class="cls-3" points="805.2 630.73 803.59 632.53 804.17 634.88 801.95 633.91 799.9 635.18 800.14 632.78 798.29 631.22 800.65 630.7 801.57 628.46 802.79 630.55 805.2 630.73"/><polygon class="cls-3" points="836.69 586.63 838.02 585 837.43 582.99 839.39 583.75 841.12 582.56 841 584.66 842.67 585.95 840.63 586.48 839.93 588.46 838.79 586.69 836.69 586.63"/><polygon class="cls-3" points="1052.6 715.41 1052.2 712.91 1049.91 711.83 1052.16 710.67 1052.49 708.16 1054.28 709.95 1056.77 709.48 1055.63 711.74 1056.84 713.96 1054.34 713.57 1052.6 715.41"/><polygon class="cls-3" points="1086.29 753.04 1088.15 752.25 1088.56 750.27 1089.88 751.8 1091.89 751.58 1090.85 753.31 1091.68 755.15 1089.71 754.69 1088.22 756.05 1088.05 754.04 1086.29 753.04"/><polygon class="cls-3" points="1165.12 718.97 1164.71 716.47 1162.43 715.39 1164.68 714.23 1165 711.73 1166.8 713.51 1169.28 713.04 1168.14 715.3 1169.35 717.52 1166.86 717.13 1165.12 718.97"/><polygon class="cls-3" points="1213.7 641.87 1212.84 639.27 1210.21 638.5 1212.41 636.88 1212.33 634.14 1214.55 635.74 1217.13 634.81 1216.3 637.42 1217.97 639.59 1215.24 639.6 1213.7 641.87"/><polygon class="cls-3" points="1232.41 722.84 1234.42 723.53 1236.13 722.26 1236.1 724.39 1237.83 725.62 1235.79 726.25 1235.15 728.27 1233.93 726.53 1231.81 726.55 1233.09 724.85 1232.41 722.84"/><polygon class="cls-3" points="1337.57 676.39 1336.61 674.25 1334.3 673.83 1336.03 672.25 1335.72 669.93 1337.76 671.09 1339.87 670.08 1339.39 672.37 1341.02 674.07 1338.68 674.33 1337.57 676.39"/><polygon class="cls-3" points="1329.1 747.7 1330.83 748.57 1332.53 747.63 1332.24 749.55 1333.65 750.87 1331.74 751.19 1330.91 752.94 1330.02 751.22 1328.1 750.98 1329.46 749.6 1329.1 747.7"/><polygon class="cls-3" points="1283.61 585.62 1283.46 584.14 1282.16 583.42 1283.52 582.83 1283.8 581.37 1284.79 582.47 1286.26 582.28 1285.51 583.57 1286.15 584.91 1284.69 584.6 1283.61 585.62"/><polygon class="cls-3" points="1153.37 557.3 1151 556.05 1148.63 557.29 1149.09 554.65 1147.17 552.78 1149.83 552.4 1151.02 550 1152.19 552.4 1154.84 552.8 1152.92 554.66 1153.37 557.3"/><polygon class="cls-3" points="1104.52 646 1102.92 643.47 1099.93 643.36 1101.84 641.06 1101.02 638.18 1103.8 639.28 1106.28 637.62 1106.09 640.6 1108.44 642.45 1105.55 643.19 1104.52 646"/><polygon class="cls-3" points="1324.69 568.05 1324.39 565.1 1321.79 563.67 1324.51 562.47 1325.06 559.55 1327.04 561.77 1329.99 561.39 1328.49 563.96 1329.76 566.64 1326.86 566.01 1324.69 568.05"/><polygon class="cls-3" points="1317.43 575.36 1318.53 575.85 1319.55 575.22 1319.42 576.41 1320.33 577.19 1319.16 577.44 1318.7 578.55 1318.1 577.51 1316.91 577.42 1317.71 576.53 1317.43 575.36"/><polygon class="cls-3" points="1184.33 626.09 1186.49 623.93 1185.94 620.91 1188.67 622.31 1191.36 620.86 1190.88 623.88 1193.09 625.99 1190.07 626.46 1188.74 629.22 1187.36 626.49 1184.33 626.09"/><polygon class="cls-3" points="1183.26 630.22 1183.92 629.41 1183.63 628.4 1184.61 628.78 1185.48 628.19 1185.42 629.24 1186.25 629.88 1185.23 630.15 1184.88 631.14 1184.31 630.25 1183.26 630.22"/><polygon class="cls-3" points="1193.94 664.28 1196.34 664.34 1197.74 662.4 1198.42 664.69 1200.7 665.42 1198.73 666.79 1198.74 669.18 1196.84 667.73 1194.56 668.47 1195.35 666.21 1193.94 664.28"/><polygon class="cls-3" points="1181.83 668.59 1180.69 666.17 1178.05 665.74 1180 663.9 1179.59 661.26 1181.94 662.55 1184.33 661.34 1183.83 663.97 1185.71 665.88 1183.06 666.21 1181.83 668.59"/><polygon class="cls-3" points="1217.71 684.37 1217.46 683.35 1216.47 682.98 1217.37 682.42 1217.41 681.38 1218.22 682.05 1219.23 681.77 1218.84 682.75 1219.41 683.62 1218.37 683.55 1217.71 684.37"/><polygon class="cls-3" points="1280.29 667.62 1281.71 665.54 1280.81 663.17 1283.23 663.89 1285.2 662.3 1285.27 664.83 1287.39 666.2 1285.01 667.05 1284.35 669.49 1282.81 667.49 1280.29 667.62"/><polygon class="cls-3" points="1245.99 643.13 1247.03 641.68 1246.43 640 1248.13 640.54 1249.55 639.45 1249.56 641.24 1251.03 642.25 1249.33 642.8 1248.83 644.52 1247.78 643.08 1245.99 643.13"/><polygon class="cls-3" points="1255.78 598.33 1255.45 596.58 1253.82 595.85 1255.39 594.99 1255.58 593.22 1256.87 594.45 1258.62 594.07 1257.86 595.69 1258.75 597.24 1256.98 597 1255.78 598.33"/><polygon class="cls-3" points="1278.4 588.88 1278.25 587.4 1276.95 586.68 1278.31 586.09 1278.59 584.63 1279.58 585.73 1281.05 585.54 1280.3 586.83 1280.94 588.17 1279.48 587.86 1278.4 588.88"/><polygon class="cls-3" points="1244.85 557.26 1243.18 554 1239.54 553.53 1242.13 550.93 1241.45 547.33 1244.72 548.98 1247.94 547.22 1247.38 550.85 1250.05 553.36 1246.42 553.95 1244.85 557.26"/><polygon class="cls-3" points="1207.12 561.8 1205.67 560.75 1203.99 561.35 1204.54 559.65 1203.44 558.24 1205.23 558.23 1206.24 556.75 1206.8 558.45 1208.51 558.96 1207.07 560.01 1207.12 561.8"/><polygon class="cls-3" points="1171.69 583.19 1171.72 581.99 1170.75 581.29 1171.9 580.95 1172.27 579.8 1172.95 580.79 1174.14 580.79 1173.42 581.74 1173.79 582.88 1172.66 582.48 1171.69 583.19"/><polygon class="cls-3" points="1144.02 691.24 1143.52 689.2 1141.55 688.46 1143.34 687.35 1143.43 685.25 1145.04 686.61 1147.06 686.05 1146.27 688 1147.43 689.75 1145.33 689.6 1144.02 691.24"/><polygon class="cls-3" points="974.92 540.67 972.96 537.99 969.63 538.09 971.58 535.39 970.46 532.25 973.63 533.27 976.26 531.24 976.27 534.57 979.02 536.44 975.86 537.48 974.92 540.67"/><polygon class="cls-3" points="1056.18 617.14 1055.99 614.37 1053.61 612.95 1056.19 611.92 1056.8 609.22 1058.58 611.35 1061.34 611.1 1059.86 613.44 1060.95 615.99 1058.26 615.31 1056.18 617.14"/><polygon class="cls-3" points="946.02 602.76 945.23 602.75 944.76 603.39 944.53 602.63 943.77 602.38 944.43 601.93 944.42 601.13 945.06 601.62 945.82 601.37 945.55 602.12 946.02 602.76"/><polygon class="cls-3" points="117.84 606.02 118.72 604.08 117.62 602.26 119.73 602.5 121.12 600.89 121.55 602.97 123.51 603.8 121.67 604.85 121.48 606.97 119.91 605.53 117.84 606.02"/><polygon class="cls-3" points="189.05 661.11 189.46 656.8 186.15 654.02 190.37 653.08 192 649.07 194.19 652.8 198.51 653.1 195.65 656.34 196.69 660.54 192.72 658.82 189.05 661.11"/><polygon class="cls-3" points="29.57 730.08 30.61 729.18 30.45 727.82 31.62 728.52 32.87 727.95 32.56 729.29 33.49 730.3 32.12 730.42 31.45 731.61 30.91 730.35 29.57 730.08"/><polygon class="cls-3" points="186.39 726.65 189.21 727.08 191.16 724.99 191.63 727.81 194.22 729.02 191.68 730.34 191.33 733.17 189.3 731.17 186.49 731.71 187.77 729.15 186.39 726.65"/><polygon class="cls-3" points="123.31 720.96 125.67 719.01 125.4 715.96 127.99 717.6 130.8 716.41 130.04 719.37 132.05 721.68 128.99 721.87 127.41 724.49 126.29 721.65 123.31 720.96"/><polygon class="cls-3" points="90.92 690.37 93.89 691.09 96.17 689.04 96.41 692.1 99.05 693.63 96.22 694.8 95.58 697.79 93.59 695.46 90.55 695.77 92.15 693.17 90.92 690.37"/><polygon class="cls-3" points="62 618.73 62.01 619.47 62.62 619.89 61.92 620.12 61.71 620.84 61.27 620.24 60.53 620.26 60.96 619.66 60.71 618.96 61.41 619.19 62 618.73"/><polygon class="cls-3" points="58.54 582.77 56.77 584.42 57.13 586.81 55.01 585.64 52.85 586.71 53.31 584.34 51.62 582.61 54.02 582.32 55.14 580.18 56.16 582.37 58.54 582.77"/><polygon class="cls-3" points="94.02 541.82 95.5 540.32 95.1 538.26 96.98 539.2 98.81 538.18 98.5 540.26 100.04 541.69 97.96 542.04 97.07 543.94 96.11 542.08 94.02 541.82"/><polygon class="cls-3" points="94.94 719.24 94.77 716.72 92.6 715.43 94.95 714.49 95.5 712.02 97.12 713.96 99.64 713.73 98.29 715.87 99.29 718.19 96.84 717.57 94.94 719.24"/><polygon class="cls-3" points="124.96 759.86 126.89 759.25 127.48 757.32 128.65 758.97 130.67 758.93 129.47 760.55 130.13 762.46 128.21 761.82 126.6 763.04 126.61 761.02 124.96 759.86"/><polygon class="cls-3" points="206.63 733.32 206.46 730.79 204.29 729.5 206.63 728.56 207.19 726.1 208.81 728.04 211.33 727.81 209.98 729.95 210.98 732.27 208.53 731.65 206.63 733.32"/><polygon class="cls-3" points="262.21 661.1 261.6 658.44 259.05 657.43 261.4 656.02 261.57 653.29 263.63 655.09 266.29 654.4 265.22 656.92 266.68 659.23 263.96 658.99 262.21 661.1"/><polygon class="cls-3" points="273.26 743.47 275.2 744.35 277.02 743.25 276.79 745.36 278.39 746.75 276.31 747.18 275.48 749.14 274.43 747.29 272.31 747.11 273.75 745.54 273.26 743.47"/><polygon class="cls-3" points="382.31 707.08 381.55 704.86 379.29 704.22 381.17 702.81 381.07 700.47 382.99 701.82 385.19 701 384.5 703.25 385.96 705.09 383.61 705.12 382.31 707.08"/><polygon class="cls-3" points="337.09 611.65 337.08 610.16 335.85 609.33 337.26 608.86 337.67 607.43 338.55 608.63 340.03 608.58 339.17 609.78 339.68 611.18 338.26 610.73 337.09 611.65"/><polygon class="cls-3" points="210.06 571.26 207.82 569.79 205.35 570.8 206.05 568.22 204.32 566.18 207 566.05 208.41 563.77 209.35 566.28 211.95 566.92 209.87 568.59 210.06 571.26"/><polygon class="cls-3" points="153.13 654.99 151.77 652.33 148.81 651.94 150.92 649.83 150.38 646.89 153.04 648.25 155.67 646.82 155.2 649.77 157.37 651.83 154.41 652.3 153.13 654.99"/><polygon class="cls-3" points="439.2 658.85 439.18 655.88 436.72 654.21 439.53 653.27 440.36 650.42 442.12 652.81 445.09 652.71 443.36 655.13 444.37 657.92 441.54 657.02 439.2 658.85"/><polygon class="cls-3" points="431.28 665.45 432.32 666.03 433.4 665.51 433.17 666.68 434 667.54 432.81 667.68 432.25 668.74 431.75 667.65 430.57 667.45 431.45 666.63 431.28 665.45"/><polygon class="cls-3" points="402.46 739.29 404.82 737.34 404.55 734.29 407.14 735.93 409.95 734.74 409.19 737.7 411.2 740.01 408.14 740.2 406.56 742.83 405.44 739.98 402.46 739.29"/><polygon class="cls-3" points="482.01 722.31 482.75 721.56 482.55 720.53 483.49 721 484.41 720.49 484.25 721.53 485.02 722.25 483.98 722.42 483.54 723.37 483.05 722.44 482.01 722.31"/><polygon class="cls-3" points="489.46 757.22 491.83 757.49 493.41 755.69 493.88 758.04 496.08 758.99 493.99 760.16 493.78 762.54 492.02 760.92 489.68 761.45 490.68 759.27 489.46 757.22"/><polygon class="cls-3" points="477 760.37 476.08 757.86 473.5 757.18 475.61 755.54 475.45 752.86 477.67 754.37 480.16 753.39 479.42 755.96 481.12 758.03 478.44 758.12 477 760.37"/><polygon class="cls-3" points="575.11 768.62 576.73 766.68 576.04 764.25 578.39 765.19 580.5 763.78 580.33 766.31 582.31 767.88 579.86 768.5 578.98 770.87 577.63 768.73 575.11 768.62"/><polygon class="cls-3" points="543.25 741.03 544.43 739.68 543.99 737.95 545.63 738.65 547.15 737.7 546.98 739.48 548.36 740.62 546.62 741.02 545.95 742.68 545.04 741.14 543.25 741.03"/><polygon class="cls-3" points="557.2 697.35 557.04 695.57 555.48 694.69 557.12 693.99 557.47 692.23 558.65 693.58 560.43 693.37 559.51 694.91 560.26 696.53 558.51 696.13 557.2 697.35"/><polygon class="cls-3" points="580.61 690.05 580.6 688.56 579.37 687.73 580.77 687.26 581.19 685.83 582.07 687.03 583.55 686.98 582.69 688.19 583.19 689.58 581.78 689.13 580.61 690.05"/><polygon class="cls-3" points="550.16 655.43 548.8 652.03 545.22 651.22 548.04 648.87 547.7 645.22 550.81 647.17 554.18 645.73 553.28 649.28 555.7 652.04 552.04 652.28 550.16 655.43"/><polygon class="cls-3" points="512.17 656.42 510.83 655.24 509.09 655.68 509.8 654.04 508.84 652.52 510.63 652.69 511.77 651.31 512.16 653.05 513.83 653.72 512.29 654.63 512.17 656.42"/><polygon class="cls-3" points="474.9 674.39 475.04 673.21 474.14 672.42 475.31 672.18 475.78 671.08 476.37 672.13 477.56 672.23 476.75 673.11 477.01 674.28 475.93 673.78 474.9 674.39"/><polygon class="cls-3" points="33.96 538 32.25 535.15 28.93 534.93 31.12 532.43 30.3 529.2 33.36 530.51 36.17 528.73 35.88 532.05 38.43 534.17 35.19 534.91 33.96 538"/><polygon class="cls-3" points="107.7 621.74 107.78 618.97 105.54 617.33 108.2 616.55 109.06 613.91 110.63 616.2 113.4 616.21 111.71 618.4 112.56 621.04 109.95 620.11 107.7 621.74"/><polygon class="cls-4" points="606 652 602.88 652.43 601.46 655.24 600.09 652.41 596.98 651.93 599.25 649.75 598.74 646.64 601.52 648.13 604.32 646.68 603.76 649.78 606 652"/><polygon class="cls-4" points="597.5 708.5 598.71 704.94 596.46 701.93 600.22 701.98 602.38 698.91 603.5 702.5 607.09 703.62 604.02 705.78 604.07 709.54 601.06 707.29 597.5 708.5"/><polygon class="cls-4" points="653.5 743.5 650.23 744.37 649.09 747.56 647.25 744.72 643.87 744.63 646 742 645.04 738.75 648.2 739.97 651 738.05 650.82 741.43 653.5 743.5"/><polygon class="cls-4" points="730.5 670 729.3 671.33 729.72 673.07 728.09 672.34 726.57 673.28 726.75 671.5 725.39 670.34 727.14 669.97 727.82 668.31 728.72 669.86 730.5 670"/><polygon class="cls-4" points="948 479 947.4 480.78 948.52 482.28 946.64 482.26 945.56 483.79 945 482 943.21 481.44 944.74 480.36 944.72 478.48 946.22 479.6 948 479"/><polygon class="cls-4" points="1209 490 1204.86 487.6 1200.53 489.66 1201.53 484.98 1198.24 481.5 1203 481 1205.29 476.8 1207.23 481.17 1211.94 482.05 1208.38 485.25 1209 490"/><polygon class="cls-4" points="1235.57 398.52 1232.01 397.31 1229 399.56 1229.05 395.8 1225.98 393.63 1229.57 392.52 1230.68 388.93 1232.85 392 1236.61 391.95 1234.36 394.96 1235.57 398.52"/><polygon class="cls-4" points="1274 258 1273.28 254.28 1269.81 252.77 1273.12 250.94 1273.48 247.17 1276.25 249.75 1279.95 248.93 1278.35 252.36 1280.27 255.63 1276.51 255.17 1274 258"/><polygon class="cls-4" points="1191 116 1187.59 115.83 1185.51 118.55 1184.62 115.25 1181.39 114.12 1184.25 112.25 1184.33 108.83 1186.99 110.97 1190.27 109.99 1189.06 113.19 1191 116"/><polygon class="cls-4" points="1280 66 1279.12 64.21 1277.15 63.93 1278.57 62.54 1278.24 60.57 1280 61.5 1281.76 60.57 1281.43 62.54 1282.85 63.93 1280.88 64.21 1280 66"/><polygon class="cls-4" points="1336 515 1330.96 513.79 1327.1 517.25 1326.69 512.08 1322.21 509.48 1327 507.5 1328.09 502.43 1331.45 506.37 1336.61 505.84 1333.9 510.26 1336 515"/><polygon class="cls-4" points="120 406 117.48 404.65 114.94 405.96 115.45 403.15 113.42 401.14 116.25 400.75 117.53 398.2 118.78 400.77 121.6 401.2 119.54 403.18 120 406"/><polygon class="cls-4" points="69 470 65.13 471.17 63.9 475.01 61.6 471.7 57.56 471.72 60 468.5 58.73 464.66 62.55 465.99 65.81 463.6 65.72 467.64 69 470"/><polygon class="cls-4" points="85.52 658 78.23 660.49 76.15 667.9 71.53 661.74 63.83 662.05 68.27 655.75 65.6 648.53 72.96 650.8 79 646.03 79.11 653.73 85.52 658"/><polygon class="cls-4" points="23 282 19.73 282.87 18.59 286.06 16.75 283.22 13.37 283.13 15.5 280.5 14.54 277.25 17.7 278.47 20.5 276.55 20.32 279.94 23 282"/><polygon class="cls-4" points="46 155 44.24 151.43 40.29 150.85 43.15 148.07 42.47 144.15 46 146 49.53 144.15 48.85 148.07 51.71 150.85 47.76 151.43 46 155"/><polygon class="cls-4" points="62 83 62.9 81.82 62.43 80.41 63.83 80.89 65.03 80.02 65 81.5 66.21 82.37 64.78 82.8 64.33 84.21 63.48 82.99 62 83"/><polygon class="cls-4" points="40 24.76 40.66 26.09 42.13 26.31 41.06 27.34 41.31 28.81 40 28.12 38.69 28.81 38.94 27.34 37.87 26.31 39.34 26.09 40 24.76"/><path id="_Clipping_Path_2" data-name="&lt;Clipping Path&gt;" class="cls-1" d="M-271.27,312.58l44.51,9.86L-201.21,308l12.61-17.59,3.87-24.84-.07-.1a27.59,27.59,0,0,0-4.46,3.48C-212.29,292-240.78,305.11-271.27,312.58Z"/><g class="cls-5"><path class="cls-6" d="M-258.88,187.13c.92.72,4.24,6.65,5.06,6.72-.4-1.11-1.2-2.61-1.71-3.65,0-.72,1.32,1.82,1.73,2.22l.49,1.74c.72.88.73-.56,3.17,4-.72-1.61-2.24-4.7-1.93-5s1.33,1.83,1.93,2.77c.2,1.28,1.43,3.2.9,2.86l2.25,4-1-2.08c1.75,1.51,3.86,7,5.8,10.48a8.81,8.81,0,0,0-.92-2.16c.91,1.41,1.63,2.28,2.86,4.18l-.31-.47c-1.61-3.73,2.56,3,3.1,2.57-3.37-5.93-.9-3.59-1.1-4.14,3.16,6.82,1.69,6.52,5.15,13.83.64-.48,3.09,3.28,5.88,7.55-4.28-9.53,2.93,1.26-3.1-11.89-.72-.87-3.67-8.58-5.64-10.61.71,2.29,3.68,7.84,5.84,11.89l-3.71-5.69,1.95,3.49c-1-.62-1.33-2.54-2-2-2.46-4.52-.8-2.94-2.84-7.07-1-1.34,1.3,4-.74.57l-.61-1.67c-2.25-3.95.19,2-2.27-2.51-1.11-3.42-.07-3.51,1.28-2.42l-1.53-3.08c.49,1,.4,1.1.09.63-1.63-3.73-3.06-6.17-3.58-8.66l-.41-.39c-.51-1-2.66-5.06-2.65-5.78,1.62.83,3.16,6.81,4.8,7.64-1.74-4.37-.41-.39-2.05-3.4-3-6.25,1.64.85-2.34-6.73,1,2.06,4.61,7.09,4.8,9.07,2.78,5-.2-2.71.84-1.36-.62-1-.52-.31-.62-.22-2.16-4.76-.73-3.77,1.23-.28a75,75,0,0,1-3.4-7.37,3.1,3.1,0,0,1,.58.55L-103.08,373.1l-9.37-2.83a6.74,6.74,0,0,0-2.78-.5c2,2,2.21,2.69,3.83,4.36-.28.37-3.82-3.38-4-4.12,1.69,3.47-5.08-4.56-4.82-3-.62-1.08-4.81-4.95-4.45-5.43-1.51-1.78-2.21-1.74-3.84-3.41l.36-.49c-3.39-3-.68,1-2.44.48-4.09-4-11.43-10.29-9.37-7.26l-3.2-3.31c1,1.5.89,2.15.6,2.64s-.71.82-.25,1.6c.2,1.66-4.07-4-6.3-5.74l1.93,2.14-3.58-2.79.81.84-1.65-.65a32.64,32.64,0,0,1,2.92,2.7c.93,1.59-3.66-2.65-5.55-3.9,2.38,3.41,1.32.15,3.94,3.29-.79,0,1,3.26-2.88,0l-1.63-2.61c3.65,4.65-4.53-3.34-.69,1.9,5.14,5.4-.71-1.9,1.42,0l2.8,2.86c.14,1.7-.18,2.1-3.55-.07-1.2-2.13-2.56-4.07-2-3.86-2.44-2.41-1.09,1.4-5-3.76-6.18-4.05,6.3,10.32-1,4.94-2.11-1.92,2.75,2.91,3.43,3-.11.15-.45-.36-1.22-1.22,4.74,5-.71-4.54,5.1,3.6l1,1.52c3,2.61-.87-1.65-.2-1.59,2.48,1.48,4.88,5.75,6.41,7.45.94-.23-4.65-5.11-4.06-5.83L-147,360c-.17,1.07.57,2.9-2.12.78l-4.75-5c2.08,2.85-1.67-.62-2.71-1.2.26-.28,1.59.77,2.68,2.13-3.18-1.52,2.88,4.54-.33,3,1.9,3.07,4.35,3.71,3.87,5.15a34.48,34.48,0,0,0-9-7c.75.88.52-.59,3.09,2.52-2.72-1.19,3.51,4.64,0,2.62.27-.31,3.6,2.85,2.77,1.14l-1.49-1.72,2,1.11,3.4,4.81c5.52,4.92,3.06-1.84,8.28,1.75l1.14,2.15,2.18.93a26.31,26.31,0,0,1-2.76-2.91c3.35,1.33-1.78-5.9-.92-6.94l-5.51-5,1.27-.66,4.26,4.72c-5.5-6.83.67-.88-5.61-8.51.22.61-.55-.2-1.46-.91l-2.36-3.42c3.27,4.13,1.78.49,5.72,4.66,1.14-.06,4,1.59,6.52,2.79s4.83,2,4.58.37c-2-4,8.51,6.6,9.19,5.65a14.28,14.28,0,0,1-2.84-2.8c1.64.64,4.54,4.31,6.7,6.18,1.56,2.65,1.31,3.95-.66,2.85.38,1.34,5.24,5.29,5.52,6.78-.44-.34-4.63-4.2-4.43-4.47-2.84-2.82.35.47,1.25,1.18-6.17-5.91,1.26,5.84-8-5.46,3.23,5.16-2.68-1.14-1.95,1.65l-2.48-2.36c.79,1.14,1.6,2.27,2.38,3.43a23.14,23.14,0,0,0-3.73-3.55c1.56,2.61,6.17,7.78,4.47,6.26,2.16,1.88,3.84,3.38,5.88,5.39-3.64-2.72-5.15-2.67-3.93-.52l3,.8c.34.5,1.56,1.66,2.37,2.52-.86,1.07-.46,2.38-5.45-1.42l-3.64-4.51c-1-.55,1.21,3-1.58.07l-1-2.32-2.07-1c3,3.55,7.92,8.29,10.34,9.83.25,1.5.25,1.5,3.08,5.2.11-1,4.55,5.25,4.47,3.58-2.76-2.9.69-1.78,1.55-1.89l-.45-.34c-2.36-2.52-1.74-3.3-.72-2.79l3,2.7-.31,1.27c1.63.72,5.57,3.11,3.32.45-3-3.5-2.47-3.29-2.13-3.74,1.56,2.57,2.93,3.62,4.4,5.44-1.24-2.13-1.46-3.69,1.27-1.65-.23,1.26,4.2,3.86,3.76,4.49-4.69-6.1,1.65-2.16.74-4.74l-.46-.35-1.72-4.34-.65-.07c-6.23-6.87-3.85-6.2-7.11-10.47,1.08,1.44,1.25,1.18,2.06,2-1.7-1.54-2.68-3.08-1-1.56,4.55,4.35.79,1.8,2.85,3.8l2.07,1-4-4.14c1.26.2-2.76-4.89,2.68.13l.18.73,2.68,2.09a44.24,44.24,0,0,0-4.55-4.33,14.46,14.46,0,0,1,2.14.95l165,53.92-303.7-249.61c-.31-.26-.38-.07.19,1.32l-2.25-3.94c1.75,4.37-2.56-3.7-1.12.2a31.25,31.25,0,0,1,1.54,3.08c.63,3.84-3-3.38-3.26-1.69-1.32,1.05-.6,4.83-2.74,4.38-1.33-3.28-.92-.71-3.16-5.41l1.22,2.63-.61-.95a45.24,45.24,0,0,1,1.93,5.65c-.72-.16-1.83-3.58-2.94-4.84l.3-.25-3-4.75c1.33,3.29,5.68,10.56,4.25,9.54.1,2.07-3.75-4.18-4.26-3.78,3,5.48-.42,1,2.62,6.53l-2.23-3.28C-258.16,187.29-258.38,187.43-258.88,187.13Z"/><path class="cls-6" d="M12.31,530.32c5.59,6.64-1.08-3.07,3.53,1.22l-2.18-2.75c1.77-.25,3.53,2.91,5.21,1.91C9.68,521.18,14.36,530.57,12.31,530.32Z"/><path class="cls-6" d="M-225.38,291.42l-1.17-1.91c.65,1.59,1.65,2.95,1.91,4.16-2.36-3.85.19.58-1.13-.55l1.2,1.2,1.7,4.34c2.38,1.75,1.36-3.8,4.08-.21l-1.17-2.66c3.57,6.47,2,.6,4.8,5.55,3.39,4.53,0-4.95,3.46.21,2.61,5.09-.26.89,1.24,4l.06-1.45,2.62,5.09c-1.05-3.45.59-1.18,2.25,1.08l-.49-1c2.85,3.51-2.09-11.91,5.35.81l4.34,5.93c-1.2-3.34-1.49-4.55-1.9-5.67.09.65-.53-.26-.46.36-2.38-4.57.58-.43-1.84-4.27l-2.33-3.22.53,1.05c-3.12-5.45-.61,1.9-4.73-5.58-2.68-5.06-1.28-4.71-1.89-7.11l.72,1.56c.71,1.59,2.12,1.2-.07-2.83a25.34,25.34,0,0,1-2.18-4c1.67,1.52,2.11,1.19,3.16,1.77l-1.25-2.58c3.15,5.41,0-2.92,3.16,3.23l-1.68-3.71c-.5-2.24.75-.86,1.86.19l54.79,51.93L-185,316.23c-1.23-.74-2.26-1.22-.9,1.42-3.68-3.54-.22,1.16,2.09,4.55.27-.32,4,4,4.39,4.41-.5-.28-5-5.4-1.58-.73,1.58.73,6,6,7.69,6.58-1.44-1.77-2.23-3.51-2.62-3.89a1.83,1.83,0,0,0,1,.16L44.81,295.87l-257.43-24.95c-1.08-.11-1.6,1.06-4-2.79-2.29-3.21-1-2.85-5.14-9.6l.64,1.66c-.22-.56-3-4.78-2.72-5-.18.86-1.18.24-1.88-.6l2.38,4.56c-4.18-5.26-4.54-3.51-10.63-13.73l-.42-1.11c.33,1.2.55,2.45,1.19,4.8a35.83,35.83,0,0,0-2.8-4.2l-2.05-4.82.61,1a53,53,0,0,1-3-7c.18-.15,1.59,2.32,2.2,3.28l0,1.49c2,3.42.81-.72,1-.84-.61-1-2.36-4.61-3.27-6,1.61,2.33,2.78,3.53,4.17,5.26l.85,2.21c.27-.23-1.4-4-3.33-7.42-3.49-6.57-1.71-.74-3-1.87l.51,1c-2-4.12-.84,0-1.29.35a42.28,42.28,0,0,1,2.52,4.46c.68,3.09-1,.13-3.09-2.52l-1.44-3.88c-3-5.49-.13,1.55-1.68-.76,2.89,5.6.67.88,2.44,3.75l-.5-1c.36-.31,1.93,4.22,3.19,6,1.45,3.9-1.84-2.07.09,2.84-.07.8-2.92-3.38-4.56-5.65,2.57,5.11,1.68,3.67,4.65,9.9l-.77-.82c1.65,2.25,1.84,1.4,3.12,3.94l-.3-.48c-1.49-3.11.49.34-.12-1.34,1,2.08,2.5,5.19,2.77,4.93l1.52,3.84c-.12-2.07,4.78,10.51,4.47,7.16l-.59-.95c-1.21-3.33,1.69,1.52,2.6,2.24l-.61-1c.19-1.59,3.23,3.16,2.38-1.23,3.16,4.7,6.63,9.79,7.76,10.33-2.37-4.57.62-.48-2-4.89-.65-2.41,2,3.44,1.33,1.08,1.87,4.26,3.73,6.36,5.19,9.53l.42-.33c-1.25-.46-1.47-3.88-3.76-7.11.53,1.76-.3.26-1.87-2.82,1,1.33-.13-2.08,2.48,3.05l.42,1.11c.74.86.62-.5,2.71,3.58l.42,1.1c-1-2.75.42-.31-1.79-5,3.68,6.44-.59-4.63,4.39,5.11l-1-.61c3.16,5.41.85,2.93,2.65,6.58l-2.21-4c2,4.15.12,1.37.75,3l-1.58-3.09.52,1c1.26,3.33-2.31-3.92-1-.58,2.08,4.09,1.24,1.13,2.6,3.65s.64,2.41,1.68,4.44c-.85-2.22-3.56-4.35-3.35-5.25l1.36,3.27c-1.47-2.45-.75-.88-1.58-1.66l1.77,3.64c-2.28-3.19-1.27,1,.48,4.68-5-8.27-2.42-1.68-8.36-12.74,1.12,1.23,1.32,3.23,3,5.52-.64.5-2.79-1.35-2.42,1.2l1.92,3.48c-.92-.67-.35,1.72-.57,1.89,2.19,1.9,5.28,5.87,4.17,3.15-.3-.46-1-2.05-1.53-3.09,3.28,6,3.15,2.55,6.5,9.92-3.09-4.72,2.13,8.36-3.58-2.92l1.39,3.92c-1.83-3.57-1.06-.59-3.8-5.59l1.82,3.57L-212,299a12.07,12.07,0,0,1-1.09-2.72l-3.36-5.21,1.07,3.44c-3.93-6.18-.8,4.14-5.6-4.26l.31.51c.85,2.88,1.27,5.36.83,5.7a69.38,69.38,0,0,0-5-10.32c4.53,8.59-1.33-1.12-.38,1.68.11-.07.3.48.79,1.54l-.93-.74c-1.8-4.21-1.14-2.63-3.07-6.78-1-1.37-.74.55-.39,2.4C-227.48,286.7-225.61,289.49-225.38,291.42Z"/><path class="cls-6" d="M-263.72,172.88a10.09,10.09,0,0,0,1.49,2.19L730.3,53.77-107.06,412.69c-.07,0-.06.24,0,.64l2.62,3.88a8.55,8.55,0,0,0,1.17.22L372,374.14-265,169.66c-.25-.08-.33.16.11,1.32l1.43,2.44Z"/><path class="cls-6" d="M-69.63,523.86a18.83,18.83,0,0,0-2.25,0c-.39,0-.8.06-1.21.11a9.62,9.62,0,0,0-1.34.21c-2,.44-4.21,1.07-6.62,1.85-1.36.49-2.83,1.06-4.33,1.64l-2.31.9-1.19.47-1.38.58-12.85,5.42-8.18,3.33-4.65,1.81-5,1.88c-3.69,1.36-7.41,2.65-11.42,3.94-4.35,1.41-8.85,2.76-13.48,4-5,1.36-10.32,2.64-15.7,3.74-5.74,1.2-11.79,2.25-17.93,3.07-6.54.89-13.15,1.53-20.09,1.9q-5.31.3-10.73.36c-1.81,0-3.63,0-5.45,0L-219,559l-4.3-.11c-5.74-.21-11.54-.62-17.35-1.24l-4.36-.51-4.27-.57q-4-.58-8.06-1.31-8.1-1.45-16.19-3.48c-2.78-.69-5.13-1.33-7.66-2.06s-5-1.47-7.48-2.28-5-1.65-7.46-2.54-5-1.85-7.28-2.74c-4.63-1.84-9.26-3.84-13.84-6-2.29-1.08-4.57-2.19-6.84-3.35s-4.35-2.26-6.51-3.45q-6.5-3.57-12.83-7.58a241.75,241.75,0,0,1-24.32-17.63q-5.94-4.9-11.64-10.25l-2.82-2.7-2.91-2.87q-2.89-2.91-5.71-5.93c-1.87-2-3.72-4.07-5.53-6.16l-2.69-3.16-2.84-3.45q-5.62-7-10.79-14.45l-1.28-1.87-1.31-2c-.92-1.38-1.82-2.78-2.72-4.2q-2.67-4.23-5.19-8.6t-4.84-8.86l-1.19-2.31-1.26-2.52c-.84-1.7-1.65-3.4-2.45-5.12q-2.39-5.16-4.54-10.45c-.71-1.76-1.41-3.53-2.08-5.31l-1-2.68-1-2.83a238,238,0,0,1-7.22-24.77c-.49-2.1-1-4.21-1.39-6.32-.48-2.33-.93-4.69-1.34-7.05q-1.23-7.1-2.05-14.32c-.53-4.8-.93-9.62-1.17-14.44-.26-5.06-.36-10.36-.28-15.57s.33-10.49.76-15.72c.21-2.61.47-5.23.77-7.83s.65-5.3,1.05-8a235.9,235.9,0,0,1,7-31.73l1.16-3.81,1.2-3.73c.83-2.49,1.69-5,2.6-7.43q2.73-7.41,6-14.65c1.07-2.41,2.19-4.8,3.34-7.17l1.79-3.59c.91-1.78,1.83-3.56,2.79-5.33A236.17,236.17,0,0,1-414,186.25a236.51,236.51,0,0,1,14.77-19.47q1.95-2.33,4-4.58c1.41-1.59,2.92-3.24,4.42-4.83q4.51-4.81,9.35-9.42a236.61,236.61,0,0,1,20.37-17.29q5.33-4,10.83-7.71c1.88-1.26,3.57-2.35,5.31-3.45s3.51-2.18,5.29-3.24a236.56,236.56,0,0,1,22.15-11.63c3.79-1.74,7.64-3.38,11.5-4.91q2.91-1.14,5.82-2.21l2.87-1,2.49-.85a234.87,234.87,0,0,1,41.25-9.86l2.62-.36,2.23-.28,4.32-.49c2.89-.3,5.8-.54,8.71-.73q8.75-.59,17.52-.5c2.9,0,5.89.12,8.69.25,2.44.12,4.89.27,7.33.47q7.35.59,14.68,1.64c2.44.35,4.88.74,7.3,1.17l3.63.67,3.4.69c4.28.9,8.56,1.92,12.81,3.07s8.47,2.41,12.64,3.79l3.12,1.06,3,1.07q3,1.08,5.94,2.25a70.2,70.2,0,0,1,11.45,3.34c2.47.9,5.19,2,8.13,3.26s6.38,2.91,9.88,4.71S-99,114.7-95.12,117q2.88,1.71,5.85,3.62l3.2,2.1,3.47,2.37c4.66,3.25,9.42,6.83,14.19,10.76q3.57,2.94,7.15,6.14l1.88,1.71,2.21,2c1.46,1.38,2.93,2.79,4.39,4.24a233.4,233.4,0,0,1,17,18.81l2,2.55,2.06,2.65q2.59,3.39,5.11,6.94c3.35,4.73,6.58,9.66,9.64,14.76s6,10.37,8.65,15.76c.68,1.34,1.34,2.7,2,4.06l1,2.15,1.22,2.66c1.6,3.57,3.14,7.21,4.58,10.91A234.14,234.14,0,0,1,8.14,254.1q1.62,5.85,2.94,11.79.66,3,1.23,5.94l.56,3,.55,3.15a235.18,235.18,0,0,1,2.5,57.49c-.2,2.41-.42,4.81-.69,7.2l-.42,3.57-.47,3.49q-1,6.77-2.34,13.58a236.09,236.09,0,0,1-7.19,27.08,237.18,237.18,0,0,1-10.34,26L-6.8,419-8,421.37c-.8,1.58-1.61,3.15-2.44,4.73-1.66,3.14-3.41,6.26-5.22,9.35a235.34,235.34,0,0,1-25,34.77q7.44-3.37,14.85-7.46A259.13,259.13,0,0,0-8,434.21c1.4-2.62,2.78-5.31,4.12-8l2-4.15,2.22-4.87a246.07,246.07,0,0,0,9.11-23.73,243.47,243.47,0,0,0,6.9-26c.93-4.48,1.74-9,2.42-13.59.34-2.32.64-4.51.93-7s.55-4.89.76-7.38a242.18,242.18,0,0,0-2.64-62.6l-.64-3.54-.68-3.43c-.47-2.3-1-4.6-1.52-6.91Q13.33,256,11.24,249a242.32,242.32,0,0,0-10.17-27.7l-1.52-3.4-1.49-3.2q-1.25-2.61-2.56-5.23-2.62-5.22-5.58-10.43a240.8,240.8,0,0,0-13-20.44c-1.18-1.66-2.38-3.32-3.6-5l-1.85-2.45L-30,169.33q-2.91-3.74-6-7.41c-4.14-4.9-8.54-9.71-13.17-14.37q-3.47-3.5-7.1-6.87l-3.11-2.84-3-2.67c-4.07-3.54-8.32-7-12.71-10.32q-3.3-2.49-6.7-4.89l-3.4-2.36-3-2c-4.07-2.68-8.27-5.28-12.58-7.76s-8.78-4.87-13.18-7-8.69-4.15-13.18-6.05-9.06-3.68-13.69-5.32-9.72-3.25-14.69-4.65S-165.6,82.08-170.71,81l-4-.81-4.35-.8c-2.91-.5-5.84-1-8.78-1.36-5.89-.81-11.84-1.39-17.79-1.76l-2.23-.13-2.34-.1c-1.77-.08-3.55-.13-5.33-.16-3.57-.07-7.15-.05-10.73,0-7.17.19-14.36.71-21.49,1.54l-2.66.32-3,.41q-3.24.45-6.49,1-6.48,1.09-12.95,2.57A241.72,241.72,0,0,0-298.2,89l-3.31,1.17-3.64,1.36c-2.42.92-4.84,1.89-7.24,2.9q-7.23,3-14.27,6.54t-13.81,7.44c-2.25,1.32-4.48,2.66-6.68,4l-3.27,2.09-3.34,2.21a239.76,239.76,0,0,0-26.43,20.61A242.56,242.56,0,0,1-358,119.17c1.91-1.39,3.86-2.76,5.79-4.08s3.65-2.47,5.51-3.67q5.6-3.61,11.42-6.94a246,246,0,0,1,24-12c2-.89,4.1-1.74,6.17-2.57l3.09-1.22,2.85-1.08q5.26-2,10.67-3.7c7.2-2.32,14.54-4.31,21.94-6,3.7-.83,7.42-1.56,11.13-2.21l5.21-.85c1.53-.24,3.06-.46,4.6-.67,6.15-.84,12.36-1.45,18.59-1.82,3.11-.19,6.23-.31,9.35-.38,1.55,0,3.11,0,4.66,0l4.51,0-3.55-.13-3.7-.08q-3.72-.06-7.43,0-7.44.1-14.86.67-3.7.28-7.38.67l-3.67.42-3.81.49c-5.92.81-11.86,1.85-17.75,3.11s-11.76,2.73-17.53,4.41c-2.88.84-5.75,1.73-8.58,2.67l-4.24,1.45-2.41.86-2.48.92a247.73,247.73,0,0,0-38.37,18.34q-4.56,2.7-9,5.56l-2.27,1.49-2.34,1.57q-2.32,1.59-4.64,3.24c-6.15,4.39-12.14,9.1-17.89,14.08s-11.28,10.22-16.5,15.65q-1.95,2-3.86,4.1c-1.24,1.36-2.57,2.83-3.66,4.08q-3.4,3.89-6.69,7.94a247.42,247.42,0,0,0-23.38,34.58c-1.69,3-3.31,6.06-4.86,9.11l-1.57,3.14-1.47,3q-2.91,6.12-5.48,12.41t-4.79,12.67q-1.11,3.19-2.13,6.4l-1,3.23-1,3.35A247.49,247.49,0,0,0-463,278.76c-.77,4.57-1.42,9.24-1.92,13.71s-.87,9-1.13,13.54-.38,9.06-.39,13.58c0,2.26,0,4.51.08,6.76l.11,3.38.15,3.24a248.94,248.94,0,0,0,2.55,25c.63,4.11,1.38,8.28,2.19,12.26q1.13,5.51,2.5,11c1.83,7.28,4,14.49,6.45,21.52l.88,2.48.86,2.34c.57,1.56,1.17,3.12,1.78,4.67q1.83,4.64,3.84,9.21A254.77,254.77,0,0,0-427.78,454c3.27,5.18,6.1,9.36,9.25,13.73s6.37,8.55,9.73,12.63c3.2,3.9,6.38,7.55,9.72,11.17,1.67,1.81,3.36,3.58,5.07,5.33s3.46,3.49,5.11,5.08q5,4.86,10.29,9.41c3.51,3,7.1,6,10.66,8.74s7.25,5.45,11,8c1.86,1.29,3.72,2.54,5.61,3.78s3.83,2.46,5.76,3.65a251,251,0,0,0,24.12,13.09q6.35,3,12.78,5.63l3.25,1.29,3.44,1.32q3.45,1.29,6.93,2.48,7,2.37,14,4.33l3.65,1,3.81,1c2.54.62,5.08,1.2,7.64,1.74q7.65,1.62,15.33,2.76l4.09.57,4.17.51q4.17.48,8.35.81c5.56.45,11.13.71,16.62.79q5.31.13,10.58,0c3.5-.06,7-.19,10.47-.39s6.68-.45,10-.78,6.64-.71,9.83-1.14,6.15-.89,9.19-1.41,6.09-1.11,9-1.72,5.52-1.19,8.25-1.85,5.43-1.36,8.09-2.1c2.44-.67,4.85-1.37,7.25-2.1s4.77-1.5,7.11-2.3l3.22-1.1,3.12-1.12q3.1-1.14,6.15-2.34l2.87-1.15,2.66-1.1q2.65-1.11,5.25-2.27l4.83-2.2c1.49-.7,3-1.4,4.42-2.12l4.23-2.13c2.48-1.27,4.92-2.57,7.3-3.89l3.14-1.76,3-1.73,2.78-1.67,2.42-1.48c1.55-1,3.25-2.07,4.4-2.82s2.49-1.66,3.69-2.49c1-.71,1.93-1.35,2.86-2-3.58,2-4.61,1.63-4.81.62s-.09-2.33-2.77-1.44l9-5.55a8.48,8.48,0,0,1,.77-.45l.67-.38,1.31-.73.86-.38c.26-.11.66-.33.63-.2l1.51,1.25-3.94-5,.09.78v.07l-.15.14-.68.66-.39.36-.6.54L-61,517l-1.71,1.43-1.9,1.56C-66.22,521.25-67.52,522.29-69.63,523.86Z"/></g></g></svg>