<svg id="Layer_1" data-name="Layer 1" xmlns="http://www.w3.org/2000/svg" viewBox="0 0 438 102"><defs><style>.cls-1{fill:#fff;}</style></defs><title>CS_DA</title><path class="cls-1" d="M17,59.25c0,3.8-2,5.62-6.08,5.62h-.07c-4,0-6.08-1.79-6.08-5.62v-16c0-3.65,2.05-5.62,6.08-5.62h.07c4,0,6.08,2,6.08,5.62v4.56h-2V44c0-3.11-1.1-4.4-4.06-4.4S6.79,40.86,6.79,44V58.56c0,3.12,1.1,4.41,4.07,4.41s4.06-1.29,4.06-4.41V54h2Z"/><path class="cls-1" d="M27.61,37.67h.31c4,0,6.08,1.9,6.08,5.62v16C34,63,32,64.87,27.92,64.87h-.31c-4,0-6.08-1.9-6.08-5.62v-16C21.53,39.53,23.59,37.67,27.61,37.67ZM27.77,63c3,0,4.18-1.25,4.18-4.41V44c0-3.15-1.18-4.4-4.18-4.4s-4.18,1.25-4.18,4.4V58.56C23.59,61.72,24.76,63,27.77,63Z"/><path class="cls-1" d="M48.21,60.08H47L40.8,43.18V64.57H38.86V38h2L47.56,56.4,54.33,38h2.12v26.6H54.4V43.18Z"/><path class="cls-1" d="M73.82,43.59v4.18c0,3.73-2,5.63-6.08,5.63H63.52V64.57H61.47V38h6.27C71.77,38,73.82,39.87,73.82,43.59Zm-2,.69c0-3.16-1.18-4.41-4.18-4.41H63.52V51.5h4.07c3,0,4.18-1.26,4.18-4.41Z"/><path class="cls-1" d="M89.93,59.25c0,3.8-2,5.62-6,5.62h-.15c-4,0-6-1.79-6-5.62V38h2.06V58.56c0,3.16,1,4.41,4,4.41s4-1.25,4-4.41V38h2.05Z"/><path class="cls-1" d="M105.13,39.87h-5v24.7H98.07V39.87h-5V38h12.08Z"/><path class="cls-1" d="M108.33,64.57V38h10.44v1.9h-8.39V50.13h7.22V52h-7.22V62.67h8.51v1.9Z"/><path class="cls-1" d="M134,64.57,129.6,53.09H125V64.57h-2V38h6.27c4,0,6.08,1.9,6.08,5.62v3.88c0,2.89-1.22,4.67-3.65,5.32l4.56,11.78Zm-.76-17.75V44.28c0-3.16-1.17-4.41-4.18-4.41H125V51.23H129C132,51.23,133.21,49.94,133.21,46.82Z"/><path class="cls-1" d="M155.48,47.17V43.75c0-2.93-1.06-4.22-3.91-4.22s-3.92,1.29-3.92,4.22v1.86c0,2,.69,2.51,2.7,3.57l4.07,2.24c1.86,1,3.19,2.47,3.19,4.48v3.42c0,3.8-1.94,5.55-6,5.55h-.07c-4,0-6-1.71-6-5.55V55h2.05v3.72c0,2.89,1.07,4.3,4,4.3s3.95-1.41,3.95-4.3V56.59c0-2-.8-2.66-2.81-3.8l-4-2.17c-2.21-1.25-3.16-2.28-3.16-4.41V43.14c0-3.65,2.28-5.47,5.93-5.47h.08c3.64,0,5.92,1.82,5.92,5.47v4Z"/><path class="cls-1" d="M174.1,59.25c0,3.8-2,5.62-6.08,5.62H168c-4,0-6.08-1.79-6.08-5.62v-16c0-3.65,2-5.62,6.08-5.62H168c4,0,6.08,2,6.08,5.62v4.56h-2V44c0-3.11-1.1-4.4-4.07-4.4s-4.06,1.29-4.06,4.4V58.56c0,3.12,1.1,4.41,4.06,4.41s4.07-1.29,4.07-4.41V54h2Z"/><path class="cls-1" d="M179,64.57V38H181v26.6Z"/><path class="cls-1" d="M186.22,64.57V38h10.45v1.9h-8.39V50.13h7.21V52h-7.21V62.67h8.51v1.9Z"/><path class="cls-1" d="M200.82,64.57V38h2.12l8.7,21.73V38h2v26.6h-2l-8.82-21.89V64.57Z"/><path class="cls-1" d="M230.72,59.25c0,3.8-2.05,5.62-6.08,5.62h-.08c-4,0-6.08-1.79-6.08-5.62v-16c0-3.65,2.06-5.62,6.08-5.62h.08c4,0,6.08,2,6.08,5.62v4.56h-2.05V44c0-3.11-1.1-4.4-4.07-4.4s-4.06,1.29-4.06,4.4V58.56c0,3.12,1.1,4.41,4.06,4.41s4.07-1.29,4.07-4.41V54h2.05Z"/><path class="cls-1" d="M235.43,64.57V38h10.45v1.9h-8.4V50.13h7.22V52h-7.22V62.67H246v1.9Z"/><path class="cls-1" d="M268.68,64.57l-2-2.78c-.91,1.94-2.54,3.08-5.47,3.08H261c-4,0-5.4-2.43-5.4-5.32V53.62c0-2.16.76-3.76,2.09-4.4A6.89,6.89,0,0,1,256,44.77V43.14c0-3.65,1.86-5.47,5.89-5.47H262c4,0,5.88,1.82,5.88,5.47v3.57h-2v-3c0-3.08-1.44-4.14-3.91-4.14S258,40.59,258,43.67v1c0,1.4.31,2,2.24,4.74l5.59,8,1.59-7.34h2l-2.05,9.5,3.53,5Zm-3.38-4.75-6.69-9.39a3.58,3.58,0,0,0-1,2.66v5.47c0,3.12,1.22,4.52,3.76,4.52C263.47,63.08,264.61,62.17,265.3,59.82Z"/><path class="cls-1" d="M292.05,43.59V58.94c0,3.73-2.05,5.63-6.08,5.63h-6.19V38H286C290,38,292.05,39.87,292.05,43.59Zm-6.23-3.72h-4v22.8h4c3,0,4.18-1.26,4.18-4.41v-14C290,41.12,288.82,39.87,285.82,39.87Z"/><path class="cls-1" d="M297.07,64.57V38h2.05v26.6Z"/><path class="cls-1" d="M316.63,59.25c0,3.8-2.05,5.62-6.08,5.62h-.3c-4,0-6.08-1.79-6.08-5.62v-16c0-3.65,2.05-5.62,6.08-5.62h.3c4,0,6.08,2,6.08,5.62v3.5h-2.05V44c0-3.15-1.18-4.4-4.18-4.4s-4.18,1.25-4.18,4.4V58.56c0,3.16,1.18,4.41,4.18,4.41s4.18-1.25,4.18-4.41V53.24h-4.33V51.38h6.38Z"/><path class="cls-1" d="M321.58,64.57V38h2.05v26.6Z"/><path class="cls-1" d="M339.09,39.87h-5v24.7H332V39.87h-5V38h12.08Z"/><path class="cls-1" d="M349.5,57.73h-7.14l-1.48,6.84h-2.05L344.75,38h2.36l6,26.6H351Zm-.41-1.86L345.93,41.2l-3.15,14.67Z"/><path class="cls-1" d="M366.53,64.57h-10V38h2v24.7h7.94Z"/><path class="cls-1" d="M384.2,57.73h-7.15l-1.48,6.84h-2.05L379.45,38h2.35l6,26.6h-2.13Zm-.42-1.86L380.63,41.2l-3.16,14.67Z"/><path class="cls-1" d="M402.29,64.57l-4.37-11.48h-4.64V64.57h-2V38h6.27c4,0,6.08,1.9,6.08,5.62v3.88c0,2.89-1.22,4.67-3.65,5.32l4.56,11.78Zm-.76-17.75V44.28c0-3.16-1.18-4.41-4.18-4.41h-4.07V51.23h4.07C400.35,51.23,401.53,49.94,401.53,46.82Z"/><path class="cls-1" d="M418.4,39.87h-5v24.7h-2.05V39.87h-5V38H418.4Z"/><path class="cls-1" d="M430.79,47.17V43.75c0-2.93-1.07-4.22-3.92-4.22S423,40.82,423,43.75v1.86c0,2,.68,2.51,2.7,3.57l4.06,2.24c1.86,1,3.19,2.47,3.19,4.48v3.42c0,3.8-1.94,5.55-6,5.55h-.08c-4,0-6-1.71-6-5.55V55h2v3.72c0,2.89,1.06,4.3,4,4.3s3.95-1.41,3.95-4.3V56.59c0-2-.8-2.66-2.81-3.8l-4-2.17c-2.2-1.25-3.15-2.28-3.15-4.41V43.14c0-3.65,2.28-5.47,5.92-5.47h.08c3.65,0,5.93,1.82,5.93,5.47v4Z"/></svg>