<svg id="Layer_1" data-name="Layer 1" xmlns="http://www.w3.org/2000/svg" viewBox="0 0 679 211"><defs><style>.cls-1{fill:#fff;}</style></defs><title>KAMILEDEMIR</title><path class="cls-1" d="M43.21,73.23q7.32,0,10.11,6.84L61.6,101a2.5,2.5,0,0,0,1.54.38,1.34,1.34,0,0,0,1.06-.43,1.47,1.47,0,0,0,.39-1,12.17,12.17,0,0,0-1.06-3.57L55.92,77.09a6,6,0,0,1-.48-1.93v-.67a1.31,1.31,0,0,1,.29-1,1.44,1.44,0,0,1,1-.25H83.85q3.75,0,3.75,3.18a6.44,6.44,0,0,1-1.11,2.94q-1.11,1.88-6,8.52L69.4,103q7.89.39,12.13,4.52c2.83,2.77,4.24,6.55,4.24,11.37v7.51a9,9,0,0,0,.87,4.52,9.56,9.56,0,0,0,3.66,3,2.49,2.49,0,0,1,.81.62,1.22,1.22,0,0,1,.15.63v1.16c0,.64-.39,1-1.16,1H61a3.27,3.27,0,0,1-2.45-.77,3.76,3.76,0,0,1-.72-2.6V105.49a2.93,2.93,0,0,0-.49-1.73,1.56,1.56,0,0,0-1.34-.68,2.11,2.11,0,0,0-1.83.78v30a3.71,3.71,0,0,1-.73,2.6,3.27,3.27,0,0,1-2.45.77H31.56a3.28,3.28,0,0,1-2.46-.77,3.76,3.76,0,0,1-.72-2.6V84.21A11.47,11.47,0,0,0,28,80.7a5,5,0,0,0-1.34-2,28.8,28.8,0,0,0-3.28-2.45.94.94,0,0,1-.48-.87V74.2c0-.64.39-1,1.16-1Z"/><path class="cls-1" d="M134.11,138.42q-9.72,0-13.87-8a15.05,15.05,0,0,1-5.44,6.07,15.28,15.28,0,0,1-7.94,1.92q-6.64,0-10.69-3.27a10.58,10.58,0,0,1-4-8.67A9.15,9.15,0,0,1,95.45,119q3.31-2.74,10.25-3.71,17.73-2.31,17.72-13.38a10.75,10.75,0,0,0-3.08-7.66A9.77,9.77,0,0,0,113,91.05c-1.35,0-2,.45-2,1.35a1.87,1.87,0,0,0,.29,1,9.35,9.35,0,0,1,6.64,2.41,8,8,0,0,1,2.6,6.16,8.91,8.91,0,0,1-3.7,7.32,15,15,0,0,1-9.49,2.89q-5.88,0-9.34-2.94a9.67,9.67,0,0,1-3.47-7.75q0-6.45,6.26-10.35t16.57-3.9q12.31,0,18.73,6t6.4,17.52v12a5.46,5.46,0,0,0,.29,2.21,1,1,0,0,0,1,.58,1.29,1.29,0,0,0,1.25-.77,10.92,10.92,0,0,0,.68-3,7.15,7.15,0,0,1,.38-2,.83.83,0,0,1,.77-.34h1.64a.86.86,0,0,1,.82.68,7.25,7.25,0,0,1,.24,2.21q0,7.71-4,11.9T134.11,138.42Zm-15.5-20.79a1.83,1.83,0,0,0-1.54-.78c-1.1,0-1.64.65-1.64,1.93v6.16c0,1.29.54,1.93,1.64,1.93a1.85,1.85,0,0,0,1.54-.77Z"/><path class="cls-1" d="M163.77,88.35A14.7,14.7,0,0,1,171.33,90a8.7,8.7,0,0,1,3.9,5.25,15.72,15.72,0,0,1,5.92-6,16.2,16.2,0,0,1,8.23-2.12,14.18,14.18,0,0,1,7.61,2,11.84,11.84,0,0,1,4.72,5.73,14.18,14.18,0,0,1,5.73-5.68,17.09,17.09,0,0,1,8.33-2q6.73,0,10.25,4t3.52,11.84v31.11a3.21,3.21,0,0,1-.73,2.36,3.57,3.57,0,0,1-2.55.72H209.89a3.57,3.57,0,0,1-2.55-.72,3.25,3.25,0,0,1-.72-2.36V101.06a2.92,2.92,0,0,0-.48-1.73,1.56,1.56,0,0,0-1.35-.67,1.77,1.77,0,0,0-1.64.77v34.76a3.25,3.25,0,0,1-.72,2.36,3.57,3.57,0,0,1-2.55.72H183.51a3.57,3.57,0,0,1-2.55-.72,3.25,3.25,0,0,1-.73-2.36V101.06a2.92,2.92,0,0,0-.48-1.73,1.55,1.55,0,0,0-1.34-.67,1.76,1.76,0,0,0-1.64.77v34.76a3.25,3.25,0,0,1-.72,2.36,3.61,3.61,0,0,1-2.56.72H157.12a3.57,3.57,0,0,1-2.55-.72,3.25,3.25,0,0,1-.72-2.36v-34a11.12,11.12,0,0,0-1-5.16,9.35,9.35,0,0,0-3.57-3.32,2.34,2.34,0,0,1-.81-.62,1.18,1.18,0,0,1-.15-.63V89.32c0-.65.39-1,1.16-1Z"/><path class="cls-1" d="M258.14,88.35a3.57,3.57,0,0,1,2.55.72,3.27,3.27,0,0,1,.72,2.36v31.3a5.65,5.65,0,0,0,.29,2.21,1,1,0,0,0,1,.58,1.24,1.24,0,0,0,1.21-.67,13.94,13.94,0,0,0,.72-3.08,7.57,7.57,0,0,1,.38-2,.83.83,0,0,1,.77-.34h1.64a.86.86,0,0,1,.82.68,7.71,7.71,0,0,1,.24,2.31q0,7.71-4.14,11.84t-11.85,4.14q-7.41,0-11.41-4.18t-4-12v-22a11,11,0,0,0-1-5.16,9.24,9.24,0,0,0-3.56-3.32,2.41,2.41,0,0,1-.82-.62,1.28,1.28,0,0,1-.14-.63V89.32c0-.65.38-1,1.15-1ZM236,74.87a8.3,8.3,0,0,1,3.37-6.93c2.25-1.74,5.26-2.6,9-2.6s6.82.86,9.1,2.6a8.64,8.64,0,0,1,0,13.77q-3.42,2.6-9.1,2.6c-3.79,0-6.8-.85-9-2.55A8.18,8.18,0,0,1,236,74.87Z"/><path class="cls-1" d="M272.39,79.88a11.06,11.06,0,0,0-1-5.15,9.26,9.26,0,0,0-3.56-3.33,2.41,2.41,0,0,1-.82-.62,1.28,1.28,0,0,1-.14-.63V69c0-.64.38-1,1.15-1h25.43a3.53,3.53,0,0,1,2.55.73,3.24,3.24,0,0,1,.72,2.36v51.61a5.65,5.65,0,0,0,.29,2.21,1,1,0,0,0,1,.58,1.21,1.21,0,0,0,1.2-.67,13.19,13.19,0,0,0,.73-3.08,7.15,7.15,0,0,1,.38-2,.83.83,0,0,1,.77-.34h1.64a.86.86,0,0,1,.82.68,7.71,7.71,0,0,1,.24,2.31q0,7.71-4.14,11.84t-11.85,4.14q-7.41,0-11.41-4.18t-4-12Z"/><path class="cls-1" d="M328.14,115c0,1.47,1.25,2.84,3.76,4.09a18.46,18.46,0,0,0,8.37,1.88,19.83,19.83,0,0,0,15-6.17,6.37,6.37,0,0,1,.82-.72,1.41,1.41,0,0,1,.73-.14H358a.94.94,0,0,1,.92.48,4.49,4.49,0,0,1,.24,1.73,20.12,20.12,0,0,1-3.23,11,23.27,23.27,0,0,1-9.15,8.13,28.18,28.18,0,0,1-13.24,3.08,30.61,30.61,0,0,1-14.06-3.17,24.92,24.92,0,0,1-10-9,24.58,24.58,0,0,1-3.71-13.39,25.05,25.05,0,0,1,3.47-13.19,24.17,24.17,0,0,1,9.87-9.1,32,32,0,0,1,15-3.32,31.47,31.47,0,0,1,11.6,2A18.92,18.92,0,0,1,353.85,95a13.52,13.52,0,0,1,3,8.66A13.32,13.32,0,0,1,352.31,114a16.44,16.44,0,0,1-11.46,4.1,14.73,14.73,0,0,1-11.27-4.63,1.4,1.4,0,0,0-1,.44A1.5,1.5,0,0,0,328.14,115Zm2.89-6.65a1.81,1.81,0,0,0,1.54.77c1.15,0,1.73-.64,1.73-1.92V93.55c0-1.28-.58-1.92-1.73-1.92a1.81,1.81,0,0,0-1.54.77Z"/><path class="cls-1" d="M416.73,73.23q14.25,0,22.19,8.43t7.95,23.45a36.62,36.62,0,0,1-3.66,16.7,27.14,27.14,0,0,1-10.55,11.37,30.75,30.75,0,0,1-16,4.09H390.25a3.28,3.28,0,0,1-2.46-.77,3.76,3.76,0,0,1-.72-2.6V84.12a9.18,9.18,0,0,0-.77-4.39q-.78-1.29-4.24-3.51a.94.94,0,0,1-.48-.87V74.2c0-.64.39-1,1.16-1Zm-3.85,58.65a2.13,2.13,0,0,0,1.83.77,1.56,1.56,0,0,0,1.34-.68,2.9,2.9,0,0,0,.49-1.73v-50a2.93,2.93,0,0,0-.49-1.73,1.55,1.55,0,0,0-1.34-.67,2.11,2.11,0,0,0-1.83.77Z"/><path class="cls-1" d="M473.06,115c0,1.47,1.25,2.84,3.75,4.09a18.53,18.53,0,0,0,8.38,1.88,19.83,19.83,0,0,0,15-6.17,6.37,6.37,0,0,1,.82-.72,1.39,1.39,0,0,1,.72-.14h1.16a.92.92,0,0,1,.91.48,4.26,4.26,0,0,1,.25,1.73,20.12,20.12,0,0,1-3.23,11,23.27,23.27,0,0,1-9.15,8.13,28.18,28.18,0,0,1-13.24,3.08,30.58,30.58,0,0,1-14.06-3.17,24.92,24.92,0,0,1-10-9,24.5,24.5,0,0,1-3.71-13.39,25.05,25.05,0,0,1,3.47-13.19,24.17,24.17,0,0,1,9.87-9.1,32,32,0,0,1,15-3.32,31.47,31.47,0,0,1,11.6,2A18.92,18.92,0,0,1,498.77,95a13.51,13.51,0,0,1,3,8.66A13.31,13.31,0,0,1,497.23,114a16.44,16.44,0,0,1-11.46,4.1,14.73,14.73,0,0,1-11.27-4.63,1.4,1.4,0,0,0-1,.44A1.5,1.5,0,0,0,473.06,115Zm2.89-6.65a1.81,1.81,0,0,0,1.54.77c1.15,0,1.73-.64,1.73-1.92V93.55c0-1.28-.58-1.92-1.73-1.92a1.81,1.81,0,0,0-1.54.77Z"/><path class="cls-1" d="M518.89,88.35A14.65,14.65,0,0,1,526.45,90a8.63,8.63,0,0,1,3.9,5.25,15.74,15.74,0,0,1,5.93-6,16.2,16.2,0,0,1,8.23-2.12,14.2,14.2,0,0,1,7.61,2,11.82,11.82,0,0,1,4.71,5.73,14.18,14.18,0,0,1,5.73-5.68,17.09,17.09,0,0,1,8.33-2c4.5,0,7.91,1.35,10.26,4s3.51,6.65,3.51,11.84v31.11a3.25,3.25,0,0,1-.72,2.36,3.57,3.57,0,0,1-2.55.72H565a3.57,3.57,0,0,1-2.55-.72,3.25,3.25,0,0,1-.72-2.36V101.06a2.93,2.93,0,0,0-.49-1.73,1.55,1.55,0,0,0-1.34-.67,1.77,1.77,0,0,0-1.64.77v34.76a3.25,3.25,0,0,1-.72,2.36,3.59,3.59,0,0,1-2.56.72H538.64a3.58,3.58,0,0,1-2.56-.72,3.25,3.25,0,0,1-.72-2.36V101.06a2.92,2.92,0,0,0-.48-1.73,1.56,1.56,0,0,0-1.35-.67,1.77,1.77,0,0,0-1.64.77v34.76a3.25,3.25,0,0,1-.72,2.36,3.57,3.57,0,0,1-2.55.72H512.25a3.57,3.57,0,0,1-2.55-.72,3.25,3.25,0,0,1-.72-2.36v-34A11.11,11.11,0,0,0,508,95a9.32,9.32,0,0,0-3.56-3.32,2.41,2.41,0,0,1-.82-.62,1.28,1.28,0,0,1-.14-.63V89.32c0-.65.38-1,1.15-1Z"/><path class="cls-1" d="M613.26,88.35a3.57,3.57,0,0,1,2.55.72,3.22,3.22,0,0,1,.73,2.36v31.3a5.46,5.46,0,0,0,.29,2.21,1,1,0,0,0,1,.58,1.21,1.21,0,0,0,1.2-.67,12.84,12.84,0,0,0,.72-3.08,7.4,7.4,0,0,1,.39-2,.82.82,0,0,1,.77-.34h1.64c.38,0,.65.23.82.68a8.06,8.06,0,0,1,.24,2.31c0,5.14-1.39,9.08-4.14,11.84s-6.71,4.14-11.85,4.14q-7.41,0-11.41-4.18t-4-12v-22a11.12,11.12,0,0,0-1-5.16,9.32,9.32,0,0,0-3.56-3.32,2.41,2.41,0,0,1-.82-.62,1.18,1.18,0,0,1-.14-.63V89.32c0-.65.38-1,1.15-1ZM591.12,74.87a8.3,8.3,0,0,1,3.37-6.93c2.24-1.74,5.26-2.6,9-2.6s6.82.86,9.1,2.6a8.64,8.64,0,0,1,0,13.77c-2.28,1.73-5.32,2.6-9.1,2.6s-6.81-.85-9-2.55A8.18,8.18,0,0,1,591.12,74.87Z"/><path class="cls-1" d="M630.4,88.35q8.28,0,11.27,4.91a18.05,18.05,0,0,1,6.26-4.57,20,20,0,0,1,8-1.49,17.18,17.18,0,0,1,11.55,3.85,12.32,12.32,0,0,1,4.53,9.82,10.21,10.21,0,0,1-3.66,8.14,14,14,0,0,1-9.44,3.13,14.46,14.46,0,0,1-9.29-2.89,9,9,0,0,1-3.61-7.32,8,8,0,0,1,2.6-6.16,9.38,9.38,0,0,1,6.65-2.41,1.86,1.86,0,0,0,.28-1c0-.9-.67-1.35-2-1.35a9.8,9.8,0,0,0-7.32,3.22,10.87,10.87,0,0,0-3.08,7.76,11.07,11.07,0,0,0,2.17,6.78,14.56,14.56,0,0,0,6.21,4.67,3.75,3.75,0,0,1,1.78,1.3,5.09,5.09,0,0,1,.43,2.46v17q0,3.08-3.27,3.08H630.88q-3,0-3-3.08v-34a11,11,0,0,0-1-5.16,9.24,9.24,0,0,0-3.56-3.32,2.41,2.41,0,0,1-.82-.62,1.28,1.28,0,0,1-.14-.63V89.32c0-.65.38-1,1.15-1Z"/></svg>