<svg id="layer" xmlns="http://www.w3.org/2000/svg" viewBox="0 0 652 652"><defs><style>.cls-1{fill:#333;}</style></defs><title>refinery29</title><path class="cls-1" d="M452.56,204.63A81.32,81.32,0,0,0,408,217.34c-14.42-49.69-57.66-77.76-123.48-77.76H180.57V175.8H287.36C342,175.8,374,205.39,374,257.17s-32.25,81.37-86.68,81.37h-.95l6.07-8.92C305.76,309.9,317.7,290.36,317.7,272c0-37.94-24.08-66.58-71.31-66.58-40.78,0-71.51,31.3-71.51,68.09h38.7c0-18.39,12.14-31.86,32.81-31.86,22.19,0,32.43,12.9,32.43,31.67,0,14.42-9.1,28.64-19.15,43.44l-15.56,22.38H180.38v36.22h39.08l-68.09,99.58H314.48V438.49H218.32L261.75,375h22.76a110,110,0,0,0,11.19-.38l114,148.7h49.13l-37.56-48.75L492.77,370c18.4-25.79,39.83-54,39.83-86.48-.19-43.25-33-78.91-80-78.91ZM397.18,443.05,338.38,367c21.62-6.83,39.07-18.4,51.78-34.14,14,17.83,36.22,29,63,29h2.08Zm55.38-117.22c-24.66,0-40.78-18.59-40.78-42.48a27.68,27.68,0,0,1,.38-5.69v-1.14c2.84-20.49,18-35.66,40.21-35.66,24.66,0,40.78,18.59,40.78,42.49C493.34,307.24,477.22,325.83,452.56,325.83Z"/><path class="cls-1" d="M330.22,18C162,18,24.86,154.94,24.86,323.37S161.8,628.73,330.22,628.73,635.59,491.79,635.59,323.18C635.4,154.75,498.46,18,330.22,18Zm0,574.32c-148.51,0-269.14-120.63-269.14-269.14S181.71,54.23,330.22,54.23,599.36,174.86,599.36,323.37C599.36,471.5,478.73,592.32,330.22,592.32ZM-311.42,876.44a49,49,0,0,0,15.55-35.66,49,49,0,0,0-15.55-35.66c-8.54-8-20.11-12.89-37.94-12.89H-412.9V966.34h33.57v-77h12.14l62,77h41.35l-65.05-79.85a45.18,45.18,0,0,0,17.45-10Zm-22.95-22.19c-2.85,3.22-7.21,5.12-16.88,5.12h-27.89V822h27.89c9.67,0,14,2.28,16.88,5.5A21.27,21.27,0,0,1-329.44,841,21.15,21.15,0,0,1-334.37,854.25ZM-207.11,888h53.49V858h-53.49V822.19h70.75V792.42H-240.68V966.53H-133.9V936.75h-73.21Zm117,78.33h33.57V888H-3V858H-56.51V822.19H14.24V792.42H-90.08ZM49.51,792.23H83.09V966.34H49.51ZM251.7,905.65,154.59,792.23H131.07V966.34h33.57V852.92l97.11,113.42h23.52V792.23H251.7ZM370.05,888h53.49V858H370.05V822.19H440.8V792.42H336.48V966.53H443.26V936.75H370.05Zm218.69-11.57a48.66,48.66,0,0,0,0-71.32c-8.53-8-20.1-12.89-37.93-12.89H487.27V966.34h33.57v-77H533l61.83,77h41.73L571.1,886.49a47.29,47.29,0,0,0,17.64-10Zm-23.33-22.19c-2.84,3.22-7.21,5.12-16.88,5.12H520.65V822h27.88c9.67,0,14,2.28,16.88,5.5A21.21,21.21,0,0,1,570.34,841,18.32,18.32,0,0,1,565.41,854.25Zm140.74-.76-38.51-61.26H629.52l59.74,95.4v78.71h33.58V887.63l59.36-95.4H744.08ZM897.33,892c12.14-15.74,19-29.21,19-50.83,0-31.86-26.94-54.81-56.9-54.81h-1.14c-29.78,0-54.82,22.19-56.9,54.24h33.57c0-12.33,11-23.9,23.9-23.9,13.27,0,23.9,11.57,23.9,23.9,0,9.1-1.14,18.59-13.85,34.71l-74.73,91H922.56V935.8H860.72Zm112.28-105.64c-34,0-61.83,27.88-61.83,62.4,0,35.65,27.88,61.26,60.89,61.26h2.27l-33,56.52h37l41.16-70.37c9.11-15.74,17.26-31.29,17.26-48.74.19-37.56-31.1-61.07-63.73-61.07Zm.95,93.31a31.3,31.3,0,1,1,31.3-31.29A31.32,31.32,0,0,1,1010.56,879.66ZM607,25.4a27.88,27.88,0,1,1-27.88,27.88A27.92,27.92,0,0,1,607,25.4Zm0,52a24.09,24.09,0,1,0-24.09-24.09A24.24,24.24,0,0,0,607,77.37Zm8.15-9.11-10.43-15h-4v15H596.9V37.73h10.62c3.79,0,5.69.94,7.2,2.27A7.3,7.3,0,0,1,617,45.5a8.06,8.06,0,0,1-2.28,5.5,8.22,8.22,0,0,1-5.5,2.28l10.06,15Zm-7.77-18.4c2.84,0,4-.56,4.93-1.51a5.35,5.35,0,0,0,1.14-2.85,3.84,3.84,0,0,0-1.14-2.84c-1-.95-2.09-1.52-4.93-1.52h-6.64v8.53h6.64Z"/></svg>