<?xml version="1.0" encoding="utf-8"?>
<!-- Generator: Adobe Illustrator 22.1.0, SVG Export Plug-In . SVG Version: 6.00 Build 0)  -->
<svg version="1.1" id="Layer_1" xmlns="http://www.w3.org/2000/svg" xmlns:xlink="http://www.w3.org/1999/xlink" x="0px" y="0px"
	 viewBox="0 0 500 700" style="enable-background:new 0 0 500 700;" xml:space="preserve">
<style type="text/css">
	.st0{clip-path:url(#XMLID_3_);}
	.st1{fill:#FFFFFF;}
	.st2{fill:none;}
	.st3{clip-path:url(#SVGID_2_);}
	.st4{opacity:0.48;clip-path:url(#SVGID_4_);fill:#FFFFFF;enable-background:new    ;}
	.st5{opacity:0.48;clip-path:url(#SVGID_6_);fill:#68C0FC;enable-background:new    ;}
	.st6{fill:#E6E6E8;}
	.st7{fill:#C0C0C4;}
	.st8{fill:#858585;}
	.st9{fill:#C2C2CA;}
	.st10{fill:#A6A6A6;}
	.st11{fill:#A8A8A8;}
	.st12{opacity:0.48;clip-path:url(#SVGID_8_);fill:#FFFFFF;enable-background:new    ;}
	.st13{opacity:0.48;clip-path:url(#SVGID_10_);fill:#FFFFFF;enable-background:new    ;}
	.st14{opacity:0.45;}
	.st15{fill:#002C3C;}
	.st16{opacity:0.38;fill:#C0C0C4;enable-background:new    ;}
	.st17{fill:#B4B4B5;}
	.st18{fill:#E2E2E2;}
	.st19{fill:#666666;}
	.st20{opacity:0.48;fill:#FFFFFF;enable-background:new    ;}
	.st21{fill:#A52B1C;}
	.st22{clip-path:url(#SVGID_12_);fill:#FDFDFF;}
	.st23{fill:#B9B9BA;}
	.st24{opacity:0.5;clip-path:url(#SVGID_14_);fill:#F9F9F9;enable-background:new    ;}
	.st25{opacity:0.5;clip-path:url(#SVGID_16_);fill:#F9F9F9;enable-background:new    ;}
	.st26{fill:none;stroke:#002C3C;stroke-width:3;stroke-miterlimit:10;}
	.st27{fill:none;stroke:#002C3C;stroke-width:2;stroke-miterlimit:10;}
	.st28{fill:none;stroke:#002C3C;stroke-width:9;stroke-miterlimit:10;}
	.st29{fill:none;stroke:#002C3C;stroke-width:4;stroke-miterlimit:10;}
	.st30{fill:none;stroke:#002C3C;stroke-miterlimit:10;}
	.st31{opacity:0.84;}
</style>
<g>
	<defs>
		<rect id="XMLID_1_" width="500" height="700"/>
	</defs>
	<clipPath id="XMLID_3_">
		<use xlink:href="#XMLID_1_"  style="overflow:visible;"/>
	</clipPath>
	<g class="st0">
		<polygon class="st1" points="87.1,282.8 88.2,286.3 85,288.4 88.8,288.6 89.9,292.2 91.3,288.8 		"/>
		<polygon class="st1" points="87.1,282.8 90.1,285.1 93.3,283.1 92.1,286.6 95,289 91.3,288.8 		"/>
	</g>
	<g class="st0">
		<circle class="st2" cx="250" cy="350" r="242.2"/>
		<g>
			<g>
				<circle id="XMLID_5_" cx="250" cy="350" r="230.2"/>
			</g>
			<g>
				<defs>
					<circle id="SVGID_1_" cx="250" cy="350" r="230.2"/>
				</defs>
				<clipPath id="SVGID_2_">
					<use xlink:href="#SVGID_1_"  style="overflow:visible;"/>
				</clipPath>
				<g class="st3">
					<g>
						<polygon class="st1" points="50.9,303.1 52.1,307.1 48.4,309.4 52.8,309.8 54,313.8 55.5,309.9 						"/>
						<polygon class="st1" points="50.9,303.1 54.2,305.8 57.8,303.4 56.4,307.4 59.7,310.1 55.5,309.9 						"/>
					</g>
					<g>
						<g>
							<path id="XMLID_9_" d="M349.8,515.3c6.5-4,8.5-13.7,4.2-19.7l-39.5-54.2c-6.8-9.3-8-22.5-3.3-34.4c0.1-0.4,0.3-0.7,0.4-1
								c17.2-42.5,64.9-54.4,90.1-22.4c17.9,22.6,38.9,53.3,49.4,83.5c18.5-34,29.1-73.4,29.1-115.1
								c0-130.6-103.1-236.5-230.2-236.5S19.8,221.3,19.8,352S122.8,588.6,250,588.6c9.7,0,19.4-0.6,28.8-1.8
								c0.3-0.6,0.5-1.1,0.8-1.7C295.1,552.1,330.5,527,349.8,515.3z"/>
						</g>
						<g>
							<g>
								<defs>
									<path id="SVGID_3_" d="M349.8,515.3c6.5-4,8.5-13.7,4.2-19.7l-39.5-54.2c-6.8-9.3-8-22.5-3.3-34.4c0.1-0.4,0.3-0.7,0.4-1
										c17.2-42.5,64.9-54.4,90.1-22.4c17.9,22.6,38.9,53.3,49.4,83.5c18.5-34,29.1-73.4,29.1-115.1
										c0-130.6-103.1-236.5-230.2-236.5S19.8,221.3,19.8,352S122.8,588.6,250,588.6c9.7,0,19.4-0.6,28.8-1.8
										c0.3-0.6,0.5-1.1,0.8-1.7C295.1,552.1,330.5,527,349.8,515.3z"/>
								</defs>
								<clipPath id="SVGID_4_">
									<use xlink:href="#SVGID_3_"  style="overflow:visible;"/>
								</clipPath>
								<polygon class="st4" points="480,257 61.7,604 11.9,540.5 430.2,193.5 								"/>
							</g>
							<g>
								<g>
									<defs>
										<path id="SVGID_5_" d="M349.8,515.3c6.5-4,8.5-13.7,4.2-19.7l-39.5-54.2c-6.8-9.3-8-22.5-3.3-34.4c0.1-0.4,0.3-0.7,0.4-1
											c17.2-42.5,64.9-54.4,90.1-22.4c17.9,22.6,38.9,53.3,49.4,83.5c18.5-34,29.1-73.4,29.1-115.1
											c0-130.6-103.1-236.5-230.2-236.5S19.8,221.3,19.8,352S122.8,588.6,250,588.6c9.7,0,19.4-0.6,28.8-1.8
											c0.3-0.6,0.5-1.1,0.8-1.7C295.1,552.1,330.5,527,349.8,515.3z"/>
									</defs>
									<clipPath id="SVGID_6_">
										<use xlink:href="#SVGID_5_"  style="overflow:visible;"/>
									</clipPath>
									<polygon class="st5" points="393.1,99 -21.7,443.1 86.8,581.1 501.6,237.1 									"/>
								</g>
							</g>
							<path class="st6" d="M194.9,351.5c0,0-38,6.3-55.6,35.9S95.8,522.3,95.8,522.3s18.9,38.7,132.6,59.4
								c113.7,20.7,186.9-87.6,186.9-87.6l3.5-46.7c0,0-26.1-70.4-51.3-76.5c-15.9-4-34.3-22.5-34.3-22.5L194.9,351.5z"/>
							<g>
								<path class="st7" d="M205.4,344.9c0,0-30,12.9-47.6,42.5s-26.4,146.1-26.4,146.1s-14.3,21.2,99.5,41.9
									c113.7,20.7,186.9-87.6,186.9-87.6l21.7-45c0,0-35-68.3-60-83.1c-14.1-8.4-53.5-17.4-53.5-17.4L205.4,344.9z"/>
								<g>
									<path class="st7" d="M450.1,461.9c-10.4-29.5-31.1-59.5-49-81.6c-25.1-31.3-72.4-19.8-89.4,21.8c-0.1,0.4-0.3,0.7-0.4,1
										c-4.6,11.5-3.4,24.5,3.3,33.5l39.1,52.9c4.3,5.9,2.3,15.4-4.1,19.2c-19.1,11.5-54.2,35.9-69.6,68.2c-0.3,0.5-0.5,1-0.8,1.6
										C352.9,569.4,415.5,524.6,450.1,461.9z"/>
									<g>
										<path class="st7" d="M357.8,389.8c0,0-9.9,5.1-16.8,17.6l14.5,21.5c0,0,14.9,15.4,34.4,8.5L357.8,389.8z"/>
										<polygon class="st7" points="359.3,389 393.5,433 395.6,429.5 360.6,388.1 										"/>
										<polygon class="st7" points="361.9,387.3 397.3,424.5 398.1,420.5 363,386.5 										"/>
										<polygon class="st7" points="364.8,386 398.4,415.1 398.1,411.1 365.8,385.3 										"/>
										<path class="st7" d="M367.6,384.8l28.8,20.8c0,0-0.6-2.1-2.2-4.4l-25.4-17L367.6,384.8z"/>
										<path class="st7" d="M370.6,383.7l19.9,11.9l-9.2-13.6C381.3,382,376.8,381.7,370.6,383.7z"/>
										<g>
											<polygon class="st7" points="358.4,411.7 359.6,415.8 356,418 360.2,418.4 361.5,422.4 363,418.5 											"/>
											<polygon class="st7" points="358.3,411.7 361.6,414.4 365.3,412.1 363.9,416 367.1,418.8 363,418.5 											"/>
										</g>
									</g>
								</g>
							</g>
							<path class="st1" d="M199.4,347.8c0,0-29.9,12.9-47.5,42.5s-26.4,146-26.4,146s-14.2,21.2,99.5,41.9s186.9-87.6,186.9-87.6
								l21.7-45c0,0-35-68.3-60-83.1c-14.1-8.4-53.5-17.4-53.5-17.4L199.4,347.8z"/>
							<path class="st7" d="M199,328.8c0,0-6,8.3,0,18.6c6,10.5,134.3,0,134.3,0s7.5-12.8,0-18.6H199z"/>
							<path class="st7" d="M366,234.3c-9.8-53.1-56.2-81.3-116-74.3c-55.1,6.5-85.3,38.4-80,109.2c2.7,35.9,14.8,49.8,30.4,63.1
								c42.3,1.3,84.5,0.5,126.8,0.5C356.7,309.9,373,272.1,366,234.3z"/>
							<path class="st1" d="M359.9,234.3C350,181.1,303.6,153,243.8,160c-55.1,6.5-85.3,38.4-80,109.2c2.7,35.9,14.8,49.8,30.4,63.1
								c42.3,1.3,84.5,0.5,126.8,0.5C350.5,309.9,366.8,272.1,359.9,234.3z"/>
							<g>
								<ellipse class="st8" cx="334.4" cy="248.3" rx="16.8" ry="18.9"/>
							</g>
							<ellipse class="st9" cx="333.8" cy="289.8" rx="12.6" ry="12.8"/>
							<ellipse class="st10" cx="339.4" cy="248.3" rx="10.7" ry="10.4"/>
							<ellipse class="st11" cx="336.6" cy="289.4" rx="8.9" ry="9.1"/>
							<path class="st11" d="M330.3,234.8"/>
							<g>
								<g>
									<path id="XMLID_8_" class="st7" d="M285.2,316.6h-80.5c-18.1,0-32.9-14.9-32.9-33.1v-62.1c0-19.1,15.5-34.7,34.5-34.7h79.7
										c13.3,0,24,10.9,24,24.2v80.7C310.1,305.4,298.9,316.6,285.2,316.6z"/>
								</g>
								<g>
									<g>
										<defs>
											<path id="SVGID_7_" d="M285.2,316.6h-80.5c-18.1,0-32.9-14.9-32.9-33.1v-62.1c0-19.1,15.5-34.7,34.5-34.7h79.7
												c13.3,0,24,10.9,24,24.2v80.7C310.1,305.4,298.9,316.6,285.2,316.6z"/>
										</defs>
										<clipPath id="SVGID_8_">
											<use xlink:href="#SVGID_7_"  style="overflow:visible;"/>
										</clipPath>
										<polygon class="st12" points="287,171.1 161.7,279.5 146,258.7 271.3,150.2 										"/>
									</g>
									<g>
										<g>
											<defs>
												<path id="SVGID_9_" d="M285.2,316.6h-80.5c-18.1,0-32.9-14.9-32.9-33.1v-62.1c0-19.1,15.5-34.7,34.5-34.7h79.7
													c13.3,0,24,10.9,24,24.2v80.7C310.1,305.4,298.9,316.6,285.2,316.6z"/>
											</defs>
											<clipPath id="SVGID_10_">
												<use xlink:href="#SVGID_9_"  style="overflow:visible;"/>
											</clipPath>
											<polygon class="st13" points="307.5,201.5 182.3,309.9 166.6,289 291.9,180.5 											"/>
										</g>
									</g>
									<g>
										<g class="st14">
											<path class="st15" d="M192.5,217.3v5c0,1.6-0.5,2.9-2.6,2.9c-2,0-2.5-1.3-2.5-2.9v-4.9c0-1.8,0.8-2.9,2.6-2.9
												C191.8,214.5,192.5,215.6,192.5,217.3z M189.1,217.3v5.3c0,0.8,0.2,1.2,0.9,1.2c0.6,0,0.9-0.5,0.9-1.3v-5.3
												c0-0.8-0.2-1.1-0.9-1.1C189.4,216,189.1,216.4,189.1,217.3z"/>
											<path class="st15" d="M194.3,225.1v-8.5c-0.3,0-0.9,0-1.1,0v-1.3c0.6,0,1.3-0.4,1.5-0.8h1.3v10.5H194.3z"/>
											<path class="st15" d="M198,225.1v-8.5c-0.3,0-0.9,0-1.1,0v-1.3c0.6,0,1.3-0.4,1.5-0.8h1.3v10.5H198z"/>
											<path class="st15" d="M206.1,217.3v5c0,1.6-0.5,2.9-2.6,2.9c-2,0-2.5-1.3-2.5-2.9v-4.9c0-1.8,0.8-2.9,2.6-2.9
												C205.4,214.5,206.1,215.6,206.1,217.3z M202.8,217.3v5.3c0,0.8,0.2,1.2,0.9,1.2c0.6,0,0.9-0.5,0.9-1.3v-5.3
												c0-0.8-0.2-1.1-0.9-1.1C203,216,202.8,216.4,202.8,217.3z"/>
											<path class="st15" d="M207.9,225.1v-8.5c-0.3,0-0.9,0-1.1,0v-1.3c0.6,0,1.3-0.4,1.5-0.8h1.3v10.5H207.9z"/>
											<path class="st15" d="M216.1,217.3v5c0,1.6-0.5,2.9-2.6,2.9c-2,0-2.5-1.3-2.5-2.9v-4.9c0-1.8,0.8-2.9,2.6-2.9
												C215.3,214.5,216.1,215.6,216.1,217.3z M212.6,217.3v5.3c0,0.8,0.2,1.2,0.9,1.2c0.6,0,0.9-0.5,0.9-1.3v-5.3
												c0-0.8-0.2-1.1-0.9-1.1C213,216,212.6,216.4,212.6,217.3z"/>
											<path class="st15" d="M222.3,217.3v5c0,1.6-0.5,2.9-2.6,2.9c-2,0-2.5-1.3-2.5-2.9v-4.9c0-1.8,0.8-2.9,2.6-2.9
												C221.5,214.5,222.3,215.6,222.3,217.3z M218.9,217.3v5.3c0,0.8,0.2,1.2,0.9,1.2c0.6,0,0.9-0.5,0.9-1.3v-5.3
												c0-0.8-0.2-1.1-0.9-1.1C219.1,216,218.9,216.4,218.9,217.3z"/>
											<path class="st15" d="M228.4,217.3v5c0,1.6-0.5,2.9-2.6,2.9c-2,0-2.5-1.3-2.5-2.9v-4.9c0-1.8,0.8-2.9,2.6-2.9
												C227.6,214.5,228.4,215.6,228.4,217.3z M225,217.3v5.3c0,0.8,0.2,1.2,0.9,1.2c0.6,0,0.9-0.5,0.9-1.3v-5.3
												c0-0.8-0.2-1.1-0.9-1.1C225.3,216,225,216.4,225,217.3z"/>
											<path class="st15" d="M236.8,217.3v5c0,1.6-0.5,2.9-2.6,2.9c-2,0-2.5-1.3-2.5-2.9v-4.9c0-1.8,0.8-2.9,2.6-2.9
												C236,214.5,236.8,215.6,236.8,217.3z M233.4,217.3v5.3c0,0.8,0.2,1.2,0.9,1.2c0.6,0,0.9-0.5,0.9-1.3v-5.3
												c0-0.8-0.2-1.1-0.9-1.1C233.6,216,233.4,216.4,233.4,217.3z"/>
											<path class="st15" d="M238.5,225.1v-8.5c-0.3,0-0.9,0-1.1,0v-1.3c0.6,0,1.3-0.4,1.5-0.8h1.3v10.5H238.5z"/>
											<path class="st15" d="M242.2,225.1v-8.5c-0.3,0-0.9,0-1.1,0v-1.3c0.6,0,1.3-0.4,1.5-0.8h1.3v10.5H242.2z"/>
											<path class="st15" d="M246,225.1v-8.5c-0.3,0-0.9,0-1.1,0v-1.3c0.6,0,1.3-0.4,1.5-0.8h1.3v10.5H246z"/>
											<path class="st15" d="M254.2,217.3v5c0,1.6-0.5,2.9-2.6,2.9c-2,0-2.5-1.3-2.5-2.9v-4.9c0-1.8,0.8-2.9,2.6-2.9
												C253.4,214.5,254.2,215.6,254.2,217.3z M250.8,217.3v5.3c0,0.8,0.2,1.2,0.9,1.2s0.9-0.5,0.9-1.3v-5.3
												c0-0.8-0.2-1.1-0.9-1.1C251,216,250.8,216.4,250.8,217.3z"/>
											<path class="st15" d="M255.9,225.1v-8.5c-0.3,0-0.9,0-1.1,0v-1.3c0.6,0,1.3-0.4,1.5-0.8h1.3v10.5H255.9z"/>
											<path class="st15" d="M264,217.3v5c0,1.6-0.5,2.9-2.6,2.9c-2,0-2.5-1.3-2.5-2.9v-4.9c0-1.8,0.8-2.9,2.6-2.9
												C263.3,214.5,264,215.6,264,217.3z M260.7,217.3v5.3c0,0.8,0.2,1.2,0.9,1.2c0.6,0,0.9-0.5,0.9-1.3v-5.3
												c0-0.8-0.2-1.1-0.9-1.1C261,216,260.7,216.4,260.7,217.3z"/>
											<path class="st15" d="M265.8,225.1v-8.5c-0.3,0-0.9,0-1.1,0v-1.3c0.6,0,1.3-0.4,1.5-0.8h1.3v10.5H265.8z"/>
											<path class="st15" d="M192.5,236.5v5c0,1.6-0.5,2.9-2.6,2.9c-2,0-2.5-1.3-2.5-2.9v-4.9c0-1.8,0.8-2.9,2.6-2.9
												C191.8,233.8,192.5,234.8,192.5,236.5z M189.1,236.4v5.3c0,0.8,0.2,1.2,0.9,1.2c0.6,0,0.9-0.5,0.9-1.3v-5.3
												c0-0.8-0.2-1.1-0.9-1.1C189.4,235.3,189.1,235.6,189.1,236.4z"/>
											<path class="st15" d="M194.3,244.3v-8.5c-0.3,0.1-0.9,0.1-1.1,0.1v-1.3c0.6-0.1,1.3-0.4,1.5-0.8h1.3v10.4H194.3z"/>
											<path class="st15" d="M198,244.3v-8.5c-0.3,0.1-0.9,0.1-1.1,0.1v-1.3c0.6-0.1,1.3-0.4,1.5-0.8h1.3v10.4H198z"/>
											<path class="st15" d="M206.1,236.5v5c0,1.6-0.5,2.9-2.6,2.9c-2,0-2.5-1.3-2.5-2.9v-4.9c0-1.8,0.8-2.9,2.6-2.9
												C205.4,233.8,206.1,234.8,206.1,236.5z M202.8,236.4v5.3c0,0.8,0.2,1.2,0.9,1.2c0.6,0,0.9-0.5,0.9-1.3v-5.3
												c0-0.8-0.2-1.1-0.9-1.1C203,235.3,202.8,235.6,202.8,236.4z"/>
											<path class="st15" d="M207.9,244.3v-8.5c-0.3,0.1-0.9,0.1-1.1,0.1v-1.3c0.6-0.1,1.3-0.4,1.5-0.8h1.3v10.4H207.9z"/>
											<path class="st15" d="M211.6,244.3v-8.5c-0.3,0.1-0.9,0.1-1.1,0.1v-1.3c0.6-0.1,1.3-0.4,1.5-0.8h1.3v10.4H211.6z"/>
											<path class="st15" d="M219.9,236.5v5c0,1.6-0.5,2.9-2.6,2.9c-2,0-2.5-1.3-2.5-2.9v-4.9c0-1.8,0.8-2.9,2.6-2.9
												C219,233.8,219.9,234.8,219.9,236.5z M216.5,236.4v5.3c0,0.8,0.2,1.2,0.9,1.2c0.6,0,0.9-0.5,0.9-1.3v-5.3
												c0-0.8-0.2-1.1-0.9-1.1C216.7,235.3,216.5,235.6,216.5,236.4z"/>
											<path class="st15" d="M226,236.5v5c0,1.6-0.5,2.9-2.6,2.9c-2,0-2.5-1.3-2.5-2.9v-4.9c0-1.8,0.8-2.9,2.6-2.9
												C225.3,233.8,226,234.8,226,236.5z M222.6,236.4v5.3c0,0.8,0.2,1.2,0.9,1.2s0.9-0.5,0.9-1.3v-5.3c0-0.8-0.2-1.1-0.9-1.1
												C222.9,235.3,222.6,235.6,222.6,236.4z"/>
											<path class="st15" d="M234.4,236.5v5c0,1.6-0.5,2.9-2.6,2.9c-2,0-2.5-1.3-2.5-2.9v-4.9c0-1.8,0.8-2.9,2.6-2.9
												C233.6,233.8,234.4,234.8,234.4,236.5z M231,236.4v5.3c0,0.8,0.2,1.2,0.9,1.2c0.6,0,0.9-0.5,0.9-1.3v-5.3
												c0-0.8-0.2-1.1-0.9-1.1C231.2,235.3,231,235.6,231,236.4z"/>
											<path class="st15" d="M236,244.3v-8.5c-0.3,0.1-0.9,0.1-1.1,0.1v-1.3c0.6-0.1,1.3-0.4,1.5-0.8h1.3v10.4H236z"/>
											<path class="st15" d="M239.8,244.3v-8.5c-0.3,0.1-0.9,0.1-1.1,0.1v-1.3c0.6-0.1,1.3-0.4,1.5-0.8h1.3v10.4H239.8z"/>
											<path class="st15" d="M243.5,244.3v-8.5c-0.3,0.1-0.9,0.1-1.1,0.1v-1.3c0.6-0.1,1.3-0.4,1.5-0.8h1.3v10.4H243.5z"/>
											<path class="st15" d="M251.8,236.5v5c0,1.6-0.5,2.9-2.6,2.9c-2,0-2.5-1.3-2.5-2.9v-4.9c0-1.8,0.8-2.9,2.6-2.9
												C251,233.8,251.8,234.8,251.8,236.5z M248.4,236.4v5.3c0,0.8,0.2,1.2,0.9,1.2c0.6,0,0.9-0.5,0.9-1.3v-5.3
												c0-0.8-0.2-1.1-0.9-1.1C248.6,235.3,248.4,235.6,248.4,236.4z"/>
											<path class="st15" d="M253.5,244.3v-8.5c-0.3,0.1-0.9,0.1-1.1,0.1v-1.3c0.6-0.1,1.3-0.4,1.5-0.8h1.3v10.4H253.5z"/>
											<path class="st15" d="M261.7,236.5v5c0,1.6-0.5,2.9-2.6,2.9c-2,0-2.5-1.3-2.5-2.9v-4.9c0-1.8,0.8-2.9,2.6-2.9
												C261,233.8,261.7,234.8,261.7,236.5z M258.3,236.4v5.3c0,0.8,0.2,1.2,0.9,1.2s0.9-0.5,0.9-1.3v-5.3
												c0-0.8-0.2-1.1-0.9-1.1C258.6,235.3,258.3,235.6,258.3,236.4z"/>
											<path class="st15" d="M267.8,236.5v5c0,1.6-0.5,2.9-2.6,2.9c-2,0-2.5-1.3-2.5-2.9v-4.9c0-1.8,0.8-2.9,2.6-2.9
												C267,233.8,267.8,234.8,267.8,236.5z M264.5,236.4v5.3c0,0.8,0.2,1.2,0.9,1.2c0.6,0,0.9-0.5,0.9-1.3v-5.3
												c0-0.8-0.2-1.1-0.9-1.1C264.8,235.3,264.5,235.6,264.5,236.4z"/>
											<path class="st15" d="M192.5,255.8v5c0,1.6-0.5,2.9-2.6,2.9c-2,0-2.5-1.3-2.5-2.9v-4.9c0-1.8,0.8-2.9,2.6-2.9
												C191.8,253,192.5,254,192.5,255.8z M189.1,255.6v5.3c0,0.8,0.2,1.2,0.9,1.2c0.6,0,0.9-0.5,0.9-1.3v-5.3
												c0-0.8-0.2-1.1-0.9-1.1C189.4,254.4,189.1,254.9,189.1,255.6z"/>
											<path class="st15" d="M194.3,263.4v-8.5c-0.3,0.1-0.9,0.1-1.1,0.1v-1.3c0.6-0.1,1.3-0.4,1.5-0.8h1.3v10.4H194.3z"/>
											<path class="st15" d="M198,263.4v-8.5c-0.3,0.1-0.9,0.1-1.1,0.1v-1.3c0.6-0.1,1.3-0.4,1.5-0.8h1.3v10.4H198z"/>
											<path class="st15" d="M206.1,255.8v5c0,1.6-0.5,2.9-2.6,2.9c-2,0-2.5-1.3-2.5-2.9v-4.9c0-1.8,0.8-2.9,2.6-2.9
												C205.4,253,206.1,254,206.1,255.8z M202.8,255.6v5.3c0,0.8,0.2,1.2,0.9,1.2c0.6,0,0.9-0.5,0.9-1.3v-5.3
												c0-0.8-0.2-1.1-0.9-1.1C203,254.4,202.8,254.9,202.8,255.6z"/>
											<path class="st15" d="M212.4,255.8v5c0,1.6-0.5,2.9-2.6,2.9c-2,0-2.5-1.3-2.5-2.9v-4.9c0-1.8,0.8-2.9,2.6-2.9
												C211.5,253,212.4,254,212.4,255.8z M208.9,255.6v5.3c0,0.8,0.2,1.2,0.9,1.2c0.6,0,0.9-0.5,0.9-1.3v-5.3
												c0-0.8-0.2-1.1-0.9-1.1C209.2,254.4,208.9,254.9,208.9,255.6z"/>
											<path class="st15" d="M218.5,255.8v5c0,1.6-0.5,2.9-2.6,2.9c-2,0-2.5-1.3-2.5-2.9v-4.9c0-1.8,0.8-2.9,2.6-2.9
												C217.7,253,218.5,254,218.5,255.8z M215.1,255.6v5.3c0,0.8,0.2,1.2,0.9,1.2s0.9-0.5,0.9-1.3v-5.3c0-0.8-0.2-1.1-0.9-1.1
												C215.4,254.4,215.1,254.9,215.1,255.6z"/>
											<path class="st15" d="M224.6,255.8v5c0,1.6-0.5,2.9-2.6,2.9c-2,0-2.5-1.3-2.5-2.9v-4.9c0-1.8,0.8-2.9,2.6-2.9
												C223.9,253,224.6,254,224.6,255.8z M221.3,255.6v5.3c0,0.8,0.2,1.2,0.9,1.2s0.9-0.5,0.9-1.3v-5.3c0-0.8-0.2-1.1-0.9-1.1
												C221.5,254.4,221.3,254.9,221.3,255.6z"/>
											<path class="st15" d="M226.4,263.4v-8.5c-0.3,0.1-0.9,0.1-1.1,0.1v-1.3c0.6-0.1,1.3-0.4,1.5-0.8h1.3v10.4H226.4z"/>
											<path class="st15" d="M236.8,255.8v5c0,1.6-0.5,2.9-2.6,2.9c-2,0-2.5-1.3-2.5-2.9v-4.9c0-1.8,0.8-2.9,2.6-2.9
												C236,253,236.8,254,236.8,255.8z M233.4,255.6v5.3c0,0.8,0.2,1.2,0.9,1.2c0.6,0,0.9-0.5,0.9-1.3v-5.3
												c0-0.8-0.2-1.1-0.9-1.1C233.6,254.4,233.4,254.9,233.4,255.6z"/>
											<path class="st15" d="M238.5,263.4v-8.5c-0.3,0.1-0.9,0.1-1.1,0.1v-1.3c0.6-0.1,1.3-0.4,1.5-0.8h1.3v10.4H238.5z"/>
											<path class="st15" d="M242.2,263.4v-8.5c-0.3,0.1-0.9,0.1-1.1,0.1v-1.3c0.6-0.1,1.3-0.4,1.5-0.8h1.3v10.4H242.2z"/>
											<path class="st15" d="M246,263.4v-8.5c-0.3,0.1-0.9,0.1-1.1,0.1v-1.3c0.6-0.1,1.3-0.4,1.5-0.8h1.3v10.4H246z"/>
											<path class="st15" d="M254.2,255.8v5c0,1.6-0.5,2.9-2.6,2.9c-2,0-2.5-1.3-2.5-2.9v-4.9c0-1.8,0.8-2.9,2.6-2.9
												C253.4,253,254.2,254,254.2,255.8z M250.8,255.6v5.3c0,0.8,0.2,1.2,0.9,1.2s0.9-0.5,0.9-1.3v-5.3c0-0.8-0.2-1.1-0.9-1.1
												C251,254.4,250.8,254.9,250.8,255.6z"/>
											<path class="st15" d="M255.9,263.4v-8.5c-0.3,0.1-0.9,0.1-1.1,0.1v-1.3c0.6-0.1,1.3-0.4,1.5-0.8h1.3v10.4H255.9z"/>
											<path class="st15" d="M264,255.8v5c0,1.6-0.5,2.9-2.6,2.9c-2,0-2.5-1.3-2.5-2.9v-4.9c0-1.8,0.8-2.9,2.6-2.9
												C263.3,253,264,254,264,255.8z M260.7,255.6v5.3c0,0.8,0.2,1.2,0.9,1.2c0.6,0,0.9-0.5,0.9-1.3v-5.3
												c0-0.8-0.2-1.1-0.9-1.1C261,254.4,260.7,254.9,260.7,255.6z"/>
											<path class="st15" d="M270.3,255.8v5c0,1.6-0.5,2.9-2.6,2.9c-2,0-2.5-1.3-2.5-2.9v-4.9c0-1.8,0.8-2.9,2.6-2.9
												C269.5,253,270.3,254,270.3,255.8z M266.8,255.6v5.3c0,0.8,0.2,1.2,0.9,1.2s0.9-0.5,0.9-1.3v-5.3c0-0.8-0.2-1.1-0.9-1.1
												C267.1,254.4,266.8,254.9,266.8,255.6z"/>
										</g>
									</g>
									<g>
										<path class="st1" d="M210.9,191.9c-2,0.6-4,1.2-5.9,1.9s-3.7,1.4-5.5,2.3c-3.6,1.6-6.8,3.6-9.6,6.1
											c-1.5,1.2-2.8,2.5-4.1,3.9c-0.6,0.7-1.3,1.4-1.9,2.2c-0.4,0.3-0.5,0.8-0.9,1.2c-0.3,0.4-0.6,0.8-0.9,1.2
											c-2.3,3.2-4.1,6.8-6.1,10.6l-0.4-0.1c0.2-1,0.5-2,0.8-3l0.5-1.5c0.1-0.5,0.3-1,0.5-1.5c0.4-0.9,0.8-1.9,1.2-2.9
											c0.2-0.5,0.4-1,0.6-1.4l0.8-1.4c1-1.8,2.1-3.6,3.5-5.3c1.3-1.6,2.8-3.1,4.4-4.5c3.2-2.6,7-4.8,10.9-6
											c3.9-1.4,8.1-2.1,12.3-2L210.9,191.9z"/>
									</g>
									<path class="st16" d="M189.9,328.6c1.6,1.9,3.4,2.6,4.9,4.5c6.1,7.9,133.5,0.5,133.5,0.5s1.6-1.7,2.5-4.9L189.9,328.6z"/>
									<path class="st16" d="M191.1,345.3c0.4,2,2.8,3.5,4.3,5.7c6.1,9.5,132.5,0.3,132.5,0.3s4.7-2.3,5.5-6.3L191.1,345.3z"/>
									<path class="st1" d="M192.6,331.4c0,0-6.1,7.5,0,17c6.1,9.5,135.6,0,135.6,0s7.5-11.7,0-17H192.6z"/>
									<path class="st6" d="M444.3,470.4c-10.4-29.5-31.1-59.5-49-81.6c-25.1-31.3-72.4-19.8-89.4,21.8c-0.1,0.4-0.3,0.7-0.4,1
										c-4.6,11.5-3.4,24.5,3.3,33.5l39.1,52.9c4.3,5.9,2.3,15.4-4.1,19.2c-19.1,11.5-54.2,36-69.6,68.2c-0.3,0.5-0.5,1-0.8,1.6
										C347,577.9,409.7,533.1,444.3,470.4z"/>
									<path class="st7" d="M174.9,454.9v-48.8c0-14.6,11.9-26.5,26.4-26.5h60.1c14.5,0,26.4,11.9,26.4,26.5v48.8
										c0,14.6-11.9,26.5-26.4,26.5h-60.1C186.6,481.5,174.9,469.5,174.9,454.9z"/>
									<path class="st6" d="M253.4,481.5h-58.7c-14.5,0-26.4-11.9-26.4-26.5v-48.8c0-14.6,11.9-26.5,26.4-26.5h58.7
										c14.5,0,26.4,11.9,26.4,26.5v48.8C279.8,469.5,268,481.5,253.4,481.5z"/>
									<ellipse class="st17" cx="251.7" cy="402.7" rx="7.4" ry="8.4"/>
									<ellipse class="st18" cx="249.8" cy="402.7" rx="7.4" ry="8.4"/>
									<rect x="191.5" y="394.5" class="st19" width="37.5" height="14.9"/>
									<rect x="191.5" y="394.5" class="st20" width="32.6" height="14.9"/>
									<ellipse class="st21" cx="198.3" cy="401.9" rx="2.8" ry="2.8"/>
									<ellipse class="st15" cx="207.8" cy="401.9" rx="2.8" ry="2.8"/>
									<ellipse class="st1" cx="217.7" cy="401.9" rx="2.8" ry="2.8"/>
									<path class="st6" d="M348.4,548.5c0,18.6-44,33.8-98.2,33.8S152,567.2,152,548.5"/>
									<g>
										<g>
											<g>
												<polygon id="XMLID_7_" points="281.5,579.5 319.8,555.3 133.4,552.8 96.7,575 												"/>
											</g>
											<g>
												<g>
													<defs>
														<polygon id="SVGID_11_" points="281.5,579.5 319.8,555.3 133.4,552.8 96.7,575 														"/>
													</defs>
													<clipPath id="SVGID_12_">
														<use xlink:href="#SVGID_11_"  style="overflow:visible;"/>
													</clipPath>
													<polygon class="st22" points="221.1,625 112,615.2 112.5,606.7 221.6,616.5 													"/>
												</g>
											</g>
											<g>
												<g>
													<g>
														<path id="XMLID_6_" class="st23" d="M285.5,580.3l-210.3-2.5c-3.8,0-6.8-3.3-6.8-7.3l1.3-130.9
															c0.1-12.6,10-22.8,22.1-22.6l180.4,2.1c12.1,0.1,21.8,10.5,21.6,23.1L292.5,573C292.5,577.1,289.3,580.3,285.5,580.3z
															"/>
													</g>
													<g>
														<g>
															<defs>
																<path id="SVGID_13_" d="M285.5,580.3l-210.3-2.5c-3.8,0-6.8-3.3-6.8-7.3l1.3-130.9c0.1-12.6,10-22.8,22.1-22.6
																	l180.4,2.1c12.1,0.1,21.8,10.5,21.6,23.1L292.5,573C292.5,577.1,289.3,580.3,285.5,580.3z"/>
															</defs>
															<clipPath id="SVGID_14_">
																<use xlink:href="#SVGID_13_"  style="overflow:visible;"/>
															</clipPath>
															<polygon class="st24" points="161,373.5 17.3,505.3 40.6,534 184.4,402.1 															"/>
														</g>
														<g>
															<g>
																<defs>
																	<path id="SVGID_15_" d="M285.5,580.3l-210.3-2.5c-3.8,0-6.8-3.3-6.8-7.3l1.3-130.9c0.1-12.6,10-22.8,22.1-22.6
																		l180.4,2.1c12.1,0.1,21.8,10.5,21.6,23.1L292.5,573C292.5,577.1,289.3,580.3,285.5,580.3z"/>
																</defs>
																<clipPath id="SVGID_16_">
																	<use xlink:href="#SVGID_15_"  style="overflow:visible;"/>
																</clipPath>
																<polygon class="st25" points="230.4,381.4 39.2,556.6 62.5,585.3 253.6,410.1 																"/>
															</g>
														</g>
														<g>
															<path class="st1" d="M179.9,422.2v-0.1l-58.8,45.3l0.3,3.5c0.1,0.9,1.6,21.8,8.4,43.1c4.1,12.9,9.1,23.3,15.1,30.8
																c8.1,10.3,17.8,15.5,28.7,15.7l5.8,0l0,0l6,0.1c11,0.2,20.7-4.8,28.9-14.8c6-7.4,11.1-17.6,15.3-30.4
																c6.9-21.1,8.6-42,8.6-43l0.3-3.5L179.9,422.2z"/>
															<path class="st15" d="M230.6,471.9l-50.6-37v-0.1l-0.1,0.1l-0.1-0.1v0.1l-50.5,35.5c0,0,6.8,82.8,50.1,83.9l0,0
																c0.1,0,0.1,0,0.3,0c0,0,0,0,0.1,0l0,0C223.3,554.5,230.6,471.9,230.6,471.9z"/>
															<g>
																<g>
																	<path class="st1" d="M157.8,511.3c0-0.1-0.1-0.3-0.4-0.1c0-0.1,0-0.1-0.1-0.3c0.9-0.1,1.3-0.1,2.1-0.3
																		c0,0.1,0,0.1,0,0.3c0,0-0.1,0-0.1,0c0,0,0,0.1,0,0.1c0.3,2.3,0.4,3.5,0.6,5.8c0,0,0,0.1,0.1,0.2c0,0,0.1,0,0.1,0
																		c0,0.1,0,0.1,0,0.3c-0.9,0.1-1.2,0.1-2,0.3c0-0.1,0-0.1-0.1-0.3c0.1,0,0.3-0.1,0.3-0.3c-0.1-1-0.1-1.5-0.3-2.5
																		c-1.7,0.3-2.5,0.3-4.3,0.6c0.1,1,0.2,1.5,0.4,2.5c0,0,0.1,0.1,0.1,0.2c0.1,0,0.1,0,0.1,0c0,0.1,0,0.1,0.1,0.3
																		c-0.8,0.1-1.1,0.1-2,0.3c0-0.1,0-0.1-0.1-0.3c0.1,0,0.2-0.1,0.2-0.3c-0.4-2.3-0.5-3.5-0.9-5.9
																		c0-0.1-0.1-0.2-0.3-0.1c0-0.1,0-0.1,0-0.3c0.9-0.1,1.2-0.1,2-0.3c0,0.1,0,0.1,0.1,0.3c-0.1,0-0.1,0-0.1,0
																		c-0.1,0-0.1,0.1-0.1,0.1c0.1,0.9,0.1,1.4,0.4,2.2c1.7-0.3,2.6-0.3,4.3-0.6C157.9,512.5,157.9,512.1,157.8,511.3z"
																		/>
																	<path class="st1" d="M165.7,516.6c0.1,0,0.2-0.1,0.3-0.1c0-0.1,0.1-0.3,0.1-0.4c0.9-2.1,1.2-3.1,2.1-5.2
																		c0-0.1,0.1-0.3,0.1-0.4s0-0.1,0-0.3c0,0,0-0.1-0.1-0.1c0,0-0.1,0-0.2,0c0-0.1,0-0.1,0-0.3c0.9,0,1.4,0,2.3-0.1
																		c0,0.1,0,0.1,0,0.3c-0.1,0-0.1,0-0.1,0c-0.1,0-0.1,0.1-0.1,0.1s0,0.1,0,0.3c0.1,0,0.1,0.1,0.1,0.3
																		c1.2,2,1.8,3,3.1,5.1c0,0.1,0.1,0.1,0.1,0.1c0,0,0.1,0,0.3,0.1c0,0.1,0,0.1,0,0.3c-0.9,0-1.4,0-2.3,0.1
																		c0-0.1,0-0.1,0-0.3c0,0,0,0,0.1,0c0,0,0,0,0-0.1s0-0.2-0.1-0.4c-0.2-0.3-0.4-0.6-0.5-0.9c-1.3,0-2,0.1-3.2,0.1
																		c-0.1,0.4-0.2,0.6-0.4,0.9c0,0.1-0.1,0.3-0.1,0.4c0,0.1,0.1,0.1,0.3,0.1c0,0.1,0,0.1,0,0.3c-0.7,0-1.1,0-1.9,0.1
																		C165.7,516.8,165.7,516.7,165.7,516.6z M170.5,513.9c-0.5-0.9-0.8-1.4-1.3-2.3c-0.5,1-0.6,1.5-1.1,2.5
																		C169,514,169.5,514,170.5,513.9z"/>
																	<path class="st1" d="M186.6,515.5L186.6,515.5h-0.1c-0.1,0-0.1,0-0.4,0.1c-0.2,0.1-0.5,0.3-0.8,0.4
																		c-0.4,0.1-0.6,0.3-1.1,0.3c-0.4,0-0.8,0.1-1.2,0.1c-0.6,0-1.1,0-1.6-0.3c-0.5-0.1-1-0.3-1.4-0.6s-0.7-0.7-1-1.1
																		c-0.2-0.4-0.4-0.9-0.4-1.5c0-0.6,0.1-1.1,0.4-1.5c0.2-0.5,0.6-0.8,1-1.1c0.4-0.3,0.9-0.5,1.4-0.6
																		c0.5-0.1,1-0.3,1.6-0.1c0.4,0,0.9,0,1.3,0.1c0.4,0,0.7,0.1,1,0.3c0.3,0,0.5,0.1,0.6,0.3c0.1,0,0.3,0.1,0.3,0.1
																		c0.1,0,0.1,0,0.1,0c0.1,0,0.1,0,0.1-0.1c0,0,0.1,0.1,0.2,0.1c-0.4,0.6-0.6,0.9-1.1,1.5c0,0,0,0-0.1-0.1v-0.1
																		c0,0,0,0,0-0.1c0-0.1-0.1-0.1-0.3-0.3c-0.1-0.1-0.4-0.1-0.6-0.3c-0.2,0-0.5-0.1-0.8-0.3c-0.3,0-0.5-0.1-0.7-0.1
																		c-0.4,0-0.7,0-1.1,0.1c-0.4,0.1-0.6,0.3-0.9,0.5c-0.3,0.1-0.4,0.5-0.6,0.8c-0.1,0.3-0.2,0.6-0.2,1
																		c0,0.4,0,0.7,0.2,1s0.4,0.5,0.6,0.8c0.3,0.2,0.6,0.4,0.9,0.5c0.4,0.1,0.7,0.2,1.1,0.2c0.3,0,0.5,0,0.9,0
																		c0.3,0,0.6-0.1,0.9-0.3c0.3-0.1,0.5-0.2,0.6-0.4c0.1-0.1,0.3-0.3,0.3-0.3c0,0,0-0.1,0-0.2c0,0,0.1,0,0.1-0.1
																		c0.4,0.6,0.5,0.8,0.9,1.4C186.7,515.5,186.6,515.5,186.6,515.5z"/>
																	<path class="st1" d="M194.4,516.4c0,0,0,0.1,0.1,0.2c0,0,0.1,0,0.1,0c0,0.1,0,0.1,0,0.3c-0.9,0-1.2-0.1-2.1-0.2
																		c0-0.1,0-0.1,0-0.3c0.1,0,0.3,0,0.3-0.3c0.1-2.3,0.2-3.5,0.4-5.9c0-0.1-0.1-0.3-0.3-0.3c0-0.1,0-0.1,0-0.3
																		c0.9,0,1.3,0.1,2.1,0.1c0,0.1,0,0.1,0,0.3c0,0-0.1,0-0.1,0s-0.1,0.1-0.1,0.1c0,1-0.1,1.5-0.1,2.5
																		c1.1-0.8,1.8-1.1,3-1.9c0.1-0.1,0.2-0.1,0.4-0.3c0,0,0.1-0.1,0.1-0.1s0-0.1-0.1-0.1c0,0-0.1,0-0.1,0
																		c0-0.1,0-0.1,0-0.3c1.1,0.1,1.7,0.1,2.8,0.3c0,0.1,0,0.1,0,0.3c-0.1,0-0.4,0-0.5,0.1c-1.4,0.8-2,1.2-3.3,2
																		c1,1.3,1.5,2,2.5,3.4c0.1,0.1,0.2,0.3,0.4,0.4c0.1,0.1,0.3,0.3,0.5,0.3c0,0.1,0,0.1,0,0.3c-1-0.1-1.5-0.2-2.5-0.3
																		c0-0.1,0-0.1,0-0.3c0.1,0,0.1,0,0.1,0s0-0.1-0.1-0.3c-0.9-1.1-1.2-1.7-2-2.8c-0.5,0.3-0.7,0.5-1.1,0.8
																		C194.5,515.3,194.5,515.6,194.4,516.4z"/>
																	<path class="st1" d="M206.3,516c0,0,0,0,0.1,0c0,0,0,0.1,0,0.3c0,0.1,0.1,0.3,0.4,0.3c0.1,0.1,0.4,0.3,0.6,0.4
																		c0.2,0.1,0.5,0.3,0.7,0.3c0.2,0,0.5,0.1,0.6,0.1s0.4,0,0.5,0c0.2,0,0.5,0,0.7,0c0.2,0,0.5-0.1,0.6-0.1
																		c0.1-0.1,0.3-0.3,0.4-0.4c0-0.1,0-0.3-0.1-0.5c-0.1-0.1-0.4-0.3-0.5-0.3c-0.2,0-0.5-0.1-0.9-0.3
																		c-0.4,0-0.6-0.1-1-0.3c-0.4,0-0.6-0.1-1-0.3c-0.4-0.1-0.6-0.3-0.9-0.4c-0.2-0.2-0.5-0.4-0.5-0.7
																		c-0.1-0.3-0.1-0.6-0.1-1c0-0.3,0.1-0.5,0.3-0.8c0.1-0.3,0.4-0.5,0.6-0.6c0.3-0.1,0.6-0.3,1.1-0.4c0.5,0,1,0,1.5,0
																		c0.5,0,0.9,0.1,1.2,0.3c0.4,0.1,0.6,0.3,0.9,0.3c0.2,0.1,0.5,0.3,0.6,0.4c0.1,0.1,0.4,0.1,0.5,0.1s0.2,0,0.3,0
																		c0,0,0.1,0,0.1,0.1c-0.5,0.6-0.7,0.8-1.1,1.5c0,0,0,0-0.1,0c0-0.1,0-0.3,0-0.3c0-0.1-0.1-0.3-0.4-0.4
																		c-0.1-0.1-0.4-0.3-0.5-0.3c-0.2-0.1-0.5-0.3-0.7-0.3s-0.5-0.2-0.8-0.2c-0.2,0-0.4,0-0.6,0s-0.4,0-0.6,0
																		c-0.1,0-0.4,0.1-0.5,0.2s-0.2,0.1-0.2,0.3c0,0.3,0,0.4,0.1,0.5c0.1,0.1,0.4,0.3,0.6,0.4c0.2,0.1,0.5,0.1,0.9,0.3
																		c0.4,0,0.6,0.1,1,0.3c0.4,0,0.6,0.1,1,0.3c0.4,0.1,0.6,0.3,0.9,0.5c0.2,0.1,0.4,0.4,0.5,0.7c0.1,0.3,0.1,0.6,0.1,1
																		c0,0.5-0.2,0.8-0.5,1c-0.3,0.3-0.6,0.4-1,0.5c-0.4,0.1-0.8,0.1-1.2,0.1s-0.9,0-1.1-0.1c-0.5,0-0.9-0.2-1.2-0.3
																		c-0.4-0.1-0.6-0.3-0.9-0.4c-0.2-0.1-0.4-0.3-0.5-0.3s-0.2-0.1-0.4-0.1c0,0-0.1,0-0.1,0c0,0-0.1,0-0.1-0.1
																		C205.7,517,205.9,516.6,206.3,516z"/>
																</g>
															</g>
															<g>
																<g>
																	<path class="st1" d="M164.2,531.8c-0.4-1-0.5-1.5-0.9-2.5c1.5-0.5,2.3-0.7,3.8-1.1c0.1,1,0.3,1.5,0.5,2.7
																		c0,1.6,0.1,2.5,0.3,4.1c-0.7,0.2-1.1,0.3-1.8,0.5C165.3,534,165,533.3,164.2,531.8z"/>
																	<path class="st1" d="M172.6,538.8c1.1-0.2,1.7-0.3,2.9-0.4c-0.3-3-0.4-4.5-0.6-7.4c-1.1,0.1-1.7,0.1-2.9,0.3
																		c-0.1-0.8-0.1-1.1-0.3-1.8c1.6-0.5,2.8-1,3.9-1.5c1.1,0,1.6-0.1,2.8-0.1c0,4.2,0.1,6.3,0.1,10.4c1,0,1.5,0,2.5,0
																		c-0.1,1-0.1,1.5-0.1,2.3c-3.1-0.1-4.8-0.1-7.9,0.4C172.9,540.1,172.8,539.7,172.6,538.8z"/>
																	<path class="st1" d="M183.1,537.5c0.1-1.5,1.3-2.4,2.7-2.8c0,0,0,0,0,0c-1-0.9-1.8-1.9-1.6-3.3
																		c0.2-2.2,2.6-3.3,5.6-2.6c3,0.7,4.5,2.7,3.9,4.8c-0.4,1.2-1.5,1.8-2.6,2.1c0,0,0,0,0,0c1.1,1,2,2.3,1.5,4
																		c-0.6,1.9-2.8,2.7-5.3,2.1C184.6,541.3,182.9,539.6,183.1,537.5z M189.5,538.6c0.3-1.1-0.8-1.8-2.4-2.8
																		c-0.7,0.3-1.3,1-1.4,1.8c-0.1,1.1,0.6,1.9,1.7,2.1C188.4,540,189.4,539.7,189.5,538.6z M190.8,532.9
																		c0.2-1-0.4-1.8-1.5-2.1c-1-0.3-1.8,0.1-2,1.1c-0.1,1,0.8,1.7,2.1,2.5C190.1,534,190.6,533.5,190.8,532.9z"/>
																</g>
															</g>
															<g>
																<g>
																	<path class="st1" d="M153.4,494.6c0.2,0.9,0.4,1.3,0.5,2.1c0.6,2.6,1.8,3.8,4.1,3.4c2.3-0.5,2.5-2.6,2.1-4.9
																		c-0.7-3.8-1.8-4.9-7-6.8c-5.3-1.9-8.3-3-10-8c-2-6,2.8-10.9,8.2-12.1c5-1.1,11.1,0.5,11.8,6.7
																		c0.1,0.8,0.1,1.1,0.2,1.9c-2.8,0.4-4.3,0.6-7,1.1c-0.1-0.7-0.2-1-0.4-1.8c-0.5-2.5-1.4-3.9-3.8-3.4
																		c-2.5,0.5-2.6,2.3-2.1,4.5c0.6,2.5,1.5,3.5,5.9,4.9c5.2,1.5,9.7,5,10.2,10.8c0.5,4.9-0.6,9.9-7.4,11.4
																		c-6.7,1.5-9.5-1.8-10.9-6.3c-0.3-0.8-0.4-1.2-0.6-2C149.6,495.6,150.9,495.3,153.4,494.6z"/>
																	<path class="st1" d="M167.6,466.5c4.1-0.4,6.2-0.5,10.4-0.5c5.1-0.4,12.3,2,11.4,8.8c0,0.5,0,0.8-0.1,1.4
																		c-0.4,5.1-2.7,6.4-4.7,6.9c1.9,0.8,4.8,2.4,4.3,7.6c-0.1,1.1-0.1,1.6-0.2,2.7c-0.6,6-3.4,8.8-9.9,8.8
																		c-3.3,0-4.9,0-8.1,0.3C169.6,490.5,168.6,478.5,167.6,466.5z M177.3,480.8c3.9,0,5.1-0.9,5.1-4.5
																		c0-0.6,0-0.9,0.1-1.4c0-3-1.4-4.2-4.9-4.2c-1,0-1.4,0-2.3,0c0.1,4,0.1,6,0.4,10.1
																		C176.3,480.8,176.6,480.8,177.3,480.8z M176,497.6c0.8,0,1.2,0,2,0c3.4,0,4.4-1.4,4.5-4.8c0-1,0-1.5,0-2.5
																		c0.1-3.5-0.9-5.1-5.2-5.1c-0.6,0-1.1,0-1.7,0C175.8,490.2,175.9,492.6,176,497.6z"/>
																	<path class="st1" d="M203.6,468.8c-1.6,9-3.3,17.9-5,26.9c-0.5,2.6,0.1,4.2,2.5,4.8c2.3,0.6,3.5-0.8,4-3.2
																		c2.2-8.9,4.4-17.6,6.6-26.5c3,0.9,4.5,1.4,7.5,2.5c-2.7,8.6-5.4,17.2-8.1,25.9c-1.7,5.4-5.3,7.7-11.3,6.2
																		c-5.8-1.5-8.2-4.8-7.4-10.9c1.1-9,2.3-18,3.4-27C199,467.8,200.5,468.1,203.6,468.8z"/>
																</g>
															</g>
															<path class="st26" d="M124.5,471.4c0,0,7.8,87.4,53.9,85.7"/>
															<polyline class="st27" points="178.3,555.2 181,557.3 178.3,559 															"/>
															<path class="st26" d="M228.9,503c0,0,6.1-17,5.9-33.5l-54.8-41.9l-13.5,10.3"/>
															<polyline class="st27" points="168.2,439.3 164.6,440 165.4,436.3 															"/>
															<path class="st28" d="M150.4,483.2"/>
															<path class="st29" d="M151.3,483.6"/>
															<path class="st29" d="M156.1,486.1"/>
															<ellipse class="st30" cx="159.6" cy="476" rx="0.4" ry="0.5"/>
															<ellipse class="st30" cx="150.8" cy="497.1" rx="0.4" ry="0.5"/>
															<ellipse class="st30" cx="199.1" cy="470.7" rx="0.4" ry="0.5"/>
															<ellipse class="st30" cx="215" cy="474.3" rx="0.5" ry="0.5"/>
															<ellipse class="st30" cx="169.3" cy="467.8" rx="0.4" ry="0.5"/>
															<ellipse class="st30" cx="171.6" cy="501.1" rx="0.4" ry="0.5"/>
															<ellipse class="st30" cx="170.8" cy="483.9" rx="0.4" ry="0.5"/>
															<ellipse class="st30" cx="200.4" cy="503.8" rx="0.4" ry="0.5"/>
														</g>
													</g>
												</g>
												<g class="st31">
													<path class="st1" d="M334.4,232.9c-1.9,1.4-3.6,2.8-5.1,4.5c-1.5,1.6-2.7,3.4-3.5,5.4c-0.9,1.9-1.3,4-1.3,6.3
														c0,2.2,0.2,4.4,0.6,6.8c-1.3-2-2-4.3-2.4-6.6c-0.3-2.4,0-5,1-7.2s2.5-4.3,4.4-5.8C330,234.5,332,233.4,334.4,232.9z"/>
												</g>
												<g>
													<path class="st1" d="M344.5,244.3c0.9,0.4,1.6,1.1,2.2,1.9c0.5,0.9,0.9,1.8,0.9,2.9c0,1-0.3,2.1-0.9,3
														c-0.1,0.3-0.3,0.4-0.5,0.5c-0.1,0.1-0.4,0.4-0.5,0.5c-0.4,0.3-0.8,0.6-1.3,0.8c0.1-0.4,0.4-0.9,0.5-1.3
														c0.1-0.4,0.4-0.8,0.5-1.2c0.3-0.8,0.4-1.5,0.4-2.3s-0.1-1.5-0.5-2.3C345.3,246,344.9,245.2,344.5,244.3z"/>
												</g>
												<g>
													<path class="st1" d="M340.9,284.7c0.9,0.4,1.6,1.1,2.2,1.9c0.5,0.9,0.9,1.8,0.9,2.9c0,1-0.3,2.1-0.9,3
														c-0.1,0.3-0.3,0.4-0.5,0.5c-0.1,0.1-0.4,0.4-0.5,0.5c-0.4,0.3-0.8,0.6-1.3,0.8c0.1-0.4,0.4-0.9,0.5-1.3
														c0.1-0.4,0.4-0.8,0.5-1.2c0.3-0.8,0.4-1.5,0.4-2.3s-0.1-1.5-0.5-2.3C341.6,286.4,341.3,285.5,340.9,284.7z"/>
												</g>
												<g>
													<path class="st1" d="M330.3,279.4c-1.1,1.1-2,2.3-2.8,3.6c-0.8,1.3-1.3,2.6-1.5,4c-0.1,0.4-0.1,0.8-0.1,1
														c0,0.1,0,0.4,0,0.5v0.6c0,0.4,0,0.8,0,1c0,0.3,0,0.8,0,1.1s0,0.8,0.1,1.1l0.1,1.1c0.1,0.8,0.4,1.5,0.4,2.3
														c-0.5-0.7-0.9-1.4-1.2-2.1l-0.5-1.1c-0.1-0.4-0.3-0.8-0.4-1.2c0-0.4-0.1-0.8-0.2-1.2c0-0.4,0-0.8,0-1.3v-0.6
														c0-0.3,0-0.4,0-0.6c0-0.4,0-0.9,0.1-1.3c0.4-1.6,1-3.1,2.1-4.4C327.5,281,328.8,280,330.3,279.4z"/>
												</g>
												<g>
													<path class="st1" d="M253.1,398.4c0.9,0.4,1.6,1,2.2,1.9c0.5,0.9,0.9,1.8,0.9,2.9c0,1-0.3,2.1-0.9,3
														c-0.1,0.3-0.3,0.4-0.5,0.5c-0.1,0.1-0.4,0.4-0.5,0.5c-0.4,0.3-0.8,0.5-1.3,0.8c0.1-0.5,0.4-0.9,0.5-1.3
														c0.1-0.5,0.4-0.8,0.5-1.2c0.3-0.8,0.4-1.5,0.4-2.3s-0.1-1.5-0.5-2.3C253.9,400,253.5,399.3,253.1,398.4z"/>
												</g>
												<polygon class="st1" points="82.3,230.6 83.7,226.8 80.1,229.1 77,226.5 76.8,226.4 76.9,226.4 76.8,226.4 76.9,226.6 
													78.1,230.4 74.4,232.7 78.7,233 80,237 81.4,233.1 85.6,233.4 												"/>
												<polygon class="st1" points="136.5,181.4 133.2,178.7 134.6,174.8 130.9,177.1 127.7,174.5 127.6,174.3 127.6,174.4 
													127.6,174.4 127.7,174.4 128.9,178.4 125.2,180.8 129.5,181 130.8,185 132.3,181.3 												"/>
												<g>
													<polygon class="st1" points="189.4,143.3 190.7,147.3 187,149.7 191.4,149.9 192.6,153.9 194.1,150.1 													"/>
													<polygon class="st1" points="189.4,143.3 192.8,146 196.4,143.8 195,147.6 198.3,150.3 194,150.1 													"/>
												</g>
												<polygon class="st1" points="55.8,294.4 57.2,290.4 53.5,292.8 50.4,290.3 50.3,290 50.3,290.1 50.2,290 50.4,290.3 
													51.5,294 47.9,296.4 52.1,296.6 53.4,300.6 54.9,296.8 59.1,297 												"/>
											</g>
										</g>
									</g>
								</g>
							</g>
						</g>
					</g>
				</g>
			</g>
		</g>
	</g>
</g>
</svg>
